<?xml version="1.0" encoding="iso-8859-1"?>
<!-- Generator: Adobe Illustrator 19.0.0, SVG Export Plug-In . SVG Version: 6.00 Build 0)  -->
<svg version="1.1" id="Capa_1" xmlns="http://www.w3.org/2000/svg" xmlns:xlink="http://www.w3.org/1999/xlink" x="0px" y="0px"
	 viewBox="0 0 511.996 511.996" style="enable-background:new 0 0 511.996 511.996;" xml:space="preserve">
<path style="fill:#F6B545;" d="M207.726,7.003c-34.269,0-62.148,27.879-62.148,62.147v59.821v50.097h37.083v-45.434l-0.024-0.048
	V69.151c0-13.834,11.255-25.089,25.089-25.089c13.834,0,25.089,11.255,25.089,25.089v53.663v50.292h37.059v-56.158V69.151
	C269.873,34.882,241.994,7.003,207.726,7.003z"/>
<path style="fill:#F79F34;" d="M207.726,28.982c-25.514,0-46.27,20.756-46.27,46.27v44.538v37.298h21.206v-23.455l-0.024-0.048
	V69.151c0-13.834,11.255-25.089,25.089-25.089c13.834,0,25.089,11.255,25.089,25.089v53.663v29.837h21.181v-41.811V75.253
	C253.996,49.74,233.239,28.982,207.726,28.982z"/>
<path style="fill:#B2B2C1;" d="M345.37,143.682h-12.642c-0.5-1.385-1.054-2.726-1.65-3.998l8.926-8.927
	c1.674-1.669,2.595-3.89,2.595-6.254c0-2.354-0.915-4.568-2.586-6.244l-10.416-10.417c-1.668-1.665-3.884-2.582-6.242-2.582
	c-2.364,0-4.586,0.922-6.246,2.587l-8.935,8.935c-1.272-0.596-2.613-1.149-3.998-1.65v-12.642c0-4.87-3.962-8.833-8.833-8.833
	h-14.723c-4.87,0-8.833,3.963-8.833,8.833v12.642c-1.385,0.501-2.729,1.056-3.998,1.65l-8.926-8.926
	c-1.669-1.674-3.89-2.596-6.254-2.596c-2.359,0-4.577,0.918-6.246,2.587l-10.411,10.411c-1.669,1.669-2.587,3.887-2.587,6.245
	c0,2.359,0.918,4.577,2.587,6.247l8.938,8.937c-0.303,0.686-1.083,2.59-3.4,8.862l-3.132,8.483l8.8,2.079
	c7.938,1.876,15.626,4.52,22.979,7.857l-4.235-1.942l0.002-5.407c0.14-12.055,9.991-21.821,22.078-21.821
	c12.175,0,22.079,9.904,22.079,22.08c0,7.824-4.198,15.131-10.955,19.07l-4.429,2.582l-3.653-2.562
	c11.205,7.946,21.157,17.728,29.379,29.046l5.509,7.581l14.116-14.116c1.657-1.668,2.569-3.88,2.569-6.229
	c0-2.359-0.918-4.578-2.587-6.247l-8.934-8.934c0.595-1.272,1.15-2.613,1.65-3.998h12.642c4.87,0,8.833-3.963,8.833-8.833v-14.723
	C354.203,147.645,350.24,143.682,345.37,143.682z"/>
<g>
	<polygon style="fill:#F6B545;" points="400.574,323.382 344.478,323.382 344.478,365.093 400.574,365.093 410.115,365.093 
		410.115,323.382 	"/>
	<polygon style="fill:#F6B545;" points="400.574,364.092 344.478,364.092 344.478,405.803 400.574,405.803 410.115,405.803 
		410.115,364.092 	"/>
</g>
<g>
	<polygon style="fill:#F79F34;" points="344.478,345.56 344.478,365.093 400.574,365.093 410.115,365.093 410.115,345.56 
		400.574,345.56 	"/>
	<polygon style="fill:#F79F34;" points="344.478,386.27 344.478,405.803 400.574,405.803 410.115,405.803 410.115,386.27 
		400.574,386.27 	"/>
</g>
<g>
	<path style="fill:#F19920;" d="M410.115,365.093c-7.973,0-14.459-6.485-14.459-14.458V337.84c0-7.973,6.486-14.458,14.459-14.458
		c7.973,0,14.459,6.485,14.459,14.458v12.795C424.573,358.607,418.088,365.093,410.115,365.093z"/>
	<path style="fill:#F19920;" d="M410.115,405.803c-7.973,0-14.459-6.485-14.459-14.458v-12.795c0-7.973,6.486-14.458,14.459-14.458
		c7.973,0,14.459,6.485,14.459,14.458v12.795C424.573,399.317,418.088,405.803,410.115,405.803z"/>
</g>
<path style="fill:#F6B545;" d="M153.908,504.997c-15.496,0-28.104-12.607-28.104-28.103l0.001-143.646l41.711,17.374v108.302
	c0,2.409,1.953,4.363,4.363,4.363h34.684v41.71H153.908z"/>
<path style="fill:#F79F34;" d="M173.927,487.037c-15.496,0-28.104-12.607-28.104-28.103l0.001-117.347l-20.019-8.338l-0.001,143.646
	c0,15.496,12.608,28.103,28.104,28.103h52.655v-17.96h-32.636V487.037z"/>
<path style="fill:#F19920;" d="M206.563,504.997c-7.973,0-14.459-6.485-14.459-14.458v-12.795c0-7.973,6.486-14.458,14.459-14.458
	c7.972,0,14.458,6.485,14.458,14.458v12.795C221.02,498.511,214.534,504.997,206.563,504.997z"/>
<path style="fill:#B73939;" d="M241.564,439.534c-70.243,0-127.391-57.147-127.391-127.39v-88.147l3.363-2.393
	c0.905-0.645,1.751-1.358,2.516-2.122l58.881-58.881c0.752-0.752,1.444-1.575,2.111-2.513l2.393-3.365h34.652
	c70.244,0,127.391,57.147,127.391,127.391v129.674c0,15.299-12.447,27.746-27.747,27.746H241.564z"/>
<path style="fill:#AA3030;" d="M270.156,386.446c-70.243,0-127.391-57.147-127.391-127.39v-62.287l-22.713,22.713
	c-0.764,0.764-1.611,1.478-2.516,2.122l-3.363,2.393v88.147c0,70.243,57.147,127.39,127.391,127.39h76.169
	c15.299,0,27.747-12.447,27.747-27.746v-25.342H270.156z"/>
<path style="fill:#288EA5;" d="M107.084,225.964c-2.582,0-5.142-0.519-7.609-1.541c-7.434-3.08-12.053-9.993-12.053-18.041v-27.422
	c0-28.116,22.872-50.988,50.987-50.988h27.423c8.048,0,14.962,4.619,18.042,12.055c3.08,7.437,1.458,15.592-4.234,21.282
	l-58.881,58.882C117.037,223.914,112.18,225.964,107.084,225.964z"/>
<circle style="fill:#167989;" cx="129.796" cy="166.856" r="12.214"/>
<g>
	<path style="fill:#F6B545;" d="M180.973,279.02c-7.33,0-13.295-5.965-13.295-13.295s5.964-13.295,13.295-13.295
		s13.295,5.965,13.295,13.295S188.304,279.02,180.973,279.02z"/>
	<path style="fill:#F6B545;" d="M239.131,253.429c-7.331,0-13.295-5.965-13.295-13.295c0-7.33,5.964-13.295,13.295-13.295
		c7.33,0,13.295,5.965,13.295,13.295C252.426,247.464,246.462,253.429,239.131,253.429z"/>
</g>
<path style="fill:#25D887;" d="M242.126,379.051c-7.699,0-13.963-6.264-13.963-13.963v-47.516c0-7.699,6.264-13.963,13.963-13.963
	h47.516c7.699,0,13.963,6.264,13.963,13.963v47.516c0,7.699-6.264,13.963-13.963,13.963H242.126z"/>
<path style="fill:#068947;" d="M276.88,356.982h-21.991c-2.572,0-4.657-2.085-4.657-4.657v-21.991c0-2.572,2.085-4.657,4.657-4.657
	h21.991c2.572,0,4.657,2.085,4.657,4.657v21.991C281.537,354.897,279.452,356.982,276.88,356.982z"/>
<path d="M431.577,337.84c0-11.574-9.216-21.013-20.692-21.422c-0.253-0.026-0.509-0.039-0.768-0.039h-57.633v-34.264
	c0-23.927-6.288-46.411-17.294-65.892l9.502-9.502c2.67-2.67,4.478-6.145,4.837-9.904c0.459-4.805-1.206-9.406-4.563-12.765
	l-0.977-0.977h1.383c8.746,0,15.836-7.09,15.836-15.836v-14.723c0-8.746-7.09-15.836-15.836-15.836h-1.383l0.637-0.637
	c2.966-2.966,4.863-6.917,4.973-11.111c0.115-4.389-1.541-8.534-4.633-11.623l-10.07-10.071c-2.965-2.966-6.915-4.863-11.108-4.973
	c-4.39-0.116-8.536,1.541-11.628,4.632l-0.977,0.978v-1.383c0-8.746-7.09-15.836-15.836-15.836h-14.723
	c-1.293,0-2.542,0.173-3.746,0.466V70.2c0-37.947-30.134-69.614-68.077-70.192c-38.619-0.589-70.225,30.656-70.225,69.142v51.817
	h-0.167c-32.028,0-57.99,25.964-57.99,57.99v27.002c0,10.571,6.051,20.358,15.713,24.647c3.593,1.595,7.319,2.372,10.988,2.372
	c0.017,0,0.035-0.001,0.052-0.001v54.491c0,4.144,3.36,7.503,7.503,7.503l0,0c4.144,0,7.503-3.36,7.503-7.503v-59.346
	c1.238-0.88,2.421-1.87,3.533-2.981l31.404-31.404l10.745,11.433l-13.604,33.288c-1.103,2.696-0.543,5.788,1.433,7.928l8.032,8.701
	c-1.95,3.151-3.081,6.86-3.041,10.839c0.107,10.631,8.677,19.558,19.296,20.07c11.645,0.562,21.3-8.75,21.3-20.274
	c0-11.193-9.106-20.298-20.298-20.298c-1.773,0-3.484,0.252-5.123,0.68l-5.898-6.389l9.205-22.523l5.072,5.397
	c1.419,1.51,3.398,2.365,5.468,2.365h27.133l4.854,4.854c-2.212,3.723-3.296,8.191-2.683,12.95
	c1.185,9.214,8.683,16.574,17.921,17.554c12.868,1.366,23.671-9.379,22.404-22.23c-0.79-8.022-6.463-14.826-14.138-17.288
	c-4.12-1.321-8.05-1.186-11.612-0.17c-0.232-0.321-0.484-0.631-0.772-0.92l-7.56-7.56c-1.407-1.407-3.316-2.197-5.305-2.197h-26.998
	l-25.211-26.827l16.862-16.862c1.111-1.111,2.094-2.297,2.973-3.534h30.523c65.936,0,119.387,53.451,119.387,119.387v129.674
	c0,10.903-8.839,19.742-19.742,19.742h-76.17c-58.074,0-106.589-41.684-117.215-96.702c-0.678-3.514-3.775-6.039-7.353-6.039h-0.003
	c-4.741,0-8.26,4.336-7.358,8.99c1.996,10.306,5.169,20.195,9.382,29.52c-0.136,0.564-0.214,1.152-0.214,1.759l-0.001,107.833
	c0,19.359,15.749,35.107,35.107,35.107h52.655c0.259,0,0.516-0.013,0.768-0.039c11.476-0.409,20.692-9.847,20.692-21.422v-12.795
	c0-11.574-9.216-21.013-20.692-21.422c-0.253-0.026-0.509-0.039-0.768-0.039h-32.043v-27.696
	c19.745,11.412,42.644,17.95,67.043,17.95h76.169c18.82,0,34.181-15.04,34.724-33.731h58.822c0.631,0,1.241-0.086,1.826-0.233
	c10.421-1.463,18.472-10.411,18.472-21.228v-12.795c0-5.33-1.965-10.202-5.192-13.958c3.227-3.757,5.192-8.628,5.192-13.957V337.84
	H431.577z M180.973,260.432c2.918,0,5.291,2.374,5.291,5.291c0,2.917-2.374,5.291-5.291,5.291s-5.291-2.374-5.291-5.291
	C175.682,262.806,178.056,260.432,180.973,260.432z M239.131,234.843c2.917,0,5.291,2.374,5.291,5.291
	c0,2.917-2.374,5.291-5.291,5.291c-2.918,0-5.291-2.374-5.291-5.291C233.84,237.217,236.213,234.843,239.131,234.843z
	 M173.98,155.649l-58.882,58.882c-3.41,3.411-8.105,4.345-12.56,2.498c-4.455-1.846-7.114-5.826-7.114-10.648v-27.422
	c0-23.701,19.283-42.984,42.983-42.984h27.423c4.821,0,8.802,2.659,10.648,7.114C178.324,147.545,177.389,152.24,173.98,155.649z
	 M225.811,147.947c-2.557-0.146-5.131-0.227-7.724-0.227h-25.676c0.007-3.46-0.66-6.971-2.07-10.374
	c-0.218-0.525-0.457-1.034-0.703-1.539V69.151c0-9.974,8.114-18.086,18.086-18.086c9.973,0,18.086,8.113,18.086,18.086V147.947z
	 M207.726,36.058c-18.247,0-33.093,14.846-33.093,33.093v53.279c-2.758-0.945-5.715-1.462-8.802-1.462h-12.25V69.151
	c0-29.856,24.289-54.144,54.145-54.144c29.855,0,54.144,24.288,54.144,54.144v32.114c-2.68-1.943-5.885-3.006-9.258-3.006
	c-4.23,0-8.207,1.647-11.197,4.638l-0.595,0.595V69.151C240.818,50.903,225.973,36.058,207.726,36.058z M295.077,172.032
	c-6.642-4.659-13.725-8.729-21.171-12.143c0-0.004,0.001-0.008,0.001-0.013c0-7.763,6.315-14.076,14.075-14.076
	s14.075,6.315,14.075,14.076C302.059,164.94,299.368,169.531,295.077,172.032z M334.354,195.836l-7.472,7.473
	c-5.748-7.911-12.338-15.171-19.634-21.653c6.136-5.42,9.819-13.275,9.819-21.779c0-16.036-13.047-29.083-29.082-29.083
	c-14.113,0-25.906,10.107-28.532,23.462c-3.427-1.111-6.91-2.096-10.451-2.932c1.132-3.065,2.847-7.641,3.26-8.505
	c1.374-2.869,0.786-6.294-1.463-8.544l-9.184-9.183c-0.161-0.161-0.243-0.358-0.243-0.587c0-0.228,0.082-0.424,0.243-0.585
	l10.412-10.412c0.322-0.322,0.848-0.323,1.172,0.001l9.184,9.184c2.25,2.249,5.673,2.833,8.543,1.464
	c1.217-0.582,2.517-1.119,3.865-1.596c2.998-1.059,5.003-3.895,5.003-7.074v-12.994c0-0.457,0.372-0.829,0.829-0.829h14.723
	c0.457,0,0.829,0.372,0.829,0.829v12.994c0,3.18,2.005,6.016,5.003,7.074c1.348,0.477,2.648,1.013,3.865,1.596
	c2.87,1.37,6.294,0.785,8.543-1.464l9.184-9.184c0.322-0.323,0.849-0.324,1.173-0.001l10.411,10.412
	c0.161,0.161,0.242,0.357,0.242,0.585c0,0.229-0.082,0.426-0.243,0.586l-9.184,9.184c-2.25,2.25-2.836,5.675-1.463,8.544
	c0.58,1.213,1.117,2.514,1.596,3.867c1.06,2.997,3.895,5.001,7.074,5.001h12.994c0.457,0,0.829,0.372,0.829,0.829v14.723
	c0,0.457-0.372,0.829-0.829,0.829h-12.994c-3.179,0-6.014,2.004-7.074,5.001c-0.479,1.354-1.015,2.654-1.596,3.867
	c-1.374,2.869-0.787,6.294,1.463,8.544l9.183,9.183c0.161,0.161,0.243,0.358,0.243,0.587
	C334.596,195.478,334.515,195.674,334.354,195.836z M200.109,477.744c0-3.56,2.895-6.454,6.455-6.454
	c3.559,0,6.454,2.895,6.454,6.454v12.795c0,3.56-2.895,6.454-6.454,6.454c-3.56,0-6.455-2.895-6.455-6.454V477.744z M186.097,471.29
	c-0.644,2.038-0.995,4.206-0.995,6.454v12.795c0,2.249,0.351,4.416,0.995,6.454h-32.189c-11.083,0-20.1-9.017-20.1-20.099
	l0.001-84.52c7.341,9.834,15.999,18.628,25.704,26.133v45.281c0,4.145,3.36,7.503,7.503,7.503H186.097z M352.482,331.385h37.167
	c-0.644,2.038-0.995,4.206-0.995,6.454v12.795c0,2.249,0.351,4.416,0.995,6.454h-37.167V331.385z M389.65,397.799h-37.167v-25.704
	h37.168c-0.644,2.039-0.995,4.206-0.995,6.455v12.795C388.653,393.595,389.005,395.762,389.65,397.799z M416.57,391.346
	c0,3.56-2.895,6.454-6.455,6.454c-3.56,0-6.455-2.895-6.455-6.454v-12.795c0-3.56,2.895-6.455,6.455-6.455
	c3.56,0,6.455,2.896,6.455,6.455V391.346z M416.57,350.635c0,3.56-2.895,6.454-6.455,6.454c-3.56,0-6.455-2.895-6.455-6.454V337.84
	c0-3.56,2.895-6.454,6.455-6.454c3.56,0,6.455,2.895,6.455,6.454V350.635z"/>
<circle cx="129.796" cy="166.856" r="12.214"/>
<path d="M290.835,296.666v-8.842c0-4.145-3.36-7.503-7.503-7.503c-4.144,0-7.503,3.359-7.503,7.503v8.781h-19.237v-8.781
	c0-4.145-3.36-7.503-7.503-7.503s-7.503,3.359-7.503,7.503v8.809c-10.909,0.281-19.751,8.922-20.364,19.746h-8.841
	c-4.144,0-7.503,3.359-7.503,7.503c0,4.145,3.36,7.503,7.503,7.503h8.781v19.237h-8.781c-4.144,0-7.503,3.359-7.503,7.503
	c0,4.145,3.36,7.503,7.503,7.503h8.808c0.28,10.909,8.921,19.751,19.746,20.364v8.841c0,4.145,3.36,7.503,7.503,7.503
	c4.144,0,7.503-3.359,7.503-7.503v-8.78h19.237v8.78c0,4.145,3.36,7.503,7.503,7.503c4.144,0,7.503-3.359,7.503-7.503v-8.808
	c10.909-0.281,19.751-8.922,20.364-19.746h8.841c4.144,0,7.503-3.358,7.503-7.503s-3.36-7.503-7.503-7.503h-8.781v-19.238h8.781
	c4.144,0,7.503-3.359,7.503-7.503c0-4.145-3.36-7.503-7.503-7.503h-8.808C310.3,306.121,301.659,297.28,290.835,296.666z
	 M295.601,365.088c0,3.286-2.673,5.96-5.96,5.96h-47.516c-3.286,0-5.96-2.673-5.96-5.96v-47.516c0-3.286,2.673-5.96,5.96-5.96
	h47.516c3.286,0,5.96,2.673,5.96,5.96V365.088z"/>
<path d="M276.88,325.677h-21.991c-2.572,0-4.657,2.085-4.657,4.657v21.991c0,2.572,2.085,4.657,4.657,4.657h21.991
	c2.572,0,4.657-2.085,4.657-4.657v-21.991C281.537,327.762,279.452,325.677,276.88,325.677z"/>
<g>
</g>
<g>
</g>
<g>
</g>
<g>
</g>
<g>
</g>
<g>
</g>
<g>
</g>
<g>
</g>
<g>
</g>
<g>
</g>
<g>
</g>
<g>
</g>
<g>
</g>
<g>
</g>
<g>
</g>
</svg>
