<?xml version="1.0" encoding="iso-8859-1"?>
<!-- Generator: Adobe Illustrator 19.0.0, SVG Export Plug-In . SVG Version: 6.00 Build 0)  -->
<svg version="1.1" id="Capa_1" xmlns="http://www.w3.org/2000/svg" xmlns:xlink="http://www.w3.org/1999/xlink" x="0px" y="0px"
	 viewBox="0 0 512 512" style="enable-background:new 0 0 512 512;" xml:space="preserve">
<path style="fill:#ADB5BD;" d="M156.804,68.445v99.305H74.472V68.445c0-7.68,6.289-13.969,13.969-13.969h54.394
	C150.515,54.476,156.804,60.765,156.804,68.445z"/>
<path style="fill:#FFC843;" d="M195.727,262.981c-0.05,47.715-32.705,73.961-68.513,78.617
	c-43.509,5.668-91.665-20.498-91.665-78.687c0-51.19,38.923-53.493,38.923-105.263v-0.01h82.332v0.531
	C156.804,209.147,195.767,211.851,195.727,262.981z"/>
<path style="fill:#C1C8D2;" d="M156.804,68.445v99.305h-58.97V68.445c0-7.68,6.289-13.969,13.969-13.969h31.032
	C150.515,54.476,156.804,60.765,156.804,68.445z"/>
<path style="fill:#FFFFFF;" d="M195.727,262.981c-0.05,47.715-32.705,73.961-68.513,78.617
	c-35.749-4.656-68.303-30.852-68.303-78.687c0-51.19,38.923-53.493,38.923-105.263v-0.01h58.97v0.531
	C156.804,209.147,195.767,211.851,195.727,262.981z"/>
<path style="fill:#5DE0BF;" d="M401.236,176.99v298.661c0,15.343-12.555,27.898-27.898,27.898h-131.96
	c-15.343,0-27.898-12.555-27.898-27.898V176.99c0-15.343,12.555-27.898,27.898-27.898h131.96
	C388.68,149.092,401.236,161.647,401.236,176.99z"/>
<path style="fill:#76FFD9;" d="M401.236,176.99v298.661c0,15.343-12.555,27.898-27.898,27.898H262.397
	c-15.343,0-27.898-12.555-27.898-27.898V176.99c0-15.343,12.555-27.898,27.898-27.898h110.941
	C388.68,149.092,401.236,161.647,401.236,176.99z"/>
<rect x="213.481" y="203.788" style="fill:#FFFFFF;" width="187.756" height="245.074"/>
<rect x="213.481" y="203.788" style="fill:#FFC843;" width="21.019" height="245.074"/>
<path style="fill:#D8E0EA;" d="M481.536,440.255l-59.812,26.074c-7.145,3.116-15.545-0.184-18.661-7.329l-5.159-11.835
	c-0.503-1.148-1.482-2.01-2.689-2.353l-41.05-11.693c-8.375-2.387-13.535-11.274-11.039-19.616
	c2.445-8.15,11.056-12.891,19.256-10.553l10.018,2.706c2.789,0.754,5.285-1.432,5.285-4.02c0-0.553-0.117-1.123-0.361-1.683
	c-0.134-0.293-0.251-0.595-0.36-0.896c-0.142-0.284-0.284-0.578-0.419-0.871l-29.223-67.023c-3.393-7.79,0.059-16.919,7.672-20.554
	c0.545-0.259,1.105-0.494,1.692-0.695c7.832-2.681,16.391,1.34,19.7,8.928l27.666,63.446l43.873-19.13
	c7.145-3.116,15.537,0.184,18.653,7.329l20.974,48.094l1.315,3.015C491.973,428.747,488.681,437.139,481.536,440.255z"/>
<path style="fill:#5DE0BF;" d="M498.941,475.542l-50.272,21.92l-14.725,6.424c-4.606,2.002-9.959-0.1-11.969-4.698l-8.468-19.431
	c-2.362-5.427,0.134-11.793,5.562-14.155l15.102-6.592l46.838-20.42c5.427-2.362,11.793,0.142,14.155,5.562l8.477,19.431
	C505.642,468.18,503.54,473.541,498.941,475.542z"/>
<path style="fill:#76FFD9;" d="M498.941,475.542l-50.272,21.92c-2.814-0.754-5.268-2.731-6.525-5.612l-9.256-21.233
	c-1.717-3.936-1.081-8.342,1.282-11.609l46.838-20.42c5.427-2.362,11.793,0.142,14.155,5.562l8.477,19.431
	C505.642,468.18,503.54,473.541,498.941,475.542z"/>
<path style="fill:#FFFFFF;" d="M487.551,418.579l-58.136,25.881c-6.994,3.107-15.186-0.042-18.276-7.036l-56.144-126.819
	c0.545-0.259,1.105-0.494,1.692-0.695c7.832-2.681,16.391,1.34,19.7,8.928l27.666,63.446l43.873-19.13
	c7.145-3.116,15.537,0.184,18.653,7.329L487.551,418.579z"/>
<path style="fill:#C1C8D2;" d="M223.765,29.612c0,34.717-28.148,62.856-62.856,62.856H70.366c-17.354,0-33.065-7.03-44.441-18.405
	S7.51,46.966,7.51,29.612c0-12.207,9.893-22.1,22.1-22.1h172.055c6.098,0,11.626,2.473,15.631,6.469
	C221.292,17.987,223.765,23.514,223.765,29.612z"/>
<path style="fill:#D8E0EA;" d="M223.765,29.612c0,34.717-28.148,62.856-62.856,62.856h-59.832c-17.364,0-33.075-7.03-44.451-18.405
	C45.262,62.688,38.222,46.966,38.222,29.612c0-12.207,9.893-22.1,22.1-22.1h141.343c6.098,0,11.626,2.473,15.631,6.469
	C221.292,17.987,223.765,23.514,223.765,29.612z"/>
<g>
	<path style="fill:#FFC843;" d="M116.971,363.595c-4.149,0-7.51,3.362-7.51,7.51v21.689c0,4.149,3.362,7.51,7.51,7.51
		s7.51-3.362,7.51-7.51v-21.689C124.482,366.956,121.12,363.595,116.971,363.595z"/>
	<path style="fill:#FFC843;" d="M155.299,362.905c-1.323-3.931-5.583-6.043-9.514-4.722c-3.931,1.323-6.045,5.583-4.722,9.514
		l6.918,20.554c1.322,3.924,5.576,6.046,9.514,4.722c3.931-1.323,6.045-5.583,4.722-9.514L155.299,362.905z"/>
	<path style="fill:#FFC843;" d="M182.117,344.166c-2.589-3.239-7.314-3.773-10.555-1.184c-3.24,2.588-3.771,7.314-1.184,10.555
		l13.531,16.949c2.589,3.24,7.316,3.77,10.555,1.184c3.24-2.588,3.771-7.314,1.184-10.555L182.117,344.166z"/>
	<path style="fill:#FFC843;" d="M60.799,344.001c-3.111-2.743-7.858-2.442-10.6,0.667l-14.342,16.268
		c-2.743,3.111-2.443,7.858,0.667,10.6c3.125,2.755,7.869,2.43,10.6-0.667l14.342-16.268
		C64.21,351.489,63.91,346.744,60.799,344.001z"/>
	<path style="fill:#FFC843;" d="M86.85,358.723c-3.86-1.511-8.22,0.392-9.733,4.253l-7.913,20.194
		c-1.513,3.861,0.392,8.219,4.253,9.733c3.863,1.512,8.219-0.391,9.733-4.253l7.913-20.194
		C92.616,364.594,90.712,360.236,86.85,358.723z"/>
</g>
<path style="fill:#434C54;" d="M164.314,157.637v-42.468c0-0.08,0.01-0.16,0.01-0.23v-15.04
	c37.221-1.792,66.951-32.634,66.951-70.286c0-16.322-13.288-29.61-29.61-29.61H29.61C13.278,0.002,0,13.29,0,29.612
	c0,37.661,29.731,68.503,66.961,70.286v57.739c0,0.01,0,0.01,0,0.02c0,48.129-38.923,51.366-38.923,105.253
	c0,115.868,175.069,115.831,175.199-0.02c0-53.667-38.923-57.398-38.923-104.723L164.314,157.637L164.314,157.637z M15.02,29.612
	c0-8.041,6.539-14.59,14.59-14.59h172.055c8.041,0,14.59,6.549,14.59,14.59c0,30.713-25.036,55.345-55.355,55.345
	c-0.11,0-91.659,0.053-93.938-0.11C38.022,83.085,15.02,58.992,15.02,29.612z M117.72,133.214h31.573v16.913H81.982v-16.913h5.698
	c4.146,0,7.51-3.365,7.51-7.51c0-4.156-3.365-7.51-7.51-7.51h-5.698V99.978h67.322v14.8c-0.01,0.08-0.01,0.16-0.01,0.24v3.174
	h-31.573c-4.146,0-7.51,3.355-7.51,7.51C110.21,129.849,113.575,133.214,117.72,133.214z M188.217,262.981
	c-0.097,95.699-145.158,96-145.158-0.07c0-45.642,35.076-49.793,38.643-97.763h67.832
	C152.905,212.656,188.217,217.333,188.217,262.981z"/>
<g>
	<path style="fill:#00C395;" d="M389.586,99.701c19.66,0,35.654,15.995,35.654,35.654c0,4.149,3.362,7.51,7.51,7.51
		c4.149,0,7.51-3.362,7.51-7.51c0-27.942-22.732-50.674-50.674-50.674c-4.149,0-7.51,3.362-7.51,7.51
		C382.076,96.339,385.438,99.701,389.586,99.701z"/>
	<path style="fill:#00C395;" d="M389.586,29.196c58.537,0,106.16,47.623,106.16,106.16c0,4.149,3.362,7.51,7.51,7.51
		s7.51-3.362,7.51-7.51c0-66.819-54.361-121.18-121.18-121.18c-4.149,0-7.51,3.362-7.51,7.51S385.438,29.196,389.586,29.196z"/>
	<path style="fill:#00C395;" d="M389.586,63.121c39.829,0,72.233,32.403,72.233,72.233c0,4.149,3.362,7.51,7.51,7.51
		c4.149,0,7.51-3.362,7.51-7.51c0-48.112-39.142-87.254-87.254-87.254c-4.149,0-7.51,3.362-7.51,7.51S385.438,63.121,389.586,63.121
		z"/>
</g>
<g>
	<path style="fill:#FFFFFF;" d="M276.869,183.892h29.599c4.424,0,8.011-3.587,8.011-8.011s-3.587-8.011-8.011-8.011h-29.599
		c-4.424,0-8.011,3.587-8.011,8.011S272.445,183.892,276.869,183.892z"/>
	<circle style="fill:#FFFFFF;" cx="331.532" cy="175.88" r="5.967"/>
	<path style="fill:#FFFFFF;" d="M329.027,469.141h-43.684c-4.149,0-7.51,3.362-7.51,7.51s3.362,7.51,7.51,7.51h43.684
		c4.149,0,7.51-3.362,7.51-7.51S333.174,469.141,329.027,469.141z"/>
</g>
<g>
	<path style="fill:#434C54;" d="M510.59,459.74l-7.97-18.278c-1.379-3.164-3.58-5.806-6.347-7.742
		c1.801-5.116,1.755-10.895-0.578-16.249l-22.34-51.24c-2.363-5.427-6.719-9.613-12.247-11.786
		c-5.538-2.173-11.576-2.063-17.003,0.3l-35.599,15.521V177.754c0-19.517-15.872-35.388-35.388-35.388h-131.87
		c-19.507,0-35.388,15.872-35.388,35.388v298.457c0,19.507,15.882,35.388,35.388,35.388h131.87
		c16.127,0,29.756-10.848,34.006-25.621l6.913,15.859c2.774,6.361,9.008,10.161,15.541,10.161c2.255,0,4.546-0.454,6.741-1.411
		l65.517-28.565C510.393,478.292,514.32,468.297,510.59,459.74z M220.881,212.041h14.454c4.149,0,7.51-3.362,7.51-7.51
		s-3.362-7.51-7.51-7.51h-14.454v-19.266c0-11.225,9.142-20.368,20.368-20.368h131.87c11.235,0,20.368,9.142,20.368,20.368v19.266
		H265.376c-4.149,0-7.51,3.362-7.51,7.51s3.362,7.51,7.51,7.51h128.111v126.592l-10.544-24.183
		c-3.555-8.171-11.195-13.478-19.507-14.42c-6.088-12.827-16.482-23.492-29.741-29.731c-3.755-1.772-8.221-0.16-9.994,3.595
		c-1.762,3.745-0.16,8.221,3.595,9.994c9.022,4.246,16.302,11.195,21.039,19.607c-4.005,2.503-7.23,6.198-9.162,10.584
		c-2.674,6.088-2.694,13.068-0.05,19.126l8.121,18.645c-14.546,23.207-39.755,22.016-40.055,22.11
		c-26.076,0-47.284-21.209-47.284-47.284c0-16.613,8.482-31.703,22.681-40.375c3.545-2.163,4.666-6.789,2.503-10.324
		c-2.163-3.545-6.789-4.666-10.324-2.503c-18.706,11.426-29.881,31.313-29.881,53.203c0,34.357,27.948,62.305,62.305,62.305
		c0.791-0.21,27.066,1.536,46.964-21.299l11.856,27.207l-2.313-0.631c-12.367-3.485-25.425,3.675-29.11,16.002
		c-1.802,6.008-1.102,12.397,1.963,17.995c3.104,5.668,8.411,9.924,14.58,11.676l7,1.993H220.881V212.041z M393.486,476.211
		c0,11.225-9.132,20.368-20.368,20.368h-131.87c-11.202,0-20.368-9.165-20.368-20.368v-19.266h172.185
		c0.277,0.634,0.421,1.319,0.421,2.011V476.211z M409.689,454.972l-1.182-2.714l-3.995-9.162c-2.944-6.755-9.611-7.109-11.025-7.761
		l-37.972-10.815c-2.063-0.591-3.855-2.033-4.917-3.955c-0.991-1.812-1.232-3.845-0.671-5.708c0.991-3.304,4.066-5.457,7.36-5.457
		c0.691,0,1.392,0.09,2.083,0.29c0.03,0.01,0.07,0.02,0.1,0.03l10.044,2.704c4.576,1.242,9.333-0.22,12.417-3.805
		c3.094-3.585,3.835-8.512,1.943-12.848c-0.05-0.13-0.1-0.26-0.14-0.381c-0.13-0.35-0.28-0.691-0.451-1.021
		c-0.06-0.13-0.13-0.26-0.18-0.37l-18.635-42.738l-10.034-23.021l-0.621-1.432c-0.881-2.013-0.871-4.236,0.03-6.269
		c0.05-0.11,0.1-0.22,0.17-0.33c0.901-1.853,2.463-3.244,4.436-3.915c3.815-1.312,8.121,0.691,9.813,4.566l1.142,2.614
		l24.083,55.245l2.503,5.748c1.772,4.056,6.489,5.908,10.544,4.136l1.973-0.861l42.007-18.305c1.502-0.661,3.184-0.691,4.736-0.08
		c1.552,0.611,2.764,1.772,3.415,3.274l22.34,51.25c1.372,3.124-0.07,6.789-3.204,8.151c-0.001,0-0.003,0.001-0.006,0.002
		c-0.001,0-0.002,0.001-0.004,0.002c-0.007,0.003-0.019,0.008-0.033,0.015c0.006-0.003,0.011-0.005,0.016-0.007
		c-0.012,0.005-0.023,0.01-0.034,0.015c-0.012,0.005-0.027,0.012-0.044,0.019c-0.015,0.007-0.026,0.011-0.04,0.017
		c0.005-0.002,0.009-0.004,0.014-0.006c-0.016,0.007-0.035,0.015-0.055,0.024c0.004-0.001,0.007-0.003,0.011-0.005
		c-0.008,0.003-0.015,0.006-0.021,0.009c-0.007,0.003-0.013,0.006-0.02,0.009c0.004-0.002,0.008-0.003,0.012-0.005
		c-0.042,0.019-0.068,0.03-0.081,0.035c0.005-0.002,0.012-0.005,0.02-0.009c-1.561,0.681-11.202,4.885-59.734,26.047
		C414.637,459.536,411.003,458.005,409.689,454.972z M495.434,467.336l-65.518,28.565c-0.227,0.099-0.461,0.103-0.692,0.013
		c-0.231-0.091-0.4-0.253-0.5-0.481l-7.969-18.278c-0.55-1.262,0.052-2.792,1.314-3.343c0.128-0.055,2.076-0.9,2.179-0.946
		c62.705-26.692,60.135-27.176,62.283-26.338c0.37,0.146,1.043,0.513,1.403,1.337l7.969,18.277
		C496.102,466.6,495.893,467.135,495.434,467.336z"/>
	<polygon style="fill:#434C54;" points="477.794,432.034 477.796,432.033 477.796,432.033 	"/>
	<path style="fill:#434C54;" d="M477.774,432.042c0.006-0.003,0.011-0.005,0.017-0.008l0.002-0.001
		C477.789,432.036,477.782,432.039,477.774,432.042z"/>
	<path style="fill:#434C54;" d="M307.184,329.784c4.149,0,7.51-3.362,7.51-7.51v-68.01c0-4.149-3.362-7.51-7.51-7.51
		s-7.51,3.362-7.51,7.51v68.01C299.674,326.422,303.036,329.784,307.184,329.784z"/>
</g>
<g>
</g>
<g>
</g>
<g>
</g>
<g>
</g>
<g>
</g>
<g>
</g>
<g>
</g>
<g>
</g>
<g>
</g>
<g>
</g>
<g>
</g>
<g>
</g>
<g>
</g>
<g>
</g>
<g>
</g>
</svg>
