<svg height="502pt" viewBox="0 -149 502 502" width="502pt" xmlns="http://www.w3.org/2000/svg"><path d="m87.921875 25.328125v152.839844c0 5.519531-4.480469 10-10 10h-63.921875c-5.519531 0-10-4.480469-10-10v-152.839844c0-5.519531 4.480469-10 10-10h63.921875c5.519531 0 10 4.480469 10 10zm0 0" fill="#d73735"/><path d="m87.921875 25.328125v148.699219h-59.78125c-5.519531 0-10-4.480469-10-10v-148.699219h59.78125c5.519531 0 10 4.480469 10 10zm0 0" fill="#f85252"/><path d="m498 25.328125v152.839844c0 5.519531-4.480469 10-10 10h-63.921875c-5.519531 0-10-4.480469-10-10v-152.839844c0-5.519531 4.480469-10 10-10h63.921875c5.519531 0 10 4.480469 10 10zm0 0" fill="#d73735"/><path d="m498 25.328125v148.699219h-59.78125c-5.519531 0-10-4.480469-10-10v-148.699219h59.78125c5.519531 0 10 4.480469 10 10zm0 0" fill="#f85252"/><path d="m464.140625 48.308594v106.878906c0 4.820312-.78125 9.480469-2.199219 13.820312-5.800781 17.699219-22.460937 30.480469-42.101562 30.480469h-337.679688c-24.460937 0-44.300781-19.820312-44.300781-44.300781v-106.878906c0-19.660156 12.78125-36.300782 30.480469-42.101563 4.339844-1.417969 9-2.199219 13.820312-2.199219h337.679688c24.460937 0 44.300781 19.820313 44.300781 44.300782zm0 0" fill="#d8d6d7"/><path d="m464.140625 48.308594v106.878906c0 4.820312-.78125 9.480469-2.199219 13.820312-4.339844 1.421876-9 2.199219-13.820312 2.199219h-337.679688c-24.460937 0-44.300781-19.839843-44.300781-44.300781v-106.898438c0-4.820312.78125-9.460937 2.199219-13.800781 4.339844-1.417969 9-2.199219 13.820312-2.199219h337.679688c24.460937 0 44.300781 19.820313 44.300781 44.300782zm0 0" fill="#fff"/><path d="m425.121094 66.1875v71.121094c0 4.820312-.761719 9.4375-2.199219 13.78125-5.78125 17.71875-22.441406 30.519531-42.101563 30.519531h-259.640624c-24.460938 0-44.300782-19.839844-44.300782-44.300781v-71.121094c0-19.621094 12.78125-36.28125 30.480469-42.078125 4.339844-1.441406 9-2.222656 13.820313-2.222656h259.640624c24.460938 0 44.300782 19.839843 44.300782 44.300781zm0 0" fill="#56c1b3"/><path d="m425.121094 66.1875v71.121094c0 4.820312-.761719 9.4375-2.199219 13.78125-4.34375 1.4375-9 2.21875-13.820313 2.21875h-259.640624c-24.460938 0-44.300782-19.820313-44.300782-44.300782v-71.101562c0-4.816406.761719-9.457031 2.199219-13.796875 4.339844-1.441406 9-2.222656 13.820313-2.222656h259.640624c24.460938 0 44.300782 19.839843 44.300782 44.300781zm0 0" fill="#7befe4"/><g fill="#491352"><path d="m380.816406 17.894531h-259.632812c-26.632813 0-48.300782 21.667969-48.300782 48.300781v71.101563c0 26.636719 21.667969 48.304687 48.300782 48.304687h259.632812c26.632813 0 48.300782-21.667968 48.300782-48.304687v-71.101563c0-26.632812-21.667969-48.300781-48.300782-48.300781zm40.300782 119.402344c0 22.222656-18.078126 40.304687-40.300782 40.304687h-259.632812c-22.222656 0-40.300782-18.082031-40.300782-40.304687v-71.101563c0-22.222656 18.078126-40.300781 40.300782-40.300781h259.632812c22.222656 0 40.300782 18.078125 40.300782 40.300781zm0 0"/><path d="m488 11.328125h-37.128906c-8.398438-7.0625-19.226563-11.328125-31.035156-11.328125h-337.671876c-11.808593 0-22.632812 4.265625-31.035156 11.328125h-37.128906c-7.71875 0-14 6.28125-14 14v152.839844c0 7.71875 6.28125 14 14 14h37.128906c8.398438 7.0625 19.226563 11.328125 31.035156 11.328125h337.671876c11.808593 0 22.636718-4.265625 31.035156-11.328125h37.128906c7.71875 0 14-6.28125 14-14v-152.839844c0-7.71875-6.28125-14-14-14zm-480 166.839844v-152.839844c0-3.308594 2.691406-6 6-6h29.542969c-6.074219 8.078125-9.679688 18.113281-9.679688 28.972656v106.890625c0 10.863282 3.605469 20.898438 9.679688 28.972656h-29.542969c-3.308594.003907-6-2.6875-6-5.996093zm411.835938 17.328125h-337.671876c-22.222656 0-40.300781-18.082032-40.300781-40.300782v-106.890624c0-22.222657 18.078125-40.300782 40.300781-40.300782h337.671876c22.222656 0 40.300781 18.078125 40.300781 40.300782v106.890624c0 22.21875-18.078125 40.300782-40.300781 40.300782zm74.164062-17.328125c0 3.308593-2.691406 6-6 6h-29.542969c6.078125-8.078125 9.683594-18.113281 9.683594-28.972657v-106.890624c0-10.863282-3.605469-20.898438-9.683594-28.976563h29.542969c3.308594 0 6 2.695313 6 6zm0 0"/><path d="m297.125 90.101562c0-9.335937-9.46875-16.933593-21.105469-16.933593h-18.417969c-1.589843 0-3.03125.941406-3.664062 2.394531l-18.285156 41.746094-23.28125-42.078125c-1.070313-1.933594-3.5-2.632813-5.433594-1.5625-1.933594 1.070312-2.632812 3.503906-1.566406 5.4375l27.199218 49.160156c.710938 1.277344 2.050782 2.0625 3.5 2.0625.0625 0 .125-.003906.1875-.003906 1.519532-.070313 2.867188-1 3.476563-2.390625l20.480469-46.765625h15.804687c7.105469 0 13.105469 4.089843 13.105469 8.933593 0 4.839844-6 8.933594-13.105469 8.933594h-16.148437c-1.746094 0-3.292969 1.128906-3.816406 2.792969-.523438 1.664063.089843 3.480469 1.519531 4.480469l33.257812 23.292968c.699219.492188 1.496094.722657 2.292969.722657 1.261719 0 2.5-.59375 3.277344-1.703125 1.269531-1.808594.828125-4.304688-.976563-5.570313l-22.871093-16.019531h3.46875c11.632812.003906 21.101562-7.59375 21.101562-16.929688zm0 0"/></g></svg>