<?xml version="1.0" encoding="utf-8"?>
<!-- Generator: Adobe Illustrator 23.0.0, SVG Export Plug-In . SVG Version: 6.00 Build 0)  -->
<svg version="1.1" id="Layer_1" xmlns="http://www.w3.org/2000/svg" xmlns:xlink="http://www.w3.org/1999/xlink" x="0px" y="0px"
	 viewBox="0 0 200 222.5" style="enable-background:new 0 0 200 222.5;" xml:space="preserve">
<style type="text/css">
	.st0{fill:#0ACF83;}
	.st1{fill:#A259FF;}
	.st2{fill:#F24E1E;}
	.st3{fill:#FF7262;}
	.st4{fill:#1ABCFE;}
</style>
<title>Atlassian-vertical-blue-onecolor-rgb</title>
<g>
	<path id="path0_fill" class="st0" d="M64.3,218.2c19.7,0,35.7-16,35.7-35.7v-35.7H64.3c-19.7,0-35.7,16-35.7,35.7
		S44.7,218.2,64.3,218.2z"/>
	<path id="path1_fill" class="st1" d="M28.7,111.2c0-19.7,16-35.7,35.7-35.7H100v71.3H64.3C44.7,146.9,28.7,130.9,28.7,111.2z"/>
	<path id="path1_fill_1_" class="st2" d="M28.7,39.9c0-19.7,16-35.7,35.7-35.7H100v71.3H64.3C44.7,75.6,28.7,59.6,28.7,39.9z"/>
	<path id="path2_fill" class="st3" d="M100,4.3h35.7c19.7,0,35.7,16,35.7,35.7s-16,35.7-35.7,35.7H100V4.3z"/>
	<path id="path3_fill" class="st4" d="M171.3,111.2c0,19.7-16,35.7-35.7,35.7s-35.7-16-35.7-35.7s16-35.7,35.7-35.7
		S171.3,91.6,171.3,111.2z"/>
</g>
</svg>
