<?xml version="1.0" encoding="utf-8"?>
<!-- Generator: Adobe Illustrator 23.0.0, SVG Export Plug-In . SVG Version: 6.00 Build 0)  -->
<svg version="1.1" id="Layer_1" xmlns="http://www.w3.org/2000/svg" xmlns:xlink="http://www.w3.org/1999/xlink" x="0px" y="0px"
	 viewBox="0 0 200 222.5" style="enable-background:new 0 0 200 222.5;" xml:space="preserve">
<style type="text/css">
	.st0{fill:url(#XMLID_2_);}
	.st1{fill:url(#XMLID_3_);}
	.st2{fill:url(#XMLID_4_);}
	.st3{fill:url(#XMLID_5_);}
	.st4{fill:#FFFFFF;}
</style>
<title>Atlassian-vertical-blue-onecolor-rgb</title>
<g>
	
		<linearGradient id="XMLID_2_" gradientUnits="userSpaceOnUse" x1="53.1262" y1="17.5696" x2="183.3936" y2="96.1926" gradientTransform="matrix(1 0 0 -1 0 222)">
		<stop  offset="0" style="stop-color:#FCEE39"/>
		<stop  offset="1" style="stop-color:#F37B3D"/>
	</linearGradient>
	<path id="XMLID_3041_" class="st0" d="M197.3,123.5c1.5-1.3,2.3-3.2,2.5-5.3c0.2-4.3-3-7.8-7.3-8.1c-2-0.2-4,0.7-5.5,1.8l0,0
		L47.8,188.1c-3.2,1.3-6,3.7-7.8,6.8c-4.8,8-2.2,18.3,6,23.1c5.6,3.3,12.5,3,17.8-0.3l0,0l0,0c0.3-0.3,0.8-0.5,1.2-0.8l129.6-91.1
		C195.2,125.3,197,124,197.3,123.5L197.3,123.5L197.3,123.5z"/>
	
		<linearGradient id="XMLID_3_" gradientUnits="userSpaceOnUse" x1="80.6663" y1="206.3531" x2="199.5653" y2="102.2603" gradientTransform="matrix(1 0 0 -1 0 222)">
		<stop  offset="0" style="stop-color:#EF5A6B"/>
		<stop  offset="0.57" style="stop-color:#F26F4E"/>
		<stop  offset="1" style="stop-color:#F37B3D"/>
	</linearGradient>
	<path id="XMLID_3049_" class="st1" d="M197.7,112.4L197.7,112.4l-106-104c-2.3-2.5-5.6-4.2-9.5-4.2C75,4.2,69.4,10,69.4,17l0,0
		c0,3.5,1.3,6.5,3.5,8.8l0,0l0,0c0.7,0.7,1.3,1.2,2,1.7l112,95.9l0,0c1.3,1.2,3,2,5,2.2c4.3,0.2,7.8-3,8.1-7.3
		C200,116,199.2,113.9,197.7,112.4z"/>
	
		<linearGradient id="XMLID_4_" gradientUnits="userSpaceOnUse" x1="88.2202" y1="111.9966" x2="17.7539" y2="156.0031" gradientTransform="matrix(1 0 0 -1 0 222)">
		<stop  offset="0" style="stop-color:#7C59A4"/>
		<stop  offset="0.3852" style="stop-color:#AF4C92"/>
		<stop  offset="0.7654" style="stop-color:#DC4183"/>
		<stop  offset="0.957" style="stop-color:#ED3D7D"/>
	</linearGradient>
	<path id="XMLID_3042_" class="st2" d="M95.2,103.1c-0.2,0-65.5-51.5-66.8-52.3l0,0l0,0c-1-0.5-2-1-3-1.5c-9.6-3.7-20.3,1.3-23.9,11
		C-1.7,68.7,1.8,78,9.1,82.5l0,0l0,0c1.2,0.7,2.2,1.2,3.3,1.5c0.7,0.3,75.4,31.2,75.4,31.2l0,0c3,1.3,6.5,0.5,8.5-2
		C98.8,110.1,98.3,105.6,95.2,103.1z"/>
	
		<linearGradient id="XMLID_5_" gradientUnits="userSpaceOnUse" x1="86.9446" y1="211.6699" x2="18.1496" y2="154.8513" gradientTransform="matrix(1 0 0 -1 0 222)">
		<stop  offset="0" style="stop-color:#EF5A6B"/>
		<stop  offset="0.364" style="stop-color:#EE4E72"/>
		<stop  offset="1" style="stop-color:#ED3D7D"/>
	</linearGradient>
	<path id="XMLID_3057_" class="st3" d="M82.2,4.2c-2.8,0-5.5,1-7.6,2.5L8.4,51.2c-0.2,0.2-0.3,0.2-0.3,0.3H7.9l0,0
		c-2.8,2-5.2,5-6.5,8.5c-3.7,9.6,1.3,20.4,11,23.9c6,2.3,12.5,1.2,17.3-2.3l0,0l0,0c1.2-0.8,2.2-1.7,3-2.7l57.5-51.8l0,0
		c3-2.3,5-6,5-10.1l0,0C95.2,10,89.3,4.2,82.2,4.2z"/>
	<g id="XMLID_3008_">
		<rect id="XMLID_3033_" x="57.8" y="66.4" width="84.7" height="84.7"/>
		<rect id="XMLID_3032_" x="65.1" y="135.1" class="st4" width="31.7" height="5.3"/>
		<g id="XMLID_3009_">
			<path id="XMLID_3030_" class="st4" d="M64.7,88.6l2.5-2.3c0.7,0.8,1.3,1.3,2.2,1.3c1,0,1.5-0.7,1.5-2v-8.8h3.8v8.8
				c0,1.7-0.5,3-1.3,3.8c-0.8,0.8-2.2,1.3-3.8,1.3C67.1,90.9,65.7,89.9,64.7,88.6z"/>
			<path id="XMLID_3028_" class="st4" d="M75.5,77h11.1v3.2h-7.3v2.2H86v3h-6.6v2.2h7.5v3.3H75.7L75.5,77z"/>
			<path id="XMLID_3026_" class="st4" d="M91.7,80.3h-4.2V77h12.1v3.3h-4.2v10.5h-3.8V80.3z"/>
			<path id="XMLID_3022_" class="st4" d="M65.1,93.9h7.1c1.7,0,3,0.5,3.8,1.2c0.5,0.5,0.8,1.3,0.8,2.3l0,0c0,1.7-0.8,2.5-2.2,3.2
				c1.7,0.5,2.7,1.5,2.7,3.3l0,0c0,2.3-2,3.8-5.2,3.8h-7.1V93.9z M73.1,98.3c0-0.8-0.7-1.2-1.7-1.2h-2.5v2.5h2.3
				C72.4,99.4,73.1,99.1,73.1,98.3L73.1,98.3z M71.7,102.2h-3v2.5h3c1.2,0,1.8-0.5,1.8-1.3l0,0C73.6,102.6,72.9,102.2,71.7,102.2z"
				/>
			<path id="XMLID_3019_" class="st4" d="M78,93.9h6.5c2.2,0,3.5,0.5,4.5,1.5c0.8,0.8,1.2,1.8,1.2,3.2l0,0c0,2.2-1.2,3.5-2.8,4.3
				l3.3,4.8h-4.3l-2.8-4.2h-1.7v4.2H78L78,93.9z M84.4,100.6c1.3,0,2-0.7,2-1.7l0,0c0-1.2-0.8-1.7-2-1.7h-2.5v3.3H84.4z"/>
			<path id="XMLID_3016_" class="st4" d="M94.7,93.9h3.7l5.8,14H100l-1-2.5h-5.3l-1,2.5h-4L94.7,93.9z M98,102.2l-1.5-3.8l-1.5,3.8
				H98z"/>
			<path id="XMLID_3014_" class="st4" d="M104.6,93.9h3.8v13.8h-3.8V93.9z"/>
			<path id="XMLID_3012_" class="st4" d="M109.4,93.9h3.5l5.6,7.3v-7.3h3.8v13.8h-3.3l-5.8-7.5v7.6h-3.8V93.9z"/>
			<path id="XMLID_3010_" class="st4" d="M122.7,105.7l2.2-2.5c1.3,1.2,2.8,1.7,4.5,1.7c1,0,1.7-0.3,1.7-1l0,0
				c0-0.7-0.5-0.8-2.3-1.3c-3-0.7-5.2-1.5-5.2-4.3l0,0c0-2.5,2-4.5,5.3-4.5c2.3,0,4.2,0.7,5.6,1.8l-2,2.7c-1.3-0.8-2.7-1.3-3.8-1.3
				c-1,0-1.3,0.3-1.3,0.8l0,0c0,0.7,0.5,0.8,2.3,1.3c3.2,0.7,5.2,1.7,5.2,4.3l0,0c0,2.8-2.2,4.5-5.6,4.5
				C126.7,108.1,124.4,107.2,122.7,105.7z"/>
		</g>
	</g>
</g>
</svg>
