<?xml version="1.0" encoding="utf-8"?>
<!-- Generator: Adobe Illustrator 23.0.0, SVG Export Plug-In . SVG Version: 6.00 Build 0)  -->
<svg version="1.1" id="Layer_1" xmlns="http://www.w3.org/2000/svg" xmlns:xlink="http://www.w3.org/1999/xlink" x="0px" y="0px"
	 viewBox="0 0 200 222.5" style="enable-background:new 0 0 200 222.5;" xml:space="preserve">
<style type="text/css">
	.st0{fill:#39B897;}
	.st1{fill:#3BBA99;}
</style>
<title>Atlassian-vertical-blue-onecolor-rgb</title>
<g id="layer1" transform="translate(0,-191.16665)">
	<g id="g5311" transform="matrix(0.51457314,0,0,-0.5145732,205.58029,681.49871)">
		<g id="g250" transform="translate(-293.54791,789.5958)">
			<path id="path252" class="st0" d="M93.6-165.5c-2.7,0-4.8-2.2-4.8-4.8s2.2-4.8,4.8-4.8c2.6,0,4.7,2.2,4.8,4.9
				C98.4-167.6,96.2-165.5,93.6-165.5 M90.7-202.3h5.7v-23.3c0-1.1,0.8-1.9,1.8-1.9c1,0,1.8,0.8,1.8,1.9v23h1.9
				c1.5,0,2.4,0.8,2.4,2.3l-0.1,17.3c0,0.6-0.1,0.8-0.1,0.8c0,0-0.4,0.1-1.7,0.1h-19c-1.6,0-1.6-0.3-1.6-0.6V-200
				c0-2.4,3-2.5,3.6-2.5h1.9v-22.9c0-1.1,0.8-1.9,1.8-1.9c1,0,1.8,0.8,1.8,1.9V-202.3z M98.1-231.3c-1.9,0-3.6,1-4.6,2.5
				c-1-1.5-2.7-2.4-4.6-2.4c-3.1,0-5.6,2.6-5.6,5.7v19.3c-2.9,0.6-5.5,2.6-5.5,6.2v17.2c0,1.3,0.5,4.4,5.5,4.4h7.3
				c-3.3,1.2-5.6,4.4-5.6,8.1c0,4.8,3.9,8.6,8.6,8.6s8.6-3.9,8.6-8.6c-0.1-3.7-2.5-6.8-5.7-8.1h5.7c2,0,5.6,0,5.6-4.6l0.1-18.2h-0.1
				c-0.4-2.4-2-4.2-4.3-4.9v-19.4C103.7-228.7,101.2-231.3,98.1-231.3"/>
		</g>
		<g id="g254" transform="translate(-320.08561,809.3083)">
			<path id="path256" class="st0" d="M70.7-148.5c-2.8,0-5-2.2-5-5s2.2-5,5-5c2.7,0,4.9,2.3,5,5.1C75.7-150.7,73.4-148.5,70.7-148.5
				 M67.7-186h5.7v-24.3c0-1,0.6-2,1.8-2c1.1,0,1.8,1,1.8,2v23.6h1.9c1.6,0,2.6,1,2.7,2.6l-0.1,17.4c0,0.3,0,0.5,0,0.6
				C81-166,80-166,79.6-166H60.1c-0.8,0-1.2,0-1.4-0.1c0,0,0-0.1,0-0.3V-184c0-2.7,3.2-2.8,3.6-2.8h1.9v-23.5c0-1,0.6-2,1.8-2
				c1.1,0,1.8,1,1.8,2V-186z M75.2-216.2c-2,0-3.6,1-4.6,2.5c-1-1.5-2.7-2.4-4.6-2.4c-3.1,0-5.6,2.6-5.6,5.8v19.9
				c-3,0.6-5.5,2.8-5.5,6.4v17.6c0,4.2,3.8,4.2,5.2,4.2H69c-4.1,0.8-7.1,4.4-7.1,8.7c0,4.9,4,8.8,8.8,8.8c4.9,0,8.8-4,8.8-8.8
				c-0.1-4.3-3.2-7.9-7.2-8.7h7.3c2.3,0,5.7,0,5.7-4.6l0.1-18.6h-0.1c-0.5-2.5-2.2-4.3-4.5-5v-20C80.7-213.6,78.3-216.2,75.2-216.2"
				/>
		</g>
		<g id="g258" transform="translate(-337.85111,924.3032)">
			<path id="path260" class="st0" d="M55.4-49.3l24.8-26.3L78.8-78c-0.9-1.7-1.5-3.9-1.5-6c-0.1-3.7,1.2-7.1,3.8-9.8
				c2.8-2.8,5.5-4.5,8.2-5l-6.9,7.3l3.6,12.9l12.7,2.9l7.1-7.5c-0.4,2.8-1.9,5.7-4.6,8.5c-4.2,4.4-10.6,5.6-16,3L82.7-73L57.4-46.3
				c-0.2,0.2-0.3,0.2-0.3,0.2l-1.9-1.8C55.2-47.9,55.1-48.3,55.4-49.3 M91.1-102.8c-4.3,0-8.6,2.1-12.7,6.4c-3.3,3.5-5,7.9-4.9,12.6
				c0.1,2.7,0.8,5.5,2,7.7l0,0L52-51.3l-0.1,0.4c-0.9,2.6-0.7,4.5,0.7,5.8l1.9,1.8c0.7,0.7,1.7,1.1,2.7,1.1c1.1,0,2.2-0.5,3-1.4
				l23.3-24.7l0,0c6.9,3.4,15.2,1.8,20.5-3.8c3.8-4,5.8-8.5,5.7-12.8c0-1.2-0.2-2.2-0.5-3.3l-0.9-3.2L97.4-79.9l-8.3-1.9l-2.4-8.6
				l10.6-11.3l-3.3-0.7C93.1-102.7,92.1-102.8,91.1-102.8"/>
		</g>
		<g id="g262" transform="translate(-233.55451,919.1569)">
			<path id="path264" class="st1" d="M145.3-53.7c-0.9-0.1-1.7-0.3-3.5-0.3v5.2c1.7,0,2.6-0.2,3.5-0.4V-53.7z M137.5-54h-2.6v5.2
				h2.6V-54z M130.5-54h-8.3v5.2h8.3V-54z M118.6-57.9c-0.2-2-1.4-3.5-3.1-3.5c-2,0-2.9,2.3-2.9,3.5v17.5l2.8,0c3.2,0,3-3.1,3.2-5
				L118.6-57.9z M118.6-66.2c-0.2-0.8-1.4-2.8-1.5-3c-1-1.4-7.3-12.5-7.3-12.5l0-31.8h-21v32.1L76.5-69.9v5.7
				c0,0.7,3.5,6.3,6.4,10.2h14.5v-1.8c0-0.9-0.3-1.6-2.5-1.6h-7.2l-0.3-3.7c0.5-0.1,12.6-2.3,12.6-15.4h3.7c0,7.8-3.7,12.6-7.5,15.4
				c1.6,0,2.7,0.4,3.4,1c0.9-2.8,3.4-4.7,6.3-4.7c1.9,0,3.6,0.8,4.8,2.2c1.2-1.4,2.7-2.3,4.6-2.3c1.1,0,2.1,0.3,3.2,0.7V-66.2z
				 M57.3-48.8h20.7V-54H57.3V-48.8z M81.7-44c0,3.2,2.4,3.7,3.8,3.7c0.9,0,1.9,0,3,0c0-2.2,0-6.3-0.1-10.2h-6.8L81.7-44z
				 M92.2-40.4l7,0v-10.1h-7.1C92.2-44.8,92.2-40.4,92.2-40.4 M102.9-40.3c1.5,0,6,0,6,0v-17.5c-0.2-2.1-1.3-3.4-3.1-3.4
				c-1.6,0-3.2,1.6-2.9,3.4V-40.3z M142-45.2l-19.7,0c-0.1,5-2.5,8.5-7.1,8.5l-8.3,0c-6.7,0-15.5,0-21.2,0c-3.7,0-7.6-2.3-7.6-7.4
				v-1.1l-21,0l-14-6.4L57-57.9h19.1c-1.6-2.6-3-5.6-3.3-6.2v-7.5L85.1-83v-34.1h28.3l0,34.5c1.8,3.2,5.6,10,6.3,10.9
				c0,0,2.5,3.9,2.5,5.9v8.2l19.4,0c2.6,0,7.2,0.3,7.2,3.6v5.3C148.8-45.5,144.6-45.2,142-45.2"/>
		</g>
		<g id="g266" transform="translate(-230.66491,872.886)">
			<path id="path268" class="st0" d="M147.8-93.6c-6.5,0-13.8-16.4-13.8-40c0-23.6,7.3-40,13.8-40c6.5,0,13.8,16.4,13.8,40
				C161.7-110.1,154.4-93.6,147.8-93.6 M147.8-177.4c-10.1,0-17.6,18.8-17.6,43.8s7.6,43.8,17.6,43.8c10.1,0,17.6-18.8,17.6-43.8
				S157.9-177.4,147.8-177.4"/>
		</g>
		<g id="g270" transform="translate(-230.66491,858.8362)">
			<path id="path272" class="st0" d="M147.8-105.7c-23.6,0-40-7.3-40-13.8c0-6.5,16.4-13.8,40-13.8s40,7.3,40,13.8
				C187.8-113,171.4-105.7,147.8-105.7 M147.8-137.2c-25,0-43.8,7.6-43.8,17.6s18.8,17.6,43.8,17.6c25,0,43.8-7.6,43.8-17.6
				S172.8-137.2,147.8-137.2"/>
		</g>
		<g id="g274" transform="translate(-243.46031,867.3732)">
			<path id="path276" class="st0" d="M136.8-98.4c-1.9,0-3.5-0.5-4.5-1.5c-2.3-2.3-1.9-7.6,1.2-14.4c3.4-7.5,9.6-15.9,17.3-23.7
				c7.8-7.8,16.2-13.9,23.7-17.3c6.8-3.1,12.1-3.5,14.4-1.2c2.3,2.3,1.9,7.6-1.2,14.4c-3.4,7.5-9.6,15.9-17.3,23.7
				c-7.8,7.8-16.2,13.9-23.7,17.3C142.8-99.3,139.4-98.4,136.8-98.4 M184.5-161.7c-3.2,0-7.1,1-11.5,3c-7.9,3.6-16.7,10-24.8,18.1
				s-14.5,16.9-18.1,24.8c-3.8,8.5-4,15.1-0.4,18.7c3.6,3.6,10.2,3.4,18.7-0.4c7.9-3.6,16.7-10,24.8-18.1
				c8.1-8.1,14.5-16.9,18.1-24.8c3.8-8.5,4-15.1,0.4-18.7C189.9-160.8,187.5-161.7,184.5-161.7"/>
		</g>
		<g id="g278" transform="translate(-217.85451,867.3582)">
			<path id="path280" class="st0" d="M158.9-98.4c-7.3,0-20.5-6.8-33.6-20c-7.8-7.8-13.9-16.2-17.3-23.7c-3.1-6.8-3.5-12.1-1.2-14.4
				c4.6-4.6,21.4,1.8,38.1,18.5c16.7,16.7,23.1,33.4,18.5,38.1C162.3-98.9,160.8-98.4,158.9-98.4 M111.2-161.7c-3,0-5.4,0.8-7.2,2.6
				c-3.6,3.6-3.4,10.2,0.4,18.7c3.6,7.9,10,16.7,18.1,24.8C140.2-98,158.9-90,166-97.2c7.1-7.1-0.8-25.8-18.5-43.5
				C134.2-153.9,120.3-161.7,111.2-161.7"/>
		</g>
		<path id="path282" class="st0" d="M-355.9,776.5h58.8V813h-58.8V776.5z M-293.3,772.7h-66.4v44.2h66.4V772.7z"/>
		<path id="path284" class="st0" d="M-348.1,783.7h43.1v22.2h-43.1V783.7z M-301.1,779.9h-50.7v29.8h50.7V779.9z"/>
		<g id="g286" transform="translate(-382.74371,861.915)">
			<path id="path288" class="st0" d="M16.6-103.1H95l-7.9,13.8H25.3L16.6-103.1z M101.6-106.9H9.7l13.5,21.5h66.2L101.6-106.9z"/>
		</g>
		<path id="path290" class="st0" d="M-302.4,763.8h-50.1v3.8h50.1V763.8z"/>
		<g id="g292" transform="translate(-248.52741,809.0239)">
			<path id="path294" class="st0" d="M132.4-148.7c-12.8,0-23.2-10.4-23.2-23.2c0-12.8,10.4-23.2,23.2-23.2s23.2,10.4,23.2,23.2
				C155.6-159.1,145.2-148.7,132.4-148.7 M132.4-199c-14.9,0-27,12.1-27,27c0,14.9,12.1,27,27,27s27-12.1,27-27
				C159.5-186.8,147.3-199,132.4-199"/>
		</g>
		<g id="g296" transform="translate(-248.52741,809.0239)">
			<path id="path298" class="st0" d="M132.4-148.7c-6.5,0-12.1-10.6-12.1-23.2s5.5-23.2,12.1-23.2c6.5,0,12.1,10.6,12.1,23.2
				S139-148.7,132.4-148.7 M132.4-199c-8.9,0-15.9,11.9-15.9,27c0,15.2,7,27,15.9,27s15.9-11.9,15.9-27
				C148.3-187.1,141.3-199,132.4-199"/>
		</g>
		<path id="path300" class="st0" d="M-92.7,644.4h-46.8v3.8h46.8V644.4z"/>
		<path id="path302" class="st0" d="M-92.7,627h-46.8v3.8h46.8V627z"/>
		<path id="path304" class="st0" d="M-114.2,613h-3.8v50.2h3.8V613z"/>
		<g id="g306" transform="translate(-354.80631,839.5195)">
			<path id="path308" class="st0" d="M40.7-122.4c-3.7,0-6.6-3-6.6-6.6c0-3.7,3-6.6,6.6-6.6s6.6,3,6.6,6.6
				C47.4-125.4,44.4-122.4,40.7-122.4 M40.7-139.5c-5.8,0-10.5,4.7-10.5,10.5c0,5.8,4.7,10.5,10.5,10.5s10.5-4.7,10.5-10.5
				C51.2-134.8,46.5-139.5,40.7-139.5"/>
		</g>
		<g id="g310" transform="translate(-376.60121,827.8204)">
			<path id="path312" class="st0" d="M21.9-132.5c-3.7,0-6.6-3-6.6-6.6s3-6.6,6.6-6.6s6.6,3,6.6,6.6S25.6-132.5,21.9-132.5
				 M21.9-149.6c-5.8,0-10.5,4.7-10.5,10.5c0,5.8,4.7,10.5,10.5,10.5s10.5-4.7,10.5-10.5C32.4-144.9,27.7-149.6,21.9-149.6"/>
		</g>
		<g id="g314" transform="translate(-358.31591,817.8431)">
			<path id="path316" class="st0" d="M37.7-141.1c-3.7,0-6.6-3-6.6-6.6s3-6.6,6.6-6.6c3.7,0,6.6,3,6.6,6.6S41.4-141.1,37.7-141.1
				 M37.7-158.2c-5.8,0-10.5,4.7-10.5,10.5c0,5.8,4.7,10.5,10.5,10.5s10.5-4.7,10.5-10.5C48.2-153.5,43.5-158.2,37.7-158.2"/>
		</g>
		<g id="g318" transform="translate(-371.95671,825.3426)">
			<path id="path320" class="st0" d="M25.9-134.6l-1.8,3.4l25.5,13.7l1.8-3.4L25.9-134.6z"/>
		</g>
		<g id="g322" transform="translate(-362.81581,815.4493)">
			<path id="path324" class="st0" d="M33.8-143.2L15-132.9l1.8,3.3l18.9-10.3L33.8-143.2z"/>
		</g>
		<g id="g326" transform="translate(-263.44761,866.9531)">
			<path id="path328" class="st0" d="M119.5-98.7c-11.9,23.2-35.4,37.6-61.5,37.6C36.5-61.2,16.6-71,3.4-88l-3,2.3
				c13.9,18,34.9,28.3,57.7,28.3c27.5,0,52.3-15.2,64.9-39.6L119.5-98.7z"/>
		</g>
		<g id="g330" transform="translate(-296.46061,810.9305)">
			<path id="path332" class="st0" d="M91.1-147.1c-1.9,0-3.8,0.1-5.8,0.2l0.3,3.8c27.2-2.2,53.2,12,66.2,36c1,1.8,1.9,3.6,2.7,5.4
				l3.5-1.5c-0.8-1.9-1.8-3.9-2.8-5.7C142.4-132.5,117.6-147.1,91.1-147.1"/>
		</g>
		<g id="g334" transform="translate(-315.07831,815.6614)">
			<path id="path336" class="st0" d="M75-143c-21.6,11.7-35.7,33.2-37.9,57.7l3.8,0.3c2.1-23.2,15.5-43.6,35.9-54.7L75-143z"/>
		</g>
		<g id="g338" transform="translate(-333.89601,815.4369)">
			<path id="path340" class="st0" d="M58.8-143.2c-5.6,6.1-10.5,13-14.4,20.4c-1.3,2.5-2.5,5-3.6,7.6l3.5,1.5c1-2.5,2.2-4.9,3.4-7.3
				c3.7-7.1,8.4-13.7,13.8-19.6L58.8-143.2z"/>
		</g>
		<g id="g342" transform="translate(-296.48061,799.1259)">
			<path id="path344" class="st0" d="M91-157.3c-2.6,0-5.3,0.1-7.9,0.3l0.3,3.8c33.7-2.8,66,13.2,84.3,41.7l3.2-2.1
				C153.3-141,123.2-157.3,91-157.3"/>
		</g>
		<g id="g346" transform="translate(-274.69111,893.8094)">
			<path id="path348" class="st0" d="M109.8-75.6c-14.5,7.3-30.8,10.5-47,9.3l-0.3,3.8c17,1.2,33.9-2.2,49-9.7L109.8-75.6z"/>
		</g>
		<g id="g350" transform="translate(-384.88021,834.1416)">
			<path id="path352" class="st0" d="M14.8-127.1c-1.8,10.1-2.7,20.5-2.6,30.8l3.8,0c-0.1-10.1,0.8-20.2,2.6-30.1L14.8-127.1z"/>
		</g>
		<g id="g354" transform="translate(-309.46501,761.4146)">
			<path id="path356" class="st0" d="M79.8-189.8c-4.5,0.8-13.1,2.4-19.3,3.8c-41.2,9.9-76.7,36.6-99.9,75.2l3.3,2
				c22.7-37.7,57.4-63.8,97.5-73.4c6.1-1.5,14.5-3,19-3.8L79.8-189.8z"/>
		</g>
		<g id="g358" transform="translate(-278.56781,762.2775)">
			<path id="path360" class="st0" d="M106.5-189.1l-0.8,3.7c17.3,3.5,33.7,9.9,49,18.8l1.9-3.3C141-179,124.2-185.4,106.5-189.1"/>
		</g>
		<g id="g362" transform="translate(-224.58341,796.8372)">
			<path id="path364" class="st0" d="M153.1-159.2L150-157c11.6,15.7,20.2,33.1,25.6,51.8l3.7-1.1
				C173.8-125.3,165-143.2,153.1-159.2"/>
		</g>
		<g id="g366" transform="translate(-213.50281,877.4772)">
			<path id="path368" class="st0" d="M162.6-89.7c-6.5,19.8-16.7,38-30.2,54l2.9,2.5c13.8-16.4,24.3-35,30.9-55.3L162.6-89.7z"/>
		</g>
		<g id="g370" transform="translate(-326.63881,932.354)">
			<path id="path372" class="st0" d="M65-42.3l-1.3,3.6c18.3,6.7,37.5,10,57.1,10c13,0,26-1.5,38.6-4.5l-0.9-3.7
				c-12.3,2.9-25,4.4-37.7,4.4C101.7-32.5,82.9-35.8,65-42.3"/>
		</g>
		<g id="g374" transform="translate(-365.87151,903.7175)">
			<path id="path376" class="st0" d="M31.2-67l-3,2.3c3.7,4.7,7.7,9.3,11.9,13.7c8.2,8.4,17.2,16,26.9,22.6l2.1-3.2
				C59.6-38,50.7-45.4,42.8-53.7C38.7-57.9,34.8-62.4,31.2-67"/>
		</g>
		<g id="g378" transform="translate(-296.74551,950.8437)">
			<path id="path380" class="st0" d="M90.8-26.4c-91.7,0-172.1-67.5-185.7-160.8C-109.7-289.6-38.4-385,64-399.9
				c102.4-14.8,197.9,56.4,212.7,158.9c14.9,102.4-56.4,197.9-158.9,212.7C108.8-27,99.7-26.4,90.8-26.4 M91.1-405.7
				c-9.1,0-18.3,0.7-27.6,2c-104.5,15.2-177.2,112.5-162.1,217C-83.5-82.1,13.9-9.4,118.4-24.6c104.5-15.2,177.2-112.5,162.1-217
				C266.7-336.8,184.6-405.7,91.1-405.7"/>
		</g>
		<g id="g382" transform="translate(-325.97391,858.072)">
			<path id="path384" class="st0" d="M65.6-106.4l52.1-22.2l57.2,22l-56.9,22L65.6-106.4z M117.7-132.6c-0.3,0-0.5,0.1-0.7,0.2
				l-57,24.3c-0.7,0.3-1.2,1-1.2,1.8c0,0.8,0.5,1.5,1.2,1.8l57.4,23.9c0.5,0.2,1,0.2,1.4,0l62.2-24.1c0.7-0.3,1.2-1,1.2-1.8
				c0-0.8-0.5-1.5-1.2-1.8l-62.6-24.1C118.1-132.6,117.9-132.6,117.7-132.6"/>
		</g>
		<g id="g386" transform="translate(-296.87451,832.4021)">
			<path id="path388" class="st0" d="M90.7-128.6c-21.7,0-36.8,11.3-37.5,11.8c-0.5,0.4-0.8,0.9-0.8,1.5V-92c0,1.1,0.9,1.9,1.9,1.9
				s1.9-0.9,1.9-1.9v-22.2c3.2-2.2,16.7-10.5,34.4-10.5c19.7,0,34.1,8.3,37.5,10.6v23.3c0,1.1,0.9,1.9,1.9,1.9
				c1.1,0,1.9-0.9,1.9-1.9v-24.3c0-0.6-0.3-1.2-0.8-1.6C130.6-117.2,114.5-128.6,90.7-128.6"/>
		</g>
		<g id="g390" transform="translate(-294.37291,857.7325)">
			<path id="path392" class="st0" d="M92.9-106.7c0-1.1-2-2.1-4.6-2.1c-2.5,0-4.6,0.9-4.6,2.1c0,1.1,2,2.1,4.6,2.1
				C90.8-104.6,92.9-105.6,92.9-106.7"/>
		</g>
		<g id="g394" transform="translate(-297.64841,857.7325)">
			<path id="path396" class="st0" d="M90-106.7c0.8-0.2,2.3-0.2,3.1,0C92.3-106.5,90.9-106.5,90-106.7 M94.4-107.2L94.4-107.2
				L94.4-107.2z M91.6-110.7c-3.8,0-6.5,1.6-6.5,4c0,2.3,2.7,4,6.5,4c3.8,0,6.5-1.6,6.5-4C98-109,95.4-110.7,91.6-110.7"/>
		</g>
		<g id="g398" transform="translate(-280.65451,830.3788)">
			<path id="path400" class="st0" d="M104.7-130.3h-3.8v38.5l-24.2,9.6l1.4,3.5l26.7-10.6V-130.3z"/>
		</g>
		<g id="g402" transform="translate(-279.74551,823.1853)">
			<path id="path404" class="st0" d="M105.5-136.5l-3.6,11.9l-3.4-11.9H105.5z"/>
		</g>
		<g id="g406" transform="translate(-282.13131,824.2091)">
			<path id="path408" class="st0" d="M103.4-135.6h1.9l-1,3.2L103.4-135.6z M110.4-139.4H98.4l5.9,20.6L110.4-139.4z"/>
		</g>
		<g id="g410" transform="translate(-280.33351,830.2912)">
			<path id="path412" class="st0" d="M105-130.4c0-1.3-1.1-2.4-2.4-2.4c-1.3,0-2.4,1.1-2.4,2.4s1.1,2.4,2.4,2.4
				C103.9-128,105-129.1,105-130.4"/>
		</g>
		<g id="g414" transform="translate(-281.61741,830.5513)">
			<path id="path416" class="st0" d="M103.9-130.1c-0.3,0-0.5-0.2-0.5-0.5c0-0.5,1-0.5,1,0C104.4-130.4,104.1-130.1,103.9-130.1
				 M103.9-134.9c-2.4,0-4.3,1.9-4.3,4.3s1.9,4.3,4.3,4.3c2.4,0,4.3-1.9,4.3-4.3S106.2-134.9,103.9-134.9"/>
		</g>
	</g>
</g>
</svg>
