<?xml version="1.0" encoding="utf-8"?>
<!-- Generator: Adobe Illustrator 23.0.0, SVG Export Plug-In . SVG Version: 6.00 Build 0)  -->
<svg version="1.1" id="Layer_1" xmlns="http://www.w3.org/2000/svg" xmlns:xlink="http://www.w3.org/1999/xlink" x="0px" y="0px"
	 viewBox="0 0 200 222.5" style="enable-background:new 0 0 200 222.5;" xml:space="preserve">
<style type="text/css">
	.st0{fill-rule:evenodd;clip-rule:evenodd;fill:#FDB300;}
	.st1{fill-rule:evenodd;clip-rule:evenodd;fill:#EA6C00;}
	.st2{fill-rule:evenodd;clip-rule:evenodd;fill:#FDAD00;}
	.st3{fill-rule:evenodd;clip-rule:evenodd;fill:#FDD231;}
	.st4{fill-rule:evenodd;clip-rule:evenodd;fill:#FEEEB7;}
</style>
<title>Atlassian-vertical-blue-onecolor-rgb</title>
<g>
	<path class="st0" d="M43.6,26.7l56.4-6l56.4,6L200,85.3L100,201.7L0,85.3L43.6,26.7z"/>
	<g transform="translate(59.000000, 211.881084)">
		<polygon class="st1" points="-18.5,-126.6 41,-10.2 -59,-126.6 		"/>
		<polygon class="st1" points="100.5,-126.6 41,-10.2 141,-126.6 		"/>
		<polygon class="st2" points="-18.5,-126.6 100.5,-126.6 41,-10.2 		"/>
	</g>
	<g transform="translate(59.000000, 85.000000)">
		<polygon class="st3" points="41,-64.3 -15.4,-58.3 -18.5,0.3 		"/>
		<polygon class="st3" points="41,-64.3 97.4,-58.3 100.5,0.3 		"/>
		<polygon class="st2" points="141,0.3 97.4,-58.3 100.5,0.3 		"/>
		<polygon class="st2" points="-59,0.3 -15.4,-58.3 -18.5,0.3 		"/>
		<polygon class="st4" points="41,-64.3 -18.5,0.3 100.5,0.3 		"/>
	</g>
</g>
</svg>
