<svg xmlns="http://www.w3.org/2000/svg" xmlns:xlink="http://www.w3.org/1999/xlink" viewBox="0 0 317.94 337.65"><defs><style>.cls-1{fill:none;}.cls-2{isolation:isolate;}.cls-3{fill:#2c75e4;}.cls-4{opacity:0.4;fill:url(#radial-gradient);}.cls-19,.cls-20,.cls-29,.cls-30,.cls-38,.cls-39,.cls-4,.cls-47,.cls-48{mix-blend-mode:lighten;}.cls-5{fill:#6ee8fc;}.cls-6{fill:#0c0f38;opacity:0.8;}.cls-7{fill:url(#Áåçûìÿííûé_ãðàäèåíò_388);}.cls-8{fill:url(#Áåçûìÿííûé_ãðàäèåíò_377);}.cls-9{fill:url(#Áåçûìÿííûé_ãðàäèåíò_388-2);}.cls-10{fill:#d4088c;}.cls-11{fill:url(#Áåçûìÿííûé_ãðàäèåíò_300);}.cls-12{fill:url(#Áåçûìÿííûé_ãðàäèåíò_302);}.cls-13{fill:#6de0f6;}.cls-14{clip-path:url(#clip-path);}.cls-15{fill:#267fe5;}.cls-16{fill:#25bfec;}.cls-17{fill:#18d0f7;}.cls-18{fill:#480689;}.cls-19,.cls-29,.cls-38,.cls-47{opacity:0.2;}.cls-19{fill:url(#linear-gradient);}.cls-20,.cls-30,.cls-39,.cls-48{opacity:0.25;}.cls-20{fill:url(#linear-gradient-2);}.cls-21,.cls-22,.cls-31,.cls-40{opacity:0.6;}.cls-22{fill:url(#linear-gradient-3);}.cls-23{fill:url(#linear-gradient-4);}.cls-24{fill:url(#Áåçûìÿííûé_ãðàäèåíò_377-2);}.cls-25{fill:url(#Áåçûìÿííûé_ãðàäèåíò_388-3);}.cls-26{fill:url(#Áåçûìÿííûé_ãðàäèåíò_300-2);}.cls-27{fill:url(#Áåçûìÿííûé_ãðàäèåíò_302-2);}.cls-28{clip-path:url(#clip-path-2);}.cls-29{fill:url(#linear-gradient-5);}.cls-30{fill:url(#linear-gradient-6);}.cls-31{fill:url(#linear-gradient-7);}.cls-32{fill:url(#Áåçûìÿííûé_ãðàäèåíò_388-4);}.cls-33{fill:url(#Áåçûìÿííûé_ãðàäèåíò_377-3);}.cls-34{fill:url(#Áåçûìÿííûé_ãðàäèåíò_388-5);}.cls-35{fill:url(#Áåçûìÿííûé_ãðàäèåíò_300-3);}.cls-36{fill:url(#Áåçûìÿííûé_ãðàäèåíò_302-3);}.cls-37{clip-path:url(#clip-path-3);}.cls-38{fill:url(#linear-gradient-8);}.cls-39{fill:url(#linear-gradient-9);}.cls-40{fill:url(#linear-gradient-10);}.cls-41{fill:url(#linear-gradient-11);}.cls-42{fill:url(#Áåçûìÿííûé_ãðàäèåíò_377-4);}.cls-43{fill:url(#Áåçûìÿííûé_ãðàäèåíò_388-6);}.cls-44{fill:url(#Áåçûìÿííûé_ãðàäèåíò_300-4);}.cls-45{fill:url(#Áåçûìÿííûé_ãðàäèåíò_302-4);}.cls-46{clip-path:url(#clip-path-4);}.cls-47{fill:url(#linear-gradient-12);}.cls-48{fill:url(#Áåçûìÿííûé_ãðàäèåíò_384);}</style><radialGradient id="radial-gradient" cx="-484.15" cy="-1972.67" r="111.19" gradientTransform="matrix(-0.87, 0.5, 0.87, 0.5, 1436.34, 1487.44)" gradientUnits="userSpaceOnUse"><stop offset="0.01" stop-color="#25bfec"/><stop offset="0.04" stop-color="#24b6e3" stop-opacity="0.95"/><stop offset="0.19" stop-color="#208bb7" stop-opacity="0.7"/><stop offset="0.34" stop-color="#1c6692" stop-opacity="0.49"/><stop offset="0.48" stop-color="#194773" stop-opacity="0.31"/><stop offset="0.62" stop-color="#16305c" stop-opacity="0.18"/><stop offset="0.76" stop-color="#141f4b" stop-opacity="0.08"/><stop offset="0.89" stop-color="#131440" stop-opacity="0.02"/><stop offset="1" stop-color="#13113d" stop-opacity="0"/></radialGradient><linearGradient id="Áåçûìÿííûé_ãðàäèåíò_388" x1="3975.84" y1="210.87" x2="4082.75" y2="210.87" gradientTransform="matrix(-1, 0, 0, 1, 4313.98, 0)" gradientUnits="userSpaceOnUse"><stop offset="0" stop-color="#d4088c"/><stop offset="0.23" stop-color="#d4088c"/><stop offset="0.51" stop-color="#6ee1f8"/><stop offset="0.78" stop-color="#6ee8fc"/><stop offset="1" stop-color="#6ee8fc"/></linearGradient><linearGradient id="Áåçûìÿííûé_ãðàäèåíò_377" x1="3975.79" y1="146.37" x2="4085.43" y2="146.37" gradientTransform="matrix(-1, 0, 0, 1, 4313.98, 0)" gradientUnits="userSpaceOnUse"><stop offset="0" stop-color="#a31fa9"/><stop offset="0.07" stop-color="#8b17a0"/><stop offset="0.15" stop-color="#740f98"/><stop offset="0.24" stop-color="#640a92"/><stop offset="0.34" stop-color="#5b078f"/><stop offset="0.48" stop-color="#58068e"/><stop offset="0.63" stop-color="#4d22a3"/><stop offset="0.94" stop-color="#3168da"/><stop offset="1" stop-color="#2c75e4"/></linearGradient><linearGradient id="Áåçûìÿííûé_ãðàäèåíò_388-2" x1="3975.79" y1="179.99" x2="4085.43" y2="179.99" xlink:href="#Áåçûìÿííûé_ãðàäèåíò_388"/><linearGradient id="Áåçûìÿííûé_ãðàäèåíò_300" x1="2662.62" y1="-1195.74" x2="2714.34" y2="-1240.53" gradientTransform="matrix(-0.87, 0.5, 1, 0.58, 3831.99, -528.32)" gradientUnits="userSpaceOnUse"><stop offset="0" stop-color="#8d139b"/><stop offset="0.17" stop-color="#851ba1"/><stop offset="0.43" stop-color="#6e33b2"/><stop offset="0.76" stop-color="#4958cd"/><stop offset="1" stop-color="#2979e4"/></linearGradient><linearGradient id="Áåçûìÿííûé_ãðàäèåíò_302" x1="2669.37" y1="-1201.59" x2="2707.87" y2="-1234.93" gradientTransform="matrix(-0.87, 0.5, 1, 0.58, 3831.99, -528.32)" gradientUnits="userSpaceOnUse"><stop offset="0" stop-color="#630692"/><stop offset="0.23" stop-color="#5b0e94"/><stop offset="0.59" stop-color="#432399"/><stop offset="1" stop-color="#2142a1"/></linearGradient><clipPath id="clip-path" transform="translate(-108.77 -9.28)"><path class="cls-1" d="M287.33,126,308,114.1c1.47-.85,1.28-2.33-.41-3.3l-19.8-11.44a6.37,6.37,0,0,0-5.72-.23L261.4,111c-1.47.85-1.28,2.33.41,3.31l19.8,11.43A6.37,6.37,0,0,0,287.33,126Z"/></clipPath><linearGradient id="linear-gradient" x1="4029.31" y1="126.58" x2="4029.31" y2="9.28" gradientTransform="matrix(-1, 0, 0, 1, 4313.98, 0)" xlink:href="#radial-gradient"/><linearGradient id="linear-gradient-2" x1="4029.31" y1="125.3" x2="4029.31" y2="19.14" gradientTransform="matrix(-1, 0, 0, 1, 4313.98, 0)" gradientUnits="userSpaceOnUse"><stop offset="0.01" stop-color="#70e8fc"/><stop offset="0.07" stop-color="#66d0e7" stop-opacity="0.89"/><stop offset="0.22" stop-color="#509eba" stop-opacity="0.66"/><stop offset="0.36" stop-color="#3d7394" stop-opacity="0.46"/><stop offset="0.5" stop-color="#2e5075" stop-opacity="0.29"/><stop offset="0.64" stop-color="#22345c" stop-opacity="0.16"/><stop offset="0.77" stop-color="#1a214b" stop-opacity="0.07"/><stop offset="0.89" stop-color="#151541" stop-opacity="0.02"/><stop offset="1" stop-color="#13113d" stop-opacity="0"/></linearGradient><linearGradient id="linear-gradient-3" x1="305.98" y1="252.06" x2="395.97" y2="252.06" gradientUnits="userSpaceOnUse"><stop offset="0" stop-color="#1b83f6"/><stop offset="1" stop-color="#fff"/><stop offset="1" stop-color="#fff" stop-opacity="0"/></linearGradient><linearGradient id="linear-gradient-4" x1="3909.54" y1="252.06" x2="4016.45" y2="252.06" gradientTransform="matrix(-1, 0, 0, 1, 4313.98, 0)" xlink:href="#linear-gradient-3"/><linearGradient id="Áåçûìÿííûé_ãðàäèåíò_377-2" x1="3909.5" y1="187.55" x2="4019.13" y2="187.55" xlink:href="#Áåçûìÿííûé_ãðàäèåíò_377"/><linearGradient id="Áåçûìÿííûé_ãðàäèåíò_388-3" x1="3909.5" y1="221.17" x2="4019.13" y2="221.17" xlink:href="#Áåçûìÿííûé_ãðàäèåíò_388"/><linearGradient id="Áåçûìÿííûé_ãðàäèåíò_300-2" x1="2665.52" y1="-1126.93" x2="2717.24" y2="-1171.72" xlink:href="#Áåçûìÿííûé_ãðàäèåíò_300"/><linearGradient id="Áåçûìÿííûé_ãðàäèåíò_302-2" x1="2672.27" y1="-1132.78" x2="2710.77" y2="-1166.12" xlink:href="#Áåçûìÿííûé_ãðàäèåíò_302"/><clipPath id="clip-path-2" transform="translate(-108.77 -9.28)"><path class="cls-1" d="M353.63,167.19l20.63-11.91c1.46-.85,1.28-2.32-.41-3.3L354,140.54a6.37,6.37,0,0,0-5.72-.23L327.7,152.22c-1.47.84-1.28,2.32.41,3.3L347.91,167A6.34,6.34,0,0,0,353.63,167.19Z"/></clipPath><linearGradient id="linear-gradient-5" x1="3963.02" y1="167.76" x2="3963.02" y2="50.46" gradientTransform="matrix(-1, 0, 0, 1, 4313.98, 0)" xlink:href="#radial-gradient"/><linearGradient id="linear-gradient-6" x1="3963.02" y1="166.48" x2="3963.02" y2="60.32" xlink:href="#linear-gradient-2"/><linearGradient id="linear-gradient-7" x1="196.56" y1="274.66" x2="242.55" y2="228.61" xlink:href="#linear-gradient-3"/><linearGradient id="Áåçûìÿííûé_ãðàäèåíò_388-4" x1="4040.97" y1="251.63" x2="4147.88" y2="251.63" xlink:href="#Áåçûìÿííûé_ãðàäèåíò_388"/><linearGradient id="Áåçûìÿííûé_ãðàäèåíò_377-3" x1="4040.92" y1="187.12" x2="4150.56" y2="187.12" xlink:href="#Áåçûìÿííûé_ãðàäèåíò_377"/><linearGradient id="Áåçûìÿííûé_ãðàäèåíò_388-5" x1="4040.92" y1="220.75" x2="4150.56" y2="220.75" xlink:href="#Áåçûìÿííûé_ãðàäèåíò_388"/><linearGradient id="Áåçûìÿííûé_ãðàäèåíò_300-3" x1="2740.98" y1="-1193.01" x2="2792.7" y2="-1237.8" xlink:href="#Áåçûìÿííûé_ãðàäèåíò_300"/><linearGradient id="Áåçûìÿííûé_ãðàäèåíò_302-3" x1="2747.73" y1="-1198.85" x2="2786.23" y2="-1232.2" xlink:href="#Áåçûìÿííûé_ãðàäèåíò_302"/><clipPath id="clip-path-3" transform="translate(-108.77 -9.28)"><path class="cls-1" d="M222.21,166.77l20.62-11.91c1.47-.85,1.28-2.33-.41-3.31l-19.8-11.43a6.37,6.37,0,0,0-5.72-.24l-20.63,11.91c-1.47.85-1.28,2.33.41,3.3l19.8,11.44A6.39,6.39,0,0,0,222.21,166.77Z"/></clipPath><linearGradient id="linear-gradient-8" x1="4083.08" y1="153.4" x2="4083.08" y2="36.1" gradientTransform="matrix(-1, 0.01, 0.01, 1, 4301.9, -16.69)" xlink:href="#radial-gradient"/><linearGradient id="linear-gradient-9" x1="4083.08" y1="152.12" x2="4083.08" y2="45.96" gradientTransform="matrix(-1, 0.01, 0.01, 1, 4301.9, -16.69)" xlink:href="#linear-gradient-2"/><linearGradient id="linear-gradient-10" x1="240.85" y1="292.81" x2="330.84" y2="292.81" xlink:href="#linear-gradient-3"/><linearGradient id="linear-gradient-11" x1="3974.67" y1="292.81" x2="4081.58" y2="292.81" gradientTransform="matrix(-1, 0, 0, 1, 4313.98, 0)" xlink:href="#linear-gradient-3"/><linearGradient id="Áåçûìÿííûé_ãðàäèåíò_377-4" x1="3974.62" y1="228.31" x2="4084.26" y2="228.31" xlink:href="#Áåçûìÿííûé_ãðàäèåíò_377"/><linearGradient id="Áåçûìÿííûé_ãðàäèåíò_388-6" x1="3974.62" y1="261.93" x2="4084.26" y2="261.93" xlink:href="#Áåçûìÿííûé_ãðàäèåíò_388"/><linearGradient id="Áåçûìÿííûé_ãðàäèåíò_300-4" x1="2743.89" y1="-1124.2" x2="2795.6" y2="-1168.99" xlink:href="#Áåçûìÿííûé_ãðàäèåíò_300"/><linearGradient id="Áåçûìÿííûé_ãðàäèåíò_302-4" x1="2750.63" y1="-1130.04" x2="2789.13" y2="-1163.39" xlink:href="#Áåçûìÿííûé_ãðàäèåíò_302"/><clipPath id="clip-path-4" transform="translate(-108.77 -9.28)"><path class="cls-1" d="M288.5,208,309.13,196c1.47-.85,1.28-2.33-.41-3.3l-19.8-11.44a6.39,6.39,0,0,0-5.73-.23L262.57,193c-1.47.85-1.28,2.33.41,3.31l19.8,11.43A6.37,6.37,0,0,0,288.5,208Z"/></clipPath><linearGradient id="linear-gradient-12" x1="4028.15" y1="208.52" x2="4028.15" y2="91.22" gradientTransform="matrix(-1, 0, 0, 1, 4313.98, 0)" xlink:href="#radial-gradient"/><linearGradient id="Áåçûìÿííûé_ãðàäèåíò_384" x1="4028.15" y1="207.24" x2="4028.15" y2="101.08" gradientTransform="matrix(-1, 0, 0, 1, 4313.98, 0)" gradientUnits="userSpaceOnUse"><stop offset="0.01" stop-color="#70e8fc"/><stop offset="0.15" stop-color="#5ab5cf"/><stop offset="0.3" stop-color="#4584a3"/><stop offset="0.46" stop-color="#335a7e"/><stop offset="0.6" stop-color="#253a62"/><stop offset="0.75" stop-color="#1b244d"/><stop offset="0.88" stop-color="#151641"/><stop offset="1" stop-color="#13113d"/></linearGradient></defs><title>blockchain</title><g class="cls-2"><g id="Layer_1" data-name="Layer 1"><g id="Block_chain" data-name="Block chain"><path class="cls-3" d="M252.12,260.45a5.76,5.76,0,0,1-2.82-.66l-8.81-5.09a2.27,2.27,0,0,1-1.29-1.94,3,3,0,0,1,1.7-2.39l37.74-21.78a7,7,0,0,1,6.4-.24l8.81,5.09a2.24,2.24,0,0,1,1.28,1.94,2.92,2.92,0,0,1-1.7,2.38L255.7,259.55A7.43,7.43,0,0,1,252.12,260.45Zm-2.27-1.61a6,6,0,0,0,5.3-.24l37.73-21.79c.73-.42,1.16-.95,1.16-1.43a1.27,1.27,0,0,0-.74-1l-8.81-5.08a6,6,0,0,0-5.3.24l-37.74,21.78c-.72.42-1.16,1-1.16,1.44a1.26,1.26,0,0,0,.74,1Z" transform="translate(-108.77 -9.28)"/><path class="cls-3" d="M152.86,252.16a5.8,5.8,0,0,1-2.83-.66l-5.78-3.34a2.26,2.26,0,0,1-1.28-1.94,3,3,0,0,1,1.7-2.39L163.42,233a7,7,0,0,1,6.4-.25l5.78,3.34a2.27,2.27,0,0,1,1.29,1.94,2.94,2.94,0,0,1-1.71,2.39l-18.75,10.82A7.26,7.26,0,0,1,152.86,252.16ZM167,233.21a6.23,6.23,0,0,0-3,.75l-18.75,10.82c-.72.42-1.16,1-1.16,1.44a1.24,1.24,0,0,0,.74,1l5.78,3.34a6,6,0,0,0,5.3-.24l18.75-10.83c.73-.42,1.16-.95,1.16-1.44a1.27,1.27,0,0,0-.74-1l-5.78-3.34A4.63,4.63,0,0,0,167,233.21Z" transform="translate(-108.77 -9.28)"/><path class="cls-3" d="M318.4,331.69a6.44,6.44,0,0,1-3.19-.78L289.36,316l.54-.95L315.76,330a6,6,0,0,0,5.28,0l103.64-59.84a1.25,1.25,0,0,0,0-2.42l-185-106.79a5.93,5.93,0,0,0-5.29,0l-41.86,24.17a1.55,1.55,0,0,0-.94,1.21,1.58,1.58,0,0,0,.94,1.21l37.31,21.54a5.93,5.93,0,0,0,5.29,0l19.09-11a7,7,0,0,1,6.39,0l62.7,36.2a2.32,2.32,0,0,1,0,4.32L222.49,296.78a7,7,0,0,1-6.39,0L110.25,235.66a2.31,2.31,0,0,1,0-4.31L162.88,201a7,7,0,0,1,6.39,0l61,35.22a2.32,2.32,0,0,1,0,4.32l-26.7,15.41L203,255l26.7-15.41a1.25,1.25,0,0,0,0-2.42l-61-35.22a5.93,5.93,0,0,0-5.29,0L110.8,232.3a1.55,1.55,0,0,0-.94,1.21,1.58,1.58,0,0,0,.94,1.21l105.85,61.11a5.93,5.93,0,0,0,5.29,0L322.8,237.6a1.25,1.25,0,0,0,0-2.42L260.1,199a5.93,5.93,0,0,0-5.29,0l-19.09,11a7,7,0,0,1-6.38,0L192,188.46a2.32,2.32,0,0,1,0-4.32L233.88,160a7,7,0,0,1,6.38,0l185,106.79a2.32,2.32,0,0,1,0,4.32L321.59,330.91A6.47,6.47,0,0,1,318.4,331.69Z" transform="translate(-108.77 -9.28)"/><path class="cls-3" d="M303.36,300.89l-11.74-6.77a2.32,2.32,0,0,1,0-4.32L352,254.94a7,7,0,0,1,6.38,0l8.55,4.94a2.31,2.31,0,0,1,0,4.32Zm49.18-45-60.37,34.86a1.55,1.55,0,0,0-.94,1.21,1.58,1.58,0,0,0,.94,1.21l11.19,6.46.28-.17,62.74-36.21a1.59,1.59,0,0,0,.93-1.21,1.56,1.56,0,0,0-.93-1.21l-8.55-4.94a5.93,5.93,0,0,0-5.29,0Z" transform="translate(-108.77 -9.28)"/><path class="cls-3" d="M201.84,326.75a5.53,5.53,0,0,1-2.82-.66l-71-41a2.26,2.26,0,0,1-1.28-1.94,3,3,0,0,1,1.7-2.39l15.76-9.1a7,7,0,0,1,6.4-.24l71,41a2.26,2.26,0,0,1,1.28,1.94,2.92,2.92,0,0,1-1.7,2.38l-15.77,9.1A7.25,7.25,0,0,1,201.84,326.75Zm-54.05-54.88a6.38,6.38,0,0,0-3,.75L129,281.72c-.73.42-1.16,1-1.16,1.44a1.24,1.24,0,0,0,.74,1l71,41a6,6,0,0,0,5.31-.25l15.76-9.1c.72-.42,1.16-.95,1.16-1.43a1.29,1.29,0,0,0-.74-1l-71-41A4.62,4.62,0,0,0,147.79,271.87Z" transform="translate(-108.77 -9.28)"/><path class="cls-3" d="M166.75,223.25a5.65,5.65,0,0,1-2.82-.66l-5.78-3.33a2.28,2.28,0,0,1-1.29-1.95,3,3,0,0,1,1.71-2.38l4.94-2.85a7,7,0,0,1,6.4-.25l5.78,3.34a2.27,2.27,0,0,1,1.29,1.94,2.94,2.94,0,0,1-1.71,2.39l-4.94,2.85A7.32,7.32,0,0,1,166.75,223.25Zm-2.27-1.61a6,6,0,0,0,5.3-.24l4.94-2.85c.73-.42,1.16-1,1.16-1.44a1.24,1.24,0,0,0-.74-1l-5.78-3.34a6,6,0,0,0-5.3.25l-4.94,2.85c-.73.42-1.16,1-1.16,1.43a1.27,1.27,0,0,0,.74,1Z" transform="translate(-108.77 -9.28)"/><path class="cls-3" d="M184.84,233.69A5.69,5.69,0,0,1,182,233l-5.78-3.33a2.27,2.27,0,0,1-1.28-1.95,2.92,2.92,0,0,1,1.7-2.38l4.95-2.85a7,7,0,0,1,6.39-.25l5.78,3.34a2.27,2.27,0,0,1,1.29,1.94,2.94,2.94,0,0,1-1.71,2.39l-4.94,2.85A7.25,7.25,0,0,1,184.84,233.69Zm.35-11a6.27,6.27,0,0,0-3.05.76l-4.94,2.85c-.72.42-1.16,1-1.16,1.43a1.27,1.27,0,0,0,.74,1l5.78,3.33a6,6,0,0,0,5.3-.24l4.95-2.85c.72-.42,1.15-1,1.15-1.44a1.26,1.26,0,0,0-.73-1l-5.79-3.34A4.62,4.62,0,0,0,185.19,222.71Z" transform="translate(-108.77 -9.28)"/><path class="cls-3" d="M202.92,244.13a5.65,5.65,0,0,1-2.82-.66l-5.78-3.33a2.28,2.28,0,0,1-1.29-1.95,2.93,2.93,0,0,1,1.71-2.38l4.94-2.85a7,7,0,0,1,6.39-.25l5.79,3.34a2.26,2.26,0,0,1,1.28,1.94,3,3,0,0,1-1.7,2.39l-4.94,2.85A7.32,7.32,0,0,1,202.92,244.13Zm-2.27-1.61a6,6,0,0,0,5.3-.24l4.94-2.85c.72-.42,1.16-1,1.16-1.44a1.24,1.24,0,0,0-.74-1l-5.78-3.34a6,6,0,0,0-5.3.25l-4.95,2.85c-.72.42-1.15,1-1.15,1.43a1.28,1.28,0,0,0,.73,1Z" transform="translate(-108.77 -9.28)"/><path class="cls-3" d="M148.58,233.75a5.76,5.76,0,0,1-2.82-.66L140,229.75a2.27,2.27,0,0,1-1.29-1.94,2.94,2.94,0,0,1,1.71-2.39l4.94-2.85a7,7,0,0,1,6.4-.24l5.78,3.33a2.28,2.28,0,0,1,1.29,2A3,3,0,0,1,157.1,230l-4.94,2.85A7.33,7.33,0,0,1,148.58,233.75Zm.35-11a6.2,6.2,0,0,0-3,.75L141,226.37c-.73.42-1.16,1-1.16,1.44a1.27,1.27,0,0,0,.74,1l5.78,3.34a6,6,0,0,0,5.3-.25l4.94-2.85c.73-.42,1.16-.95,1.16-1.43a1.27,1.27,0,0,0-.74-1l-5.78-3.34A4.63,4.63,0,0,0,148.93,222.77Z" transform="translate(-108.77 -9.28)"/><path class="cls-3" d="M184.75,254.63a5.73,5.73,0,0,1-2.82-.66l-5.79-3.34a2.26,2.26,0,0,1-1.28-1.94,3,3,0,0,1,1.7-2.39l4.95-2.85a7,7,0,0,1,6.39-.24l5.78,3.33a2.28,2.28,0,0,1,1.29,2,2.94,2.94,0,0,1-1.71,2.38l-4.94,2.85A7.26,7.26,0,0,1,184.75,254.63ZM182.47,253a6,6,0,0,0,5.31-.25l4.94-2.85c.72-.42,1.16-.95,1.16-1.43a1.29,1.29,0,0,0-.74-1l-5.78-3.34a6,6,0,0,0-5.31.25l-4.94,2.85c-.72.42-1.16,1-1.16,1.44a1.27,1.27,0,0,0,.74,1Z" transform="translate(-108.77 -9.28)"/><ellipse class="cls-4" cx="147.28" cy="259.03" rx="136.17" ry="78.62"/><path class="cls-5" d="M286.55,332.56a22.08,22.08,0,0,1-10.74-2.68L153,259c-3.05-1.76-4.81-4.14-4.81-6.53,0-2,1.24-3.84,3.49-5.13l125.47-72.45c4.89-2.82,13.43-2.47,19,.77L419,246.54c3.06,1.76,4.81,4.15,4.81,6.53,0,2-1.24,3.84-3.48,5.14L294.85,330.65A16.94,16.94,0,0,1,286.55,332.56Zm-1.1-158.46a15.88,15.88,0,0,0-7.73,1.77L152.25,248.32c-1.87,1.08-2.9,2.54-2.9,4.12,0,2,1.54,4,4.23,5.52L276.4,328.87c5.29,3.06,13.31,3.4,17.87.77L419.74,257.2c1.87-1.09,2.9-2.55,2.9-4.13,0-2-1.54-4-4.22-5.52L295.6,176.64A21,21,0,0,0,285.45,174.1Z" transform="translate(-108.77 -9.28)"/><path class="cls-5" d="M286.53,334.91a24.25,24.25,0,0,1-11.89-3L151.82,261c-3.8-2.19-6-5.31-6-8.56,0-2.88,1.65-5.43,4.66-7.16L276,172.84c5.63-3.25,15-2.91,21.38.76l122.82,70.91c3.8,2.2,6,5.32,6,8.56,0,2.89-1.65,5.43-4.65,7.16L296,332.68h0A19.3,19.3,0,0,1,286.53,334.91Zm-1.11-158.47a13.37,13.37,0,0,0-6.52,1.46L153.42,250.35c-.64.37-1.73,1.14-1.73,2.09s.8,2.19,3.06,3.49l122.82,70.91c4.57,2.64,11.68,3,15.53.77h0l125.47-72.44c.65-.38,1.73-1.15,1.73-2.1,0-.8-.8-2.19-3.05-3.49L294.43,178.67A18.62,18.62,0,0,0,285.42,176.44Z" transform="translate(-108.77 -9.28)"/><path class="cls-6" d="M289.6,235.79l38.24-22.07c2.72-1.57,2.38-4.32-.76-6.13L290.37,186.4c-3.14-1.82-7.89-2-10.61-.44L241.52,208c-2.72,1.57-2.38,4.31.76,6.13L279,235.35C282.13,237.17,286.88,237.36,289.6,235.79Z" transform="translate(-108.77 -9.28)"/><path class="cls-7" d="M285.05,241.92a15,15,0,0,1-7.29-1.82l-43.25-25c-2.09-1.2-3.29-2.83-3.29-4.47a4.15,4.15,0,0,1,2.39-3.52l45.05-26c3.32-1.92,9.13-1.69,12.94.52l43.25,25c2.09,1.2,3.29,2.83,3.29,4.47a4.16,4.16,0,0,1-2.39,3.52l-45.05,26A11.53,11.53,0,0,1,285.05,241.92Zm-.74-61.2a10.57,10.57,0,0,0-5.2,1.19l-45.05,26a3.31,3.31,0,0,0-1.93,2.74c0,1.31,1,2.65,2.83,3.69l43.25,25c3.57,2.06,9,2.29,12,.52l45.05-26a3.31,3.31,0,0,0,1.93-2.74c0-1.31-1-2.65-2.83-3.69l-43.25-25A14.08,14.08,0,0,0,284.31,180.72Z" transform="translate(-108.77 -9.28)"/><path class="cls-8" d="M239.68,112.57h19l21.11-12.19c2.72-1.57,7.47-1.37,10.61.44l20.34,11.75h19v54.87h0a3.07,3.07,0,0,1-1.82,2.84L289.6,192.35c-2.72,1.57-7.47,1.38-10.6-.43l-36.72-21.2c-1.63-.94-2.5-2.13-2.58-3.28h0Z" transform="translate(-108.77 -9.28)"/><path class="cls-9" d="M242.28,169.84,279,191c3.13,1.81,7.88,2,10.6.44l38.24-22.08a3.06,3.06,0,0,0,1.82-2.84h0v.88h0a3.07,3.07,0,0,1-1.82,2.84L289.6,192.35c-2.72,1.57-7.47,1.38-10.6-.43l-36.72-21.2c-1.63-.94-2.5-2.13-2.58-3.28h0v-.88h0C239.78,167.71,240.65,168.9,242.28,169.84Z" transform="translate(-108.77 -9.28)"/><path class="cls-10" d="M328.46,168.31h0V113.44h-19L289.17,101.7c-3.14-1.82-7.89-2-10.61-.44l-21.11,12.18H239.68v-.87h19l21.11-12.19c2.72-1.57,7.47-1.37,10.61.44l20.34,11.75h19v54.87h0a3.07,3.07,0,0,1-1.82,2.84l-.22.12A2.61,2.61,0,0,0,328.46,168.31Z" transform="translate(-108.77 -9.28)"/><path class="cls-5" d="M240.76,113.59v54.8h0a3.26,3.26,0,0,0,.9,1.94,4.1,4.1,0,0,1-2-2.89h0V112.7A5.39,5.39,0,0,1,240.76,113.59Z" transform="translate(-108.77 -9.28)"/><path class="cls-11" d="M289.6,137.48l38.24-22.07c2.72-1.57,2.38-4.31-.76-6.13L290.37,88.09c-3.14-1.82-7.89-2-10.61-.44l-38.24,22.07c-2.72,1.57-2.38,4.32.76,6.13L279,137C282.13,138.86,286.88,139.05,289.6,137.48Z" transform="translate(-108.77 -9.28)"/><path class="cls-5" d="M241.52,109.72l38.24-22.07a9.84,9.84,0,0,1,5.35-1,8.92,8.92,0,0,0-3.86,1L243,109.72c-2.72,1.57-2.38,4.32.76,6.13L280.49,137a12.06,12.06,0,0,0,5.26,1.48A12.38,12.38,0,0,1,279,137l-36.72-21.19C239.14,114,238.8,111.29,241.52,109.72Z" transform="translate(-108.77 -9.28)"/><path class="cls-12" d="M288.34,131.12l28.47-16.44c2-1.17,1.77-3.21-.56-4.56L288.91,94.34C286.58,93,283,92.85,281,94l-28.47,16.44c-2,1.17-1.77,3.21.56,4.56l27.34,15.78C282.78,132.14,286.32,132.29,288.34,131.12Z" transform="translate(-108.77 -9.28)"/><path class="cls-13" d="M287.33,126,308,114.1c1.47-.85,1.28-2.33-.41-3.3l-19.8-11.44a6.37,6.37,0,0,0-5.72-.23L261.4,111c-1.47.85-1.28,2.33.41,3.31l19.8,11.43A6.37,6.37,0,0,0,287.33,126Z" transform="translate(-108.77 -9.28)"/><path class="cls-10" d="M287.89,137.48l38.23-22.07c2.72-1.57,2.38-4.31-.76-6.13L288.65,88.09a12.11,12.11,0,0,0-5.17-1.47,12.45,12.45,0,0,1,6.89,1.47l36.71,21.19c3.14,1.82,3.48,4.56.76,6.13L289.6,137.48a9.84,9.84,0,0,1-5.43,1A8.79,8.79,0,0,0,287.89,137.48Z" transform="translate(-108.77 -9.28)"/><g class="cls-14"><path class="cls-15" d="M307.56,112.41,287.75,101a6.36,6.36,0,0,0-5.73-.24l-20.63,11.91a2.19,2.19,0,0,0-.72.65,1.53,1.53,0,0,1,.72-2.26L282,99.12a6.36,6.36,0,0,1,5.73.24l19.81,11.44c1.32.76,1.71,1.82,1.13,2.65A3.2,3.2,0,0,0,307.56,112.41Z" transform="translate(-108.77 -9.28)"/><path class="cls-16" d="M307.56,114.35l-19.81-11.44a6.39,6.39,0,0,0-5.73-.24l-20.63,11.92a2.18,2.18,0,0,0-.6.5,1.54,1.54,0,0,1,.6-2.45L282,100.73a6.36,6.36,0,0,1,5.73.24l19.81,11.44c1.39.8,1.75,1.94,1,2.8A3.38,3.38,0,0,0,307.56,114.35Z" transform="translate(-108.77 -9.28)"/><path class="cls-17" d="M308.37,117.36a3.42,3.42,0,0,0-.81-.64l-19.81-11.44a6.39,6.39,0,0,0-5.73-.23L261.39,117a3.17,3.17,0,0,0-.4.29,1.56,1.56,0,0,1,.4-2.66L282,102.67a6.39,6.39,0,0,1,5.73.24l19.81,11.44C309.07,115.22,309.37,116.49,308.37,117.36Z" transform="translate(-108.77 -9.28)"/></g><path class="cls-13" d="M271.5,177.91l2.12,1.22c.54.32,1,0,1-.74V148.77a2.36,2.36,0,0,0-1-1.88l-2.12-1.23c-.55-.31-1,0-1,.75V176A2.36,2.36,0,0,0,271.5,177.91Z" transform="translate(-108.77 -9.28)"/><path class="cls-15" d="M271.5,145.66l.5.3V175a2.38,2.38,0,0,0,1,1.89l1.61.93v.54c0,.72-.44,1.06-1,.74l-2.12-1.22a2.36,2.36,0,0,1-1-1.89V146.41C270.51,145.68,271,145.35,271.5,145.66Z" transform="translate(-108.77 -9.28)"/><path class="cls-13" d="M263.68,173.4l2.12,1.22c.55.32,1,0,1-.74V144.26a2.34,2.34,0,0,0-1-1.88l-2.12-1.23c-.54-.31-1,0-1,.75v29.61A2.39,2.39,0,0,0,263.68,173.4Z" transform="translate(-108.77 -9.28)"/><path class="cls-13" d="M255.87,168.89l2.12,1.22c.54.32,1,0,1-.75V139.75a2.39,2.39,0,0,0-1-1.89l-2.12-1.22c-.55-.31-1,0-1,.75V167A2.36,2.36,0,0,0,255.87,168.89Z" transform="translate(-108.77 -9.28)"/><path class="cls-13" d="M248.06,164.38l2.12,1.22c.54.32,1,0,1-.75V135.24a2.38,2.38,0,0,0-1-1.89l-2.12-1.22c-.55-.32-1,0-1,.75v29.61A2.36,2.36,0,0,0,248.06,164.38Z" transform="translate(-108.77 -9.28)"/><path class="cls-15" d="M263.68,141.15l.51.29v29.08a2.35,2.35,0,0,0,1,1.89l1.61.93v.54c0,.72-.44,1.06-1,.74l-2.12-1.22a2.39,2.39,0,0,1-1-1.89V141.9C262.69,141.17,263.14,140.84,263.68,141.15Z" transform="translate(-108.77 -9.28)"/><path class="cls-15" d="M255.87,136.64l.51.29V166a2.36,2.36,0,0,0,1,1.89l1.61.93v.53c0,.73-.45,1.07-1,.75l-2.12-1.22a2.36,2.36,0,0,1-1-1.89V137.39C254.88,136.66,255.32,136.33,255.87,136.64Z" transform="translate(-108.77 -9.28)"/><path class="cls-15" d="M248.06,132.13l.5.29V161.5a2.39,2.39,0,0,0,1,1.89l1.61.93v.53c0,.73-.44,1.07-1,.75l-2.12-1.22a2.36,2.36,0,0,1-1-1.89V132.88C247.07,132.15,247.51,131.81,248.06,132.13Z" transform="translate(-108.77 -9.28)"/><path class="cls-18" d="M292.76,181.54a1.19,1.19,0,0,1-.56-.14,1.71,1.71,0,0,1-.7-1.54V148.53a4,4,0,0,1,1.71-3.23l27.62-16a1.31,1.31,0,0,1,1.33-.08,1.69,1.69,0,0,1,.7,1.53v31.34a4,4,0,0,1-1.71,3.23l-27.62,15.94A1.46,1.46,0,0,1,292.76,181.54Zm28.84-51.77a1,1,0,0,0-.45.14l-27.62,16a3.38,3.38,0,0,0-1.38,2.67v31.33a1.09,1.09,0,0,0,.37,1,.71.71,0,0,0,.69-.08l27.62-15.94a3.43,3.43,0,0,0,1.38-2.67V130.8a1.12,1.12,0,0,0-.37-1A.53.53,0,0,0,321.6,129.77Z" transform="translate(-108.77 -9.28)"/><ellipse class="cls-13" cx="318.8" cy="136.17" rx="1.9" ry="1.1" transform="translate(-67.29 334.89) rotate(-60)"/><path class="cls-13" d="M317.46,141.3c0,.86.6,1.21,1.34.78a3,3,0,0,0,1.34-2.33c0-.86-.6-1.2-1.34-.78A3,3,0,0,0,317.46,141.3Z" transform="translate(-108.77 -9.28)"/><path class="cls-13" d="M317.46,145.66c0,.86.6,1.21,1.34.78a3,3,0,0,0,1.34-2.33c0-.86-.6-1.2-1.34-.78A3,3,0,0,0,317.46,145.66Z" transform="translate(-108.77 -9.28)"/><path class="cls-15" d="M318.13,145.91a3,3,0,0,0,1.34-2.33,1.32,1.32,0,0,0-.07-.42c.44,0,.74.35.74,1a3,3,0,0,1-1.34,2.33c-.6.35-1.11.18-1.28-.36A1.26,1.26,0,0,0,318.13,145.91Z" transform="translate(-108.77 -9.28)"/><path class="cls-15" d="M318.13,141.54a3,3,0,0,0,1.34-2.32,1.38,1.38,0,0,0-.07-.43c.44,0,.74.35.74,1a3,3,0,0,1-1.34,2.33c-.6.34-1.11.17-1.28-.36A1.18,1.18,0,0,0,318.13,141.54Z" transform="translate(-108.77 -9.28)"/><path class="cls-15" d="M318.13,137.18a3,3,0,0,0,1.34-2.33,1.32,1.32,0,0,0-.07-.42c.44,0,.74.35.74.95a3,3,0,0,1-1.34,2.33c-.6.35-1.11.18-1.28-.35A1.18,1.18,0,0,0,318.13,137.18Z" transform="translate(-108.77 -9.28)"/><path class="cls-18" d="M295.24,165.9l.89-.51a1.19,1.19,0,0,0,.5-1v-4.27c0-.37-.22-.54-.5-.38l-.89.51a1.22,1.22,0,0,0-.5,1v4.27C294.74,165.89,295,166.06,295.24,165.9Z" transform="translate(-108.77 -9.28)"/><path class="cls-19" d="M260.41,9.28h48.5v103.4h0a1.68,1.68,0,0,1-1,1.43L287.31,126a6.35,6.35,0,0,1-5.71-.24l-19.79-11.42a2.41,2.41,0,0,1-1.39-1.77h0Z" transform="translate(-108.77 -9.28)"/><path class="cls-20" d="M262.71,19.14h43.9v93.58h0a1.55,1.55,0,0,1-.89,1.29l-18.66,10.77a5.74,5.74,0,0,1-5.17-.21L264,114.23a2.21,2.21,0,0,1-1.26-1.6h0Z" transform="translate(-108.77 -9.28)"/><path class="cls-13" d="M294.36,104a1.81,1.81,0,1,0,1.81-1.81A1.81,1.81,0,0,0,294.36,104Z" transform="translate(-108.77 -9.28)"/><path class="cls-13" d="M279.47,91.9a3.09,3.09,0,1,0,3.08-3.08A3.08,3.08,0,0,0,279.47,91.9Z" transform="translate(-108.77 -9.28)"/><path class="cls-13" d="M285.56,89.94a.79.79,0,1,0,.79-.79A.79.79,0,0,0,285.56,89.94Z" transform="translate(-108.77 -9.28)"/><path class="cls-13" d="M271.34,74.45a1.55,1.55,0,1,0,1.54-1.54A1.54,1.54,0,0,0,271.34,74.45Z" transform="translate(-108.77 -9.28)"/><circle class="cls-13" cx="172.24" cy="52.08" r="1.09"/><circle class="cls-13" cx="185.59" cy="43.73" r="1.98"/><path class="cls-13" d="M287.47,36.48a1.1,1.1,0,1,0,1.1-1.1A1.1,1.1,0,0,0,287.47,36.48Z" transform="translate(-108.77 -9.28)"/><path class="cls-13" d="M279,43.81a1.3,1.3,0,1,0,1.29-1.29A1.3,1.3,0,0,0,279,43.81Z" transform="translate(-108.77 -9.28)"/><path class="cls-13" d="M278,41.1a.63.63,0,0,0,.63.63.63.63,0,1,0,0-1.25A.63.63,0,0,0,278,41.1Z" transform="translate(-108.77 -9.28)"/><circle class="cls-13" cx="162.88" cy="18.34" r="1.81"/><g class="cls-21"><path class="cls-22" d="M355.9,277l38.24-22.07c2.72-1.57,2.38-4.31-.76-6.13l-36.72-21.19c-3.14-1.82-7.89-2-10.6-.44l-38.24,22.07c-2.72,1.57-2.38,4.32.76,6.13l36.71,21.19C348.43,278.35,353.18,278.54,355.9,277Z" transform="translate(-108.77 -9.28)"/><path class="cls-23" d="M351.35,283.1a14.94,14.94,0,0,1-7.3-1.82l-43.24-25c-2.09-1.2-3.29-2.83-3.29-4.47a4.16,4.16,0,0,1,2.39-3.52l45-26c3.33-1.92,9.13-1.68,12.95.52l43.25,25c2.09,1.2,3.28,2.83,3.28,4.47a4.17,4.17,0,0,1-2.38,3.53L357,281.8A11.53,11.53,0,0,1,351.35,283.1Zm-.74-61.2a10.57,10.57,0,0,0-5.2,1.19l-45.05,26a3.29,3.29,0,0,0-1.93,2.74c0,1.31,1,2.65,2.83,3.69l43.25,25c3.57,2.06,9,2.29,12,.52l45-26a3.3,3.3,0,0,0,1.94-2.74c0-1.3-1-2.65-2.83-3.69l-43.25-25A14.08,14.08,0,0,0,350.61,221.9Z" transform="translate(-108.77 -9.28)"/></g><path class="cls-24" d="M306,153.75h19l21.11-12.19c2.71-1.57,7.46-1.37,10.6.44L377,153.75h19v54.87h0a3.08,3.08,0,0,1-1.82,2.84L355.9,233.54c-2.72,1.57-7.47,1.37-10.61-.44l-36.71-21.2c-1.63-.94-2.5-2.13-2.58-3.28h0Z" transform="translate(-108.77 -9.28)"/><path class="cls-25" d="M308.58,211l36.71,21.2c3.14,1.81,7.89,2,10.61.44l38.24-22.08a3.08,3.08,0,0,0,1.82-2.84h0v.88h0a3.08,3.08,0,0,1-1.82,2.84L355.9,233.54c-2.72,1.57-7.47,1.37-10.61-.44l-36.71-21.2c-1.63-.94-2.5-2.13-2.58-3.28h0v-.88h0C306.08,208.89,307,210.08,308.58,211Z" transform="translate(-108.77 -9.28)"/><path class="cls-10" d="M394.76,209.5h0V154.63h-19l-20.34-11.75c-3.14-1.81-7.89-2-10.61-.44l-21.11,12.19H306v-.88h19l21.11-12.19c2.71-1.57,7.46-1.37,10.6.44L377,153.75h19v54.87h0a3.08,3.08,0,0,1-1.82,2.84l-.22.12A2.6,2.6,0,0,0,394.76,209.5Z" transform="translate(-108.77 -9.28)"/><path class="cls-5" d="M307.06,154.77v54.81h0a3.39,3.39,0,0,0,.91,1.94,4.1,4.1,0,0,1-2-2.9h0V153.88A5.39,5.39,0,0,1,307.06,154.77Z" transform="translate(-108.77 -9.28)"/><path class="cls-26" d="M355.9,178.67l38.24-22.08c2.72-1.57,2.38-4.31-.76-6.12l-36.72-21.2c-3.14-1.81-7.89-2-10.6-.44l-38.24,22.08c-2.72,1.57-2.38,4.31.76,6.12l36.71,21.2C348.43,180,353.18,180.24,355.9,178.67Z" transform="translate(-108.77 -9.28)"/><path class="cls-5" d="M307.82,150.91l38.24-22.08a9.82,9.82,0,0,1,5.35-1,8.74,8.74,0,0,0-3.86,1l-38.24,22.08c-2.71,1.57-2.37,4.31.77,6.12l36.71,21.2A12,12,0,0,0,352,179.7a12.5,12.5,0,0,1-6.75-1.47L308.58,157C305.44,155.22,305.1,152.48,307.82,150.91Z" transform="translate(-108.77 -9.28)"/><path class="cls-27" d="M354.64,172.3l28.47-16.44c2-1.16,1.77-3.21-.57-4.56l-27.33-15.78c-2.34-1.35-5.87-1.49-7.9-.32l-28.46,16.43c-2,1.17-1.77,3.21.56,4.56L346.75,172C349.08,173.32,352.62,173.47,354.64,172.3Z" transform="translate(-108.77 -9.28)"/><path class="cls-13" d="M353.63,167.19l20.63-11.91c1.46-.85,1.28-2.32-.41-3.3L354,140.54a6.37,6.37,0,0,0-5.72-.23L327.7,152.22c-1.47.84-1.28,2.32.41,3.3L347.91,167A6.34,6.34,0,0,0,353.63,167.19Z" transform="translate(-108.77 -9.28)"/><path class="cls-10" d="M354.18,178.67l38.24-22.08c2.72-1.57,2.38-4.31-.76-6.12L355,129.27a12.15,12.15,0,0,0-5.17-1.47,12.49,12.49,0,0,1,6.88,1.47l36.72,21.2c3.14,1.81,3.48,4.55.76,6.12L355.9,178.67a10.05,10.05,0,0,1-5.44,1A8.71,8.71,0,0,0,354.18,178.67Z" transform="translate(-108.77 -9.28)"/><g class="cls-28"><path class="cls-15" d="M373.86,153.59l-19.81-11.44a6.39,6.39,0,0,0-5.73-.24l-20.63,11.92a2.08,2.08,0,0,0-.72.64,1.52,1.52,0,0,1,.72-2.25l20.63-11.92a6.39,6.39,0,0,1,5.73.24L373.86,152c1.31.76,1.7,1.82,1.13,2.65A3.2,3.2,0,0,0,373.86,153.59Z" transform="translate(-108.77 -9.28)"/><path class="cls-16" d="M373.86,155.53l-19.81-11.44a6.39,6.39,0,0,0-5.73-.23l-20.63,11.91a2.18,2.18,0,0,0-.6.5,1.53,1.53,0,0,1,.6-2.44l20.63-11.92a6.39,6.39,0,0,1,5.73.24l19.81,11.44c1.39.8,1.74,1.95,1,2.8A3.38,3.38,0,0,0,373.86,155.53Z" transform="translate(-108.77 -9.28)"/><path class="cls-17" d="M374.67,158.54a4.24,4.24,0,0,0-.81-.64l-19.81-11.43a6.36,6.36,0,0,0-5.73-.24l-20.63,11.91a2.09,2.09,0,0,0-.4.3,1.56,1.56,0,0,1,.4-2.67l20.63-11.91a6.39,6.39,0,0,1,5.73.23l19.81,11.44C375.37,156.41,375.67,157.68,374.67,158.54Z" transform="translate(-108.77 -9.28)"/></g><path class="cls-13" d="M337.79,219.09l2.12,1.23c.55.31,1,0,1-.75V190a2.35,2.35,0,0,0-1-1.89l-2.12-1.23c-.54-.31-1,0-1,.75V217.2A2.37,2.37,0,0,0,337.79,219.09Z" transform="translate(-108.77 -9.28)"/><path class="cls-15" d="M337.79,186.84l.51.3v29.08a2.34,2.34,0,0,0,1,1.88l1.61.93v.54c0,.73-.44,1.06-1,.75l-2.12-1.23a2.37,2.37,0,0,1-1-1.89V187.59C336.81,186.86,337.25,186.53,337.79,186.84Z" transform="translate(-108.77 -9.28)"/><path class="cls-13" d="M330,214.58l2.12,1.22c.55.32,1,0,1-.74V185.45a2.35,2.35,0,0,0-1-1.89L330,182.33c-.55-.31-1,0-1,.75v29.61A2.35,2.35,0,0,0,330,214.58Z" transform="translate(-108.77 -9.28)"/><path class="cls-13" d="M322.17,210.07l2.12,1.22c.54.32,1,0,1-.74V180.93a2.37,2.37,0,0,0-1-1.88l-2.12-1.23c-.55-.31-1,0-1,.75v29.61A2.35,2.35,0,0,0,322.17,210.07Z" transform="translate(-108.77 -9.28)"/><path class="cls-13" d="M314.35,205.56l2.12,1.22c.55.32,1,0,1-.74V176.42a2.34,2.34,0,0,0-1-1.88l-2.12-1.23c-.54-.31-1,0-1,.75v29.61A2.38,2.38,0,0,0,314.35,205.56Z" transform="translate(-108.77 -9.28)"/><path class="cls-15" d="M330,182.33l.51.3V211.7a2.35,2.35,0,0,0,1,1.89l1.61.93v.54c0,.73-.44,1.06-1,.74L330,214.58a2.35,2.35,0,0,1-1-1.89V183.08C329,182.35,329.43,182,330,182.33Z" transform="translate(-108.77 -9.28)"/><path class="cls-15" d="M322.17,177.82l.51.3v29.07a2.37,2.37,0,0,0,1,1.89l1.62.93v.54c0,.72-.45,1.06-1,.74l-2.12-1.22a2.35,2.35,0,0,1-1-1.89V178.57C321.18,177.84,321.62,177.51,322.17,177.82Z" transform="translate(-108.77 -9.28)"/><path class="cls-15" d="M314.35,173.31l.51.3v29.07a2.35,2.35,0,0,0,1,1.89l1.61.93V206c0,.72-.44,1.06-1,.74l-2.12-1.22a2.38,2.38,0,0,1-1-1.89V174.06C313.37,173.33,313.81,173,314.35,173.31Z" transform="translate(-108.77 -9.28)"/><path class="cls-18" d="M359.05,222.73a1.08,1.08,0,0,1-.55-.15,1.68,1.68,0,0,1-.7-1.53V189.71a4,4,0,0,1,1.71-3.23l27.61-15.95a1.33,1.33,0,0,1,1.34-.08,1.7,1.7,0,0,1,.7,1.53v31.34a4,4,0,0,1-1.71,3.23L359.83,222.5A1.59,1.59,0,0,1,359.05,222.73ZM387.9,171a.86.86,0,0,0-.45.15L359.83,187a3.4,3.4,0,0,0-1.38,2.67v31.34a1.12,1.12,0,0,0,.37,1,.71.71,0,0,0,.69-.09L387.12,206a3.41,3.41,0,0,0,1.39-2.67V172a1.09,1.09,0,0,0-.38-1A.46.46,0,0,0,387.9,171Z" transform="translate(-108.77 -9.28)"/><path class="cls-13" d="M383.75,178.12c0,.86.61,1.21,1.35.78a3,3,0,0,0,1.34-2.33c0-.86-.6-1.2-1.34-.77A3,3,0,0,0,383.75,178.12Z" transform="translate(-108.77 -9.28)"/><ellipse class="cls-13" cx="385.1" cy="181.71" rx="1.9" ry="1.1" transform="translate(-73.59 415.08) rotate(-60)"/><path class="cls-13" d="M383.75,186.84c0,.86.61,1.21,1.35.78a3,3,0,0,0,1.34-2.33c0-.85-.6-1.2-1.34-.77A3,3,0,0,0,383.75,186.84Z" transform="translate(-108.77 -9.28)"/><path class="cls-15" d="M384.43,187.09a3,3,0,0,0,1.34-2.33,1.32,1.32,0,0,0-.07-.42c.44,0,.74.35.74.95a3,3,0,0,1-1.34,2.33c-.6.35-1.11.18-1.28-.35A1.2,1.2,0,0,0,384.43,187.09Z" transform="translate(-108.77 -9.28)"/><path class="cls-15" d="M384.43,182.73a3,3,0,0,0,1.34-2.33,1.32,1.32,0,0,0-.07-.42c.44,0,.74.34.74,1a3,3,0,0,1-1.34,2.33c-.6.35-1.11.18-1.28-.36A1.29,1.29,0,0,0,384.43,182.73Z" transform="translate(-108.77 -9.28)"/><path class="cls-15" d="M384.43,178.36a3,3,0,0,0,1.34-2.33,1.37,1.37,0,0,0-.07-.42c.44,0,.74.35.74,1a3,3,0,0,1-1.34,2.32c-.6.35-1.11.18-1.28-.35A1.2,1.2,0,0,0,384.43,178.36Z" transform="translate(-108.77 -9.28)"/><path class="cls-18" d="M361.54,207.08l.89-.51a1.19,1.19,0,0,0,.5-1v-4.27c0-.37-.22-.54-.5-.38l-.89.52a1.19,1.19,0,0,0-.5,1v4.28C361,207.07,361.27,207.24,361.54,207.08Z" transform="translate(-108.77 -9.28)"/><path class="cls-29" d="M326.71,50.46h48.5v103.4h0a1.69,1.69,0,0,1-1,1.43l-20.61,11.9a6.32,6.32,0,0,1-5.71-.24l-19.79-11.42a2.41,2.41,0,0,1-1.39-1.77h0Z" transform="translate(-108.77 -9.28)"/><path class="cls-30" d="M329,60.32h43.9V153.9h0a1.54,1.54,0,0,1-.9,1.29L353.36,166a5.74,5.74,0,0,1-5.17-.21l-17.91-10.34a2.18,2.18,0,0,1-1.26-1.6h0Z" transform="translate(-108.77 -9.28)"/><path class="cls-13" d="M360.66,145.2a1.81,1.81,0,1,0,1.81-1.81A1.81,1.81,0,0,0,360.66,145.2Z" transform="translate(-108.77 -9.28)"/><path class="cls-13" d="M345.77,133.09a3.08,3.08,0,1,0,3.08-3.09A3.08,3.08,0,0,0,345.77,133.09Z" transform="translate(-108.77 -9.28)"/><path class="cls-13" d="M351.86,131.12a.79.79,0,1,0,.79-.79A.79.79,0,0,0,351.86,131.12Z" transform="translate(-108.77 -9.28)"/><circle class="cls-13" cx="230.41" cy="106.35" r="1.54"/><path class="cls-13" d="M346.22,102.54a1.09,1.09,0,1,0,1.09-1.09A1.09,1.09,0,0,0,346.22,102.54Z" transform="translate(-108.77 -9.28)"/><path class="cls-13" d="M358.69,94.19a2,2,0,1,0,2-2A2,2,0,0,0,358.69,94.19Z" transform="translate(-108.77 -9.28)"/><path class="cls-13" d="M353.76,77.66a1.11,1.11,0,1,0,1.11-1.1A1.11,1.11,0,0,0,353.76,77.66Z" transform="translate(-108.77 -9.28)"/><path class="cls-13" d="M345.25,85a1.3,1.3,0,1,0,1.29-1.29A1.3,1.3,0,0,0,345.25,85Z" transform="translate(-108.77 -9.28)"/><path class="cls-13" d="M344.28,82.29a.63.63,0,1,0,.63-.63A.63.63,0,0,0,344.28,82.29Z" transform="translate(-108.77 -9.28)"/><path class="cls-13" d="M336.13,68.8A1.82,1.82,0,1,0,338,67,1.82,1.82,0,0,0,336.13,68.8Z" transform="translate(-108.77 -9.28)"/><path class="cls-31" d="M224.47,276.55l38.24-22.08c2.72-1.57,2.38-4.31-.76-6.12l-36.71-21.2c-3.14-1.81-7.89-2-10.61-.44l-38.24,22.08c-2.72,1.57-2.38,4.31.76,6.12l36.72,21.2C217,277.92,221.75,278.12,224.47,276.55Z" transform="translate(-108.77 -9.28)"/><path class="cls-32" d="M219.92,282.68a15,15,0,0,1-7.29-1.82l-43.25-25c-2.09-1.21-3.28-2.84-3.28-4.47a4.15,4.15,0,0,1,2.38-3.53l45.05-26c3.32-1.92,9.13-1.69,12.94.52l43.25,25c2.09,1.2,3.29,2.83,3.29,4.47a4.16,4.16,0,0,1-2.39,3.52l-45,26A11.57,11.57,0,0,1,219.92,282.68Zm-.74-61.2a10.63,10.63,0,0,0-5.2,1.19l-45,26a3.3,3.3,0,0,0-1.94,2.74c0,1.3,1,2.65,2.83,3.69l43.25,25c3.57,2.06,9,2.29,12,.52l45.05-26a3.3,3.3,0,0,0,1.93-2.74c0-1.31-1-2.65-2.83-3.69l-43.25-25A14.08,14.08,0,0,0,219.18,221.48Z" transform="translate(-108.77 -9.28)"/><path class="cls-33" d="M174.56,153.32h19l21.11-12.18c2.72-1.57,7.47-1.38,10.61.44l20.34,11.74h19v54.87h0a3.07,3.07,0,0,1-1.82,2.85l-38.24,22.07c-2.72,1.57-7.46,1.38-10.6-.44l-36.72-21.19c-1.63-.94-2.5-2.14-2.58-3.29h0Z" transform="translate(-108.77 -9.28)"/><path class="cls-34" d="M177.15,210.6l36.72,21.2c3.14,1.81,7.88,2,10.6.44l38.24-22.08a3.07,3.07,0,0,0,1.82-2.84h0v.87h0a3.07,3.07,0,0,1-1.82,2.85l-38.24,22.07c-2.72,1.57-7.46,1.38-10.6-.44l-36.72-21.19c-1.63-.94-2.5-2.14-2.58-3.29h0v-.87h0C174.65,208.47,175.52,209.66,177.15,210.6Z" transform="translate(-108.77 -9.28)"/><path class="cls-10" d="M263.34,209.07h0V154.2H244.39L224,142.45c-3.14-1.81-7.89-2-10.61-.44L192.32,154.2H174.56v-.88h19l21.11-12.18c2.72-1.57,7.47-1.38,10.61.44l20.34,11.74h19v54.87h0a3.07,3.07,0,0,1-1.82,2.85l-.21.12A2.71,2.71,0,0,0,263.34,209.07Z" transform="translate(-108.77 -9.28)"/><path class="cls-5" d="M175.63,154.35v54.8h0a3.28,3.28,0,0,0,.9,1.94,4.1,4.1,0,0,1-2-2.9h0V153.45A5.74,5.74,0,0,1,175.63,154.35Z" transform="translate(-108.77 -9.28)"/><path class="cls-35" d="M224.47,178.24l38.24-22.07c2.72-1.57,2.38-4.32-.76-6.13l-36.71-21.19c-3.14-1.82-7.89-2-10.61-.44l-38.24,22.07c-2.72,1.57-2.38,4.31.76,6.13l36.72,21.19C217,179.62,221.75,179.81,224.47,178.24Z" transform="translate(-108.77 -9.28)"/><path class="cls-5" d="M176.39,150.48l38.24-22.07a9.84,9.84,0,0,1,5.35-1,8.84,8.84,0,0,0-3.85,1l-38.24,22.07c-2.72,1.57-2.38,4.31.76,6.13l36.71,21.19a12.1,12.1,0,0,0,5.26,1.48,12.46,12.46,0,0,1-6.75-1.48l-36.72-21.19C174,154.79,173.67,152.05,176.39,150.48Z" transform="translate(-108.77 -9.28)"/><path class="cls-36" d="M223.22,171.88l28.46-16.44c2-1.17,1.77-3.21-.56-4.56L223.78,135.1c-2.33-1.35-5.87-1.5-7.89-.33l-28.47,16.44c-2,1.17-1.77,3.21.57,4.56l27.33,15.78C217.66,172.9,221.19,173,223.22,171.88Z" transform="translate(-108.77 -9.28)"/><path class="cls-13" d="M222.21,166.77l20.62-11.91c1.47-.85,1.28-2.33-.41-3.31l-19.8-11.43a6.37,6.37,0,0,0-5.72-.24l-20.63,11.91c-1.47.85-1.28,2.33.41,3.3l19.8,11.44A6.39,6.39,0,0,0,222.21,166.77Z" transform="translate(-108.77 -9.28)"/><path class="cls-10" d="M222.76,178.24,261,156.17c2.71-1.57,2.37-4.32-.77-6.13l-36.71-21.19a12,12,0,0,0-5.17-1.47,12.45,12.45,0,0,1,6.89,1.47L262,150c3.14,1.81,3.48,4.56.76,6.13l-38.24,22.07a9.82,9.82,0,0,1-5.43,1A8.79,8.79,0,0,0,222.76,178.24Z" transform="translate(-108.77 -9.28)"/><g class="cls-37"><path class="cls-15" d="M242.43,153.16l-19.81-11.43a6.34,6.34,0,0,0-5.72-.24L196.26,153.4a2.3,2.3,0,0,0-.72.65,1.53,1.53,0,0,1,.72-2.26l20.64-11.91a6.34,6.34,0,0,1,5.72.24l19.81,11.43c1.32.76,1.71,1.83,1.13,2.66A3.22,3.22,0,0,0,242.43,153.16Z" transform="translate(-108.77 -9.28)"/><path class="cls-16" d="M242.43,155.11l-19.81-11.44a6.37,6.37,0,0,0-5.72-.24l-20.64,11.92a2.16,2.16,0,0,0-.6.5,1.54,1.54,0,0,1,.6-2.45l20.64-11.91a6.34,6.34,0,0,1,5.72.24l19.81,11.43c1.39.81,1.75,2,1,2.8A3.51,3.51,0,0,0,242.43,155.11Z" transform="translate(-108.77 -9.28)"/><path class="cls-17" d="M243.24,158.12a3.18,3.18,0,0,0-.81-.64L222.62,146a6.37,6.37,0,0,0-5.72-.24l-20.64,11.92a3.17,3.17,0,0,0-.4.29,1.56,1.56,0,0,1,.4-2.66l20.64-11.92a6.37,6.37,0,0,1,5.72.24l19.81,11.44C243.94,156,244.24,157.25,243.24,158.12Z" transform="translate(-108.77 -9.28)"/></g><path class="cls-13" d="M206.37,218.67l2.12,1.22c.54.32,1,0,1-.75V189.53a2.4,2.4,0,0,0-1-1.89l-2.12-1.22c-.55-.31-1,0-1,.75v29.61A2.36,2.36,0,0,0,206.37,218.67Z" transform="translate(-108.77 -9.28)"/><path class="cls-15" d="M206.37,186.42l.5.29v29.08a2.39,2.39,0,0,0,1,1.89l1.61.93v.53c0,.73-.44,1.07-1,.75l-2.12-1.22a2.36,2.36,0,0,1-1-1.89V187.17C205.38,186.44,205.82,186.11,206.37,186.42Z" transform="translate(-108.77 -9.28)"/><path class="cls-13" d="M198.55,214.16l2.12,1.22c.55.32,1,0,1-.75V185a2.36,2.36,0,0,0-1-1.89l-2.12-1.22c-.54-.32-1,0-1,.75v29.61A2.38,2.38,0,0,0,198.55,214.16Z" transform="translate(-108.77 -9.28)"/><path class="cls-13" d="M190.74,209.65l2.12,1.22c.55.32,1,0,1-.75V180.51a2.36,2.36,0,0,0-1-1.89l-2.12-1.22c-.55-.32-1,0-1,.75v29.61A2.36,2.36,0,0,0,190.74,209.65Z" transform="translate(-108.77 -9.28)"/><path class="cls-13" d="M182.93,205.14l2.12,1.22c.54.31,1,0,1-.75V176a2.39,2.39,0,0,0-1-1.89l-2.12-1.22c-.55-.32-1,0-1,.75v29.61A2.38,2.38,0,0,0,182.93,205.14Z" transform="translate(-108.77 -9.28)"/><path class="cls-15" d="M198.55,181.91l.51.29v29.08a2.36,2.36,0,0,0,1,1.89l1.61.93v.53c0,.73-.44,1.07-1,.75l-2.12-1.22a2.38,2.38,0,0,1-1-1.89V182.66C197.57,181.93,198,181.59,198.55,181.91Z" transform="translate(-108.77 -9.28)"/><path class="cls-15" d="M190.74,177.4l.51.29v29.08a2.36,2.36,0,0,0,1,1.89l1.61.93v.53c0,.73-.44,1.07-1,.75l-2.12-1.22a2.36,2.36,0,0,1-1-1.89V178.15C189.75,177.42,190.19,177.08,190.74,177.4Z" transform="translate(-108.77 -9.28)"/><path class="cls-15" d="M182.93,172.89l.51.29v29.08a2.38,2.38,0,0,0,1,1.89l1.62.93v.53c0,.73-.45,1.06-1,.75l-2.12-1.22a2.38,2.38,0,0,1-1-1.89V173.64C181.94,172.91,182.38,172.57,182.93,172.89Z" transform="translate(-108.77 -9.28)"/><path class="cls-18" d="M227.63,222.3a1.09,1.09,0,0,1-.56-.15,1.68,1.68,0,0,1-.7-1.53V189.29a4,4,0,0,1,1.71-3.24l27.62-15.94A1.29,1.29,0,0,1,257,170a1.68,1.68,0,0,1,.7,1.53v31.33a4,4,0,0,1-1.71,3.24l-27.61,15.94A1.51,1.51,0,0,1,227.63,222.3Zm28.84-51.77a1,1,0,0,0-.45.14l-27.61,16a3.39,3.39,0,0,0-1.39,2.67v31.33a1.09,1.09,0,0,0,.37,1,.71.71,0,0,0,.69-.08l27.62-15.94a3.42,3.42,0,0,0,1.38-2.68V171.56a1.12,1.12,0,0,0-.37-1A.53.53,0,0,0,256.47,170.53Z" transform="translate(-108.77 -9.28)"/><path class="cls-13" d="M252.33,177.7c0,.86.6,1.2,1.34.78a3,3,0,0,0,1.35-2.33c0-.86-.61-1.21-1.35-.78A3,3,0,0,0,252.33,177.7Z" transform="translate(-108.77 -9.28)"/><ellipse class="cls-13" cx="253.67" cy="181.28" rx="1.9" ry="1.1" transform="translate(-138.93 301.05) rotate(-60)"/><path class="cls-13" d="M252.33,186.42c0,.86.6,1.21,1.34.78a3,3,0,0,0,1.35-2.33c0-.86-.61-1.21-1.35-.78A3,3,0,0,0,252.33,186.42Z" transform="translate(-108.77 -9.28)"/><path class="cls-15" d="M253,186.67a3,3,0,0,0,1.34-2.33,1.33,1.33,0,0,0-.06-.42c.43,0,.74.34.74,1a3,3,0,0,1-1.35,2.33c-.6.34-1.11.17-1.28-.36A1.26,1.26,0,0,0,253,186.67Z" transform="translate(-108.77 -9.28)"/><path class="cls-15" d="M253,182.3a3,3,0,0,0,1.34-2.33,1.37,1.37,0,0,0-.06-.42c.43,0,.74.35.74,1a3,3,0,0,1-1.35,2.32c-.6.35-1.11.18-1.28-.35A1.18,1.18,0,0,0,253,182.3Z" transform="translate(-108.77 -9.28)"/><path class="cls-15" d="M253,177.94a3,3,0,0,0,1.34-2.33,1.33,1.33,0,0,0-.06-.42c.43,0,.74.35.74.95a3,3,0,0,1-1.35,2.33c-.6.35-1.11.18-1.28-.35A1.18,1.18,0,0,0,253,177.94Z" transform="translate(-108.77 -9.28)"/><path class="cls-18" d="M230.12,206.66l.88-.51a1.2,1.2,0,0,0,.51-1v-4.27c0-.37-.23-.54-.51-.38l-.88.51a1.2,1.2,0,0,0-.51,1v4.27C229.61,206.65,229.84,206.82,230.12,206.66Z" transform="translate(-108.77 -9.28)"/><path class="cls-38" d="M194.84,50.22l48.5-.36.78,103.4h0a1.71,1.71,0,0,1-1,1.43l-20.52,12.05a6.36,6.36,0,0,1-5.72-.19L197,155.27a2.41,2.41,0,0,1-1.4-1.75h0Z" transform="translate(-108.77 -9.28)"/><path class="cls-39" d="M197.22,60.06l43.89-.33.71,93.58h0a1.5,1.5,0,0,1-.88,1.3l-18.57,10.91a5.7,5.7,0,0,1-5.17-.18l-18-10.2a2.17,2.17,0,0,1-1.27-1.59h0Z" transform="translate(-108.77 -9.28)"/><path class="cls-13" d="M229.23,144.77A1.81,1.81,0,1,0,231,143,1.81,1.81,0,0,0,229.23,144.77Z" transform="translate(-108.77 -9.28)"/><path class="cls-13" d="M214.34,132.66a3.09,3.09,0,1,0,3.08-3.08A3.09,3.09,0,0,0,214.34,132.66Z" transform="translate(-108.77 -9.28)"/><path class="cls-13" d="M220.43,130.7a.79.79,0,1,0,.79-.8A.79.79,0,0,0,220.43,130.7Z" transform="translate(-108.77 -9.28)"/><circle class="cls-13" cx="98.99" cy="105.93" r="1.54"/><path class="cls-13" d="M214.79,102.12a1.09,1.09,0,1,0,1.09-1.09A1.09,1.09,0,0,0,214.79,102.12Z" transform="translate(-108.77 -9.28)"/><path class="cls-13" d="M227.26,93.77a2,2,0,1,0,2-2A2,2,0,0,0,227.26,93.77Z" transform="translate(-108.77 -9.28)"/><path class="cls-13" d="M222.34,77.24a1.1,1.1,0,1,0,1.1-1.11A1.1,1.1,0,0,0,222.34,77.24Z" transform="translate(-108.77 -9.28)"/><path class="cls-13" d="M213.82,84.57a1.3,1.3,0,1,0,1.3-1.3A1.3,1.3,0,0,0,213.82,84.57Z" transform="translate(-108.77 -9.28)"/><path class="cls-13" d="M212.85,81.86a.63.63,0,1,0,.63-.62A.63.63,0,0,0,212.85,81.86Z" transform="translate(-108.77 -9.28)"/><path class="cls-13" d="M204.71,68.38a1.81,1.81,0,1,0,1.81-1.81A1.81,1.81,0,0,0,204.71,68.38Z" transform="translate(-108.77 -9.28)"/><g class="cls-21"><path class="cls-40" d="M290.77,317.73,329,295.66c2.72-1.57,2.38-4.32-.76-6.13l-36.72-21.19c-3.14-1.82-7.88-2-10.6-.44L242.69,290c-2.72,1.57-2.38,4.31.76,6.13l36.71,21.19C283.3,319.11,288.05,319.3,290.77,317.73Z" transform="translate(-108.77 -9.28)"/><path class="cls-41" d="M286.22,323.86a15,15,0,0,1-7.29-1.82l-43.25-25c-2.09-1.2-3.29-2.83-3.29-4.47a4.15,4.15,0,0,1,2.39-3.52l45-26c3.32-1.92,9.12-1.69,12.94.52l43.25,25c2.09,1.2,3.29,2.83,3.29,4.47a4.18,4.18,0,0,1-2.39,3.52l-45.05,26A11.53,11.53,0,0,1,286.22,323.86Zm-.74-61.2a10.57,10.57,0,0,0-5.2,1.19l-45,26a3.29,3.29,0,0,0-1.93,2.74c0,1.3,1,2.65,2.83,3.69l43.25,25c3.56,2.06,9,2.29,12,.52h0l45.05-26A3.31,3.31,0,0,0,338.4,293c0-1.31-1-2.65-2.83-3.69l-43.25-25A14.08,14.08,0,0,0,285.48,262.66Z" transform="translate(-108.77 -9.28)"/></g><path class="cls-42" d="M240.85,194.51h19l21.11-12.19c2.72-1.57,7.46-1.37,10.6.44l20.35,11.75h19v54.87h0a3.07,3.07,0,0,1-1.82,2.84L290.77,274.3c-2.72,1.57-7.47,1.37-10.61-.44l-36.71-21.2c-1.63-.94-2.5-2.13-2.58-3.28h0Z" transform="translate(-108.77 -9.28)"/><path class="cls-43" d="M243.45,251.78,280.16,273c3.14,1.81,7.89,2,10.61.44L329,251.34a3.06,3.06,0,0,0,1.82-2.84h0v.88h0a3.07,3.07,0,0,1-1.82,2.84L290.77,274.3c-2.72,1.57-7.47,1.37-10.61-.44l-36.71-21.2c-1.63-.94-2.5-2.13-2.58-3.28h0v-.88h0C241,249.65,241.82,250.84,243.45,251.78Z" transform="translate(-108.77 -9.28)"/><path class="cls-10" d="M329.63,250.25h0V195.38H310.69l-20.35-11.74c-3.14-1.82-7.89-2-10.61-.44l-21.11,12.18H240.85v-.87h19l21.11-12.19c2.72-1.57,7.46-1.37,10.6.44l20.35,11.75h19v54.87h0a3.07,3.07,0,0,1-1.82,2.84l-.22.12A2.61,2.61,0,0,0,329.63,250.25Z" transform="translate(-108.77 -9.28)"/><path class="cls-5" d="M241.93,195.53v54.8h0a3.39,3.39,0,0,0,.91,1.95,4.14,4.14,0,0,1-2-2.9h0V194.64A5.39,5.39,0,0,1,241.93,195.53Z" transform="translate(-108.77 -9.28)"/><path class="cls-44" d="M290.77,219.43,329,197.35c2.72-1.57,2.38-4.31-.76-6.13L291.53,170c-3.14-1.81-7.88-2-10.6-.44l-38.24,22.08c-2.72,1.56-2.38,4.31.76,6.12L280.16,219C283.3,220.8,288.05,221,290.77,219.43Z" transform="translate(-108.77 -9.28)"/><path class="cls-5" d="M242.69,191.66l38.24-22.07a9.93,9.93,0,0,1,5.35-1,8.92,8.92,0,0,0-3.86,1l-38.23,22.07c-2.72,1.57-2.38,4.32.76,6.13L281.66,219a12.18,12.18,0,0,0,5.25,1.47,12.5,12.5,0,0,1-6.75-1.47l-36.71-21.2C240.31,196,240,193.23,242.69,191.66Z" transform="translate(-108.77 -9.28)"/><path class="cls-45" d="M289.51,213.06,318,196.62c2-1.17,1.77-3.21-.57-4.56l-27.33-15.78c-2.34-1.35-5.87-1.49-7.9-.32l-28.46,16.43c-2,1.17-1.77,3.21.56,4.56l27.34,15.78C284,214.08,287.49,214.23,289.51,213.06Z" transform="translate(-108.77 -9.28)"/><path class="cls-13" d="M288.5,208,309.13,196c1.47-.85,1.28-2.33-.41-3.3l-19.8-11.44a6.39,6.39,0,0,0-5.73-.23L262.57,193c-1.47.85-1.28,2.33.41,3.31l19.8,11.43A6.37,6.37,0,0,0,288.5,208Z" transform="translate(-108.77 -9.28)"/><path class="cls-10" d="M289.06,219.43l38.23-22.08c2.72-1.57,2.38-4.31-.76-6.13L289.82,170a12.11,12.11,0,0,0-5.17-1.47,12.4,12.4,0,0,1,6.88,1.47l36.72,21.19c3.14,1.82,3.48,4.56.76,6.13l-38.24,22.08a9.94,9.94,0,0,1-5.44,1A8.94,8.94,0,0,0,289.06,219.43Z" transform="translate(-108.77 -9.28)"/><g class="cls-46"><path class="cls-15" d="M308.73,194.35l-19.81-11.44a6.39,6.39,0,0,0-5.73-.24l-20.63,11.91a2.31,2.31,0,0,0-.72.65,1.53,1.53,0,0,1,.72-2.26l20.63-11.91a6.36,6.36,0,0,1,5.73.24l19.81,11.44c1.32.76,1.71,1.82,1.13,2.65A3.2,3.2,0,0,0,308.73,194.35Z" transform="translate(-108.77 -9.28)"/><path class="cls-16" d="M308.73,196.29l-19.81-11.44a6.36,6.36,0,0,0-5.73-.23l-20.63,11.91a2.18,2.18,0,0,0-.6.5,1.54,1.54,0,0,1,.6-2.45l20.63-11.91a6.39,6.39,0,0,1,5.73.24l19.81,11.44c1.39.8,1.75,1.94,1,2.8A3.38,3.38,0,0,0,308.73,196.29Z" transform="translate(-108.77 -9.28)"/><path class="cls-17" d="M309.54,199.3a3.88,3.88,0,0,0-.81-.64l-19.81-11.44a6.39,6.39,0,0,0-5.73-.23L262.56,198.9a2.58,2.58,0,0,0-.4.29,1.56,1.56,0,0,1,.4-2.66l20.63-11.91a6.36,6.36,0,0,1,5.73.23l19.81,11.44C310.24,197.16,310.54,198.43,309.54,199.3Z" transform="translate(-108.77 -9.28)"/></g><path class="cls-13" d="M272.66,259.85l2.12,1.22c.55.32,1,0,1-.74V230.72a2.35,2.35,0,0,0-1-1.89l-2.12-1.23c-.54-.31-1,0-1,.75V258A2.37,2.37,0,0,0,272.66,259.85Z" transform="translate(-108.77 -9.28)"/><path class="cls-15" d="M272.66,227.6l.51.3V257a2.38,2.38,0,0,0,1,1.89l1.61.93v.54c0,.72-.44,1.06-1,.74l-2.12-1.22a2.37,2.37,0,0,1-1-1.89V228.35C271.68,227.62,272.12,227.29,272.66,227.6Z" transform="translate(-108.77 -9.28)"/><path class="cls-13" d="M264.85,255.34l2.12,1.22c.55.32,1,0,1-.74V226.2a2.34,2.34,0,0,0-1-1.88l-2.12-1.23c-.54-.31-1,0-1,.75v29.61A2.39,2.39,0,0,0,264.85,255.34Z" transform="translate(-108.77 -9.28)"/><path class="cls-13" d="M257,250.83l2.12,1.22c.54.32,1,0,1-.74V221.69a2.37,2.37,0,0,0-1-1.88L257,218.58c-.55-.31-1,0-1,.75v29.61A2.36,2.36,0,0,0,257,250.83Z" transform="translate(-108.77 -9.28)"/><path class="cls-13" d="M249.23,246.32l2.12,1.22c.54.32,1,0,1-.75V217.18a2.38,2.38,0,0,0-1-1.89l-2.12-1.22c-.55-.31-1,0-1,.75v29.61A2.36,2.36,0,0,0,249.23,246.32Z" transform="translate(-108.77 -9.28)"/><path class="cls-15" d="M264.85,223.09l.51.3v29.07a2.35,2.35,0,0,0,1,1.89l1.61.93v.54c0,.72-.44,1.06-1,.74l-2.12-1.22a2.39,2.39,0,0,1-1-1.89V223.84C263.86,223.11,264.31,222.78,264.85,223.09Z" transform="translate(-108.77 -9.28)"/><path class="cls-15" d="M257,218.58l.51.29V248a2.37,2.37,0,0,0,1,1.89l1.62.93v.54c0,.72-.45,1.06-1,.74L257,250.83a2.36,2.36,0,0,1-1-1.89V219.33C256.05,218.6,256.49,218.27,257,218.58Z" transform="translate(-108.77 -9.28)"/><path class="cls-15" d="M249.23,214.07l.5.29v29.08a2.39,2.39,0,0,0,1,1.89l1.61.93v.53c0,.73-.44,1.07-1,.75l-2.12-1.22a2.36,2.36,0,0,1-1-1.89V214.82C248.24,214.09,248.68,213.76,249.23,214.07Z" transform="translate(-108.77 -9.28)"/><path class="cls-18" d="M293.93,263.48a1.08,1.08,0,0,1-.56-.14,1.68,1.68,0,0,1-.7-1.53V230.47a4,4,0,0,1,1.71-3.23l27.61-16a1.33,1.33,0,0,1,1.34-.08,1.69,1.69,0,0,1,.7,1.53v31.34a4,4,0,0,1-1.71,3.23L294.7,263.26A1.56,1.56,0,0,1,293.93,263.48Zm28.84-51.77a1,1,0,0,0-.45.14l-27.62,16a3.4,3.4,0,0,0-1.38,2.67v31.34a1.08,1.08,0,0,0,.37,1,.71.71,0,0,0,.69-.08L322,246.75a3.41,3.41,0,0,0,1.39-2.67V212.74a1.12,1.12,0,0,0-.37-1A.53.53,0,0,0,322.77,211.71Z" transform="translate(-108.77 -9.28)"/><path class="cls-13" d="M318.63,218.88c0,.86.6,1.21,1.34.78a3,3,0,0,0,1.34-2.33c0-.86-.6-1.2-1.34-.78A3,3,0,0,0,318.63,218.88Z" transform="translate(-108.77 -9.28)"/><path class="cls-13" d="M318.63,223.24c0,.86.6,1.21,1.34.78a3,3,0,0,0,1.34-2.33c0-.86-.6-1.2-1.34-.78A3,3,0,0,0,318.63,223.24Z" transform="translate(-108.77 -9.28)"/><ellipse class="cls-13" cx="319.97" cy="226.83" rx="1.9" ry="1.1" transform="translate(-145.22 381.23) rotate(-60)"/><path class="cls-15" d="M319.3,227.85a3,3,0,0,0,1.34-2.33,1.32,1.32,0,0,0-.07-.42c.44,0,.74.35.74,1a3,3,0,0,1-1.34,2.33c-.6.35-1.11.18-1.28-.36A1.18,1.18,0,0,0,319.3,227.85Z" transform="translate(-108.77 -9.28)"/><path class="cls-15" d="M319.3,223.48a3,3,0,0,0,1.34-2.32,1.32,1.32,0,0,0-.07-.42c.44,0,.74.34.74.95A3,3,0,0,1,320,224c-.6.34-1.11.17-1.28-.36A1.2,1.2,0,0,0,319.3,223.48Z" transform="translate(-108.77 -9.28)"/><path class="cls-15" d="M319.3,219.12a3,3,0,0,0,1.34-2.33,1.37,1.37,0,0,0-.07-.42c.44,0,.74.35.74.95a3,3,0,0,1-1.34,2.33c-.6.35-1.11.18-1.28-.35A1.2,1.2,0,0,0,319.3,219.12Z" transform="translate(-108.77 -9.28)"/><path class="cls-18" d="M296.41,247.84l.89-.51a1.19,1.19,0,0,0,.5-1V242.1c0-.37-.22-.54-.5-.38l-.89.51a1.22,1.22,0,0,0-.5,1v4.27C295.91,247.83,296.14,248,296.41,247.84Z" transform="translate(-108.77 -9.28)"/><path class="cls-47" d="M261.58,91.22h48.5v103.4h0a1.69,1.69,0,0,1-1,1.43L288.48,208a6.35,6.35,0,0,1-5.71-.24L263,196.29a2.41,2.41,0,0,1-1.39-1.77h0Z" transform="translate(-108.77 -9.28)"/><path class="cls-48" d="M263.88,101.08h43.9v93.58h0a1.54,1.54,0,0,1-.9,1.29l-18.65,10.77a5.74,5.74,0,0,1-5.17-.21l-17.91-10.34a2.18,2.18,0,0,1-1.26-1.6h0Z" transform="translate(-108.77 -9.28)"/><path class="cls-13" d="M295.53,186a1.81,1.81,0,1,0,1.81-1.81A1.81,1.81,0,0,0,295.53,186Z" transform="translate(-108.77 -9.28)"/><path class="cls-13" d="M280.64,173.84a3.09,3.09,0,1,0,3.08-3.08A3.08,3.08,0,0,0,280.64,173.84Z" transform="translate(-108.77 -9.28)"/><path class="cls-13" d="M286.73,171.88a.79.79,0,1,0,.79-.79A.79.79,0,0,0,286.73,171.88Z" transform="translate(-108.77 -9.28)"/><path class="cls-13" d="M272.51,156.39a1.55,1.55,0,1,0,1.54-1.54A1.54,1.54,0,0,0,272.51,156.39Z" transform="translate(-108.77 -9.28)"/><circle class="cls-13" cx="173.41" cy="134.02" r="1.09"/><circle class="cls-13" cx="186.76" cy="125.67" r="1.98"/><path class="cls-13" d="M280.64,121a4,4,0,1,0,4-4A4,4,0,0,0,280.64,121Z" transform="translate(-108.77 -9.28)"/><path class="cls-13" d="M288.64,118.42a1.1,1.1,0,1,0,1.1-1.1A1.1,1.1,0,0,0,288.64,118.42Z" transform="translate(-108.77 -9.28)"/><path class="cls-13" d="M280.12,125.75a1.3,1.3,0,1,0,1.29-1.29A1.3,1.3,0,0,0,280.12,125.75Z" transform="translate(-108.77 -9.28)"/><path class="cls-13" d="M279.15,123a.63.63,0,1,0,.63-.62A.63.63,0,0,0,279.15,123Z" transform="translate(-108.77 -9.28)"/><circle class="cls-13" cx="164.05" cy="100.28" r="1.81"/></g></g></g></svg>