<svg xmlns="http://www.w3.org/2000/svg" xmlns:xlink="http://www.w3.org/1999/xlink" viewBox="0 0 385.69 413.61"><defs><style>.cls-1{fill:none;}.cls-2{isolation:isolate;}.cls-3{fill:#041860;}.cls-3,.cls-4{opacity:0.2;}.cls-4{fill:#b5b5b5;}.cls-43,.cls-47,.cls-5{fill:#fff;}.cls-6{fill:url(#Áåçûìÿííûé_ãðàäèåíò_14);}.cls-7{fill:url(#Áåçûìÿííûé_ãðàäèåíò_32);}.cls-8{fill:url(#Áåçûìÿííûé_ãðàäèåíò_2);}.cls-9{fill:url(#Áåçûìÿííûé_ãðàäèåíò_11);}.cls-10{fill:#a9ebff;}.cls-11{fill:url(#Áåçûìÿííûé_ãðàäèåíò_2-2);}.cls-12{fill:#1bbae0;mix-blend-mode:multiply;}.cls-12,.cls-43{opacity:0.5;}.cls-13{fill:url(#Áåçûìÿííûé_ãðàäèåíò_2-4);}.cls-14{fill:url(#Áåçûìÿííûé_ãðàäèåíò_2-5);}.cls-15{fill:url(#Áåçûìÿííûé_ãðàäèåíò_14-2);}.cls-16{fill:#004496;}.cls-17{fill:url(#Áåçûìÿííûé_ãðàäèåíò_2-6);}.cls-18{fill:url(#Áåçûìÿííûé_ãðàäèåíò_11-2);}.cls-19,.cls-42{fill:#1a4272;}.cls-20{fill:url(#Áåçûìÿííûé_ãðàäèåíò_2-7);}.cls-21{fill:url(#Áåçûìÿííûé_ãðàäèåíò_2-8);}.cls-22{fill:url(#Áåçûìÿííûé_ãðàäèåíò_2-9);}.cls-23{fill:url(#Áåçûìÿííûé_ãðàäèåíò_14-3);}.cls-24{fill:url(#Áåçûìÿííûé_ãðàäèåíò_11-3);}.cls-25{clip-path:url(#clip-path);}.cls-26{fill:url(#Áåçûìÿííûé_ãðàäèåíò_2-10);}.cls-27{fill:url(#Áåçûìÿííûé_ãðàäèåíò_14-4);}.cls-28{fill:url(#Áåçûìÿííûé_ãðàäèåíò_11-4);}.cls-29{fill:url(#Áåçûìÿííûé_ãðàäèåíò_11-5);}.cls-30{fill:url(#Áåçûìÿííûé_ãðàäèåíò_2-11);}.cls-31{fill:url(#Áåçûìÿííûé_ãðàäèåíò_14-5);}.cls-32{fill:url(#Áåçûìÿííûé_ãðàäèåíò_14-6);}.cls-33{fill:url(#Áåçûìÿííûé_ãðàäèåíò_11-6);}.cls-34{clip-path:url(#clip-path-2);}.cls-35{fill:url(#Áåçûìÿííûé_ãðàäèåíò_14-7);}.cls-36{fill:#3a9bd5;}.cls-37{fill:url(#Áåçûìÿííûé_ãðàäèåíò_2-12);}.cls-38{fill:url(#Áåçûìÿííûé_ãðàäèåíò_2-13);}.cls-39{fill:#2573ba;}.cls-40{fill:url(#Áåçûìÿííûé_ãðàäèåíò_17);}.cls-41{fill:url(#Áåçûìÿííûé_ãðàäèåíò_11-7);}.cls-42{opacity:0.7;}.cls-44{fill:url(#Áåçûìÿííûé_ãðàäèåíò_11-8);}.cls-45{fill:#efefef;}.cls-46{fill:url(#Áåçûìÿííûé_ãðàäèåíò_11-9);}.cls-47{opacity:0.4;}</style><linearGradient id="Áåçûìÿííûé_ãðàäèåíò_14" x1="329.57" y1="28.7" x2="293.19" y2="206.84" gradientUnits="userSpaceOnUse"><stop offset="0" stop-color="#2573ba"/><stop offset="1" stop-color="#0063ad"/></linearGradient><linearGradient id="Áåçûìÿííûé_ãðàäèåíò_32" x1="61.95" y1="298.73" x2="310.47" y2="298.73" gradientUnits="userSpaceOnUse"><stop offset="0" stop-color="#3a9bd5"/><stop offset="0.31" stop-color="#3a9bd5"/><stop offset="0.36" stop-color="#3a9bd5"/><stop offset="0.6" stop-color="#3999d4"/><stop offset="0.69" stop-color="#3592cf"/><stop offset="0.75" stop-color="#2f86c7"/><stop offset="0.8" stop-color="#2676bc"/><stop offset="0.81" stop-color="#2573ba"/></linearGradient><linearGradient id="Áåçûìÿííûé_ãðàäèåíò_2" x1="365.17" y1="216.73" x2="174.11" y2="89.72" gradientUnits="userSpaceOnUse"><stop offset="0" stop-color="#59bdef"/><stop offset="1" stop-color="#7bdaff"/></linearGradient><linearGradient id="Áåçûìÿííûé_ãðàäèåíò_11" x1="179.09" y1="102.29" x2="413.55" y2="250.55" gradientUnits="userSpaceOnUse"><stop offset="0" stop-color="#3a9bd5"/><stop offset="1" stop-color="#2573ba"/></linearGradient><linearGradient id="Áåçûìÿííûé_ãðàäèåíò_2-2" x1="271.42" y1="387.58" x2="158.49" y2="175.12" xlink:href="#Áåçûìÿííûé_ãðàäèåíò_2"/><linearGradient id="Áåçûìÿííûé_ãðàäèåíò_2-4" x1="195.16" y1="256.88" x2="91.1" y2="172.01" xlink:href="#Áåçûìÿííûé_ãðàäèåíò_2"/><linearGradient id="Áåçûìÿííûé_ãðàäèåíò_2-5" x1="184.81" y1="189.57" x2="85.61" y2="108.65" xlink:href="#Áåçûìÿííûé_ãðàäèåíò_2"/><linearGradient id="Áåçûìÿííûé_ãðàäèåíò_14-2" x1="87.65" y1="305.39" x2="304.36" y2="179.57" xlink:href="#Áåçûìÿííûé_ãðàäèåíò_14"/><linearGradient id="Áåçûìÿííûé_ãðàäèåíò_2-6" x1="171.36" y1="237.02" x2="239.44" y2="237.02" xlink:href="#Áåçûìÿííûé_ãðàäèåíò_2"/><linearGradient id="Áåçûìÿííûé_ãðàäèåíò_11-2" x1="-22.33" y1="156.32" x2="156.37" y2="261.72" xlink:href="#Áåçûìÿííûé_ãðàäèåíò_11"/><linearGradient id="Áåçûìÿííûé_ãðàäèåíò_2-7" x1="80.52" y1="237.02" x2="148.48" y2="237.02" xlink:href="#Áåçûìÿííûé_ãðàäèåíò_2"/><linearGradient id="Áåçûìÿííûé_ãðàäèåíò_2-8" x1="184.81" y1="176.43" x2="85.61" y2="95.51" xlink:href="#Áåçûìÿííûé_ãðàäèåíò_2"/><linearGradient id="Áåçûìÿííûé_ãðàäèåíò_2-9" x1="184.81" y1="163.33" x2="85.61" y2="82.41" xlink:href="#Áåçûìÿííûé_ãðàäèåíò_2"/><linearGradient id="Áåçûìÿííûé_ãðàäèåíò_14-3" x1="115.82" y1="227.85" x2="280.68" y2="132.13" xlink:href="#Áåçûìÿííûé_ãðàäèåíò_14"/><linearGradient id="Áåçûìÿííûé_ãðàäèåíò_11-3" x1="10.69" y1="114.61" x2="146.27" y2="194.58" xlink:href="#Áåçûìÿííûé_ãðàäèåíò_11"/><clipPath id="clip-path" transform="translate(-53.61 -28.39)"><polygon class="cls-1" points="134.12 240.41 202.09 279.64 202.09 290.41 197.83 310.91 155.91 323.16 84.89 275.62 98.7 212.79 134.12 240.41"/></clipPath><linearGradient id="Áåçûìÿííûé_ãðàäèåíò_2-10" x1="85.8" y1="250.51" x2="2.89" y2="199.91" xlink:href="#Áåçûìÿííûé_ãðàäèåíò_2"/><linearGradient id="Áåçûìÿííûé_ãðàäèåíò_14-4" x1="110.18" y1="276.55" x2="140.77" y2="276.55" xlink:href="#Áåçûìÿííûé_ãðàäèåíò_14"/><linearGradient id="Áåçûìÿííûé_ãðàäèåíò_11-4" x1="43.64" y1="266.18" x2="110.18" y2="266.18" xlink:href="#Áåçûìÿííûé_ãðàäèåíò_11"/><linearGradient id="Áåçûìÿííûé_ãðàäèåíò_11-5" x1="61.75" y1="249.28" x2="123.43" y2="249.28" xlink:href="#Áåçûìÿííûé_ãðàäèåíò_11"/><linearGradient id="Áåçûìÿííûé_ãðàäèåíò_2-11" x1="85.8" y1="239.86" x2="2.89" y2="189.26" xlink:href="#Áåçûìÿííûé_ãðàäèåíò_2"/><linearGradient id="Áåçûìÿííûé_ãðàäèåíò_14-5" x1="54.6" y1="244.14" x2="129.95" y2="244.14" xlink:href="#Áåçûìÿííûé_ãðàäèåíò_14"/><linearGradient id="Áåçûìÿííûé_ãðàäèåíò_14-6" x1="110.18" y1="265.9" x2="140.77" y2="265.9" xlink:href="#Áåçûìÿííûé_ãðàäèåíò_14"/><linearGradient id="Áåçûìÿííûé_ãðàäèåíò_11-6" x1="43.64" y1="255.52" x2="110.18" y2="255.52" xlink:href="#Áåçûìÿííûé_ãðàäèåíò_11"/><clipPath id="clip-path-2" transform="translate(-53.61 -28.39)"><polygon class="cls-1" points="293.05 216.54 379.33 325.16 294.12 351.72 224.97 314.27 224.97 255.85 293.05 216.54"/></clipPath><linearGradient id="Áåçûìÿííûé_ãðàäèåíò_14-7" x1="218.88" y1="303.49" x2="316.56" y2="303.49" xlink:href="#Áåçûìÿííûé_ãðàäèåíò_14"/><linearGradient id="Áåçûìÿííûé_ãðàäèåíò_2-12" x1="336.79" y1="325.57" x2="216.4" y2="252.73" xlink:href="#Áåçûìÿííûé_ãðàäèåíò_2"/><linearGradient id="Áåçûìÿííûé_ãðàäèåíò_2-13" x1="630.48" y1="-673.65" x2="649.3" y2="-673.65" gradientTransform="matrix(0.87, 0.5, 0, 1.15, -261.09, 782.71)" xlink:href="#Áåçûìÿííûé_ãðàäèåíò_2"/><linearGradient id="Áåçûìÿííûé_ãðàäèåíò_17" x1="288.04" y1="324.81" x2="297.49" y2="324.81" gradientUnits="userSpaceOnUse"><stop offset="0" stop-color="#7bdaff"/><stop offset="1" stop-color="#59bdef"/></linearGradient><linearGradient id="Áåçûìÿííûé_ãðàäèåíò_11-7" x1="466.77" y1="-527.26" x2="617.03" y2="-527.26" gradientTransform="matrix(0.87, 0.5, 0, 1.15, -231.83, 632.19)" xlink:href="#Áåçûìÿííûé_ãðàäèåíò_11"/><linearGradient id="Áåçûìÿííûé_ãðàäèåíò_11-8" x1="276.5" y1="292.51" x2="339.18" y2="292.51" xlink:href="#Áåçûìÿííûé_ãðàäèåíò_11"/><linearGradient id="Áåçûìÿííûé_ãðàäèåíò_11-9" x1="229.96" y1="266.9" x2="292.64" y2="266.9" xlink:href="#Áåçûìÿííûé_ãðàäèåíò_11"/></defs><title>health</title><g class="cls-2"><g id="Layer_7" data-name="Layer 7"><path class="cls-3" d="M254.23,441.11,55.14,326.17c-2.27-1.31-2-3.61.64-5.13l117.47-67.82c2.63-1.52,6.61-1.68,8.88-.37L381.22,367.79c2.28,1.32,2,3.62-.64,5.13L263.11,440.74C260.48,442.26,256.51,442.43,254.23,441.11Z" transform="translate(-53.61 -28.39)"/><path class="cls-4" d="M406.88,293.79,208.41,179.2a7.4,7.4,0,0,1-3.56-7.17L231.18,31.81c.47-2.55,2.85-3.47,5.29-2.06L434.94,144.34a7.41,7.41,0,0,1,3.57,7.17L412.18,291.73C411.7,294.28,409.33,295.2,406.88,293.79Z" transform="translate(-53.61 -28.39)"/><path class="cls-5" d="M409.14,295.16a5.24,5.24,0,0,1-2.61-.76L208.06,179.81a8.08,8.08,0,0,1-3.91-7.91L230.48,31.68a3.92,3.92,0,0,1,2.15-3,4.6,4.6,0,0,1,4.2.42L435.3,143.73a8.07,8.07,0,0,1,3.9,7.91L412.87,291.86a3.89,3.89,0,0,1-2.15,3A3.68,3.68,0,0,1,409.14,295.16ZM234.22,29.8a2.35,2.35,0,0,0-1,.2,2.52,2.52,0,0,0-1.35,1.94L205.54,172.16a6.79,6.79,0,0,0,3.22,6.43L407.23,293.18a3.2,3.2,0,0,0,2.9.36,2.52,2.52,0,0,0,1.35-1.94l26.34-140.22a6.8,6.8,0,0,0-3.23-6.43L236.12,30.36A3.92,3.92,0,0,0,234.22,29.8Z" transform="translate(-53.61 -28.39)"/><path class="cls-6" d="M414.47,156.77,216,42.19a3.74,3.74,0,0,0-3.76-.28L208,44.38l2.51,1L184.37,184.46a7.45,7.45,0,0,0,3.56,7.18L386.12,306.06l-.34,3,4.23-2.46h0a3.21,3.21,0,0,0,1.7-2.41L418,164A7.45,7.45,0,0,0,414.47,156.77Z" transform="translate(-53.61 -28.39)"/><path class="cls-7" d="M382.61,311.25l-10,5L183,206.72c-2.23-1.29-6.12-1.13-8.69.36L64.13,270.66,53.69,265l3.74,11.93h0a3,3,0,0,0,1.38,1.49L253.42,390.74c2.22,1.29,6.11,1.13,8.68-.36l114.83-66.29a4.18,4.18,0,0,0,2-2.18h0Z" transform="translate(-53.61 -28.39)"/><path class="cls-8" d="M414.47,156.77,216,42.19a3.74,3.74,0,0,0-3.76-.28L208,44.38l2.51,1L184.37,184.46a7.45,7.45,0,0,0,3.56,7.18l99.68,57.54L417,159.25A7.38,7.38,0,0,0,414.47,156.77Z" transform="translate(-53.61 -28.39)"/><path class="cls-9" d="M382,308.76,183.56,194.17A7.43,7.43,0,0,1,180,187L206.32,46.78c.48-2.55,2.85-3.47,5.3-2.06L410.09,159.31a7.43,7.43,0,0,1,3.57,7.17L387.33,306.7C386.85,309.25,384.48,310.17,382,308.76Z" transform="translate(-53.61 -28.39)"/><path class="cls-10" d="M381.18,303.61,186,190.92a2.62,2.62,0,0,1-1.26-2.53l25.88-137.8a1.14,1.14,0,0,1,1.86-.72L407.66,162.56a2.61,2.61,0,0,1,1.26,2.53L383,302.88A1.15,1.15,0,0,1,381.18,303.61Z" transform="translate(-53.61 -28.39)"/><path class="cls-11" d="M254.23,381.55,55.14,266.61c-2.27-1.32-2-3.61.64-5.13l117.47-67.82c2.63-1.52,6.61-1.68,8.88-.37L381.22,308.23c2.28,1.32,2,3.61-.64,5.13L263.11,381.18C260.48,382.7,256.51,382.87,254.23,381.55Z" transform="translate(-53.61 -28.39)"/><path class="cls-11" d="M254.23,381.55,55.14,266.61c-2.27-1.32-2-3.61.64-5.13l117.47-67.82c2.63-1.52,6.61-1.68,8.88-.37L381.22,308.23c2.28,1.32,2,3.61-.64,5.13L263.11,381.18C260.48,382.7,256.51,382.87,254.23,381.55Z" transform="translate(-53.61 -28.39)"/><path class="cls-10" d="M55.78,263.57l117.47-67.82c2.63-1.52,6.61-1.69,8.88-.37L381.22,310.32a3.2,3.2,0,0,1,1.26,1.21c.6-1.2.21-2.45-1.26-3.3L182.13,193.29c-2.27-1.31-6.25-1.15-8.88.37L55.78,261.48c-1.94,1.12-2.6,2.66-1.9,3.92A4.67,4.67,0,0,1,55.78,263.57Z" transform="translate(-53.61 -28.39)"/><path class="cls-12" d="M381.22,308.23,272,245.19l-59.68,25,1.21,63h30.7l52.52,28.61,21.51-12.42L352.1,329.8h0l28.48-16.44C383.21,311.84,383.5,309.55,381.22,308.23Z" transform="translate(-53.61 -28.39)"/><polygon class="cls-13" points="159.95 304.75 69.05 252.27 159.95 129.91 250.85 252.27 159.95 304.75"/><polygon class="cls-14" points="159.95 221.77 69.05 169.29 159.95 116.81 250.85 169.29 159.95 221.77"/><polygon class="cls-10" points="159.95 220.41 70.23 168.61 69.05 169.29 159.95 221.77 250.85 169.29 249.67 168.61 159.95 220.41"/><polygon class="cls-15" points="250.85 252.27 250.85 169.29 159.95 221.77 159.95 304.75 250.85 252.27"/><polygon class="cls-16" points="239.44 246.58 239.44 188.16 171.36 227.47 171.36 285.88 239.44 246.58"/><polygon class="cls-17" points="231.12 192.96 231.12 242.72 171.36 277.22 171.36 285.88 239.44 246.58 239.44 188.16 231.12 192.96"/><polygon class="cls-18" points="69.05 169.29 69.05 252.27 159.95 304.75 159.95 221.77 69.05 169.29"/><polygon class="cls-19" points="80.52 212.02 80.52 222.78 148.48 262.02 148.48 251.26 80.52 212.02"/><polygon class="cls-20" points="85.71 219.72 85.71 215.01 80.52 212.02 80.52 222.78 148.48 262.02 148.48 255.96 85.71 219.72"/><polygon class="cls-5" points="159.95 216.91 76.47 168.71 159.95 120.52 243.43 168.72 159.95 216.91"/><polygon class="cls-5" points="159.95 204.88 76.47 156.68 159.95 108.48 243.43 156.68 159.95 204.88"/><polygon class="cls-5" points="159.95 203.63 77.55 156.06 76.47 156.68 159.95 204.88 243.43 156.68 242.35 156.06 159.95 203.63"/><polygon class="cls-5" points="243.43 168.72 243.43 156.68 159.95 204.88 159.95 216.91 243.43 168.72"/><polygon class="cls-5" points="76.47 156.68 76.47 168.71 159.95 216.91 159.95 204.88 76.47 156.68"/><polygon class="cls-21" points="159.95 208.63 69.05 156.15 159.95 103.67 250.85 156.15 159.95 208.63"/><polygon class="cls-22" points="159.95 195.53 69.05 143.05 159.95 90.56 250.85 143.05 159.95 195.53"/><polygon class="cls-10" points="159.95 194.17 70.23 142.37 69.05 143.05 159.95 195.53 250.85 143.05 249.67 142.37 159.95 194.17"/><polygon class="cls-23" points="250.85 156.15 250.85 143.05 159.95 195.53 159.95 208.63 250.85 156.15"/><polygon class="cls-24" points="69.05 143.05 69.05 156.15 159.95 208.63 159.95 195.53 69.05 143.05"/><g class="cls-25"><polygon class="cls-26" points="110.18 282.47 43.64 244.05 74.23 226.39 140.77 264.8 110.18 282.47"/><polygon class="cls-27" points="140.77 264.8 140.77 270.64 110.18 288.31 110.18 282.47 140.77 264.8"/><polygon class="cls-28" points="43.64 244.05 43.64 249.89 110.18 288.31 110.18 282.47 43.64 244.05"/><polygon class="cls-5" points="123.43 266.12 61.75 230.5 90.11 214.13 151.79 249.74 123.43 266.12"/><polygon class="cls-5" points="151.79 249.74 151.79 251.68 123.43 268.06 123.43 266.12 151.79 249.74"/><polygon class="cls-29" points="61.75 230.5 61.75 232.44 123.43 268.06 123.43 266.12 61.75 230.5"/><polygon class="cls-5" points="75.77 223.16 45.75 238.11 45.75 243.46 110.18 280.75 138.16 264.6 138.16 259.25 75.77 223.16"/><polygon class="cls-30" points="110.18 271.81 43.64 233.4 74.23 215.73 140.77 254.15 110.18 271.81"/><polygon class="cls-31" points="110.18 266.22 54.6 234.14 74.23 222.07 129.95 254.8 110.18 266.22"/><polygon class="cls-10" points="74.21 222.82 129.79 254.9 131.08 254.15 74.21 221.33 53.3 233.4 54.6 234.14 74.21 222.82"/><polygon class="cls-32" points="140.77 254.15 140.77 259.99 110.18 277.65 110.18 271.81 140.77 254.15"/><polygon class="cls-33" points="43.64 233.4 43.64 239.24 110.18 277.65 110.18 271.81 43.64 233.4"/></g><g class="cls-34"><path class="cls-35" d="M296.22,338.53l-77.34-44.22,7.79-25.86,57.78,22.28s31.78,23.75,32.1,24.25-17,22.29-17,22.29Z" transform="translate(-53.61 -28.39)"/><polygon class="cls-36" points="161.91 263.67 206.5 237.93 205.81 237.53 161.22 263.27 161.91 263.67"/><polygon class="cls-36" points="228.82 250.86 228.13 250.46 183.58 276.18 184.27 276.58 228.82 250.86"/><polygon class="cls-36" points="205.94 289.08 206.63 289.48 251.13 263.79 250.44 263.39 205.94 289.08"/><polygon class="cls-36" points="228.01 302.16 228.67 302.57 273.44 276.72 272.75 276.32 228.01 302.16"/><path class="cls-37" d="M345.92,306.27c0-6.56-3.88-13.93-8.84-16.79L225.84,225c-2.37-1.36-4.71-1.52-6.6-.43-2.19,1.27-3.45,4.07-3.45,7.71,0,6.55,3.89,13.92,8.85,16.79l4.21,2.44-23.64,13.18,76.44,44.11,11.4,7.12,6.17,6,.93,4.92.8,5.06L299.07,339l43.46-25.08h0C344.69,312.66,345.92,309.87,345.92,306.27ZM225.84,247c-4.22-2.43-7.65-9-7.65-14.71,0-2.76.82-4.81,2.25-5.64s3.07-.21,4.2.44l23.55,13.65-16.9,9.42Z" transform="translate(-53.61 -28.39)"/><path class="cls-10" d="M220.44,226.63a3.11,3.11,0,0,1,1.69-.39,3.44,3.44,0,0,0-2.8.19c-1.43.83-2.25,2.88-2.25,5.63,0,5.68,3.43,12.29,7.65,14.72l5.45,3.16.39-.21L225.84,247c-4.22-2.43-7.65-9-7.65-14.71C218.19,229.51,219,227.46,220.44,226.63Z" transform="translate(-53.61 -28.39)"/><path class="cls-10" d="M337.08,289.48,225.84,225a8.21,8.21,0,0,0-3.31-1.11,8.85,8.85,0,0,1,2.2.91L336,289.27c5,2.87,8.85,10.24,8.85,16.8,0,3.6-1.24,6.39-3.4,7.67h0L299.33,338l-.26,1,43.46-25.08h0c2.16-1.28,3.39-4.07,3.39-7.67C345.92,299.71,342,292.34,337.08,289.48Z" transform="translate(-53.61 -28.39)"/><polygon class="cls-36" points="169.07 246.38 213.67 220.63 212.98 220.23 168.38 245.98 169.07 246.38"/><polygon class="cls-36" points="235.98 233.56 235.29 233.16 190.75 258.88 191.44 259.28 235.98 233.56"/><polygon class="cls-36" points="213.11 271.79 213.8 272.19 258.3 246.5 257.61 246.1 213.11 271.79"/><polygon class="cls-36" points="235.18 284.86 235.84 285.28 280.61 259.43 279.92 259.03 235.18 284.86"/><path class="cls-38" d="M301.2,329.5c0,5.19-3.65,7.3-8.15,4.7s-8.15-8.92-8.15-14.11,3.65-7.31,8.15-4.71S301.2,324.3,301.2,329.5Z" transform="translate(-53.61 -28.39)"/><path class="cls-39" d="M298.05,327.68c0,3.19-2.24,4.48-5,2.89a11.06,11.06,0,0,1-5-8.67c0-3.19,2.24-4.48,5-2.89A11.08,11.08,0,0,1,298.05,327.68Z" transform="translate(-53.61 -28.39)"/><path class="cls-40" d="M294.81,329.37a11.08,11.08,0,0,1-5-8.67,4.44,4.44,0,0,1,.56-2.33c-1.4.22-2.33,1.48-2.33,3.53a11.06,11.06,0,0,0,5,8.67c1.93,1.11,3.6.81,4.44-.56A4.21,4.21,0,0,1,294.81,329.37Z" transform="translate(-53.61 -28.39)"/><path class="cls-41" d="M296.36,339.73a7.77,7.77,0,0,1-3.88-1.15h0L181.23,274.1c-4.95-2.86-8.84-10.24-8.84-16.79,0-3.63,1.26-6.44,3.45-7.71,1.88-1.09,4.23-.93,6.59.44l111.25,64.48c5,2.86,8.84,10.24,8.84,16.79,0,3.63-1.26,6.44-3.45,7.71A5.43,5.43,0,0,1,296.36,339.73Zm-2.68-3.22c1.13.65,2.77,1.25,4.19.43s2.26-2.88,2.26-5.63c0-5.68-3.43-12.28-7.65-14.72L181.23,252.11c-1.12-.65-2.77-1.26-4.19-.43s-2.25,2.87-2.25,5.63c0,5.68,3.43,12.28,7.64,14.72l111.25,64.48Z" transform="translate(-53.61 -28.39)"/></g><polygon class="cls-42" points="148.48 251.26 87.14 215.84 84.56 217.33 146.08 253.04 146.08 254.98 148.48 253.6 148.48 251.65 148.48 251.65 148.48 251.26"/><path class="cls-5" d="M124,262.5l4.27-2.47,4.25,2.46L128.23,265Z" transform="translate(-53.61 -28.39)"/><path class="cls-5" d="M133.05,267.73l4.27-2.46,4.25,2.45-4.27,2.46Z" transform="translate(-53.61 -28.39)"/><path class="cls-43" d="M142.12,273l4.27-2.46,4.25,2.45-4.27,2.46Z" transform="translate(-53.61 -28.39)"/><path class="cls-43" d="M151.19,278.2l4.26-2.46,4.25,2.46-4.26,2.46Z" transform="translate(-53.61 -28.39)"/><path class="cls-43" d="M160.26,283.44l4.26-2.46,4.25,2.45-4.26,2.46Z" transform="translate(-53.61 -28.39)"/><path class="cls-44" d="M320.25,284.13h-6.44c-7.47-3.93-18.91-3.93-26.38,0H281v8.38h0c0,2.9,1.92,5.8,5.75,8,7.67,4.43,20.1,4.43,27.76,0,3.83-2.21,5.75-5.11,5.75-8h0Z" transform="translate(-53.61 -28.39)"/><ellipse class="cls-5" cx="247.01" cy="255.75" rx="19.63" ry="11.33"/><path class="cls-45" d="M289,291l-.14-.08c-.52-.3-.45-.83.15-1.18l21.29-12.29a2.24,2.24,0,0,1,2-.08l.14.08c.52.3.45.82-.15,1.17L291,290.87A2.3,2.3,0,0,1,289,291Z" transform="translate(-53.61 -28.39)"/><path class="cls-46" d="M273.72,258.51h-6.44c-7.48-3.92-18.91-3.92-26.38,0h-6.45v8.38h0c0,2.9,1.92,5.8,5.75,8,7.67,4.43,20.1,4.43,27.77,0,3.83-2.21,5.75-5.11,5.75-8h0Z" transform="translate(-53.61 -28.39)"/><path class="cls-5" d="M268,266.53c-7.67,4.43-20.1,4.43-27.77,0s-7.66-11.6,0-16,20.1-4.43,27.77,0S275.63,262.1,268,266.53Z" transform="translate(-53.61 -28.39)"/><path class="cls-45" d="M265.75,265.33l.14-.08c.52-.3.46-.83-.14-1.17l-21.3-12.3a2.25,2.25,0,0,0-2-.08l-.14.08c-.52.3-.46.83.14,1.17l21.3,12.3A2.25,2.25,0,0,0,265.75,265.33Z" transform="translate(-53.61 -28.39)"/><polygon class="cls-47" points="196.18 154.09 177.05 143.05 196.18 132 179.08 122.13 159.95 133.18 140.82 122.13 123.72 132 142.85 143.05 123.72 154.09 140.82 163.96 159.95 152.92 179.08 163.97 196.18 154.09"/></g></g></svg>