<svg xmlns="http://www.w3.org/2000/svg" viewBox="0 0 1093.79 594.93"><defs><style>.cls-1{isolation:isolate;}.cls-2{fill:#0091c8;}.cls-3{font-size:350.05px;font-family:SourceSansPro-Black, Source Sans Pro;font-weight:800;}.cls-24,.cls-3,.cls-40,.cls-41{fill:#fff;}.cls-4{fill:#fab9af;}.cls-5{fill:#fa968c;}.cls-6{fill:#1b444f;}.cls-7{fill:#007d72;}.cls-8{fill:#1c5d5e;}.cls-9{fill:#373c41;}.cls-10{fill:#ff9669;}.cls-11{fill:#fa503c;}.cls-12{fill:#73c8f0;}.cls-13{fill:#003c63;}.cls-14{fill:#0073aa;}.cls-15{fill:#afe6ff;}.cls-16{fill:#d2f0ff;}.cls-17{fill:#69280f;}.cls-18{fill:#cd5014;}.cls-19{fill:#3c5a73;}.cls-20{fill:#823214;}.cls-21{fill:#965028;}.cls-22{fill:#fa2d14;}.cls-23{fill:#fa735f;}.cls-24{opacity:0.22;}.cls-24,.cls-40,.cls-41{mix-blend-mode:lighten;}.cls-25{fill:#00a897;}.cls-26{fill:#46738c;}.cls-27{fill:#a5c8cd;}.cls-28{fill:#00558c;}.cls-29{fill:#ffdc8c;}.cls-30{fill:#ffa0be;}.cls-31{fill:#d72846;}.cls-32{fill:#695a6e;}.cls-33{fill:#5046af;}.cls-34{fill:#6e64c3;}.cls-35{fill:#828291;}.cls-36{fill:#e64b55;}.cls-37{fill:#ffc305;}.cls-38{fill:#ffd23c;}.cls-39{fill:#ffd95c;}.cls-40{opacity:0.15;}.cls-41{opacity:0.51;}.cls-42{fill:none;stroke:#d77d14;stroke-miterlimit:10;}.cls-43{fill:#696e73;}.cls-44{fill:#c8e6eb;}.cls-45{fill:#e4f2f6;}</style></defs><title>Asset 1</title><g class="cls-1"><g id="Layer_2" data-name="Layer 2"><g id="Layer_2-2" data-name="Layer 2"><rect class="cls-2" y="454.8" width="1090.74" height="10.69" rx="2.09"/><text class="cls-3" transform="translate(120.33 452.11)">IDEA</text><path class="cls-4" d="M144,189.11c-2.83-6-16-39.32-12.78-40.87s21.76,29.3,24.59,35.26,2.48,12-.78,13.59S146.84,195.06,144,189.11Z"/><path class="cls-4" d="M120.89,211.63c7.6-3.24,44.19-13.27,46.47-7.92s-30.62,24-38.22,27.27-15.61,1.54-17.88-3.81S113.29,214.87,120.89,211.63Z"/><path class="cls-4" d="M129.78,144.52s-.8,6.38,1.07,7.27,3.28,1.15,4.68-1.52a21.92,21.92,0,0,0,1.91-9.66c-.13-2.67-2.24-7.06-2.78-7.38-1.95-1.16-1.2,3.65-1,6s.3,5-.87,4.83-1.3-4.74-2.55-5.41S129.78,144.52,129.78,144.52Z"/><path class="cls-5" d="M51.85,219.18c-10.44-13.45-13.71-28.41-10.68-30.74s16.76,7.14,27.1,19.92c10.7,13.24,18,20.48,11,26.33C74.88,238.36,62.29,232.63,51.85,219.18Z"/><path class="cls-5" d="M114,373c-1.11,8-11.42,70.15-14,69.17-2.22-.85-4-63.55-2.88-71.53s5.8-13.93,10.46-13.27S115.13,365.06,114,373Z"/><path class="cls-4" d="M84,372.85c-3.26,7.37-30.22,64.34-32.42,62.69-1.9-1.43,13.58-62.22,16.84-69.59s9.4-11.79,13.7-9.89S87.29,365.49,84,372.85Z"/><path class="cls-5" d="M98.31,429.47l0,15.15-2.62,8.61a.92.92,0,0,0,.88,1.19h6V452.5l2.92,1.92s15.51.86,16,0c2-3.23-7-4.47-13.63-7s-2-27.63-2-27.63Z"/><path class="cls-4" d="M54.41,418.43l-6.33,17.14a17.17,17.17,0,0,0-4,3.51c-.69,1-1.62,2.31-2.28,3.24a1.62,1.62,0,0,0,.19,2.11l3,2.91a1.43,1.43,0,0,0,2,0l.73-.77,1.63,3.9a4.09,4.09,0,0,0,3.25,2.5c3.73.5,10.63,1.31,10.86.42.73-2.78-9.48-6.5-9.48-6.5l-1.06-8.95,4.6-11.06Z"/><path class="cls-6" d="M98.2,445.18a9.28,9.28,0,0,0,7,2.9,10.54,10.54,0,0,0,3.18-.51c6.55,2.43,15.1,3.7,13.15,6.85-.53.86-16,0-16,0l-2.92-1.92v1.92h-6a.92.92,0,0,1-.88-1.19Z"/><path class="cls-6" d="M41.76,442.32c.66-.93,1.59-2.24,2.28-3.24a13.94,13.94,0,0,1,3.17-2.91,9.61,9.61,0,0,0,5.73,8.44c.26.14.5.3.78.42l.22,1.83s10.21,3.72,9.48,6.5c-.23.89-7.13.08-10.86-.42a4.09,4.09,0,0,1-3.25-2.5l-1.63-3.9-.73.77a1.43,1.43,0,0,1-2,0l-3-2.91A1.62,1.62,0,0,1,41.76,442.32Z"/><path class="cls-7" d="M50.66,425.22c4-18.57,15.43-54,17.78-59.27,3.26-7.36,9.4-11.79,13.7-9.89s5.15,9.43,1.88,16.79c-2.23,5-15.4,38.59-24.3,55.4Z"/><path class="cls-8" d="M96.79,434c-1.16-19.36-.42-57.86.35-63.32,1.12-8,5.8-13.93,10.46-13.27s7.53,7.65,6.41,15.63c-.74,5.33-4.58,42.24-8.48,61Z"/><path class="cls-8" d="M120.34,298.93c.26,11.63-3.72,85.44-11.9,85.62S91,311.23,90.71,299.6s6.16-21.22,14.34-21.41S120.07,287.29,120.34,298.93Z"/><path class="cls-7" d="M98.36,296.6c.26,11.64-9,78.4-17.19,78.58s-13.65-66.47-13.92-78.1,7.64-21,15.82-21.21S98.1,285,98.36,296.6Z"/><path class="cls-9" d="M109.05,185.17c0,14.18-11.51,19.84-19.44,19.84s-7.69-14.2-7.69-20.3,6.38-9.33,14.31-9.33S109.05,179.08,109.05,185.17Z"/><polygon class="cls-5" points="100.63 216.22 86.88 217.39 89.79 201.63 98.5 202.71 100.63 216.22"/><path class="cls-4" d="M107.85,193.61c0,10.21-2,15.23-7.22,15.23-6.38,0-14.45-7-14.45-15.42s3.72-13.27,10.11-13.27S107.85,185.2,107.85,193.61Z"/><path class="cls-10" d="M86.4,190.13h16.18a8,8,0,0,0,4.58-1.44c-1.6-5.42-5.86-8.54-10.87-8.54C90.79,180.15,87.27,183.76,86.4,190.13Z"/><path class="cls-9" d="M87.17,176.83h23.48a0,0,0,0,1,0,0v8.5a3.23,3.23,0,0,1-3.23,3.23H84a0,0,0,0,1,0,0V180A3.21,3.21,0,0,1,87.17,176.83Z"/><path class="cls-9" d="M89.28,194.9h0v-9.26h4v5.21A4,4,0,0,1,89.28,194.9Z"/><path class="cls-4" d="M90.83,193.1c0,2.79-.88,5-3.15,5S84,194.32,84,191.53s1.46-3.47,3.72-3.47S90.83,190.32,90.83,193.1Z"/><path class="cls-5" d="M74.7,217.37,113.53,212a11.47,11.47,0,0,1,12.84,13.44L115.6,284.07a23.64,23.64,0,0,1-27.43,19l-18.26-3.28-3.7-70.44A10.06,10.06,0,0,1,74.7,217.37Z"/><path class="cls-11" d="M64.06,218.83l65.18-9-13.71,74.58a23.25,23.25,0,0,1-27,18.68l-21.74-4Z"/><path class="cls-11" d="M120.89,211.63A111.89,111.89,0,0,1,132.17,208c6.16,8.48,4.28,19.35,4.28,19.35-3.14,1.71-5.76,3-7.31,3.68-7.6,3.24-15.61,1.54-17.88-3.81S113.29,214.87,120.89,211.63Z"/><path class="cls-11" d="M68.27,208.36c10.7,13.24,18,20.48,11,26.33-4.36,3.63-16.72-1.94-27.08-15.07C52.21,219.62,65.55,205,68.27,208.36Z"/><path class="cls-5" d="M65.08,134.45s4.64,4.44,3.76,6.31-1.82,3-4.59,1.77a21.87,21.87,0,0,1-7.59-6.29c-1.58-2.15-2.71-6.89-2.49-7.47.77-2.14,3.23,2.07,4.52,4s3,4.09,3.72,3.2-2-4.49-1.42-5.81S65.08,134.45,65.08,134.45Z"/><path class="cls-5" d="M58.41,178.66c2.92-6.56,13.81-36.58,9.58-38.47S46.78,166.27,44.24,173c-4.66,12.36-5.73,22.18-1.5,24.06S55.49,185.23,58.41,178.66Z"/><path class="cls-4" d="M237,102.29c-6.29-1.46-41-7.12-41.77-3.67s32.58,14.69,38.87,16.15,12-.15,12.84-3.59S243.31,103.76,237,102.29Z"/><path class="cls-12" d="M234.12,114.77a260.94,260.94,0,0,1-29.36-10.25c.43-2.55,1-4.35,1.38-6.72A297.18,297.18,0,0,1,237,102.29c6.29,1.47,10.74,5.44,9.94,8.89S240.41,116.23,234.12,114.77Z"/><path class="cls-4" d="M190.88,102.21s6.3.13,7-1.78.78-3.31-2-4.4a21.38,21.38,0,0,0-9.61-.88c-2.58.4-6.64,2.91-6.89,3.46-.94,2,3.67.8,5.93.32s4.87-.8,4.79.36-4.48,1.75-5,3S190.88,102.21,190.88,102.21Z"/><path class="cls-4" d="M216.25,129.92s6.88-1.51,8,.44,1.57,3.47-1.2,5.26a24,24,0,0,1-10.36,3c-2.93.12-7.93-1.76-8.33-2.31-1.46-2,3.87-1.67,6.45-1.63s5.52-.18,5.18-1.43-5.29-.95-6.15-2.26S216.25,129.92,216.25,129.92Z"/><path class="cls-4" d="M190.88,102.21s-6.29,1.41-5.77.12,4.93-1.89,5-3A.47.47,0,0,0,190,99a14,14,0,0,0,1.4-.55,14.94,14.94,0,0,0,1.53-.69l.25-.15c.31-.17.63-.35.93-.54s.47-.32.7-.48l.37-.27c.16-.12.32-.22.47-.34l.24.07c2.74,1.09,2.64,2.49,2,4.4S190.88,102.21,190.88,102.21Z"/><path class="cls-13" d="M335.72,216.2c-17.52,3.29-56,7.68-60.36,8.28-7.82,1.06-14.66-1.78-15.28-6.35s5.21-9.12,13-10.19c4.53-.61,45.39-.95,63.69-.07Z"/><path class="cls-13" d="M294.08,148.91c-6.26,8.24-40.6,64.44-32.94,70.26s54.43-40.93,60.69-49.17,5.13-19.64-2.54-25.46S300.34,140.67,294.08,148.91Z"/><path class="cls-12" d="M266.45,78.63c-6.4,5-32.46,31.44-29,35.94S272.64,99.88,279,94.93s8.77-12.61,5.29-17.11S272.85,73.69,266.45,78.63Z"/><path class="cls-14" d="M306.13,158.91c3.11,11,32.46,70.34,41.21,67.86s-4.91-66.57-8-77.54-14.25-17.16-23-14.67S303,148,306.13,158.91Z"/><path class="cls-15" d="M327.23,81.24a9.85,9.85,0,0,0-10.62-9.7l-38.26,3a11.23,11.23,0,0,0-9.49,15.53l26.08,62.36a17.21,17.21,0,0,0,18.92,10.29l28.45-9.53L329.68,123.3Z"/><path class="cls-4" d="M260,117.25c-7.47,2.53-40.43,11.75-39,16s36.51-1.95,43.84-4.86c13.48-5.34,22.34-11.41,20.91-15.64S267.51,114.72,260,117.25Z"/><path class="cls-16" d="M285.79,112.73c-1.44-4.24-18.28,2-25.76,4.52-4.6,1.56-18.84,5.65-28.79,9.55,0,0,.79,5.13,2.19,7.53,11.29-1,26.85-4.13,31.45-6C278.36,123,287.22,117,285.79,112.73Z"/><path class="cls-4" d="M350.5,229c7.5,2.48,66.56,20.36,66.81,17.69.21-2.33-54.08-31-61.57-33.53s-14.74-.94-16.19,3.44S343,226.48,350.5,229Z"/><path class="cls-4" d="M403.05,237.43l16.6,6.67a16.83,16.83,0,0,1,5.21-.62l3.84.47a1.6,1.6,0,0,1,1.41,1.53l.16,4.07a1.4,1.4,0,0,1-1.36,1.45l-1,0,1.76,3.75a4,4,0,0,1-.32,4c-2.09,3-6,8.57-6.84,8.16-2.49-1.3,1.52-11.15,1.52-11.15l-5.8-6.66-11.05-3.93Z"/><path class="cls-9" d="M424,255.78l-1.4-1.61a10.42,10.42,0,0,0-.74-10.54,11,11,0,0,1,3-.15l3.84.47a1.6,1.6,0,0,1,1.41,1.53l.16,4.07a1.4,1.4,0,0,1-1.36,1.45l-1,0,1.76,3.75a4,4,0,0,1-.32,4c-2.09,3-6,8.57-6.84,8.16C420,265.63,424,255.78,424,255.78Z"/><path class="cls-14" d="M409.06,248.06c-17.7-4.8-54.11-17.63-58.56-19.11-7.49-2.47-12.39-8-10.95-12.4s8.7-5.92,16.19-3.44c4.76,1.58,38.54,16.9,55.1,26.16Z"/><path class="cls-5" d="M293.37,80.07c5.58,1.73,11.38-7.6,11.38-7.6l-9.36-11.71-7,5Z"/><path class="cls-17" d="M271.16,55.46c6.55,12.24,19.1,11.8,25.95,8.14s.07-15.82-2.75-21.08-9.81-5.11-16.66-1.44S268.34,50.2,271.16,55.46Z"/><path class="cls-4" d="M276.09,62.19c4.72,8.81,8.75,12.23,13.27,9.81,5.52-3,9.24-12.73,5.35-20s-9.34-9.74-14.85-6.79S272.21,54.92,276.09,62.19Z"/><path class="cls-10" d="M293,49.27l-14,7.47a7.84,7.84,0,0,1-4.63.88c-1.12-5.41,1.11-10.08,5.45-12.4C284.6,42.68,289.3,44.17,293,49.27Z"/><path class="cls-17" d="M267.09,42.15h23a3.16,3.16,0,0,1,3.16,3.16v8.33a0,0,0,0,1,0,0h-23a3.14,3.14,0,0,1-3.14-3.14V42.15A0,0,0,0,1,267.09,42.15Z" transform="translate(549.74 -42.12) rotate(151.84)"/><path class="cls-17" d="M292.72,54.72h0l-4.28-8L285,48.59l2.41,4.5A4,4,0,0,0,292.72,54.72Z"/><path class="cls-4" d="M290.56,53.88c1.28,2.41,3.08,3.95,5,2.9s1.44-5,.16-7.43-2.86-2.32-4.82-1.27S289.27,51.48,290.56,53.88Z"/><polygon class="cls-16" points="297.07 79.5 303.33 70.7 308.85 72.15 300.9 85.53 297.07 79.5"/><path class="cls-16" d="M296.4,112.7l3,.4a75.29,75.29,0,0,0,10.86,49.84h0a17.74,17.74,0,0,1-3.86-.59A78.25,78.25,0,0,1,296.4,112.7Z"/><polygon class="cls-16" points="291.04 73.37 293.37 80.07 290.74 85.72 285.35 73.98 291.04 73.37"/><polygon class="cls-18" points="293.37 85.36 298.46 84.25 297.07 79.5 293.37 80.07 293.37 85.36"/><polygon class="cls-18" points="293.37 85.36 298.46 84.25 301.99 113.39 298.62 121.91 292.01 115.57 293.37 85.36"/><path class="cls-16" d="M294.63,87.05c-11.69,11.89-18.11,28.29-15.27,31.07s17.65-6.7,29.18-17.94c11.94-11.63,21.9-20.29,15-27.06C319.25,68.94,306.32,75.16,294.63,87.05Z"/><path class="cls-19" d="M968.54,397c7.84,5.61,68.11,50.95,65.65,53.13-2.14,1.89-69.65-30.92-77.5-36.53s-11.56-13.86-8.29-18.44S960.69,391.37,968.54,397Z"/><path class="cls-5" d="M1020.9,445.38s9.12,4.26,13.21,10,6.07,5.48,12.12,3.22,12.11,1.45,16.13,1.37c8.36-.19,7.71-3.67,1.15-4.85-6.21-1.11-31.33-8.73-42.28-17.56Z"/><path class="cls-20" d="M1063.51,455.16a139.33,139.33,0,0,1-19.29-5.86,10.48,10.48,0,0,1-9.74,5.66c-.28,0-.51-.06-.78-.08l.41.54c4.09,5.78,6.07,5.48,12.12,3.22s12.11,1.45,16.13,1.37C1070.72,459.82,1070.07,456.34,1063.51,455.16Z"/><path class="cls-4" d="M977.74,436.23c9.52,1.57,84.62,12.42,83.37,15.46-.3.71-5.27,1.65-12.56,2.6-19.58,2.56-67.21,3.21-74.15,2-9.51-1.57-16.48-7.36-15.55-12.91S968.23,434.65,977.74,436.23Z"/><path class="cls-4" d="M1046.58,454.46s10.07-.07,16.24,3.41,7.84,2.35,12.33-2.29,11.18-5.11,15.16-5.68,5.54-3.76-.76-3.81-32.32,4.48-46,1.21Z"/><path class="cls-20" d="M1089.55,446.09c-3.11,0-11,1.06-19.87,1.78-.24,4.26-2.5,8.36-6.8,10,6.12,3.42,7.79,2.3,12.27-2.32s11.18-5.11,15.16-5.68S1095.85,446.14,1089.55,446.09Z"/><path class="cls-21" d="M930.94,328a19.26,19.26,0,0,0-1.06,4.34,18.31,18.31,0,0,0,0,4.5l-.15,0a18.34,18.34,0,0,1-.24-4.56,19.72,19.72,0,0,1,.83-4.54Z"/><path class="cls-11" d="M938.92,338.32a5.33,5.33,0,0,0-7.79-4.74,3.38,3.38,0,0,1-3,0,5.33,5.33,0,0,0-7.56,4.85c0,3,2.39,12.36,5.34,12.36a5.33,5.33,0,0,1,7.63-.14C936.53,350.68,938.92,341.27,938.92,338.32Z"/><path class="cls-22" d="M937.94,335.28a.12.12,0,0,0-.14,0,.13.13,0,0,0-.08.12,3.11,3.11,0,0,1,0,.43c0,2.95-2.39,12.36-5.34,12.36a5.31,5.31,0,0,1-2.92-.87,1.46,1.46,0,0,0-1.64,0,5.26,5.26,0,0,1-3.07,1,.84.84,0,0,0-.75.46.85.85,0,0,0,.09.88,2.52,2.52,0,0,0,1.83,1.18,5.33,5.33,0,0,1,7.63-.14c2.95,0,5.34-9.41,5.34-12.36A5.23,5.23,0,0,0,937.94,335.28Z"/><path class="cls-23" d="M927.87,339.46c-.37,2.23-2,3.83-3.6,3.56s-2.64-2.29-2.27-4.52,2-3.83,3.59-3.57S928.23,337.23,927.87,339.46Z"/><path class="cls-24" d="M925.29,335.74a1.38,1.38,0,1,1-1.37-1.37A1.37,1.37,0,0,1,925.29,335.74Z"/><path class="cls-20" d="M931.43,328.21c-.09.24-.53.31-1,.14s-.76-.5-.67-.75.54-.31,1-.15S931.52,328,931.43,328.21Z"/><path class="cls-19" d="M896.24,409.7c14.41-5.49,64.38-24.93,68.35-14.53s-45.8,48.18-66.15,55.91C871,461.49,860.53,448,856.56,437.6S881.84,415.19,896.24,409.7Z"/><path class="cls-5" d="M882.37,361.58c7.36,6.23,33.86,37.31,30.22,41.61s-36-19.82-43.4-26.05-10.37-14.77-6.73-19.07S875,355.34,882.37,361.58Z"/><path class="cls-4" d="M918.9,394.66c2-6,12.42-44.29,9.12-45.38s-19.1,35.45-21.08,41.43-.9,11.71,2.4,12.81S916.92,400.65,918.9,394.66Z"/><path class="cls-25" d="M886.49,450.73l-31-4.64-20.63-64.74c-4.51-13.15-.73-20.68,12.7-22.64l20.39-3a8,8,0,0,1,9.1,7.54Z"/><path class="cls-5" d="M845.93,381.47c-3.84,8.84-25,43.16-30.13,40.92s7.58-40.2,11.42-49.05,11.15-14.19,16.31-11.95S849.77,372.62,845.93,381.47Z"/><path class="cls-25" d="M900.38,381.56c-6.81-8.58-14.54-17-18-20-7.36-6.24-16.28-7.8-19.91-3.51s-.63,12.84,6.73,19.07c3.44,2.91,12.35,9.73,21.24,15.73C893.85,395.18,900.38,381.56,900.38,381.56Z"/><path class="cls-25" d="M833.6,402.73c5.57-8.49,10.63-17.36,12.33-21.26,3.84-8.85,2.77-17.84-2.4-20.08s-12.47,3.11-16.31,11.95a252.2,252.2,0,0,0-8.3,24.23C818.42,399.31,833.6,402.73,833.6,402.73Z"/><path class="cls-26" d="M887.38,454.57c15.41-.4,97.6,2.92,97.3-8.21s-94.12-32.21-109.53-31.81-20.39,17.91-20.1,29S872,455,887.38,454.57Z"/><path class="cls-26" d="M1035,445.38c-22.27-3.93-51.57-8.21-57.28-9.15-9.51-1.58-18,1.64-18.89,7.2s6,11.34,15.55,12.91c5.64.94,38.13.69,60.62-.81Z"/><path class="cls-5" d="M827.09,415.54c6,1.78,43.49,15,42.51,18.32s-40-4.46-46.06-6.24-10.15-5.92-9.17-9.26S821.05,413.76,827.09,415.54Z"/><path class="cls-5" d="M864.19,427.48s-2.52,6.14,1.59,7.48,12.87-6.7,12.71-9.75S871.25,426,864.19,427.48Z"/><path class="cls-27" d="M860.54,428.83h0a2,2,0,0,1,1.55-2.32l22.13-4.42a2,2,0,0,1,2.32,1.55h0A2,2,0,0,1,885,426l-22.13,4.42A2,2,0,0,1,860.54,428.83Z"/><path class="cls-5" d="M874.87,422.47c-.58-.45-2.19,1-3.89,2.79a5.65,5.65,0,0,1-3.53,1.93,3.6,3.6,0,0,0-2.49,1.46c-1.11,1.46-1.05,3.37.13,4.27,1.55,1.17,3.95-1.36,4.81-2.39C871.42,428.72,875.61,423,874.87,422.47Z"/><path class="cls-4" d="M928.49,347.35s-5.13,3.36-4.63,5.27,1.2,3.09,4,2.46a20.77,20.77,0,0,0,8.21-4.58c1.86-1.74,3.74-6,3.65-6.58-.36-2.14-3.4,1.38-5,3s-3.47,3.32-4,2.35,2.64-3.87,2.35-5.2S928.49,347.35,928.49,347.35Z"/><path class="cls-5" d="M861.56,367.63c-3.86.63-12.74-9.05-12.74-9.05L851,346.94l9.82,2.9S869.56,366.33,861.56,367.63Z"/><path class="cls-28" d="M874.81,323.51a8.07,8.07,0,1,1-11.39-.82,66.61,66.61,0,0,1,7.74,1.51C872.55,324.63,873.78,322.33,874.81,323.51Z"/><path class="cls-28" d="M870.66,332c-1,13.28-12.25,15.46-19.68,14.93s-6.1-11.48-5.69-17.18,6.6-8.31,14-7.78S871.07,326.31,870.66,332Z"/><path class="cls-4" d="M870,336.15c-.57,7.87-4.08,20.24-10.06,19.81s-11.78-9.89-11.22-17.76,4.38-12.18,10.36-11.75S870.53,328.27,870,336.15Z"/><path class="cls-10" d="M849.12,335.13l15.14,1.09a12.91,12.91,0,0,0,5.74-1.53c.41-5.64-2.17-8.66-11-8.24C853.89,326.7,850.37,329.23,849.12,335.13Z"/><path class="cls-28" d="M850.32,323.4h22a0,0,0,0,1,0,0v8a3,3,0,0,1-3,3h-22a0,0,0,0,1,0,0v-8A3,3,0,0,1,850.32,323.4Z" transform="translate(25.82 -60.85) rotate(4.12)"/><path class="cls-28" d="M851.5,339.79h0l.62-8.67,3.78.27-.35,4.89A3.79,3.79,0,0,1,851.5,339.79Z"/><path class="cls-4" d="M853.06,338.21c-.19,2.61-1.16,4.66-3.28,4.51s-2.8-3.23-2.61-5.84,1.17-3.75,3.29-3.6S853.25,335.61,853.06,338.21Z"/><path class="cls-2" d="M691.73,509.81c0,5.79-68.2,10.48-152.33,10.48s-152.33-4.69-152.33-10.48,68.2-10.47,152.33-10.47S691.73,504,691.73,509.81Z"/><circle class="cls-29" cx="428.75" cy="376.58" r="18.34"/><path class="cls-4" d="M465.83,387.61c9.51-2.07,50.38-6.28,51.59-.73s-37.69,18.77-47.2,20.84-18.2-.74-19.41-6.29S456.32,389.69,465.83,387.61Z"/><path class="cls-30" d="M474.31,386.26c-3.65.48-6.65.95-8.48,1.35-9.51,2.08-16.23,8.26-15,13.82s9.9,8.37,19.41,6.29c1-.22,2.45-.59,4.09-1.06l7.79-2.39s0-3.4-2.23-9.35C477.59,388.82,474.31,386.26,474.31,386.26Z"/><path class="cls-31" d="M664.12,392.35a15.77,15.77,0,1,1-15.77-15.77A15.77,15.77,0,0,1,664.12,392.35Z"/><path class="cls-32" d="M612.19,460c-15.07,3.86-61.5,25.59-58.71,36.48s64.41,2.88,79.73.16c31.17-5.53,31.41-30.31,18.33-39.85C642.46,450.14,627.26,456.11,612.19,460Z"/><path class="cls-4" d="M628.27,389.12c-9.51-2.07-50.38-6.28-51.59-.73s37.69,18.77,47.2,20.84,18.2-.74,19.41-6.29S637.77,391.2,628.27,389.12Z"/><path class="cls-33" d="M628.27,389.12c-5.72-1.25-22.78-3.26-35.73-3.47-2.57,2.72-3.34,11.51-3.34,11.51,11.91,5.32,28.83,10.8,34.68,12.07,9.51,2.08,18.2-.74,19.41-6.29S637.77,391.2,628.27,389.12Z"/><path class="cls-4" d="M582.84,379.11c-3.84-5.06-29.76-35.64-32.55-33.51s18.59,36.14,22.43,41.2,9.23,7.45,12,5.32S586.69,384.17,582.84,379.11Z"/><path class="cls-34" d="M673.56,394.57H638.08a10.06,10.06,0,0,0-10,11.09l.22,2.14L622.47,425a8.92,8.92,0,0,0,8.45,11.79h.35l3.89,37.82L659,470.8,664.23,454,681,405A7.86,7.86,0,0,0,673.56,394.57Z"/><path class="cls-4" d="M661.21,407.73c-3.27,9.17-12.67,49.16-7.32,51.07s23.43-35,26.7-44.15,1.59-18.14-3.76-20S664.49,398.56,661.21,407.73Z"/><path class="cls-33" d="M664.78,446.52c6.65-11.08,13.86-26.4,15.81-31.87,3.28-9.16,1.59-18.14-3.76-20s-12.34,4-15.62,13.13c-2,5.72-6.47,23.45-8.21,36.43C652.89,445,664.78,446.52,664.78,446.52Z"/><path class="cls-4" d="M578.92,512.41c9.71.68,85.75,4.07,85.24.8-.45-2.84-74.09-20.65-83.8-21.33s-17.9,3.37-18.3,9S569.21,511.73,578.92,512.41Z"/><path class="cls-4" d="M646.7,449.8c-5.84,2.51-41.78,20.24-40.4,23.47s39.57-9.28,45.41-11.78,9.46-7.16,8.08-10.38S652.55,447.3,646.7,449.8Z"/><path class="cls-35" d="M628.13,469.17c-15.07,3.85-68.84,20.69-66,32.83,2.52,11,71.75,6.52,87.07,3.8,31.17-5.53,31.42-30.3,18.34-39.84C658.41,459.33,643.21,465.31,628.13,469.17Z"/><path class="cls-4" d="M644.61,507.11s14.61,5,16.76.31,5.61-5.39,8.39-2.5a31,31,0,0,0,4.34,4.31c4.8,3.29,12.28,4.38,12.41,5.92.18,2.1-7.2,1.09-11.66.48-9.36-1.28-18.75-.27-32.83-1Z"/><path class="cls-4" d="M547.15,345.54s2.4,6.75,4.7,6.7,3.84-.51,3.89-3.86a24.31,24.31,0,0,0-2.94-10.56c-1.47-2.59-5.76-5.89-6.45-5.94-2.53-.18.63,4.23,2,6.44s2.81,4.85,1.55,5.23-3.66-4.05-5.25-4.09S547.15,345.54,547.15,345.54Z"/><path class="cls-4" d="M613.94,468s-12.08,2.35-13.57,3.54-8.62,7.19-7.11,7.65,6.35-1.8,9.43-3.87a9.59,9.59,0,0,1,6.72-1.27Z"/><path class="cls-31" d="M481.91,458.46c15.07,3.86,60.6,27.1,57.82,38s-63.52,1.37-78.84-1.35c-31.17-5.53-31.41-30.3-18.34-39.85C451.63,448.63,466.83,454.6,481.91,458.46Z"/><path class="cls-4" d="M511.25,377.6c3.85-5.06,29.76-35.64,32.56-33.51s-18.59,36.14-22.43,41.2-9.24,7.45-12,5.32S507.41,382.66,511.25,377.6Z"/><path class="cls-30" d="M458.94,473.08l-23.86-3.79-5.22-16.79-16.76-49a7.86,7.86,0,0,1,7.44-10.41H456a10.07,10.07,0,0,1,10,11.09Z"/><path class="cls-30" d="M444.75,404.9h20.59l6.29,18.57a8.92,8.92,0,0,1-8.45,11.79H455Z"/><path class="cls-4" d="M424.35,389.41C419,381.3,392.56,349.82,387.83,353s14,39.71,19.36,47.82,13.59,12.14,18.32,9S429.73,397.52,424.35,389.41Z"/><path class="cls-30" d="M424.35,389.41c-1-1.46-2.61-3.67-4.68-6.29l-.27,0s-11.49,1.55-17.61,8.24c2.21,4.14,4.16,7.52,5.4,9.39,5.39,8.11,13.59,12.14,18.32,9S429.73,397.52,424.35,389.41Z"/><path class="cls-4" d="M515.18,510.9c-9.71.68-85.76,4.07-85.24.8.45-2.84,74.09-20.65,83.8-21.33s17.9,3.37,18.3,9S524.89,510.22,515.18,510.9Z"/><path class="cls-4" d="M399.34,352.59c1.49-6.18,8.81-45.58,5.39-46.41S388.47,343.43,387,349.61s.06,11.86,3.48,12.68S397.84,358.77,399.34,352.59Z"/><path class="cls-36" d="M466,467.66C481,471.51,534.8,488.35,532,500.49c-2.52,11-71.75,6.52-87.07,3.8-31.17-5.53-31.42-30.3-18.34-39.84C435.69,457.82,450.89,463.8,466,467.66Z"/><path class="cls-4" d="M449.49,505.6s-14.62,5-16.76.31-5.61-5.39-8.4-2.5a29.81,29.81,0,0,1-4.33,4.32c-4.8,3.29-12.28,4.37-12.41,5.92-.19,2.1,7.2,1.09,11.66.47,9.36-1.28,18.75-.27,32.83-1Z"/><path class="cls-4" d="M545.32,342.21s-1,7.08-3.29,7.49-3.86.26-4.57-3a24.48,24.48,0,0,1,.79-10.94c.93-2.83,4.49-6.91,5.16-7.1,2.44-.67.22,4.27-.74,6.72s-1.8,5.31-.49,5.44,2.79-4.7,4.34-5.05S545.32,342.21,545.32,342.21Z"/><path class="cls-4" d="M408.15,304.7s-1,7.08-3.28,7.49-3.86.26-4.57-3a24.2,24.2,0,0,1,.79-10.94c.93-2.83,4.49-6.91,5.16-7.09,2.43-.68.21,4.27-.74,6.71s-1.8,5.31-.49,5.44,2.79-4.7,4.34-5.05S408.15,304.7,408.15,304.7Z"/><path class="cls-31" d="M632.33,365.07c1.76,13.77,13.63,17.84,21.34,16.85s5.71-14.74,5-20.66-7.35-8.28-15-7.3S631.57,359.15,632.33,365.07Z"/><path class="cls-5" d="M646.93,405.8c3.21,1.27,11.12-8.19,11.12-8.19l-.36-3-2.33-19.76-8.69,8.42-1.78,11.32S644.27,404.74,646.93,405.8Z"/><path class="cls-4" d="M634.54,373.11c1.26,9.92,3.8,14.55,8.9,13.9,6.2-.79,13.17-8.59,12.12-16.76s-5.25-12.44-11.46-11.65S633.5,364.94,634.54,373.11Z"/><path class="cls-10" d="M654.94,367.07l-15.71,2a7.9,7.9,0,0,1-4.63-.83c.88-5.46,4.63-9,9.5-9.65C649.44,357.92,653.3,361,654.94,367.07Z"/><path class="cls-31" d="M630.36,355.46h23a3.16,3.16,0,0,1,3.16,3.16v8.33a0,0,0,0,1,0,0h-23a3.14,3.14,0,0,1-3.14-3.14v-8.35A0,0,0,0,1,630.36,355.46Z" transform="translate(1327.39 638.09) rotate(172.73)"/><path class="cls-31" d="M652.73,372.06h0l-1.14-9-3.93.5.65,5.07A3.94,3.94,0,0,0,652.73,372.06Z"/><path class="cls-4" d="M651,370.51c.35,2.71,1.48,4.79,3.68,4.51s3.14-4.18,2.8-6.88-1.85-3.19-4-2.91S650.67,367.81,651,370.51Z"/><polygon class="cls-31" points="652.28 365.16 658.45 360.38 668.03 410.77 652.28 411.71 652.28 365.16"/><path class="cls-31" d="M668.07,411.71a12,12,0,1,1-12-12A12,12,0,0,1,668.07,411.71Z"/><path class="cls-29" d="M461.77,363.56c-1.76,13.77-13.64,17.84-21.34,16.86s-5.71-14.75-4.95-20.67,7.34-8.28,15-7.3S462.52,357.64,461.77,363.56Z"/><path class="cls-5" d="M448.27,408.06c-4.57,1.43-11.86-15-11.86-15l2.33-19.75,8.69,8.42,1.79,11.36S451.85,406.94,448.27,408.06Z"/><path class="cls-4" d="M459.56,371.6c-1.27,9.92-3.8,14.55-8.9,13.9-6.2-.79-13.17-8.59-12.13-16.76s5.26-12.44,11.46-11.65S460.6,363.43,459.56,371.6Z"/><path class="cls-10" d="M439.16,365.56l15.71,2a7.91,7.91,0,0,0,4.63-.83c-.88-5.46-4.63-9-9.51-9.65C444.65,356.41,440.79,359.49,439.16,365.56Z"/><path class="cls-29" d="M440.74,354h23a0,0,0,0,1,0,0v8.33a3.16,3.16,0,0,1-3.16,3.16h-23a0,0,0,0,1,0,0v-8.35A3.14,3.14,0,0,1,440.74,354Z" transform="translate(49.14 -54.14) rotate(7.27)"/><path class="cls-29" d="M441.36,370.55h0l1.15-9,3.93.5-.65,5.07A4,4,0,0,1,441.36,370.55Z"/><path class="cls-4" d="M443.08,369c-.34,2.71-1.47,4.79-3.67,4.51s-3.14-4.18-2.8-6.88,1.85-3.19,4.05-2.91S443.43,366.3,443.08,369Z"/><path class="cls-37" d="M185.11,39.54A78.35,78.35,0,1,0,93.05,152.92c16.45,5.29,30.66,15.93,41.27,29.57h0a2.77,2.77,0,0,0,3.56.71l58.82-33.55a2.78,2.78,0,0,0,1.2-3.42l-.4-1c-6.37-16.16-7.34-33.8-3.77-50.81A78,78,0,0,0,185.11,39.54Z"/><path class="cls-38" d="M185.11,39.54a78.21,78.21,0,0,0-58.9-39A57.94,57.94,0,0,0,91,8l-.52.29C50.31,30.92,42.31,74.27,58.68,109c9.76,20.75,31.47,32.53,51.31,38.9a82.23,82.23,0,0,1,27.44,15.28,27.11,27.11,0,0,0,30.8,2.67l28.48-16.25a2.74,2.74,0,0,0,1.2-3.39l-.56-1.41a86.52,86.52,0,0,1-3.7-50A78.07,78.07,0,0,0,185.11,39.54Z"/><path class="cls-39" d="M171.44,50.25a61.17,61.17,0,1,0-72.85,88.19,70.85,70.85,0,0,1,33.2,23.41h0a21.83,21.83,0,0,0,29.64,7.92L173.24,163a21.84,21.84,0,0,0,8.33-29.45l-.46-.84a68.37,68.37,0,0,1-3-39.42A60.89,60.89,0,0,0,171.44,50.25Z"/><ellipse class="cls-40" cx="130.29" cy="45.31" rx="36.1" ry="47.51" transform="translate(39.09 148.79) rotate(-67.78)"/><path class="cls-41" d="M141,24.74c.64.26,1.26.53,1.88.82a3.27,3.27,0,0,0,3-.11l.19-.11a3.26,3.26,0,0,0-.13-5.73,47,47,0,0,0-4.36-2c-11.94-4.88-24.29-4.83-33.7-.81a3.27,3.27,0,0,0-1.53,4.62h0a3.2,3.2,0,0,0,3.76,1.49C119.14,20,130.25,20.34,141,24.74Z"/><path class="cls-41" d="M150.45,29.79a46.24,46.24,0,0,1,8.37,7.27,2.45,2.45,0,0,0,3.05.52h0a2.43,2.43,0,0,0,.86-3.45,43.46,43.46,0,0,0-8.24-8.88,2.46,2.46,0,0,0-2.78-.22l-1.09.62A2.44,2.44,0,0,0,150.45,29.79Z"/><line class="cls-42" x1="160.33" y1="170.88" x2="102.05" y2="103.11"/><path class="cls-42" d="M102.51,102.86l-8.83,5a10.15,10.15,0,0,1-13.85-3.79h0a10.15,10.15,0,0,1,3.79-13.86h0A10.15,10.15,0,0,1,97.47,94Z"/><line class="cls-42" x1="176.11" y1="161.88" x2="147.45" y2="77.22"/><path class="cls-42" d="M147,77.48l8.82-5a10.16,10.16,0,0,0,3.8-13.86h0a10.17,10.17,0,0,0-13.86-3.79h0A10.15,10.15,0,0,0,142,68.65Z"/><line class="cls-42" x1="102.51" y1="102.86" x2="146.03" y2="78.03"/><path class="cls-43" d="M208.66,199.43c3.14,5.5.12,17.54-8.88,22.67s-20.56,1.41-23.7-4.08,1.62-14.11,10.62-19.24S205.53,193.94,208.66,199.43Z"/><path class="cls-27" d="M204.2,152.81a6.47,6.47,0,0,1-2.41,8.81l-56.2,32a6.45,6.45,0,0,1-8.81-2.41h0a6.45,6.45,0,0,1,2.41-8.81l56.2-32a6.46,6.46,0,0,1,8.81,2.41Z"/><path class="cls-27" d="M208.19,172.84l-56.2,32a6.45,6.45,0,0,1-8.81-2.41h0a6.45,6.45,0,0,1,2.41-8.81l56.2-32A6.46,6.46,0,0,1,210.6,164h0A6.46,6.46,0,0,1,208.19,172.84Z"/><path class="cls-27" d="M214.59,184.06l-56.2,32.05a6.45,6.45,0,0,1-8.81-2.41h0a6.46,6.46,0,0,1,2.41-8.81l56.2-32a6.45,6.45,0,0,1,8.81,2.41h0A6.46,6.46,0,0,1,214.59,184.06Z"/><path class="cls-27" d="M217.73,194.26,165.56,224a5.21,5.21,0,0,1-7.1-2h0a5.19,5.19,0,0,1,1.94-7.1l52.17-29.76a5.22,5.22,0,0,1,7.11,1.94h0A5.22,5.22,0,0,1,217.73,194.26Z"/><path class="cls-44" d="M162.4,169.21l-12.31,7a6.45,6.45,0,0,0-2.41,8.81h0a6.45,6.45,0,0,0,8.81,2.41l12.31-7a6.45,6.45,0,0,0,2.41-8.81h0A6.45,6.45,0,0,0,162.4,169.21Z"/><path class="cls-44" d="M168.8,180.43l-12.31,7a6.45,6.45,0,0,0-2.41,8.81h0a6.45,6.45,0,0,0,8.81,2.41l12.31-7a6.45,6.45,0,0,0,2.41-8.81h0A6.45,6.45,0,0,0,168.8,180.43Z"/><path class="cls-44" d="M175.2,191.65l-12.31,7a6.46,6.46,0,0,0-2.41,8.81h0a6.45,6.45,0,0,0,8.81,2.41l12.31-7a6.47,6.47,0,0,0,2.41-8.82h0A6.47,6.47,0,0,0,175.2,191.65Z"/><path class="cls-45" d="M156.76,172.43l-4.83,2.75c-1.21.69-.77,3.77,1,6.87h0c1.77,3.1,4.19,5,5.4,4.35l4.83-2.75c1.22-.69.77-3.77-1-6.87h0C160.39,173.68,158,171.73,156.76,172.43Z"/><path class="cls-45" d="M163.16,183.65l-4.83,2.75c-1.21.7-.77,3.77,1,6.87h0c1.77,3.1,4.19,5,5.4,4.35l4.83-2.75c1.22-.69.77-3.77-1-6.87h0C166.79,184.91,164.38,183,163.16,183.65Z"/><path class="cls-45" d="M169.56,194.87l-4.83,2.75c-1.21.7-.77,3.77,1,6.87h0c1.77,3.1,4.19,5,5.4,4.36l4.83-2.76c1.22-.69.77-3.77-1-6.86h0C173.19,196.13,170.78,194.18,169.56,194.87Z"/><path class="cls-44" d="M187,199.78,172.55,208a5.19,5.19,0,0,0-1.94,7.1h0a5.21,5.21,0,0,0,7.1,2l14.48-8.26a5.22,5.22,0,0,0,1.95-7.11h0A5.21,5.21,0,0,0,187,199.78Z"/><path class="cls-45" d="M178.45,204.67l-4.29,2.45c-.74.42-.18,2.79,1.24,5.29h0c1.43,2.5,3.18,4.18,3.92,3.76l4.29-2.45c.74-.42.19-2.79-1.24-5.29h0C181,205.93,179.19,204.25,178.45,204.67Z"/></g></g></g></svg>