<svg xmlns="http://www.w3.org/2000/svg" xmlns:xlink="http://www.w3.org/1999/xlink" viewBox="0 0 262.27 307.77"><defs><style>.cls-1{isolation:isolate;}.cls-11,.cls-14,.cls-16,.cls-2{fill:#42e8e0;}.cls-19,.cls-2,.cls-30,.cls-32,.cls-34,.cls-35,.cls-36{mix-blend-mode:lighten;}.cls-3{fill:url(#Áåçûìÿííûé_ãðàäèåíò_18);}.cls-4{fill:#bcbeff;}.cls-5{fill:#fff;}.cls-6{fill:#0f054c;}.cls-10,.cls-11,.cls-12,.cls-13,.cls-33,.cls-34,.cls-7,.cls-8,.cls-9{opacity:0.5;}.cls-7{fill:url(#Áåçûìÿííûé_ãðàäèåíò_254);}.cls-8{fill:url(#Áåçûìÿííûé_ãðàäèåíò_254-2);}.cls-9{fill:url(#Áåçûìÿííûé_ãðàäèåíò_254-3);}.cls-10{fill:url(#Áåçûìÿííûé_ãðàäèåíò_254-4);}.cls-12{fill:url(#Áåçûìÿííûé_ãðàäèåíò_254-5);}.cls-13{fill:url(#Áåçûìÿííûé_ãðàäèåíò_254-6);}.cls-14,.cls-35,.cls-36{opacity:0.8;}.cls-15{opacity:0.3;}.cls-17{fill:url(#Áåçûìÿííûé_ãðàäèåíò_16);}.cls-18{fill:url(#Áåçûìÿííûé_ãðàäèåíò_16-2);}.cls-20{fill:url(#Áåçûìÿííûé_ãðàäèåíò_12);}.cls-21{fill:#393091;}.cls-22{fill:#453c9e;}.cls-23{fill:url(#Áåçûìÿííûé_ãðàäèåíò_16-3);}.cls-24{fill:url(#Áåçûìÿííûé_ãðàäèåíò_16-4);}.cls-25{fill:url(#Áåçûìÿííûé_ãðàäèåíò_12-2);}.cls-26{fill:url(#Áåçûìÿííûé_ãðàäèåíò_16-5);}.cls-27{fill:url(#Áåçûìÿííûé_ãðàäèåíò_16-6);}.cls-28{fill:url(#Áåçûìÿííûé_ãðàäèåíò_12-3);}.cls-29{fill:url(#Áåçûìÿííûé_ãðàäèåíò_16-7);}.cls-30{fill:url(#Áåçûìÿííûé_ãðàäèåíò_12-4);}.cls-31{fill:url(#Áåçûìÿííûé_ãðàäèåíò_16-8);}.cls-32{fill:url(#Áåçûìÿííûé_ãðàäèåíò_12-5);}.cls-34{fill:url(#linear-gradient);}.cls-35{fill:url(#Áåçûìÿííûé_ãðàäèåíò_27);}.cls-36{fill:url(#Áåçûìÿííûé_ãðàäèåíò_27-2);}</style><linearGradient id="Áåçûìÿííûé_ãðàäèåíò_18" x1="-9.39" y1="264.94" x2="216.57" y2="264.94" gradientUnits="userSpaceOnUse"><stop offset="0" stop-color="#5761d7"/><stop offset="0.16" stop-color="#5e67da"/><stop offset="0.41" stop-color="#727ae2"/><stop offset="0.69" stop-color="#9297ee"/><stop offset="1" stop-color="#bcbeff"/></linearGradient><linearGradient id="Áåçûìÿííûé_ãðàäèåíò_254" x1="54.56" y1="234.4" x2="190.18" y2="234.4" gradientUnits="userSpaceOnUse"><stop offset="0" stop-color="#42e8e0"/><stop offset="0.15" stop-color="#43e3e0"/><stop offset="0.33" stop-color="#45d5df"/><stop offset="0.52" stop-color="#49bddd"/><stop offset="0.72" stop-color="#4e9cdb"/><stop offset="0.93" stop-color="#5472d8"/><stop offset="1" stop-color="#5761d7"/></linearGradient><linearGradient id="Áåçûìÿííûé_ãðàäèåíò_254-2" x1="122.37" y1="209.89" x2="190.18" y2="209.89" xlink:href="#Áåçûìÿííûé_ãðàäèåíò_254"/><linearGradient id="Áåçûìÿííûé_ãðàäèåíò_254-3" x1="54.56" y1="209.89" x2="122.37" y2="209.89" xlink:href="#Áåçûìÿííûé_ãðàäèåíò_254"/><linearGradient id="Áåçûìÿííûé_ãðàäèåíò_254-4" x1="54.56" y1="224.53" x2="190.18" y2="224.53" xlink:href="#Áåçûìÿííûé_ãðàäèåíò_254"/><linearGradient id="Áåçûìÿííûé_ãðàäèåíò_254-5" x1="122.37" y1="249.04" x2="190.18" y2="249.04" xlink:href="#Áåçûìÿííûé_ãðàäèåíò_254"/><linearGradient id="Áåçûìÿííûé_ãðàäèåíò_254-6" x1="54.56" y1="249.04" x2="122.37" y2="249.04" xlink:href="#Áåçûìÿííûé_ãðàäèåíò_254"/><radialGradient id="Áåçûìÿííûé_ãðàäèåíò_16" cx="-126.61" cy="-210.55" r="87.21" gradientTransform="translate(253.03 407.54) rotate(45.18)" gradientUnits="userSpaceOnUse"><stop offset="0" stop-color="#c0bff6"/><stop offset="1" stop-color="#393091"/></radialGradient><radialGradient id="Áåçûìÿííûé_ãðàäèåíò_16-2" cx="869.72" cy="286.76" r="86.15" gradientTransform="translate(-388.47 -120.4) scale(0.78 1.06)" xlink:href="#Áåçûìÿííûé_ãðàäèåíò_16"/><linearGradient id="Áåçûìÿííûé_ãðàäèåíò_12" x1="840.14" y1="344.4" x2="840.14" y2="258.29" gradientTransform="translate(-388.47 -120.4) scale(0.78 1.06)" gradientUnits="userSpaceOnUse"><stop offset="0" stop-color="#42e8e0"/><stop offset="0" stop-color="#42e6df"/><stop offset="0.14" stop-color="#40b6cb"/><stop offset="0.27" stop-color="#3e8db9"/><stop offset="0.41" stop-color="#3c6baa"/><stop offset="0.55" stop-color="#3b519f"/><stop offset="0.69" stop-color="#3a3f97"/><stop offset="0.84" stop-color="#393493"/><stop offset="1" stop-color="#393091"/></linearGradient><radialGradient id="Áåçûìÿííûé_ãðàäèåíò_16-3" cx="225.97" cy="70.51" r="47.21" gradientTransform="matrix(1, 0, 0, 1, 0, 0)" xlink:href="#Áåçûìÿííûé_ãðàäèåíò_16"/><radialGradient id="Áåçûìÿííûé_ãðàäèåíò_16-4" cx="291.62" cy="126.37" r="67.24" gradientTransform="translate(68.45 -89.84) rotate(21.86)" xlink:href="#Áåçûìÿííûé_ãðàäèåíò_16"/><linearGradient id="Áåçûìÿííûé_ãðàäèåíò_12-2" x1="261.25" y1="171.66" x2="272.33" y2="92.86" gradientTransform="translate(68.45 -89.84) rotate(21.86)" xlink:href="#Áåçûìÿííûé_ãðàäèåíò_12"/><radialGradient id="Áåçûìÿííûé_ãðàäèåíò_16-5" cx="291.08" cy="125.65" r="31.93" gradientTransform="matrix(1, 0, 0, 1, 0, 0)" xlink:href="#Áåçûìÿííûé_ãðàäèåíò_16"/><radialGradient id="Áåçûìÿííûé_ãðàäèåíò_16-6" cx="-95.8" cy="-158.3" r="31.52" gradientTransform="matrix(0.7, 0.72, -0.72, 0.7, 275.67, 363.75)" xlink:href="#Áåçûìÿííûé_ãðàäèåíò_16"/><linearGradient id="Áåçûìÿííûé_ãðàäèåíò_12-3" x1="-112.93" y1="-135.8" x2="-92.4" y2="-157.97" gradientTransform="matrix(0.7, 0.72, -0.72, 0.7, 275.67, 363.75)" xlink:href="#Áåçûìÿííûé_ãðàäèåíò_12"/><radialGradient id="Áåçûìÿííûé_ãðàäèåíò_16-7" cx="261.11" cy="-1750.69" r="29.2" gradientTransform="matrix(0.91, 0.11, -0.18, 1.5, -213.83, 2825.3)" xlink:href="#Áåçûìÿííûé_ãðàäèåíò_16"/><linearGradient id="Áåçûìÿííûé_ãðàäèåíò_12-4" x1="174.3" y1="311.57" x2="197.1" y2="311.57" gradientTransform="matrix(0.91, 0.11, -0.14, 1.14, 195.99, -134.58)" xlink:href="#Áåçûìÿííûé_ãðàäèåíò_12"/><radialGradient id="Áåçûìÿííûé_ãðàäèåíò_16-8" cx="-2268.17" cy="-2301.32" r="29.2" gradientTransform="matrix(0.44, 0.8, -1.33, 0.73, -1844.68, 3680.11)" xlink:href="#Áåçûìÿííûé_ãðàäèåíò_16"/><linearGradient id="Áåçûìÿííûé_ãðàäèåíò_12-5" x1="-2714.97" y1="-204.31" x2="-2728.64" y2="-186.05" gradientTransform="matrix(0.44, 0.8, -1.01, 0.55, 1184.93, 2490.6)" xlink:href="#Áåçûìÿííûé_ãðàäèåíò_12"/><linearGradient id="linear-gradient" x1="125.1" y1="281.2" x2="125.1" y2="31.89" gradientUnits="userSpaceOnUse"><stop offset="0" stop-color="#42e8e0"/><stop offset="0.23" stop-color="#35abb3" stop-opacity="0.8"/><stop offset="0.5" stop-color="#286a83" stop-opacity="0.59"/><stop offset="0.73" stop-color="#1e3a60" stop-opacity="0.43"/><stop offset="0.9" stop-color="#181d4a" stop-opacity="0.34"/><stop offset="1" stop-color="#161242" stop-opacity="0.3"/></linearGradient><linearGradient id="Áåçûìÿííûé_ãðàäèåíò_27" x1="333.5" y1="181.77" x2="333.5" y2="55.52" gradientUnits="userSpaceOnUse"><stop offset="0" stop-color="#161242"/><stop offset="0.12" stop-color="#171746"/><stop offset="0.25" stop-color="#1a2550"/><stop offset="0.4" stop-color="#1f3d62"/><stop offset="0.55" stop-color="#265f7b"/><stop offset="0.72" stop-color="#2f899a"/><stop offset="0.88" stop-color="#39bdc0"/><stop offset="1" stop-color="#42e8e0"/></linearGradient><linearGradient id="Áåçûìÿííûé_ãðàäèåíò_27-2" x1="195.95" y1="130.89" x2="195.95" y2="20.56" xlink:href="#Áåçûìÿííûé_ãðàäèåíò_27"/></defs><title>ML</title><g class="cls-1"><g id="Layer_2" data-name="Layer 2"><path class="cls-2" d="M255,211.32a3.61,3.61,0,0,1-1.79-.54l-11.47-6.62a.47.47,0,1,1,.47-.81L253.7,210a2,2,0,0,0,2,.24,2,2,0,0,0,.78-1.85V205.6a2.58,2.58,0,0,1,4.19-2.42l2.4,1.38a.47.47,0,0,1,.17.64.46.46,0,0,1-.64.17L260.2,204a2,2,0,0,0-2-.24,2,2,0,0,0-.79,1.85v2.76a2.91,2.91,0,0,1-1.26,2.67A2.3,2.3,0,0,1,255,211.32Z" transform="translate(-141.83 -20.56)"/><path class="cls-2" d="M250.56,213.89a3.61,3.61,0,0,1-1.79-.54l-11.47-6.62a.47.47,0,0,1-.18-.64.48.48,0,0,1,.64-.18l11.48,6.63a2,2,0,0,0,2,.24,2,2,0,0,0,.79-1.85v-2.77a2.58,2.58,0,0,1,4.19-2.41l2.39,1.38a.47.47,0,0,1,.18.64.47.47,0,0,1-.64.17l-2.4-1.38a1.67,1.67,0,0,0-2.78,1.6v2.77a2.88,2.88,0,0,1-1.26,2.66A2.23,2.23,0,0,1,250.56,213.89Z" transform="translate(-141.83 -20.56)"/><path class="cls-2" d="M246.1,216.46a3.61,3.61,0,0,1-1.79-.54l-11.48-6.63a.47.47,0,1,1,.47-.81l11.47,6.62a1.67,1.67,0,0,0,2.79-1.6v-2.77a2.58,2.58,0,0,1,4.19-2.42l2.39,1.39a.46.46,0,0,1,.17.64.47.47,0,0,1-.64.17l-2.39-1.39a2,2,0,0,0-2-.24,2,2,0,0,0-.79,1.85v2.77a2.88,2.88,0,0,1-1.25,2.66A2.23,2.23,0,0,1,246.1,216.46Z" transform="translate(-141.83 -20.56)"/><path class="cls-2" d="M241.64,219a3.67,3.67,0,0,1-1.8-.54l-11.47-6.62a.47.47,0,0,1,.47-.81l11.47,6.62a1.67,1.67,0,0,0,2.78-1.6V213.3a2.59,2.59,0,0,1,4.19-2.42l2.4,1.38a.47.47,0,0,1-.47.82l-2.4-1.39a2,2,0,0,0-2-.24,2,2,0,0,0-.79,1.85v2.77a2.89,2.89,0,0,1-1.25,2.66A2.25,2.25,0,0,1,241.64,219Z" transform="translate(-141.83 -20.56)"/><path class="cls-2" d="M237.17,221.59a3.61,3.61,0,0,1-1.79-.54l-11.47-6.62a.46.46,0,0,1-.17-.64.47.47,0,0,1,.64-.18l11.47,6.63a2,2,0,0,0,2,.24,2,2,0,0,0,.78-1.85v-2.76a2.58,2.58,0,0,1,4.19-2.42l2.4,1.38a.47.47,0,0,1-.47.81l-2.4-1.38a1.67,1.67,0,0,0-2.78,1.61v2.76a2.88,2.88,0,0,1-1.26,2.66A2.23,2.23,0,0,1,237.17,221.59Z" transform="translate(-141.83 -20.56)"/><path class="cls-2" d="M232.71,224.16a3.61,3.61,0,0,1-1.79-.54L219.44,217a.47.47,0,1,1,.47-.81l11.48,6.63a1.67,1.67,0,0,0,2.78-1.61v-2.77a2.58,2.58,0,0,1,4.19-2.42l2.39,1.39a.47.47,0,0,1-.46.81l-2.4-1.38a1.67,1.67,0,0,0-2.78,1.6v2.77a2.89,2.89,0,0,1-1.26,2.66A2.23,2.23,0,0,1,232.71,224.16Z" transform="translate(-141.83 -20.56)"/><path class="cls-2" d="M228.25,226.73a3.71,3.71,0,0,1-1.79-.54L215,219.56a.47.47,0,1,1,.47-.81l11.47,6.62a2,2,0,0,0,2,.25,2,2,0,0,0,.79-1.85V221a2.58,2.58,0,0,1,4.18-2.42l2.4,1.38a.47.47,0,0,1-.47.82l-2.39-1.39a2,2,0,0,0-2-.24,2,2,0,0,0-.79,1.85v2.77a2.88,2.88,0,0,1-1.25,2.66A2.26,2.26,0,0,1,228.25,226.73Z" transform="translate(-141.83 -20.56)"/><path class="cls-2" d="M223.78,229.29a3.64,3.64,0,0,1-1.79-.54l-11.47-6.62a.47.47,0,0,1-.17-.64.46.46,0,0,1,.64-.17l11.47,6.62a2,2,0,0,0,2,.24,2,2,0,0,0,.78-1.85v-2.76a2.59,2.59,0,0,1,4.19-2.42l2.4,1.38a.47.47,0,0,1,.17.64.46.46,0,0,1-.64.17L229,222a2,2,0,0,0-2-.24,2,2,0,0,0-.79,1.85v2.76a2.92,2.92,0,0,1-1.25,2.67A2.37,2.37,0,0,1,223.78,229.29Z" transform="translate(-141.83 -20.56)"/><path class="cls-2" d="M219.32,231.86a3.61,3.61,0,0,1-1.79-.54l-11.47-6.62a.48.48,0,0,1-.18-.65.47.47,0,0,1,.64-.17L218,230.51a2,2,0,0,0,2,.24,2,2,0,0,0,.79-1.85v-2.77a2.58,2.58,0,0,1,4.19-2.41l2.4,1.38a.47.47,0,0,1-.47.81l-2.4-1.38a1.67,1.67,0,0,0-2.78,1.6v2.77a2.88,2.88,0,0,1-1.26,2.66A2.23,2.23,0,0,1,219.32,231.86Z" transform="translate(-141.83 -20.56)"/><path class="cls-2" d="M214.86,234.43a3.61,3.61,0,0,1-1.79-.54l-11.48-6.63a.47.47,0,1,1,.47-.81l11.48,6.62a1.67,1.67,0,0,0,2.78-1.6V228.7a2.58,2.58,0,0,1,4.19-2.42l2.39,1.39a.47.47,0,0,1-.46.81l-2.4-1.39a2,2,0,0,0-2-.24,2,2,0,0,0-.78,1.85v2.77a2.89,2.89,0,0,1-1.26,2.66A2.23,2.23,0,0,1,214.86,234.43Z" transform="translate(-141.83 -20.56)"/><path class="cls-2" d="M210.4,237a3.67,3.67,0,0,1-1.8-.54l-11.47-6.62a.47.47,0,1,1,.47-.81l11.47,6.62a1.67,1.67,0,0,0,2.79-1.6v-2.77a2.58,2.58,0,0,1,4.18-2.42l2.4,1.38a.47.47,0,0,1-.47.82l-2.39-1.39a1.68,1.68,0,0,0-2.79,1.61V234a2.89,2.89,0,0,1-1.25,2.66A2.25,2.25,0,0,1,210.4,237Z" transform="translate(-141.83 -20.56)"/><path class="cls-2" d="M205.93,239.56a3.64,3.64,0,0,1-1.79-.54l-11.47-6.62a.46.46,0,0,1-.17-.64.47.47,0,0,1,.64-.18l11.47,6.63a2,2,0,0,0,2,.24,2,2,0,0,0,.78-1.85v-2.76a2.58,2.58,0,0,1,4.19-2.42l2.4,1.38a.47.47,0,0,1-.47.81l-2.4-1.38a1.67,1.67,0,0,0-2.78,1.61v2.76a2.88,2.88,0,0,1-1.26,2.66A2.21,2.21,0,0,1,205.93,239.56Z" transform="translate(-141.83 -20.56)"/><path class="cls-2" d="M201.47,242.13a3.61,3.61,0,0,1-1.79-.54L188.21,235a.46.46,0,0,1-.18-.64.47.47,0,0,1,.64-.17l11.48,6.63a1.67,1.67,0,0,0,2.78-1.61V236.4a2.59,2.59,0,0,1,4.19-2.42l2.4,1.39a.47.47,0,0,1-.47.81l-2.4-1.38a1.67,1.67,0,0,0-2.78,1.6v2.77a2.89,2.89,0,0,1-1.26,2.66A2.23,2.23,0,0,1,201.47,242.13Z" transform="translate(-141.83 -20.56)"/><path class="cls-2" d="M197,244.7a3.71,3.71,0,0,1-1.79-.54l-11.48-6.63a.47.47,0,0,1,.47-.81l11.47,6.62a1.67,1.67,0,0,0,2.79-1.6V239a2.58,2.58,0,0,1,4.19-2.42l2.39,1.38a.47.47,0,0,1-.47.82l-2.39-1.39A1.68,1.68,0,0,0,199.4,239v2.77a2.88,2.88,0,0,1-1.25,2.66A2.23,2.23,0,0,1,197,244.7Z" transform="translate(-141.83 -20.56)"/><path class="cls-2" d="M192.55,247.26a3.67,3.67,0,0,1-1.8-.54l-11.47-6.62a.47.47,0,0,1-.17-.64.46.46,0,0,1,.64-.17l11.47,6.62A1.68,1.68,0,0,0,194,244.3v-2.76a2.58,2.58,0,0,1,4.18-2.42l2.4,1.38a.47.47,0,0,1,.17.64.46.46,0,0,1-.64.17l-2.39-1.38a1.68,1.68,0,0,0-2.79,1.61v2.76a2.9,2.9,0,0,1-1.25,2.67A2.36,2.36,0,0,1,192.55,247.26Z" transform="translate(-141.83 -20.56)"/><path class="cls-2" d="M188.08,249.83a3.61,3.61,0,0,1-1.79-.54l-11.47-6.63a.46.46,0,0,1-.17-.64.48.48,0,0,1,.64-.17l11.47,6.63a2,2,0,0,0,2,.24,2,2,0,0,0,.78-1.85V244.1a2.58,2.58,0,0,1,4.19-2.41l2.4,1.38a.47.47,0,1,1-.47.81l-2.4-1.38a1.67,1.67,0,0,0-2.78,1.6v2.77a2.88,2.88,0,0,1-1.26,2.66A2.21,2.21,0,0,1,188.08,249.83Z" transform="translate(-141.83 -20.56)"/><path class="cls-2" d="M183.62,252.4a3.61,3.61,0,0,1-1.79-.54l-11.47-6.63a.46.46,0,0,1-.18-.64.47.47,0,0,1,.64-.17L182.3,251a1.67,1.67,0,0,0,2.78-1.6v-2.77a2.58,2.58,0,0,1,4.19-2.42l2.39,1.39a.46.46,0,0,1,.18.64.47.47,0,0,1-.64.17l-2.4-1.39a1.67,1.67,0,0,0-2.78,1.61v2.77a2.89,2.89,0,0,1-1.26,2.66A2.23,2.23,0,0,1,183.62,252.4Z" transform="translate(-141.83 -20.56)"/><path class="cls-2" d="M179.16,255a3.61,3.61,0,0,1-1.79-.54l-11.48-6.62a.47.47,0,1,1,.47-.81l11.47,6.62a1.67,1.67,0,0,0,2.79-1.61v-2.76a2.87,2.87,0,0,1,1.25-2.66,2.91,2.91,0,0,1,2.94.24l2.39,1.38a.46.46,0,0,1,.17.64.47.47,0,0,1-.64.18l-2.39-1.39a1.68,1.68,0,0,0-2.79,1.61V252a2.9,2.9,0,0,1-1.25,2.67A2.22,2.22,0,0,1,179.16,255Z" transform="translate(-141.83 -20.56)"/><path class="cls-2" d="M174.7,257.53a3.67,3.67,0,0,1-1.8-.54l-11.47-6.62a.47.47,0,0,1,.47-.82l11.47,6.63a1.67,1.67,0,0,0,2.78-1.61v-2.76a2.58,2.58,0,0,1,4.19-2.42l2.4,1.38a.47.47,0,0,1-.47.81l-2.4-1.38a1.67,1.67,0,0,0-2.78,1.61v2.76a2.87,2.87,0,0,1-1.25,2.66A2.26,2.26,0,0,1,174.7,257.53Z" transform="translate(-141.83 -20.56)"/><path class="cls-2" d="M170.23,260.1a3.61,3.61,0,0,1-1.79-.54L157,252.93a.47.47,0,0,1,.46-.81l11.48,6.63a1.67,1.67,0,0,0,2.78-1.61v-2.77a2.59,2.59,0,0,1,4.19-2.42l2.4,1.39a.47.47,0,0,1-.47.81l-2.4-1.38a1.67,1.67,0,0,0-2.78,1.6v2.77a2.89,2.89,0,0,1-1.26,2.66A2.23,2.23,0,0,1,170.23,260.1Z" transform="translate(-141.83 -20.56)"/><path class="cls-2" d="M273.31,211.53a2.23,2.23,0,0,1-1.14-.3,2.88,2.88,0,0,1-1.26-2.66v-2.76a2,2,0,0,0-.78-1.85,2,2,0,0,0-2,.24l-2.4,1.38a.47.47,0,1,1-.47-.81l2.4-1.38a2.59,2.59,0,0,1,4.19,2.42v2.76a2,2,0,0,0,.79,1.85,2,2,0,0,0,2-.24l11.48-6.62a.46.46,0,0,1,.64.17.48.48,0,0,1-.18.64L275.1,211A3.61,3.61,0,0,1,273.31,211.53Z" transform="translate(-141.83 -20.56)"/><path class="cls-2" d="M277.77,214.1a2.23,2.23,0,0,1-1.14-.3,2.87,2.87,0,0,1-1.25-2.66v-2.77a1.67,1.67,0,0,0-2.79-1.6l-2.39,1.38a.47.47,0,0,1-.64-.17.46.46,0,0,1,.17-.64l2.39-1.38a2.58,2.58,0,0,1,4.19,2.41v2.77a1.67,1.67,0,0,0,2.78,1.61l11.48-6.63a.47.47,0,0,1,.64.18.46.46,0,0,1-.17.63l-11.48,6.63A3.61,3.61,0,0,1,277.77,214.1Z" transform="translate(-141.83 -20.56)"/><path class="cls-2" d="M282.23,216.67a2.26,2.26,0,0,1-1.14-.3,2.88,2.88,0,0,1-1.25-2.66v-2.77a2,2,0,0,0-.79-1.85,2,2,0,0,0-2,.24l-2.39,1.39a.47.47,0,0,1-.47-.81l2.4-1.39a2.58,2.58,0,0,1,4.18,2.42v2.77a1.67,1.67,0,0,0,2.79,1.6L295,208.69a.47.47,0,0,1,.47.81L284,216.13A3.67,3.67,0,0,1,282.23,216.67Z" transform="translate(-141.83 -20.56)"/><path class="cls-2" d="M286.7,219.23a2.3,2.3,0,0,1-1.14-.29,2.91,2.91,0,0,1-1.26-2.67v-2.76a2,2,0,0,0-.79-1.85,2,2,0,0,0-2,.24l-2.4,1.38a.46.46,0,0,1-.64-.17.47.47,0,0,1,.17-.64l2.4-1.38a2.59,2.59,0,0,1,4.19,2.42v2.76a1.67,1.67,0,0,0,2.78,1.61l11.47-6.62a.47.47,0,0,1,.64.17.46.46,0,0,1-.17.64l-11.47,6.62A3.61,3.61,0,0,1,286.7,219.23Z" transform="translate(-141.83 -20.56)"/><path class="cls-2" d="M291.16,221.8a2.23,2.23,0,0,1-1.14-.3,2.88,2.88,0,0,1-1.26-2.66v-2.77a1.67,1.67,0,0,0-2.78-1.6l-2.4,1.38a.47.47,0,1,1-.47-.81l2.4-1.38a2.58,2.58,0,0,1,4.19,2.41v2.77a2,2,0,0,0,.79,1.85,2,2,0,0,0,2-.24L304,213.82a.47.47,0,0,1,.64.18.48.48,0,0,1-.18.64L293,221.26A3.61,3.61,0,0,1,291.16,221.8Z" transform="translate(-141.83 -20.56)"/><path class="cls-2" d="M295.62,224.37a2.23,2.23,0,0,1-1.14-.3,2.88,2.88,0,0,1-1.25-2.66v-2.77a2,2,0,0,0-.79-1.85,2,2,0,0,0-2,.25l-2.39,1.38a.47.47,0,0,1-.64-.17.46.46,0,0,1,.17-.64l2.39-1.39a2.58,2.58,0,0,1,4.19,2.42v2.77a2,2,0,0,0,.79,1.85,2,2,0,0,0,2-.24l11.47-6.63a.47.47,0,1,1,.47.81l-11.48,6.63A3.61,3.61,0,0,1,295.62,224.37Z" transform="translate(-141.83 -20.56)"/><path class="cls-2" d="M300.08,226.93a2.25,2.25,0,0,1-1.14-.29,2.88,2.88,0,0,1-1.25-2.66v-2.77a2,2,0,0,0-.79-1.85,2,2,0,0,0-2,.24l-2.4,1.39a.46.46,0,0,1-.64-.18.47.47,0,0,1,.17-.64l2.4-1.38a2.58,2.58,0,0,1,4.18,2.42V224a1.67,1.67,0,0,0,2.79,1.6L312.88,219a.47.47,0,0,1,.47.81l-11.47,6.62A3.67,3.67,0,0,1,300.08,226.93Z" transform="translate(-141.83 -20.56)"/><path class="cls-2" d="M304.55,229.5a2.3,2.3,0,0,1-1.14-.29,2.91,2.91,0,0,1-1.26-2.67v-2.76a2,2,0,0,0-.79-1.85,2,2,0,0,0-2,.24l-2.4,1.38a.47.47,0,1,1-.47-.81l2.4-1.38a2.58,2.58,0,0,1,4.19,2.42v2.76a2,2,0,0,0,.78,1.85,2,2,0,0,0,2-.24l11.47-6.62a.47.47,0,1,1,.47.81L306.34,229A3.61,3.61,0,0,1,304.55,229.5Z" transform="translate(-141.83 -20.56)"/><path class="cls-2" d="M309,232.07a2.23,2.23,0,0,1-1.14-.3,2.88,2.88,0,0,1-1.26-2.66v-2.77a1.67,1.67,0,0,0-2.78-1.6l-2.4,1.38a.47.47,0,1,1-.46-.81l2.39-1.38a2.58,2.58,0,0,1,4.19,2.41v2.77a1.67,1.67,0,0,0,2.78,1.61l11.48-6.63a.47.47,0,0,1,.47.81l-11.48,6.63A3.61,3.61,0,0,1,309,232.07Z" transform="translate(-141.83 -20.56)"/><path class="cls-2" d="M313.47,234.64a2.26,2.26,0,0,1-1.14-.3,2.88,2.88,0,0,1-1.25-2.66v-2.77a2,2,0,0,0-.79-1.85,2,2,0,0,0-2,.24l-2.39,1.39a.47.47,0,0,1-.64-.17.46.46,0,0,1,.17-.64l2.4-1.39a2.58,2.58,0,0,1,4.18,2.42v2.77a2,2,0,0,0,.79,1.85,2,2,0,0,0,2-.25l11.47-6.62a.47.47,0,0,1,.47.81l-11.48,6.63A3.71,3.71,0,0,1,313.47,234.64Z" transform="translate(-141.83 -20.56)"/><path class="cls-2" d="M317.94,237.2a2.26,2.26,0,0,1-1.15-.29,2.9,2.9,0,0,1-1.25-2.67v-2.76a2,2,0,0,0-.79-1.85,2,2,0,0,0-2,.24l-2.4,1.38a.45.45,0,0,1-.64-.17.47.47,0,0,1,.17-.64l2.4-1.38a2.59,2.59,0,0,1,4.19,2.42v2.76a1.67,1.67,0,0,0,2.78,1.61l11.47-6.62a.47.47,0,1,1,.47.81l-11.47,6.62A3.67,3.67,0,0,1,317.94,237.2Z" transform="translate(-141.83 -20.56)"/><path class="cls-2" d="M322.4,239.77a2.23,2.23,0,0,1-1.14-.3,2.88,2.88,0,0,1-1.26-2.66V234a1.67,1.67,0,0,0-2.78-1.6l-2.4,1.38a.47.47,0,1,1-.47-.81l2.4-1.38a2.58,2.58,0,0,1,4.19,2.41v2.77a1.67,1.67,0,0,0,2.78,1.61l11.47-6.63a.47.47,0,0,1,.47.82l-11.47,6.62A3.61,3.61,0,0,1,322.4,239.77Z" transform="translate(-141.83 -20.56)"/><path class="cls-2" d="M326.86,242.34a2.23,2.23,0,0,1-1.14-.3,2.89,2.89,0,0,1-1.26-2.66v-2.77a1.67,1.67,0,0,0-2.78-1.6l-2.39,1.38a.48.48,0,0,1-.65-.17.47.47,0,0,1,.18-.64l2.39-1.39a2.58,2.58,0,0,1,4.19,2.42v2.77a2,2,0,0,0,.79,1.85,2,2,0,0,0,2-.24l11.48-6.63a.47.47,0,0,1,.47.81l-11.48,6.63A3.61,3.61,0,0,1,326.86,242.34Z" transform="translate(-141.83 -20.56)"/><path class="cls-2" d="M331.32,244.9a2.25,2.25,0,0,1-1.14-.29,2.88,2.88,0,0,1-1.25-2.66v-2.77a1.68,1.68,0,0,0-2.79-1.61L323.75,239a.47.47,0,0,1-.64-.17.48.48,0,0,1,.17-.65l2.4-1.38a2.58,2.58,0,0,1,4.18,2.42V242a1.67,1.67,0,0,0,2.79,1.6l11.47-6.62a.47.47,0,0,1,.47.81l-11.47,6.62A3.67,3.67,0,0,1,331.32,244.9Z" transform="translate(-141.83 -20.56)"/><path class="cls-2" d="M335.79,247.47a2.37,2.37,0,0,1-1.15-.29,2.92,2.92,0,0,1-1.25-2.67v-2.76a2,2,0,0,0-.79-1.85,2,2,0,0,0-2,.24l-2.4,1.38a.47.47,0,0,1-.47-.81l2.4-1.38a2.58,2.58,0,0,1,4.19,2.42v2.76a2,2,0,0,0,.78,1.85,2,2,0,0,0,2-.24l11.47-6.62a.47.47,0,1,1,.47.81l-11.47,6.62A3.61,3.61,0,0,1,335.79,247.47Z" transform="translate(-141.83 -20.56)"/><path class="cls-2" d="M340.25,250a2.23,2.23,0,0,1-1.14-.3,2.88,2.88,0,0,1-1.26-2.66v-2.77a1.67,1.67,0,0,0-2.78-1.6l-2.4,1.38a.47.47,0,1,1-.47-.81l2.4-1.38a2.58,2.58,0,0,1,4.19,2.41v2.77a1.67,1.67,0,0,0,2.78,1.61l11.48-6.63a.47.47,0,1,1,.46.81L342,249.5A3.61,3.61,0,0,1,340.25,250Z" transform="translate(-141.83 -20.56)"/><path class="cls-2" d="M344.71,252.61a2.23,2.23,0,0,1-1.14-.3,2.89,2.89,0,0,1-1.26-2.66v-2.77a2,2,0,0,0-.78-1.85,2,2,0,0,0-2,.24l-2.4,1.39a.47.47,0,0,1-.46-.81l2.39-1.39a2.58,2.58,0,0,1,4.19,2.42v2.77a1.67,1.67,0,0,0,2.78,1.6l11.48-6.62a.47.47,0,1,1,.47.81l-11.48,6.63A3.71,3.71,0,0,1,344.71,252.61Z" transform="translate(-141.83 -20.56)"/><path class="cls-2" d="M349.17,255.17a2.25,2.25,0,0,1-1.14-.29,2.89,2.89,0,0,1-1.25-2.66v-2.77a1.68,1.68,0,0,0-2.79-1.61l-2.39,1.39a.47.47,0,0,1-.47-.82l2.4-1.38a2.58,2.58,0,0,1,4.18,2.42v2.77a1.67,1.67,0,0,0,2.79,1.6L362,247.2a.46.46,0,0,1,.64.17.47.47,0,0,1-.17.64L351,254.63A3.67,3.67,0,0,1,349.17,255.17Z" transform="translate(-141.83 -20.56)"/><path class="cls-2" d="M353.64,257.74a2.21,2.21,0,0,1-1.14-.3,2.88,2.88,0,0,1-1.26-2.66V252a1.67,1.67,0,0,0-2.78-1.61l-2.4,1.38a.47.47,0,1,1-.47-.81l2.4-1.38a2.58,2.58,0,0,1,4.19,2.42v2.76a2,2,0,0,0,.78,1.85,2,2,0,0,0,2-.24l11.47-6.63a.47.47,0,0,1,.47.82l-11.47,6.62A3.64,3.64,0,0,1,353.64,257.74Z" transform="translate(-141.83 -20.56)"/><path class="cls-2" d="M358.1,260.31A2.23,2.23,0,0,1,357,260a2.89,2.89,0,0,1-1.26-2.66v-2.77a1.67,1.67,0,0,0-2.78-1.6l-2.4,1.38a.47.47,0,0,1-.47-.81l2.4-1.39a2.59,2.59,0,0,1,4.19,2.42v2.77a1.67,1.67,0,0,0,2.78,1.61l11.48-6.63a.47.47,0,0,1,.64.17.46.46,0,0,1-.18.64l-11.47,6.63A3.61,3.61,0,0,1,358.1,260.31Z" transform="translate(-141.83 -20.56)"/><polygon class="cls-3" points="210.54 234.39 210.54 244.58 122.37 295.48 34.2 244.58 34.2 234.39 210.54 234.39"/><polygon class="cls-4" points="122.37 285.29 34.2 234.39 122.37 183.49 210.54 234.39 122.37 285.29"/><polygon class="cls-5" points="122.37 284.1 35.23 233.79 34.2 234.39 122.37 285.29 210.54 234.39 209.51 233.8 122.37 284.1"/><polygon class="cls-6" points="122.37 273.55 54.56 234.4 122.37 195.25 190.18 234.4 122.37 273.55"/><polygon class="cls-7" points="122.37 273.56 54.56 234.4 122.37 195.25 190.18 234.4 122.37 273.56"/><polygon class="cls-8" points="122.37 185.38 190.18 224.53 190.18 234.4 122.37 195.25 122.37 185.38"/><polygon class="cls-9" points="122.37 195.25 54.56 234.4 54.56 224.53 122.37 185.38 122.37 195.25"/><polygon class="cls-10" points="122.37 263.68 54.56 224.53 122.37 185.38 190.18 224.53 122.37 263.68"/><polygon class="cls-11" points="122.37 240.17 95.27 224.53 122.37 208.88 149.47 224.53 122.37 240.17"/><polygon class="cls-11" points="122.37 210.32 148.22 225.25 149.47 224.53 122.37 208.88 95.27 224.53 96.52 225.25 122.37 210.32"/><polygon class="cls-12" points="122.37 263.68 122.37 273.55 190.18 234.4 190.18 224.53 122.37 263.68"/><polygon class="cls-13" points="54.56 224.53 54.56 234.4 122.37 273.55 122.37 263.68 54.56 224.53"/><polygon class="cls-14" points="122.37 262.6 55.49 223.99 54.56 224.53 122.37 263.68 190.18 224.53 189.25 223.99 122.37 262.6"/><path class="cls-2" d="M286.34,328.33a.39.39,0,0,1-.23-.07l-11.48-6.62a8.14,8.14,0,0,1-3.72-6.44v-2.77a7.19,7.19,0,0,0-3.25-5.63l-2.4-1.38a.48.48,0,0,1-.17-.65.47.47,0,0,1,.64-.17l2.4,1.39a8.11,8.11,0,0,1,3.72,6.44v2.77a7.21,7.21,0,0,0,3.25,5.63l11.47,6.62a.48.48,0,0,1,.18.64A.49.49,0,0,1,286.34,328.33Z" transform="translate(-141.83 -20.56)"/><path class="cls-2" d="M290.8,325.76a.39.39,0,0,1-.23-.07l-11.48-6.62a8.13,8.13,0,0,1-3.71-6.44v-2.77a7.18,7.18,0,0,0-3.26-5.63l-2.39-1.39a.46.46,0,0,1-.17-.64.47.47,0,0,1,.64-.17l2.39,1.39a8.09,8.09,0,0,1,3.72,6.44v2.77a7.21,7.21,0,0,0,3.25,5.63L291,324.88a.47.47,0,0,1,.17.64A.49.49,0,0,1,290.8,325.76Z" transform="translate(-141.83 -20.56)"/><path class="cls-2" d="M295.26,323.18a.53.53,0,0,1-.23-.06l-11.47-6.62a8.12,8.12,0,0,1-3.72-6.45v-2.76a7.23,7.23,0,0,0-3.25-5.64l-2.4-1.38a.47.47,0,1,1,.47-.81l2.39,1.38a8.12,8.12,0,0,1,3.72,6.45v2.76a7.18,7.18,0,0,0,3.26,5.63l11.47,6.63a.47.47,0,0,1,.17.64A.47.47,0,0,1,295.26,323.18Z" transform="translate(-141.83 -20.56)"/><path class="cls-2" d="M299.73,320.61a.53.53,0,0,1-.24-.06L288,313.93a8.12,8.12,0,0,1-3.72-6.45v-2.77a7.21,7.21,0,0,0-3.25-5.63l-2.4-1.38a.47.47,0,0,1,.47-.81l2.4,1.38a8.14,8.14,0,0,1,3.72,6.44v2.77a7.19,7.19,0,0,0,3.25,5.63L300,319.74a.46.46,0,0,1,.17.64A.45.45,0,0,1,299.73,320.61Z" transform="translate(-141.83 -20.56)"/><path class="cls-2" d="M304.19,318A.46.46,0,0,1,304,318l-11.48-6.63a8.11,8.11,0,0,1-3.72-6.44v-2.77a7.21,7.21,0,0,0-3.25-5.63l-2.4-1.38a.47.47,0,0,1-.17-.64.46.46,0,0,1,.64-.17l2.4,1.38a8.12,8.12,0,0,1,3.72,6.44v2.77a7.19,7.19,0,0,0,3.25,5.63l11.47,6.63a.46.46,0,0,1-.23.87Z" transform="translate(-141.83 -20.56)"/><path class="cls-2" d="M308.65,315.47a.46.46,0,0,1-.23-.06L297,308.78a8.09,8.09,0,0,1-3.72-6.44v-2.77a7.18,7.18,0,0,0-3.26-5.63l-2.39-1.38a.47.47,0,0,1,.47-.81l2.39,1.38a8.09,8.09,0,0,1,3.72,6.44v2.77a7.19,7.19,0,0,0,3.25,5.63l11.48,6.62a.47.47,0,0,1,.17.64A.49.49,0,0,1,308.65,315.47Z" transform="translate(-141.83 -20.56)"/><path class="cls-2" d="M313.11,312.9a.43.43,0,0,1-.23-.07l-11.47-6.62a8.09,8.09,0,0,1-3.72-6.44V297a7.19,7.19,0,0,0-3.25-5.63L292,290a.48.48,0,0,1-.17-.65.47.47,0,0,1,.64-.17l2.4,1.39a8.1,8.1,0,0,1,3.71,6.44v2.77a7.19,7.19,0,0,0,3.26,5.63L313.35,312a.47.47,0,0,1-.24.88Z" transform="translate(-141.83 -20.56)"/><path class="cls-2" d="M317.58,310.33a.44.44,0,0,1-.24-.07l-11.47-6.62a8.14,8.14,0,0,1-3.72-6.44v-2.77a7.19,7.19,0,0,0-3.25-5.63l-2.4-1.39a.47.47,0,0,1,.47-.81l2.4,1.39a8.11,8.11,0,0,1,3.72,6.44v2.77a7.21,7.21,0,0,0,3.25,5.63l11.47,6.62a.47.47,0,0,1-.23.88Z" transform="translate(-141.83 -20.56)"/><path class="cls-2" d="M322,307.75a.46.46,0,0,1-.23-.06l-11.48-6.62a8.15,8.15,0,0,1-3.72-6.45v-2.76a7.17,7.17,0,0,0-3.25-5.63L301,284.84a.47.47,0,1,1,.46-.81l2.4,1.38a8.12,8.12,0,0,1,3.72,6.45v2.76a7.23,7.23,0,0,0,3.25,5.64l11.47,6.62a.47.47,0,0,1,.18.64A.48.48,0,0,1,322,307.75Z" transform="translate(-141.83 -20.56)"/><path class="cls-2" d="M326.5,305.18a.46.46,0,0,1-.23-.06L314.8,298.5a8.12,8.12,0,0,1-3.72-6.45v-2.76a7.21,7.21,0,0,0-3.26-5.64l-2.39-1.38a.46.46,0,0,1-.17-.64.47.47,0,0,1,.64-.17l2.39,1.38a8.12,8.12,0,0,1,3.72,6.45v2.76a7.19,7.19,0,0,0,3.25,5.63l11.48,6.63a.47.47,0,0,1-.24.87Z" transform="translate(-141.83 -20.56)"/><path class="cls-2" d="M331,302.61a.53.53,0,0,1-.24-.06l-11.47-6.63a8.09,8.09,0,0,1-3.72-6.44v-2.77a7.21,7.21,0,0,0-3.25-5.63l-2.4-1.38a.47.47,0,0,1,.47-.81l2.39,1.38a8.13,8.13,0,0,1,3.73,6.44v2.77a7.17,7.17,0,0,0,3.25,5.63l11.47,6.63a.47.47,0,0,1,.17.64A.46.46,0,0,1,331,302.61Z" transform="translate(-141.83 -20.56)"/><path class="cls-2" d="M335.43,300a.46.46,0,0,1-.23-.06l-11.48-6.63a8.11,8.11,0,0,1-3.72-6.44v-2.77a7.21,7.21,0,0,0-3.25-5.63l-2.4-1.38a.47.47,0,0,1-.17-.64.46.46,0,0,1,.64-.17l2.4,1.38a8.11,8.11,0,0,1,3.72,6.44v2.77a7.19,7.19,0,0,0,3.25,5.63l11.47,6.62a.47.47,0,0,1-.23.88Z" transform="translate(-141.83 -20.56)"/><path class="cls-2" d="M339.89,297.47a.39.39,0,0,1-.23-.07l-11.48-6.62a8.11,8.11,0,0,1-3.72-6.44v-2.77a7.17,7.17,0,0,0-3.25-5.63l-2.39-1.38a.47.47,0,1,1,.47-.82l2.39,1.39a8.09,8.09,0,0,1,3.72,6.44v2.77a7.21,7.21,0,0,0,3.25,5.63l11.48,6.62a.47.47,0,0,1,.17.64A.49.49,0,0,1,339.89,297.47Z" transform="translate(-141.83 -20.56)"/><path class="cls-2" d="M344.35,294.9a.39.39,0,0,1-.23-.07l-11.47-6.62a8.12,8.12,0,0,1-3.72-6.44V279a7.19,7.19,0,0,0-3.25-5.63l-2.4-1.39a.47.47,0,1,1,.47-.81l2.39,1.39a8.09,8.09,0,0,1,3.72,6.44v2.77a7.21,7.21,0,0,0,3.25,5.63L344.59,294a.47.47,0,0,1-.24.88Z" transform="translate(-141.83 -20.56)"/><path class="cls-2" d="M348.82,292.32a.53.53,0,0,1-.24-.06l-11.47-6.62a8.12,8.12,0,0,1-3.72-6.45v-2.76a7.19,7.19,0,0,0-3.25-5.63l-2.4-1.39a.47.47,0,0,1,.47-.81l2.4,1.38a8.15,8.15,0,0,1,3.72,6.45v2.76a7.23,7.23,0,0,0,3.25,5.64l11.47,6.62a.46.46,0,0,1,.17.64A.45.45,0,0,1,348.82,292.32Z" transform="translate(-141.83 -20.56)"/><path class="cls-2" d="M353.28,289.75a.46.46,0,0,1-.23-.06l-11.48-6.62a8.15,8.15,0,0,1-3.72-6.45v-2.76a7.23,7.23,0,0,0-3.25-5.64l-2.4-1.38a.47.47,0,1,1,.47-.81l2.4,1.38a8.12,8.12,0,0,1,3.72,6.45v2.76a7.19,7.19,0,0,0,3.25,5.63l11.47,6.63a.46.46,0,0,1-.23.87Z" transform="translate(-141.83 -20.56)"/><path class="cls-2" d="M357.74,287.18a.46.46,0,0,1-.23-.06L346,280.49a8.11,8.11,0,0,1-3.72-6.44v-2.77a7.18,7.18,0,0,0-3.25-5.63l-2.39-1.38a.46.46,0,0,1-.17-.64.46.46,0,0,1,.63-.17l2.4,1.38a8.12,8.12,0,0,1,3.72,6.44v2.77a7.19,7.19,0,0,0,3.25,5.63L358,286.31a.47.47,0,0,1,.17.64A.48.48,0,0,1,357.74,287.18Z" transform="translate(-141.83 -20.56)"/><path class="cls-2" d="M362.2,284.61a.49.49,0,0,1-.23-.06l-11.47-6.63a8.09,8.09,0,0,1-3.72-6.44v-2.77a7.21,7.21,0,0,0-3.25-5.63l-2.4-1.38a.47.47,0,0,1-.17-.64.45.45,0,0,1,.64-.17l2.39,1.38a8.09,8.09,0,0,1,3.72,6.44v2.77a7.19,7.19,0,0,0,3.26,5.63l11.47,6.62a.47.47,0,0,1-.24.88Z" transform="translate(-141.83 -20.56)"/><path class="cls-2" d="M366.67,282a.53.53,0,0,1-.24-.06L355,275.35a8.09,8.09,0,0,1-3.72-6.44v-2.77a7.19,7.19,0,0,0-3.25-5.63l-2.4-1.38a.48.48,0,0,1-.17-.65.47.47,0,0,1,.64-.17l2.4,1.39a8.11,8.11,0,0,1,3.72,6.44v2.77a7.21,7.21,0,0,0,3.25,5.63l11.47,6.62a.47.47,0,0,1-.23.88Z" transform="translate(-141.83 -20.56)"/><path class="cls-2" d="M371.13,279.47a.39.39,0,0,1-.23-.07l-11.48-6.62a8.13,8.13,0,0,1-3.72-6.44v-2.77a7.19,7.19,0,0,0-3.25-5.63l-2.39-1.39a.46.46,0,0,1-.18-.64.47.47,0,0,1,.64-.17l2.4,1.39a8.09,8.09,0,0,1,3.72,6.44v2.77a7.21,7.21,0,0,0,3.25,5.63l11.47,6.62a.47.47,0,0,1,.18.64A.49.49,0,0,1,371.13,279.47Z" transform="translate(-141.83 -20.56)"/><path class="cls-2" d="M241.75,328.33a.47.47,0,0,1-.23-.88L253,320.83a7.18,7.18,0,0,0,3.25-5.63v-2.77A8.11,8.11,0,0,1,260,306l2.4-1.39a.47.47,0,0,1,.47.82l-2.4,1.38a7.19,7.19,0,0,0-3.25,5.63v2.77a8.12,8.12,0,0,1-3.72,6.44L242,328.26A.44.44,0,0,1,241.75,328.33Z" transform="translate(-141.83 -20.56)"/><path class="cls-2" d="M237.29,325.76a.49.49,0,0,1-.41-.24.48.48,0,0,1,.18-.64l11.47-6.62a7.21,7.21,0,0,0,3.25-5.63v-2.77a8.11,8.11,0,0,1,3.72-6.44l2.4-1.39a.47.47,0,0,1,.47.81l-2.4,1.39a7.19,7.19,0,0,0-3.25,5.63v2.77a8.14,8.14,0,0,1-3.72,6.44l-11.48,6.62A.39.39,0,0,1,237.29,325.76Z" transform="translate(-141.83 -20.56)"/><path class="cls-2" d="M232.83,323.18a.48.48,0,0,1-.41-.23.47.47,0,0,1,.17-.64l11.48-6.63a7.19,7.19,0,0,0,3.25-5.63v-2.76a8.12,8.12,0,0,1,3.72-6.45l2.39-1.38a.47.47,0,0,1,.64.17.46.46,0,0,1-.17.64l-2.39,1.38a7.21,7.21,0,0,0-3.26,5.64v2.76a8.14,8.14,0,0,1-3.71,6.45l-11.48,6.62A.46.46,0,0,1,232.83,323.18Z" transform="translate(-141.83 -20.56)"/><path class="cls-2" d="M228.37,320.61a.47.47,0,0,1-.24-.87l11.47-6.63a7.18,7.18,0,0,0,3.26-5.63v-2.77a8.12,8.12,0,0,1,3.72-6.44l2.39-1.38a.47.47,0,0,1,.47.81l-2.4,1.38a7.21,7.21,0,0,0-3.25,5.63v2.77a8.12,8.12,0,0,1-3.72,6.45l-11.47,6.62A.49.49,0,0,1,228.37,320.61Z" transform="translate(-141.83 -20.56)"/><path class="cls-2" d="M223.9,318a.45.45,0,0,1-.4-.23.46.46,0,0,1,.17-.64l11.47-6.63a7.19,7.19,0,0,0,3.25-5.63v-2.77a8.14,8.14,0,0,1,3.72-6.44l2.4-1.38a.46.46,0,0,1,.64.17.47.47,0,0,1-.17.64l-2.4,1.38a7.21,7.21,0,0,0-3.25,5.63v2.77a8.09,8.09,0,0,1-3.72,6.44L224.14,318A.53.53,0,0,1,223.9,318Z" transform="translate(-141.83 -20.56)"/><path class="cls-2" d="M219.44,315.47a.49.49,0,0,1-.41-.24.47.47,0,0,1,.18-.64L230.68,308a7.19,7.19,0,0,0,3.25-5.63v-2.77a8.09,8.09,0,0,1,3.72-6.44l2.4-1.38a.47.47,0,1,1,.46.81l-2.39,1.38a7.19,7.19,0,0,0-3.25,5.63v2.77a8.11,8.11,0,0,1-3.72,6.44l-11.48,6.63A.46.46,0,0,1,219.44,315.47Z" transform="translate(-141.83 -20.56)"/><path class="cls-2" d="M215,312.9a.49.49,0,0,1-.41-.24.47.47,0,0,1,.17-.64l11.48-6.62a7.21,7.21,0,0,0,3.25-5.63V297a8.09,8.09,0,0,1,3.72-6.44l2.39-1.39a.48.48,0,0,1,.64.17.47.47,0,0,1-.17.65l-2.39,1.38A7.18,7.18,0,0,0,230.4,297v2.77a8.09,8.09,0,0,1-3.72,6.44l-11.47,6.62A.39.39,0,0,1,215,312.9Z" transform="translate(-141.83 -20.56)"/><path class="cls-2" d="M210.51,310.33a.47.47,0,0,1-.23-.88l11.47-6.62A7.19,7.19,0,0,0,225,297.2v-2.77a8.09,8.09,0,0,1,3.72-6.44l2.39-1.39a.47.47,0,0,1,.47.81l-2.4,1.39a7.19,7.19,0,0,0-3.25,5.63v2.77a8.12,8.12,0,0,1-3.72,6.44l-11.47,6.62A.44.44,0,0,1,210.51,310.33Z" transform="translate(-141.83 -20.56)"/><path class="cls-2" d="M206.05,307.75a.45.45,0,0,1-.4-.23.46.46,0,0,1,.17-.64l11.47-6.62a7.23,7.23,0,0,0,3.25-5.64v-2.76a8.15,8.15,0,0,1,3.72-6.45l2.4-1.38a.47.47,0,0,1,.47.81l-2.4,1.39a7.19,7.19,0,0,0-3.25,5.63v2.76a8.12,8.12,0,0,1-3.72,6.45l-11.47,6.62A.53.53,0,0,1,206.05,307.75Z" transform="translate(-141.83 -20.56)"/><path class="cls-2" d="M201.59,305.18a.48.48,0,0,1-.41-.23.47.47,0,0,1,.17-.64l11.48-6.63a7.19,7.19,0,0,0,3.25-5.63v-2.76a8.12,8.12,0,0,1,3.72-6.45l2.4-1.38a.47.47,0,0,1,.64.17.47.47,0,0,1-.18.64l-2.39,1.38a7.23,7.23,0,0,0-3.25,5.64v2.76a8.15,8.15,0,0,1-3.72,6.45l-11.48,6.62A.46.46,0,0,1,201.59,305.18Z" transform="translate(-141.83 -20.56)"/><path class="cls-2" d="M197.13,302.61a.47.47,0,0,1-.24-.87l11.48-6.63a7.19,7.19,0,0,0,3.25-5.63v-2.77a8.12,8.12,0,0,1,3.72-6.44l2.39-1.38a.47.47,0,0,1,.64.17.46.46,0,0,1-.17.64l-2.39,1.38a7.19,7.19,0,0,0-3.26,5.63v2.77a8.09,8.09,0,0,1-3.72,6.44l-11.47,6.63A.46.46,0,0,1,197.13,302.61Z" transform="translate(-141.83 -20.56)"/><path class="cls-2" d="M192.66,300a.46.46,0,0,1-.4-.24.47.47,0,0,1,.17-.64l11.47-6.62a7.17,7.17,0,0,0,3.25-5.63v-2.77a8.11,8.11,0,0,1,3.72-6.44l2.4-1.38a.46.46,0,0,1,.64.17.47.47,0,0,1-.17.64l-2.4,1.38a7.21,7.21,0,0,0-3.25,5.63v2.77a8.09,8.09,0,0,1-3.72,6.44L192.9,300A.53.53,0,0,1,192.66,300Z" transform="translate(-141.83 -20.56)"/><path class="cls-2" d="M188.2,297.47a.47.47,0,0,1-.23-.88L199.44,290a7.21,7.21,0,0,0,3.25-5.63v-2.77a8.11,8.11,0,0,1,3.72-6.44l2.4-1.39a.47.47,0,0,1,.47.82l-2.4,1.38a7.19,7.19,0,0,0-3.25,5.63v2.77a8.11,8.11,0,0,1-3.72,6.44l-11.48,6.62A.39.39,0,0,1,188.2,297.47Z" transform="translate(-141.83 -20.56)"/><path class="cls-2" d="M183.74,294.9a.49.49,0,0,1-.41-.24.47.47,0,0,1,.17-.64L195,287.4a7.21,7.21,0,0,0,3.25-5.63V279a8.09,8.09,0,0,1,3.72-6.44l2.4-1.39a.47.47,0,0,1,.46.81l-2.39,1.39a7.17,7.17,0,0,0-3.25,5.63v2.77a8.14,8.14,0,0,1-3.72,6.44L184,294.83A.39.39,0,0,1,183.74,294.9Z" transform="translate(-141.83 -20.56)"/><path class="cls-2" d="M179.28,292.32a.47.47,0,0,1-.41-.23.47.47,0,0,1,.17-.64l11.47-6.62a7.21,7.21,0,0,0,3.26-5.64v-2.76a8.12,8.12,0,0,1,3.72-6.45l2.39-1.38a.47.47,0,1,1,.47.81L198,270.8a7.19,7.19,0,0,0-3.25,5.63v2.76a8.12,8.12,0,0,1-3.72,6.45l-11.47,6.62A.46.46,0,0,1,179.28,292.32Z" transform="translate(-141.83 -20.56)"/><path class="cls-2" d="M174.81,289.75a.45.45,0,0,1-.4-.23.46.46,0,0,1,.17-.64l11.47-6.63a7.17,7.17,0,0,0,3.25-5.63v-2.76a8.15,8.15,0,0,1,3.72-6.45l2.4-1.38a.47.47,0,0,1,.47.81l-2.4,1.38a7.23,7.23,0,0,0-3.25,5.64v2.76a8.12,8.12,0,0,1-3.72,6.45l-11.47,6.62A.53.53,0,0,1,174.81,289.75Z" transform="translate(-141.83 -20.56)"/><path class="cls-2" d="M170.35,287.18a.46.46,0,0,1-.23-.87l11.47-6.63a7.19,7.19,0,0,0,3.25-5.63v-2.77a8.14,8.14,0,0,1,3.72-6.44l2.4-1.38a.47.47,0,0,1,.47.81l-2.4,1.38a7.21,7.21,0,0,0-3.25,5.63v2.77a8.11,8.11,0,0,1-3.72,6.44l-11.48,6.63A.46.46,0,0,1,170.35,287.18Z" transform="translate(-141.83 -20.56)"/><path class="cls-2" d="M165.89,284.61a.49.49,0,0,1-.41-.24.47.47,0,0,1,.17-.64l11.48-6.62a7.19,7.19,0,0,0,3.25-5.63v-2.77a8.09,8.09,0,0,1,3.72-6.44l2.39-1.38a.47.47,0,0,1,.47.81l-2.39,1.38a7.19,7.19,0,0,0-3.26,5.63v2.77a8.09,8.09,0,0,1-3.72,6.44l-11.47,6.63A.46.46,0,0,1,165.89,284.61Z" transform="translate(-141.83 -20.56)"/><path class="cls-2" d="M161.43,282a.47.47,0,0,1-.24-.88l11.47-6.62a7.19,7.19,0,0,0,3.26-5.63v-2.77a8.09,8.09,0,0,1,3.72-6.44l2.39-1.39a.47.47,0,0,1,.64.17.48.48,0,0,1-.17.65l-2.4,1.38a7.19,7.19,0,0,0-3.25,5.63v2.77a8.09,8.09,0,0,1-3.72,6.44L161.66,282A.49.49,0,0,1,161.43,282Z" transform="translate(-141.83 -20.56)"/><path class="cls-2" d="M157,279.47a.47.47,0,0,1-.23-.88L168.2,272a7.21,7.21,0,0,0,3.25-5.63v-2.77a8.11,8.11,0,0,1,3.72-6.44l2.4-1.39a.47.47,0,0,1,.47.81l-2.4,1.39a7.19,7.19,0,0,0-3.25,5.63v2.77a8.12,8.12,0,0,1-3.72,6.44L157.2,279.4A.44.44,0,0,1,157,279.47Z" transform="translate(-141.83 -20.56)"/><g class="cls-15"><path class="cls-16" d="M347.1,114.32c.79,4.48,4.11,15.73,17.81,23.51,19.5,9,33,20.84,37.53,34,.32.87.76,2,1.17,2.85.49-.8.49-.8.49-2.74V149.8c0-13-.74-15.9-1.66-19.53-4.53-13.22-18-25.05-37.53-34.06-15.55-5-19.32,9.57-17.81,18.11Z" transform="translate(-141.83 -20.56)"/><path class="cls-16" d="M204.13,87.7c20.64-6,45.06-9.36,71.13-9.14,3.43,0,6.84.11,10.21.26,22.88,2.09,31,26.26,17.23,36.84-6.34,4.85-14,4.8-17.23,4.78s-6.78-.24-10.21-.27c-26.07-.21-50.49,3.16-71.13,9.15-20.84,5.07-22.07-16.11-14.78-29.06A26.3,26.3,0,0,1,204.13,87.7Z" transform="translate(-141.83 -20.56)"/><path class="cls-16" d="M141.83,181.75c.57-6.6,1-11.81,7.74-20.9,14.15-20.89,11.29-45.17,3.47-44-1.26.18-2.57,1.54-3.47,2.43-4.76,6.2-7.46,12.86-7.72,19.81,0,.36,0,.73,0,1.09v41.62Z" transform="translate(-141.83 -20.56)"/></g><rect class="cls-16" x="314.98" y="186.27" width="4.86" height="41.51" transform="translate(-196.31 113.65) rotate(-22.03)"/><circle class="cls-17" cx="226.24" cy="168.95" r="15.11" transform="translate(-197.62 134.75) rotate(-33.98)"/><path class="cls-18" d="M304.25,191.29c0,29.33-17.47,53.1-39,53.1s-39-23.77-39-53.1,17.46-38.11,39-38.11S304.25,162,304.25,191.29Z" transform="translate(-141.83 -20.56)"/><g class="cls-19"><path class="cls-20" d="M304.25,191.29c0,29.33-17.47,53.1-39,53.1s-39-23.77-39-53.1,17.46-38.11,39-38.11S304.25,162,304.25,191.29Z" transform="translate(-141.83 -20.56)"/></g><ellipse class="cls-21" cx="123.41" cy="148.39" rx="26.62" ry="15.37"/><path class="cls-22" d="M246.42,162.17c10.39-6,27.25-6,37.65,0,4.29,2.48,6.81,5.6,7.55,8.82,1.06-4.58-1.45-9.39-7.55-12.91-10.4-6-27.26-6-37.65,0-6.1,3.52-8.62,8.33-7.56,12.91C239.61,167.77,242.12,164.65,246.42,162.17Z" transform="translate(-141.83 -20.56)"/><path class="cls-23" d="M234.51,132.42l4.82-8.29a26.94,26.94,0,0,0,6.25-10.77l4.87-8.4-7-4a5,5,0,0,0-.71-.4h0c-2-.94-4.64-.69-7.55,1C229,105.09,224,113.8,224,121c0,3.58,1.25,6.09,3.28,7.27h0Z" transform="translate(-141.83 -20.56)"/><ellipse class="cls-4" cx="242.4" cy="118.64" rx="15.88" ry="9.17" transform="translate(-123.38 248.68) rotate(-60)"/><circle class="cls-24" cx="266.79" cy="132.26" r="39.78" transform="translate(-171.9 88.32) rotate(-21.86)"/><g class="cls-19"><circle class="cls-25" cx="266.79" cy="132.26" r="39.78" transform="translate(-171.9 88.32) rotate(-21.86)"/></g><path class="cls-26" d="M289.05,159.17l4.82-8.3a26.87,26.87,0,0,0,6.25-10.77l4.87-8.4-7-4a6.16,6.16,0,0,0-.71-.4h0c-2-1-4.65-.69-7.55,1-6.21,3.58-11.23,12.28-11.23,19.44,0,3.58,1.25,6.1,3.28,7.27h0Z" transform="translate(-141.83 -20.56)"/><ellipse class="cls-4" cx="296.94" cy="145.38" rx="15.88" ry="9.17" transform="translate(-119.27 309.29) rotate(-60)"/><path class="cls-5" d="M286.23,152c0-7.16,5-15.87,11.22-19.45a9.5,9.5,0,0,1,5.87-1.48,9,9,0,0,0-6.38,1.39c-6.2,3.58-11.23,12.29-11.23,19.45,0,4.68,2.15,7.54,5.37,8C288.15,159.18,286.23,156.38,286.23,152Z" transform="translate(-141.83 -20.56)"/><ellipse class="cls-21" cx="296.94" cy="145.38" rx="11.35" ry="6.55" transform="matrix(0.5, -0.87, 0.87, 0.5, -119.28, 309.29)"/><path class="cls-22" d="M301.55,135.14a6.57,6.57,0,0,1,1.32,4.32c0,5.12-3.6,11.34-8,13.9a6.41,6.41,0,0,1-4.61,1c1.43,1.69,3.9,1.93,6.71.31,4.43-2.56,8-8.78,8-13.9C305,137.61,303.61,135.62,301.55,135.14Z" transform="translate(-141.83 -20.56)"/><ellipse class="cls-21" cx="243.03" cy="142.43" rx="10.1" ry="17.5" transform="translate(-177.9 83.78) rotate(-22.6)"/><path class="cls-16" d="M249.2,144.33c-.37,2.84-2.51,3.74-4.79,2A10,10,0,0,1,241,138c.37-2.84,2.52-3.73,4.8-2A10,10,0,0,1,249.2,144.33Z" transform="translate(-141.83 -20.56)"/><path class="cls-22" d="M244.2,155.45c-6.27-4.79-10.53-15-9.51-22.84.41-3.19,1.64-5.49,3.37-6.76-3.27.3-5.75,3.08-6.38,7.9-1,7.82,3.24,18.05,9.51,22.84,3.71,2.84,7.3,3.14,9.81,1.28C249,158.06,246.61,157.29,244.2,155.45Z" transform="translate(-141.83 -20.56)"/><path class="cls-16" d="M241.73,156.34c-6.27-4.79-10.53-15-9.51-22.84.47-3.63,2-6.09,4.11-7.23-2.4,1-4.14,3.56-4.65,7.48-1,7.82,3.24,18.05,9.51,22.84,3.36,2.58,6.62,3,9.08,1.74C247.88,159.31,244.85,158.73,241.73,156.34Z" transform="translate(-141.83 -20.56)"/><circle class="cls-27" cx="309.62" cy="187.78" r="15.11" transform="translate(-193.67 188.94) rotate(-34.67)"/><g class="cls-19"><circle class="cls-28" cx="309.62" cy="187.78" r="15.11" transform="translate(-193.67 188.94) rotate(-34.67)"/></g><path class="cls-29" d="M333.72,237.84c-.86,7.18-7.2,20.77-12.94,20.09s-8.7-15.39-7.84-22.57,6.2-12.45,11.94-11.76S334.58,230.66,333.72,237.84Z" transform="translate(-141.83 -20.56)"/><path class="cls-30" d="M333.72,237.84c-.86,7.18-7.2,20.77-12.94,20.09s-8.7-15.39-7.84-22.57,6.2-12.45,11.94-11.76S334.58,230.66,333.72,237.84Z" transform="translate(-141.83 -20.56)"/><path class="cls-16" d="M186.26,191.65a2.43,2.43,0,0,1-1.13-4.59l31.19-16.32a2.43,2.43,0,0,1,2.26,4.31l-31.2,16.32A2.38,2.38,0,0,1,186.26,191.65Z" transform="translate(-141.83 -20.56)"/><path class="cls-31" d="M186.81,200.71c-6.34,3.48-21.09,6.22-23.87,1.15s7.47-16,13.81-19.5,13.73-2.18,16.51,2.88S193.15,197.24,186.81,200.71Z" transform="translate(-141.83 -20.56)"/><path class="cls-32" d="M186.81,200.71c-6.34,3.48-21.09,6.22-23.87,1.15s7.47-16,13.81-19.5,13.73-2.18,16.51,2.88S193.15,197.24,186.81,200.71Z" transform="translate(-141.83 -20.56)"/><g class="cls-33"><path class="cls-16" d="M157.08,193.94c-1,7.64-4.91,12.19-9.08,6.5-5.34-7.3-5.86-14.43-6.17-18.69V140.13A33,33,0,0,0,148,158.82c8.8,14.56,9.85,28.93,9.08,35.12Z" transform="translate(-141.83 -20.56)"/><path class="cls-16" d="M280.62,201.57c-3.28.09-6.6.12-9.94.09-26.17-.21-50.41-4-70.64-10.37-20.21-5.4-21.43,15.74-14.37,28.8,5,9.3,11.81,11.85,14.37,12.81,20.23,6.37,44.47,10.16,70.64,10.38,3.34,0,6.66,0,9.94-.09,23.75-1.75,30-24.56,18.87-35.2-3.1-3-8.89-6.5-18.87-6.42Z" transform="translate(-141.83 -20.56)"/><path class="cls-16" d="M404.08,168.39c-.11,18-1.17,21.27-2.51,25.42-5.56,13.12-20,24.72-40.18,33.38C343.72,232.4,338.84,214,346,200.41a35.47,35.47,0,0,1,15.37-14.84c20.2-8.66,34.62-20.25,40.18-33.37a22.54,22.54,0,0,1,1.53-2.82l.45-.06c.34,1,.49,1.36.53,6.27v12.8Z" transform="translate(-141.83 -20.56)"/></g><polygon class="cls-34" points="223.91 224.15 223.91 31.89 26.29 31.89 26.29 224.15 125.1 281.2 223.91 224.15"/><path class="cls-35" d="M333.5,181.77h0a3.48,3.48,0,0,1-3.48-3.49V59a3.48,3.48,0,0,1,3.48-3.48h0A3.48,3.48,0,0,1,337,59V178.28A3.49,3.49,0,0,1,333.5,181.77Z" transform="translate(-141.83 -20.56)"/><path class="cls-36" d="M196,130.89h0a1.87,1.87,0,0,1-1.87-1.87V22.42A1.87,1.87,0,0,1,196,20.56h0a1.86,1.86,0,0,1,1.87,1.86V129A1.87,1.87,0,0,1,196,130.89Z" transform="translate(-141.83 -20.56)"/></g></g></svg>