<svg xmlns="http://www.w3.org/2000/svg" viewBox="0 0 1319 755.58">
  <title>only bg svg</title>
  <g id="Layer_3" data-name="Layer 3">
    <g id="background">
      <rect x="0.01" width="1318.97" height="752" style="fill: #fa0"/>
      <path d="M400.63,663.45c-90.1-20.51-184.17-30.23-276.4-18.24A520.25,520.25,0,0,0,0,676.61V752H695.65c-95.54-31.21-190.22-64-286.54-86.67C406.25,664.67,403.43,664.11,400.63,663.45Z" style="fill: #ffb100"/>
      <path d="M1319,0H0V676.61a520.43,520.43,0,0,1,124.23-31.49c92.25-12,186.3-2.25,276.4,18.26,2.8.66,5.62,1.32,8.42,1.88,96.28,22.57,191,55.46,286.53,86.68H1319Z" style="fill: #ffb800"/>
      <path d="M394.37,546.14c2.64.75,5.28,1.6,7.83,2.35C564,597.84,722.61,674,891.45,714.49c143.61,34.4,288.12,27.45,427.52-9.58V0H0V540.4a454.72,454.72,0,0,1,132.85-29C221.27,505.16,309.7,521,394.37,546.14Z" style="fill: #ffbf00"/>
      <path d="M0,0V403.64a408.18,408.18,0,0,1,141.29-26C226,376.88,308.8,399,388,428.87l7.34,2.81C546.7,489.94,696.82,569,859,612.22c153.91,41,310.2,32.34,459.93-11.87V0Z" style="fill: #ffc500"/>
      <path d="M149.84,243.83c80.95,5.65,158.19,33.09,231.89,67.78,2.31,1,4.53,2.16,6.84,3.24,141,67.3,282.51,149,438,195.24,163.92,48.65,332.54,38.3,492.41-14V0H0V266.2A353.35,353.35,0,0,1,149.84,243.83Z" style="fill: #fc0"/>
      <path d="M1319,0H0V128.12c51.33-19.66,105.27-25.85,158.46-18,77.16,11.37,148.79,44.84,217.05,84.21,2.14,1.22,4.2,2.44,6.34,3.66C512.48,274.22,645.39,358.6,794.27,407.76c173.53,57.34,355.14,46.06,524.79-15.61V0Z" style="fill: #ffd624"/>
      <path d="M375,81.12c120.19,85.29,244.56,172,386.79,224.38,172,63.35,355.54,57.15,525.85-5,10.55-3.85,20.93-7.89,31.41-12.12V0H237.51c46.21,20,89.58,47.57,131.67,77.07C371.13,78.39,373,79.81,375,81.12Z" style="fill: #ffe038"/>
      <path d="M1319,0H410.53c97.36,80.65,200.73,154.63,318.86,203.23,158.11,65,329.74,70.17,490.49,19.83a740.54,740.54,0,0,0,99.17-39.2V0Z" style="fill: #ffeb49"/>
      <path d="M1152,145.51a648,648,0,0,0,114.29-41.18c17.91-8.35,35.46-17.66,52.69-27.72V0H530.38C582.23,39.24,637.26,73.55,697,101,841.18,167.42,1000.93,184.33,1152,145.51Z" style="fill: #fff558"/>
      <path d="M1084.27,68A555.21,555.21,0,0,0,1263.05,0H667C797,66.74,943.64,94.94,1084.27,68Z" style="fill: #ff6"/>
    </g>
    <g id="cloud_3" data-name="cloud 3">
      <path d="M950,149.17a30.89,30.89,0,1,1,30.15-37.61,20.26,20.26,0,1,1,10.48,37.61Z" style="fill: #c3fff9"/>
      <path d="M943,118.28a31.45,31.45,0,0,1,.24-3.88H955.9a5.19,5.19,0,0,0,5.19-5.19h0A5.19,5.19,0,0,0,955.9,104h-3.62a3.11,3.11,0,0,1-2.44-5,31,31,0,0,1,10.86-8.6.59.59,0,0,0,.3-.78h0a.62.62,0,0,0-.3-.3,30.86,30.86,0,0,0-41.56,29.38c.25,17,14.42,30.44,31.39,30.44h23.4A31,31,0,0,1,943,118.28Z" style="fill: #8cd3b9"/>
    </g>
    <g id="cloud_1" data-name="cloud 1">
      <path d="M159.33,87.39a26.14,26.14,0,1,1,25.5-31.88,17.16,17.16,0,1,1,8.82,31.88Z" style="fill: #c3fff9"/>
      <path d="M168.61,87.39a1,1,0,0,0,1-1,1,1,0,0,0-.53-.85,26.59,26.59,0,0,1-15.74-24.23V60.11a3.13,3.13,0,0,1,3.13-3H164a5.21,5.21,0,0,0,5.27-5,5.08,5.08,0,0,0-4.94-5.22h-.15a3.11,3.11,0,0,1-2-5.4,25.49,25.49,0,0,1,3.68-2.77,1.6,1.6,0,0,0,.54-2.2h0a1.54,1.54,0,0,0-1-.72,25.83,25.83,0,0,0-6-.71,26.15,26.15,0,0,0-26.22,26.08v.58c.27,14.31,12.26,25.63,26.57,25.63Z" style="fill: #92d6be"/>
    </g>
    <g id="cloud_2" data-name="cloud 2">
      <path d="M347.08,236.39h-74c-12.8,0-23.22-10.71-23.22-23.86a23.53,23.53,0,0,1,20.79-23.74c2-16,15.36-28,31.07-28,17.27,0,31.33,14.44,31.33,32.2a32.08,32.08,0,0,1-.18,3.39,21.08,21.08,0,0,1,11.82-4.55l1.77-.12.73,1.66a15.54,15.54,0,0,0,14.17,9.43h3.46l.71,1.47a23,23,0,0,1,2.2,9.81c0,11.65-8.85,21.42-20.16,22.24l-.28.06Z" style="fill: #aff2d8"/>
      <path d="M265.42,212.87a24.16,24.16,0,0,1,20-24.13H300.7a5,5,0,0,0,4.94-5.06h0a5,5,0,0,0-4.92-5.08h-5.9a3,3,0,0,1-3-3,3,3,0,0,1,.58-1.77A32.39,32.39,0,0,1,305,163.05a1.11,1.11,0,0,0-.35-2.1c-.93-.09-1.87-.13-2.81-.13-15.71,0-29,12-31.07,28a23.53,23.53,0,0,0-20.79,23.6,23.88,23.88,0,0,0,23.56,24h5.27a.76.76,0,0,0,.72-.8h0a.73.73,0,0,0-.4-.63A24.52,24.52,0,0,1,265.42,212.87Z" style="fill: #87ceb7"/>
      <path d="M371.3,204.54a26.14,26.14,0,1,1,25.52-31.88,17.16,17.16,0,1,1,8.82,31.88Z" style="fill: #c3fff9"/>
      <path d="M386.17,205.05a26.18,26.18,0,0,1-25.56-20.68,5,5,0,0,1,3.9-5.9h0a4.78,4.78,0,0,1,1-.1h7.74a5.5,5.5,0,0,0,5.57-5.23,5.37,5.37,0,0,0-5.26-5.48h-5.68a2.94,2.94,0,0,1-2.32-4.73,26.23,26.23,0,0,1,8.48-7.12,1.31,1.31,0,0,0-.37-2.44,26.11,26.11,0,0,0-31.54,26.07c.27,14.31,12.26,25.63,26.57,25.63Z" style="fill: #92ddc2"/>
    </g>
    <path d="M504.78,301c.3-5.5-2.14-8-7.38-9.14-2.75,7.71-7.53,13.77-15,16.94a101.57,101.57,0,0,1-16.62,5c-3.26.76-3.33,2.68-3,5.08s-1,6.09,3,6.09c12.86.2,25.75.07,38.88.07C504.65,316.39,504.33,308.68,504.78,301Z" style="fill: none"/>
    <path d="M450.92,313.67c-13.38-2.44-25.28-7.33-31-21.64v33.05c9.93,0,20-.28,30.07.12,4.67.18,5.23-2,5.46-5.61S455.14,314.43,450.92,313.67Z" style="fill: none"/>
    <path id="temple_shadow" data-name="temple shadow" d="M1317.69,690.86c.45-5.56-1.76-6.83-7-6.67-11.89.37-23.8-.07-35.7.19-4.37.09-5.46-1.42-5.4-5.49.17-13.36,0-26.73,0-40.09V538.48c0-18.76-.14-18.63-12.86-32.4l-105-114.15c-3.75-4.06-7.53-8.13-11.3-12.19l-1.54,1V387q-.08,98.47-.08,197v86c0,7.8-.06,7.84-8.13,7.9-6.94.08-13.86,0-20.8,0-7.77,0-7.71-.08-7.71-7.76q0-71.79.08-143.62c0-4.62-1.48-6.21-6.16-6-8.52.3-17.06.08-25.59.08-8.71,0-8.71,0-8.71-8.82V192c-2.61-.24-4.73-.58-6.78-.58-9.41-.14-18.81-.14-28.22-.14-12.25,0-24.5.09-36.74,0-4.64,0-6.85,1.63-6.38,6.58.38,3.84,0,7.73,0,11.61v459.9c0,8.46,0,8.45-8.79,8.52-3.73,0-7.47,0-11.18.22-1.7.1-3.37,1.24-5.08,1.18-2.37-.1-4.74-1.43-7-1.24-5.51.39-7-2.11-7.11-7.12-1.44-58.57-2.83-117.15-4.67-175.72-.49-15.41-2-30.84-4-46.16a42.31,42.31,0,0,0-14.52-27.26c-6.8-6.1-12-14.23-16.63-22.26-4.32-7.57-2.64-11.87,4-17.5,7.49-6.41,12.81-14.08,15-23.7,2.74-12.14-1.37-21.63-11.3-25.51-4.6-1.82-9.36-3.71-14.22-4.28-12.53-1.45-20.55-8.36-24.65-19.64a78.09,78.09,0,0,0-19.53-29.77c-7.9-7.6-12.06-16.73-10.84-28a23.5,23.5,0,0,0-1-10.91c-1.26-3.15-3.87-7-6.78-8-5-1.8-6.1-4.58-5.59-9.07.16-1.73,0-3.51,0-5.27,0-25.17.06-50.33-.1-75.5,0-1.8-1.39-4.88-2.55-5.08-3.76-.71-2.45,2.66-2.93,4.7-.65,2.68-.79,5.77-2.26,7.94a179,179,0,0,1-12,15.43c-8.47,10-21.34,12.93-32.1,19.25-2.47,1.44-5,2.83-7.45,4.25l.31,1.81c8.76.77,17.57,1.28,26.29,2.39,6.09.83,12.31,1.78,18,3.88,5.09,1.84,9,5.92,9.15,11.89s.11,12,0,17.95a9.16,9.16,0,0,1-1,3.94c-1.79,3.5-4.2,6.72-5.6,10.36-2.33,6.1-3.41,12.67-6.16,18.52-10,21.27-23.3,40.56-38.46,58.52-2.51,3-7.43,4.15-11.43,5.72-9.82,3.82-19.79,7.33-29.64,11.17a7.61,7.61,0,0,0-3.23,3.34c-7,12.09-3.27,25.27,9.06,31.43,11.32,5.64,16.42,22.75,4.91,32.42-17.27,14.48-27.63,33.74-28.91,56.86-.9,16.31-2.31,32.66-2.57,48.94-.82,49.79-1.23,99.58-1.73,149.38-.11,14.37,0,28.73,0,43.31H684.41V694q.12-77.1,0-154.18A31.48,31.48,0,0,0,683,531.1c-1.46-5.08-3.73-5.75-7.83-2.4a17.09,17.09,0,0,0-4.12,4.8c-4.16,7.47-6.95,15.33-6.95,24.07.09,23.57,0,47.16,0,70.75,0,2.86-.27,5.74-.47,9.34a43.48,43.48,0,0,1-3.93-2.36c-7-5.58-14.1-11.09-21-16.78-1-.89-2.24-2.68-2-3.87,1.14-7.72-4.89-11-8.9-15.58l-4.06,3.37c-.94-3.76-2-6.7-2.39-9.76q-2.65-19.09-5-38.22c-3.89-32.57-19.22-59.57-42.73-81.73-19.44-18.29-43.69-29.12-69-37.27-5.65-1.82-7-4-6.87-9.37.37-12.8.15-12.7,12.54-16.25a7.47,7.47,0,0,0,4.41-4.19c1-2.93.88-6.21,1.31-9.34,2.33-16.83,4.71-33.67,7-50.5.92-6.69,1.69-13.39,2.72-21H509.6V297.9c4.75-.37,8.34-.28,11.72-1,11.75-2.52,16.95-12.87,11.68-22.73-6.74-12.64-27.58-15.49-37.26-5.09a61.86,61.86,0,0,0-4.31,5.87c-17.09-12.43-35-14.34-54.14-6.49a6.08,6.08,0,0,1-4.94-.28c-12.19-8.34-24.1-6.1-36,.45-4.55,2.54-8.3,6-7.55,11.7s5.08,8.74,10.55,9.76c5,1,10.08,1.39,16.37,2.23v32.23c-1.82.1-5,.72-8.07.35-5.4-.65-7.11,1.33-7.11,6.65.12,22.35-.12,44.71-.21,67.07,0,9.74,0,9.74,9.32,12.38,12.2,3.47,12.1,3.47,12.2,15.93,0,3.6-1.47,5.19-4.39,6.84-15.78,9-31.69,17.77-47.1,27.33-18.48,11.47-31.07,28.59-42.57,46.43-4.74,7.33-9.69,14.8-12.7,22.86-7.12,19.07-7.88,39.18-7.48,59.28a10.69,10.69,0,0,1-3.61,8.78c-1.45,1.39-2,4-2.43,6.1a17.52,17.52,0,0,0,0,5.78c1.18,8.87-1.16,15.67-9.5,20.67-5.08,3-8.92,8-14.29,13.11-.18-4.07-.42-7-.42-9.92,0-23.59.22-47.17-.12-70.75a192.15,192.15,0,0,0-2.6-25.66c-1.16-7.63-6.49-10.73-14-8.13-3.32,1.15-8.62.14-8.56,6.52.28,27.1.21,54.2.52,81.29,0,4.52-1.17,6.49-5.84,6.42-11.91-.17-23.82-.3-35.71-.1-4.89.08-6.38-1.59-6.38-6.44q.15-142.83.15-285.65c0-21.34-.12-42.59,0-63.87,0-3.83-1.2-5.08-5.18-5.08-28.1.12-56.16,0-84.25.12-12.59.07-12.59.31-12.59,13V601.12c-.06,12.31-.15,24.63,0,37,0,3.61-1.09,5.08-4.87,5-6.74-.16-13.51,0-20.25,0-7.43,0-7.43,0-7.43-7.12V516.23h-55a28.44,28.44,0,0,1-6.38-.39H5.13v236.4H1311c2.65,0,5.32.19,8,.29l.06-51.75C1318.51,697.46,1317.42,694.11,1317.69,690.86ZM455.45,319.64c-.23,3.57-.79,5.79-5.46,5.61-10.06-.4-20.14-.12-30.07-.12V292c5.72,14.31,17.62,19.2,31,21.64C455.14,314.43,455.69,316,455.45,319.64ZM465.77,325c-4.07,0-2.85-3.71-3-6.1s-.18-4.33,3-5.08a101.57,101.57,0,0,0,16.62-5c7.48-3.17,12.26-9.23,15-16.94,5.24,1.14,7.68,3.65,7.38,9.14-.45,7.68-.13,15.38-.13,24h0c-13.13-.06-26,.07-38.88-.13Z" style="fill: #00a7d3"/>
    <path id="temple" d="M1312.55,693.92c.45-5.56-1.76-6.83-7-6.67-11.89.37-23.81-.07-35.71.19-4.36.09-5.45-1.43-5.39-5.49.16-13.37,0-26.73,0-40.09V541.53c0-18.75-.14-18.62-12.86-32.39q-52.48-57.09-105-114.16c-3.74-4.07-7.53-8.13-11.3-12.2l-1.53,1V390q-.08,98.47-.08,197v86c0,7.81-.06,7.85-8.13,7.91-6.93.08-13.86,0-20.79,0-7.78,0-7.71-.08-7.71-7.77q0-71.79.08-143.61c0-4.62-1.5-6.21-6.17-6-8.52.3-17,.08-25.58.08s-8.71,0-8.71-8.83V195.07c-2.61-.24-4.74-.58-6.8-.58-9.4-.15-18.8-.15-28.21-.15-12.2,0-24.49.1-36.73,0-4.64,0-6.85,1.64-6.39,6.59.38,3.83,0,7.73,0,11.59v459.9c0,8.47,0,8.46-8.78,8.53-3.73,0-7.47,0-11.18.22-1.71.1-3.38,1.23-5.08,1.17-2.36-.09-4.74-1.42-7-1.24-5.51.4-7-2.11-7.11-7.11-1.43-58.57-2.83-117.15-4.67-175.72-.48-15.41-2-30.85-4-46.16a42.41,42.41,0,0,0-14.53-27.27c-6.8-6.09-12-14.22-16.62-22.26-4.33-7.57-2.64-11.86,4-17.49,7.48-6.41,12.81-14.08,15-23.72,2.74-12.13-1.38-21.61-11.3-25.5-4.6-1.81-9.37-3.7-14.22-4.27-12.54-1.46-20.55-8.37-24.67-19.64a77.91,77.91,0,0,0-19.52-29.78c-7.89-7.59-12-16.73-10.83-28a23.79,23.79,0,0,0-1-10.92c-1.27-3.14-3.87-7-6.78-8s-4.52-2.47-5.23-4.37h-6.09a9.39,9.39,0,0,1-.94,2.87c-1.79,3.49-4.19,6.72-5.6,10.35-2.32,6.09-3.4,12.67-6.15,18.52-10,21.27-23.31,40.56-38.46,58.52-2.52,3-7.44,4.16-11.43,5.72-9.84,3.82-19.8,7.34-29.64,11.18a7.66,7.66,0,0,0-3.24,3.33c-7,12.1-3.26,25.28,9.06,31.44,11.32,5.64,16.43,22.74,4.91,32.42-17.28,14.48-27.62,33.74-28.91,56.85-.9,16.32-2.3,32.66-2.56,49-.82,49.79-1.24,99.58-1.73,149.37-.11,14.37,0,28.74,0,43.3H679.33v-6.65q.12-77.1,0-154.18a31.54,31.54,0,0,0-1.4-8.73c-1.47-5.08-3.73-5.74-7.84-2.39a17.26,17.26,0,0,0-4.07,4.81c-4.17,7.47-6.95,15.32-6.95,24.06.09,23.58,0,47.17,0,70.75,0,2.87-.28,5.73-.47,9.35a43.68,43.68,0,0,1-3.93-2.38c-7-5.58-14.1-11.07-21-16.76-1-.89-2.23-2.7-2-3.89,1.14-7.7-4.88-11-8.89-15.56l-4.06,3.36a98.94,98.94,0,0,1-2.38-9.75q-2.65-19.1-5-38.22c-3.91-32.53-19.23-59.53-42.7-81.75-19.44-18.3-43.69-29.12-69-37.26-5.65-1.82-7-4-6.86-9.38.35-12.8.14-12.7,12.52-16.26a7.52,7.52,0,0,0,4.42-4.19c1-2.92.88-6.21,1.31-9.33q3.5-25.26,7-50.52c.92-6.68,1.68-13.38,2.72-21H504.46V301c4.75-.37,8.33-.28,11.73-1,11.74-2.53,16.95-12.87,11.66-22.75-6.73-12.63-27.56-15.47-37.25-5.08a58.76,58.76,0,0,0-4.3,5.86c-17.09-12.42-35-14.34-54.14-6.49a6.08,6.08,0,0,1-4.94-.28c-12.14-8.34-24.1-6.1-36,.45-4.55,2.55-8.3,6-7.55,11.7s5.08,8.75,10.55,9.77c5,1,10.08,1.39,16.38,2.22v32.24c-1.83.1-5,.71-8.13.34-5.4-.64-7.06,1.33-7.06,6.65.12,22.35-.13,44.71-.21,67.06,0,9.76,0,9.76,9.32,12.39,12.2,3.48,12.08,3.48,12.2,15.93,0,3.6-1.48,5.19-4.39,6.84-15.8,9-31.7,17.77-47.1,27.34-18.48,11.46-31.08,28.57-42.58,46.43C318,517.9,313,525.35,310,533.42c-7.12,19.07-7.88,39.18-7.48,59.28a10.75,10.75,0,0,1-3.6,8.79c-1.46,1.39-2,4-2.44,6.09a18.08,18.08,0,0,0,0,5.78c1.18,8.88-1.15,15.68-9.49,20.67-5.08,3.05-8.93,8-14.29,13.11-.19-4.06-.44-7-.44-9.92,0-23.59.23-47.17-.11-70.75a192.15,192.15,0,0,0-2.6-25.66c-1.15-7.63-6.49-10.72-14-8.13-3.31,1.15-8.62.13-8.56,6.51.28,27.11.21,54.21.53,81.3,0,4.52-1.18,6.49-5.85,6.42-11.9-.17-23.81-.3-35.71-.1-4.89.08-6.38-1.6-6.38-6.44q.16-142.82.16-285.65c0-21.29-.13-42.58,0-63.87,0-3.82-1.21-5.08-5.19-5.08-28.1.11-56.17,0-84.24.11-12.59.07-12.59.32-12.59,13V604.17c-.08,12.32-.17,24.64,0,37,0,3.6-1.1,5.08-4.88,5-6.74-.17-13.5,0-20.24,0-7.43,0-7.43,0-7.43-7.12V519.28H22.25v.12H0V755.3H1305.84c2.65,0,5.32.18,8,.28l.07-51.75C1313.38,700.52,1312.29,697.16,1312.55,693.92ZM450.31,322.69c-.23,3.57-.78,5.79-5.45,5.61-10.06-.4-20.15-.12-30.09-.12v-33.1c5.73,14.31,17.62,19.2,31,21.64C450,317.47,450.55,319.07,450.31,322.69Zm10.31,5.38c-4.06,0-2.84-3.71-3-6.09s-.17-4.33,3-5.08a101.39,101.39,0,0,0,16.63-5c7.48-3.18,12.25-9.24,15-16.95,5.25,1.13,7.68,3.65,7.37,9.14-.43,7.67-.11,15.38-.11,24-13.14-.06-26,.08-38.9-.12Z" style="fill: #21214f"/>
    <path id="flag" d="M824.65,226.15c.16-1.75,0-3.53,0-5.27,0-25.17.06-50.34-.11-75.52,0-1.79-1.38-4.86-2.54-5.08-3.76-.7-2.46,2.68-2.93,4.71-.65,2.69-.79,5.77-2.27,7.94a177.3,177.3,0,0,1-12,15.45c-8.47,10-21.34,12.93-32.1,19.25-2.47,1.44-5,2.82-7.45,4.24l.31,1.81c8.77.78,17.57,1.28,26.3,2.4,6.09.82,12.31,1.77,18,3.87,5.09,1.85,8.94,5.92,9.15,11.89s.11,12,0,17.95a7.89,7.89,0,0,1-.1,1.08H825A10.33,10.33,0,0,1,824.65,226.15Z" style="fill: #21214f"/>
    <g id="window_2" data-name="window 2">
      <rect x="1172.01" y="550.9" width="19.64" height="15.87" style="fill: #00a7d3"/>
      <rect x="1205.57" y="550.9" width="19.64" height="15.87" style="fill: #ffb800"/>
      <rect x="1171.67" y="581.44" width="19.64" height="15.87" style="fill: #ffb800"/>
      <rect x="1206.26" y="581.44" width="19.64" height="15.87" style="fill: #00a7d3"/>
      <rect x="1172.01" y="615.36" width="19.64" height="15.87" style="fill: #00a7d3"/>
      <rect x="1205.57" y="615.36" width="19.64" height="15.87" style="fill: #ffb800"/>
      <rect x="1171.67" y="645.89" width="19.64" height="15.87" style="fill: #ffb800"/>
      <rect x="1206.26" y="645.89" width="19.64" height="15.87" style="fill: #00a7d3"/>
    </g>
    <g id="window_2-2" data-name="window 2">
      <rect x="1011.01" y="550.9" width="19.64" height="15.87" style="fill: #00a7d3"/>
      <rect x="1044.57" y="550.9" width="19.64" height="15.87" style="fill: #ffb800"/>
      <rect x="1010.67" y="581.44" width="19.64" height="15.87" style="fill: #ffb800"/>
      <rect x="1045.26" y="581.44" width="19.64" height="15.87" style="fill: #00a7d3"/>
      <rect x="1011.01" y="615.36" width="19.64" height="15.87" style="fill: #00a7d3"/>
      <rect x="1044.57" y="615.36" width="19.64" height="15.87" style="fill: #ffb800"/>
      <rect x="1010.67" y="645.89" width="19.64" height="15.87" style="fill: #ffb800"/>
      <rect x="1045.26" y="645.89" width="19.64" height="15.87" style="fill: #00a7d3"/>
    </g>
    <g id="window_1" data-name="window 1">
      <rect x="121.95" y="304.45" width="19.64" height="15.87" style="fill: #00a7d3"/>
      <rect x="155.51" y="304.45" width="19.64" height="15.87" style="fill: #ffb800"/>
      <rect x="121.61" y="334.97" width="19.64" height="15.87" style="fill: #ffb800"/>
      <rect x="156.2" y="334.97" width="19.64" height="15.87" style="fill: #00a7d3"/>
      <rect x="121.95" y="368.91" width="19.64" height="15.87" style="fill: #00a7d3"/>
      <rect x="155.51" y="368.91" width="19.64" height="15.87" style="fill: #ffb800"/>
      <rect x="121.61" y="399.44" width="19.64" height="15.87" style="fill: #ffb800"/>
      <rect x="156.2" y="399.44" width="19.64" height="15.87" style="fill: #00a7d3"/>
      <rect x="122.87" y="431.78" width="19.64" height="15.87" style="fill: #00a7d3"/>
      <rect x="156.42" y="431.78" width="19.64" height="15.87" style="fill: #ffb800"/>
      <rect x="122.52" y="462.32" width="19.64" height="15.87" style="fill: #ffb800"/>
      <rect x="157.11" y="462.32" width="19.64" height="15.87" style="fill: #00a7d3"/>
      <rect x="122.87" y="496.25" width="19.64" height="15.87" style="fill: #00a7d3"/>
      <rect x="156.42" y="496.25" width="19.64" height="15.87" style="fill: #ffb800"/>
      <rect x="122.52" y="526.79" width="19.64" height="15.87" style="fill: #ffb800"/>
      <rect x="157.11" y="526.79" width="19.64" height="15.87" style="fill: #00a7d3"/>
    </g>
    <g style="opacity: 0.7000000000000001">
      <path d="M887.25,336.16a27.17,27.17,0,0,1,3,8.18,40.49,40.49,0,0,1,.85,8.72,42.29,42.29,0,0,1-1,8.69,40.85,40.85,0,0,1-1.17,4.2c-.48,1.37-1,2.71-1.65,4,.18-1.45.49-2.85.7-4.26s.46-2.82.58-4.24c.07-.7.15-1.41.24-2.11l.15-2.11c.07-.7.11-1.41.12-2.11s.07-1.41.06-2.12a70.29,70.29,0,0,0-.39-8.45A61.57,61.57,0,0,0,887.25,336.16Z" style="fill: #00a7d3"/>
      <path d="M869.61,339.76a27,27,0,0,1,3,8.18,41.2,41.2,0,0,1,.86,8.72,42.91,42.91,0,0,1-1,8.69,40.29,40.29,0,0,1-1.16,4.21c-.48,1.37-1.06,2.71-1.66,4,.18-1.45.5-2.84.7-4.26s.46-2.81.58-4.23c.08-.71.16-1.41.25-2.11l.15-2.11c.06-.71.11-1.41.12-2.12s.06-1.41.06-2.11a72.32,72.32,0,0,0-.39-8.45A60.5,60.5,0,0,0,869.61,339.76Z" style="fill: #00a7d3"/>
      <path d="M851.69,343.9a25.08,25.08,0,0,1,3,8,39.42,39.42,0,0,1,.83,8.53,41.89,41.89,0,0,1-1.06,8.5,39,39,0,0,1-1.16,4.1c-.48,1.34-1,2.65-1.63,3.93.17-1.42.47-2.78.68-4.17l.3-2.07.16-1,.12-1c.07-.69.14-1.38.24-2.07s.1-1.38.15-2.06c.15-1.38.15-2.76.2-4.13a68.93,68.93,0,0,0-.37-8.25A53.34,53.34,0,0,0,851.69,343.9Z" style="fill: #00a7d3"/>
      <path d="M836.54,343.21a27.15,27.15,0,0,1,3,8.18,41.14,41.14,0,0,1,.86,8.72,42.3,42.3,0,0,1-1,8.69,40.8,40.8,0,0,1-1.16,4.2c-.48,1.38-1.06,2.71-1.65,4,.17-1.45.49-2.85.69-4.26s.46-2.82.58-4.23c.08-.71.16-1.41.25-2.11l.15-2.12c.06-.7.11-1.41.12-2.11s.06-1.41.06-2.12a72.42,72.42,0,0,0-.39-8.45A61.57,61.57,0,0,0,836.54,343.21Z" style="fill: #00a7d3"/>
      <path d="M821.85,344.56a27,27,0,0,1,3,8.18,41.14,41.14,0,0,1,.86,8.72,43,43,0,0,1-1,8.69,40.11,40.11,0,0,1-1.16,4.2c-.48,1.38-1.06,2.72-1.66,4,.18-1.45.5-2.85.7-4.26s.46-2.82.58-4.23c.07-.71.15-1.41.25-2.11l.15-2.12c.06-.7.11-1.41.12-2.11s.06-1.41.06-2.11a72.32,72.32,0,0,0-.39-8.45A60.25,60.25,0,0,0,821.85,344.56Z" style="fill: #00a7d3"/>
      <path d="M808.48,344.8c-.47,1.67-.88,3.28-1.24,4.9a44.81,44.81,0,0,0-.75,4.83,31.54,31.54,0,0,0-.14,4.86c0,1.65.33,3.26.53,5a12.86,12.86,0,0,1-2.07-4.78,15.84,15.84,0,0,1-.31-5.27,18.16,18.16,0,0,1,1.26-5.1A14.28,14.28,0,0,1,808.48,344.8Z" style="fill: #00a7d3"/>
      <path d="M793.3,342.27a51.65,51.65,0,0,0-2.85,8.4,39.43,39.43,0,0,0-1.14,8.62,34.75,34.75,0,0,0,.14,4.33,36.43,36.43,0,0,0,.73,4.28,48.16,48.16,0,0,0,2.87,8.37,25.22,25.22,0,0,1-4.37-7.94,28.47,28.47,0,0,1-1.11-4.48,32.23,32.23,0,0,1-.26-4.61,29.64,29.64,0,0,1,1.64-9A26.45,26.45,0,0,1,793.3,342.27Z" style="fill: #00a7d3"/>
      <path d="M773.78,339.47A53.92,53.92,0,0,0,771,348a41.6,41.6,0,0,0-1.07,8.72,40,40,0,0,0,.16,4.38,39.4,39.4,0,0,0,.75,4.32,47.59,47.59,0,0,0,2.91,8.46,25.37,25.37,0,0,1-4.41-8,28.61,28.61,0,0,1-1.13-4.51,34.34,34.34,0,0,1-.27-4.65,30.25,30.25,0,0,1,1.56-9.11A27.22,27.22,0,0,1,773.78,339.47Z" style="fill: #00a7d3"/>
      <path d="M757.93,337.34a53.12,53.12,0,0,0-2.79,8.47,40.7,40.7,0,0,0-1.09,8.69,37.19,37.19,0,0,0,.14,4.35,39.22,39.22,0,0,0,.75,4.31,47.92,47.92,0,0,0,2.89,8.42,25.43,25.43,0,0,1-4.39-8,28.77,28.77,0,0,1-1.13-4.5,34.14,34.14,0,0,1-.26-4.63,30,30,0,0,1,1.59-9.08A27.07,27.07,0,0,1,757.93,337.34Z" style="fill: #00a7d3"/>
      <path d="M736.9,369c6.83,1.37,13.67,2.62,20.55,3.65s13.76,2,20.65,2.81,13.8,1.5,20.73,1.95,13.84.86,20.77,1,13.86.07,20.78-.2,13.82-.87,20.71-1.64,13.71-2,20.48-3.45a183.46,183.46,0,0,0,20-5.69,149.53,149.53,0,0,1-19.69,7.11,191.06,191.06,0,0,1-20.53,4.35c-6.92,1.06-13.9,1.7-20.88,2.16s-14,.46-21,.36a337.09,337.09,0,0,1-41.75-3.61A307.71,307.71,0,0,1,736.9,369Z" style="fill: #00a7d3"/>
      <path d="M761,335c9.81,1.7,19.64,3,29.49,4.06,4.93.48,9.86,1,14.79,1.23s9.87.56,14.81.61a227.89,227.89,0,0,0,29.56-1.28c4.9-.6,9.78-1.33,14.62-2.34a142.19,142.19,0,0,0,14.36-3.85,97,97,0,0,1-14,5.28A133,133,0,0,1,850,342c-4.94.81-9.93,1.27-14.92,1.64s-10,.36-15,.32a232.63,232.63,0,0,1-29.84-2.53A203.17,203.17,0,0,1,761,335Z" style="fill: #00a7d3"/>
      <path d="M761,335c4.8,1.11,9.65,2,14.5,2.79s9.72,1.53,14.61,2.12a280.8,280.8,0,0,0,29.39,2.16c4.91.11,9.83.07,14.73-.14s9.8-.68,14.67-1.25a128.92,128.92,0,0,0,28.63-6.8l0,.07a117.51,117.51,0,0,1-14.06,4.54c-4.79,1.17-9.64,2.07-14.52,2.77s-9.79,1.08-14.71,1.35-9.86.29-14.78.21A268.82,268.82,0,0,1,790,340.47a273,273,0,0,1-29-5.41Z" style="fill: #fff"/>
      <path d="M736.91,369.15c6.77,1.6,13.61,2.9,20.47,4.07s13.73,2.26,20.63,3.13a383,383,0,0,0,41.57,3.06c6.95.15,13.9.11,20.84-.18s13.87-.91,20.76-1.79a182.77,182.77,0,0,0,40.42-9.87l0,.07a167.88,167.88,0,0,1-19.87,6.41C875,375.7,868.15,377,861.25,378s-13.84,1.53-20.8,1.91-13.92.4-20.88.28a379,379,0,0,1-41.63-3.28,383.61,383.61,0,0,1-41.05-7.64Z" style="fill: #fff"/>
      <path d="M757.93,337.34a32.83,32.83,0,0,0-1.84,4.11c-.28.7-.5,1.42-.75,2.12s-.42,1.44-.63,2.16a36.31,36.31,0,0,0-1.22,8.85,37,37,0,0,0,.18,4.46,38.58,38.58,0,0,0,.88,4.38,37.65,37.65,0,0,0,3.38,8.32l-1.19-1.93a15.38,15.38,0,0,1-1.09-2l-.92-2.08c-.31-.7-.48-1.44-.73-2.16a30.51,30.51,0,0,1-1-4.45,36.73,36.73,0,0,1-.25-4.57,33.81,33.81,0,0,1,1.42-9A31.65,31.65,0,0,1,757.93,337.34Z" style="fill: #fff"/>
      <path d="M773.78,339.47a33.63,33.63,0,0,0-1.84,4.12c-.29.69-.5,1.41-.76,2.12s-.41,1.44-.62,2.16a37.83,37.83,0,0,0-1,13.31,38.58,38.58,0,0,0,.88,4.38,37.17,37.17,0,0,0,3.38,8.32L772.59,372a14.26,14.26,0,0,1-1.09-2l-.93-2.09c-.31-.69-.48-1.44-.72-2.15a29.66,29.66,0,0,1-1-4.46,36.47,36.47,0,0,1-.25-4.56,34.21,34.21,0,0,1,1.41-9A32.23,32.23,0,0,1,773.78,339.47Z" style="fill: #fff"/>
      <path d="M793.3,342.27a33.57,33.57,0,0,0-1.83,4.12c-.29.69-.51,1.41-.76,2.12s-.42,1.44-.63,2.16a35.74,35.74,0,0,0-1.21,8.84,35.1,35.1,0,0,0,.18,4.47,36.51,36.51,0,0,0,.88,4.38,37.14,37.14,0,0,0,3.37,8.32l-1.18-1.93a15.45,15.45,0,0,1-1.1-2l-.92-2.09c-.31-.69-.48-1.44-.73-2.15a29.63,29.63,0,0,1-1-4.46,36.47,36.47,0,0,1-.25-4.56,34.21,34.21,0,0,1,1.41-9A32.55,32.55,0,0,1,793.3,342.27Z" style="fill: #fff"/>
      <path d="M808.76,344.25c-.34.82-.67,1.64-.93,2.48s-.55,1.68-.77,2.53a35,35,0,0,0-1,5.16,26.21,26.21,0,0,0-.07,5.24l.14,1.3.25,1.3c.1.88.46,1.69.64,2.57a17.42,17.42,0,0,1-1.6-5.1,19.86,19.86,0,0,1-.1-5.39,24.89,24.89,0,0,1,1.16-5.25A22.44,22.44,0,0,1,808.76,344.25Z" style="fill: #fff"/>
      <path d="M821.48,344.56a32.89,32.89,0,0,1,2.51,8.26,48,48,0,0,1,.71,8.63c0,.73-.07,1.45-.1,2.17s-.08,1.44-.17,2.16l-.24,2.15c-.12.72-.25,1.43-.38,2.14-.23,1.42-.65,2.81-1,4.21s-.89,2.74-1.35,4.1a84.32,84.32,0,0,0,1.76-8.41,56.74,56.74,0,0,0,.71-8.53,54.14,54.14,0,0,0-.53-8.53A43.62,43.62,0,0,0,821.48,344.56Z" style="fill: #fff"/>
      <path d="M836.53,343.56a32.5,32.5,0,0,1,2.52,8.26,48,48,0,0,1,.71,8.63c0,.73-.07,1.45-.1,2.17s-.08,1.44-.17,2.16l-.24,2.15c-.12.72-.25,1.43-.38,2.14-.23,1.42-.65,2.81-1,4.21s-.89,2.74-1.36,4.1A81.63,81.63,0,0,0,838.3,369a56.74,56.74,0,0,0,.71-8.53,54.14,54.14,0,0,0-.53-8.53A42.91,42.91,0,0,0,836.53,343.56Z" style="fill: #fff"/>
      <path d="M851.55,343.56a32.89,32.89,0,0,1,2.51,8.26,48,48,0,0,1,.71,8.63c0,.73-.07,1.45-.1,2.17s-.08,1.44-.17,2.16l-.24,2.15c-.12.72-.25,1.43-.38,2.14-.23,1.42-.65,2.81-1,4.21s-.89,2.74-1.35,4.1a84.32,84.32,0,0,0,1.76-8.41,56.74,56.74,0,0,0,.71-8.53,54.14,54.14,0,0,0-.53-8.53A43.62,43.62,0,0,0,851.55,343.56Z" style="fill: #fff"/>
      <path d="M869.61,339.76a32.5,32.5,0,0,1,2.52,8.26,48.06,48.06,0,0,1,.71,8.64c0,.72-.07,1.44-.1,2.16s-.08,1.45-.17,2.16l-.24,2.16c-.12.71-.25,1.42-.38,2.13-.23,1.43-.65,2.81-1,4.21s-.89,2.75-1.36,4.1a81.08,81.08,0,0,0,1.77-8.41,56.61,56.61,0,0,0,.71-8.52,54.2,54.2,0,0,0-.53-8.54A43.25,43.25,0,0,0,869.61,339.76Z" style="fill: #fff"/>
      <path d="M886.25,336.16a32.89,32.89,0,0,1,2.51,8.26,48,48,0,0,1,.71,8.63c0,.72-.06,1.44-.09,2.17s-.08,1.44-.18,2.16l-.24,2.15c-.11.71-.24,1.42-.38,2.13-.22,1.43-.65,2.82-1,4.22s-.88,2.74-1.35,4.1a82.14,82.14,0,0,0,1.76-8.41,58.09,58.09,0,0,0,.72-8.53,54.08,54.08,0,0,0-.54-8.53A42.88,42.88,0,0,0,886.25,336.16Z" style="fill: #fff"/>
    </g>
    <g>
      <g style="opacity: 0.7000000000000001">
        <path d="M408.45,336.88c8-.62,16-1,23.94-1.29,4-.16,8-.24,12-.37l12-.22c4-.07,8-.06,12-.09s8,0,12,0c8,0,16,.16,23.94.36l1.82,0-.22,1.73-1.1,8.45-1.19,8.44-1.29,8.43c-.45,2.81-.91,5.61-1.43,8.42.05-2.85.16-5.7.28-8.54l.41-8.52.52-8.51.6-8.5,1.6,1.77c-8,.2-16,.34-23.94.36-4,0-8,.05-12,0s-8,0-12-.1l-12-.22c-4-.13-8-.21-12-.37C424.41,337.87,416.43,337.49,408.45,336.88Z" style="fill: #fff"/>
      </g>
      <g style="opacity: 0.6000000000000001">
        <path d="M408.45,453.58c-2,.78-4,1.66-5.89,2.6s-3.86,1.87-5.75,2.88c-3.77,2-7.5,4.12-11.09,6.44a163,163,0,0,0-20.52,15.23A152,152,0,0,0,347.48,499a137.14,137.14,0,0,0-14.15,21l-1.52,2.79-.76,1.4-.67,1.43-2.7,5.75c-1.55,3.94-3.22,7.84-4.44,11.9-1.46,4-2.4,8.13-3.52,12.23-.47,2.07-.83,4.16-1.26,6.24l-.64,3.13c-.19,1-.31,2.1-.47,3.15a209.52,209.52,0,0,0-.81,51.18,168.35,168.35,0,0,1-2.28-51.59c.12-1.08.2-2.17.36-3.24l.53-3.21c.38-2.14.71-4.29,1.15-6.42,1.05-4.22,1.93-8.49,3.33-12.62,1.18-4.2,2.9-8.22,4.45-12.29l2.74-5.94.69-1.48c.24-.49.51-1,.77-1.45l1.55-2.88a137.07,137.07,0,0,1,14.74-21.55,141.91,141.91,0,0,1,18.63-18.22c1.68-1.38,3.43-2.66,5.14-4s3.52-2.52,5.3-3.76c3.63-2.37,7.29-4.69,11.08-6.77s7.66-4,11.62-5.75A99.48,99.48,0,0,1,408.45,453.58Z" style="fill: #fff"/>
      </g>
      <g style="opacity: 0.6000000000000001">
        <path d="M494.36,448.34a107,107,0,0,1,12.71,4.47c4.15,1.73,8.23,3.66,12.21,5.78A152.36,152.36,0,0,1,542,473.28a144.46,144.46,0,0,1,19.79,18.6A141.61,141.61,0,0,1,577.62,514l1.65,3c.56,1,1.12,2,1.58,3l2.94,6.15c.9,2.09,1.72,4.21,2.57,6.32a66.07,66.07,0,0,1,2.27,6.42l1,3.24c.17.54.36,1.08.5,1.62l.42,1.65,1.66,6.6c.52,2.21.86,4.46,1.28,6.68l.59,3.34c.2,1.12.27,2.25.41,3.38a173,173,0,0,1-2,53.8,212.06,212.06,0,0,0-1.06-53.36c-.17-1.1-.28-2.2-.51-3.29l-.7-3.25c-.47-2.16-.84-4.35-1.39-6.5l-1.76-6.4-.43-1.6c-.16-.53-.36-1.05-.53-1.57L585,540.13c-1.32-4.22-3.13-8.26-4.81-12.34l-2.9-6c-.46-1-1-2-1.56-2.92L574.15,516a147.65,147.65,0,0,0-34.08-40.33,171.91,171.91,0,0,0-21.75-15.41c-3.8-2.34-7.72-4.46-11.71-6.48q-3-1.51-6.05-2.88C498.52,450,496.46,449.12,494.36,448.34Z" style="fill: #fff"/>
      </g>
      <g style="opacity: 0.6000000000000001">
        <path d="M804.34,421.73c.82,11.25,1.26,22.5,1.55,33.75.19,5.62.23,11.25.34,16.87l.11,16.88-.11,16.87c-.11,5.63-.15,11.25-.33,16.88-.3,11.25-.73,22.5-1.56,33.75-.84-11.25-1.27-22.5-1.56-33.75-.19-5.63-.23-11.25-.34-16.88l-.1-16.87.11-16.88c.11-5.62.15-11.25.33-16.87C803.08,444.23,803.51,433,804.34,421.73Z" style="fill: #fff"/>
      </g>
      <g style="opacity: 0.6000000000000001">
        <path d="M771.35,424.93c.83,16.62,1.26,33.25,1.56,49.87.18,8.31.22,16.63.33,24.94l.11,24.94-.1,24.93c-.12,8.32-.15,16.63-.34,24.94-.29,16.63-.72,33.25-1.56,49.88-.83-16.63-1.27-33.25-1.56-49.88-.18-8.31-.22-16.62-.33-24.94l-.11-24.93.11-24.94c.11-8.31.15-16.63.34-24.94C770.09,458.18,770.52,441.55,771.35,424.93Z" style="fill: #fff"/>
      </g>
      <g style="opacity: 0.6000000000000001">
        <path d="M864.59,429.68c.83,16.62,1.26,33.25,1.55,49.87.19,8.31.23,16.63.34,24.94l.11,24.94-.11,24.93c-.11,8.32-.14,16.63-.33,24.94-.29,16.63-.73,33.25-1.56,49.88-.83-16.63-1.27-33.25-1.56-49.88-.19-8.31-.22-16.62-.33-24.94l-.11-24.93.11-24.94c.11-8.31.15-16.63.33-24.94C863.33,462.93,863.76,446.3,864.59,429.68Z" style="fill: #fff"/>
      </g>
      <g style="opacity: 0.6000000000000001">
        <path d="M830.48,422.88c.83,11.88,1.26,23.76,1.56,35.65.18,5.94.22,11.88.33,17.82l.11,17.83-.1,17.82c-.11,5.94-.15,11.88-.34,17.83-.29,11.88-.72,23.76-1.56,35.65-.83-11.89-1.26-23.77-1.56-35.65-.18-6-.22-11.89-.33-17.83l-.1-17.82.11-17.83c.1-5.94.15-11.88.33-17.82C829.22,446.64,829.66,434.76,830.48,422.88Z" style="fill: #fff"/>
      </g>
    </g>
  </g>
</svg>
