<svg id="Layer_1" data-name="Layer 1" xmlns="http://www.w3.org/2000/svg" viewBox="0 0 364.43 47.23"><title>schedule</title><rect x="199.49" y="25.85" width="10.63" height="1.27" transform="translate(-141.4 150.95) rotate(-45)" style="fill:#213065"/><rect x="196.61" y="24.9" width="11.1" height="1.27" transform="translate(-141.49 148.81) rotate(-45)" style="fill:#213065"/><rect x="193.9" y="23.95" width="11.26" height="1.27" transform="translate(-141.59 146.67) rotate(-45)" style="fill:#213065"/><rect x="191.21" y="23.05" width="11.26" height="1.27" transform="translate(-141.75 144.5) rotate(-45)" style="fill:#213065"/><rect x="188.81" y="22.02" width="10.95" height="1.27" transform="translate(-141.76 142.39) rotate(-45)" style="fill:#213065"/><rect x="186.02" y="41.97" width="9.53" height="1.27" transform="translate(-156.89 145.76) rotate(-45)" style="fill:#213065"/><rect x="183.67" y="40.73" width="9.52" height="1.27" transform="translate(-156.71 143.74) rotate(-45)" style="fill:#213065"/><rect x="181.75" y="39.22" width="9.21" height="1.27" transform="translate(-156.25 141.82) rotate(-45)" style="fill:#213065"/><rect x="207.26" y="9.38" width="8.1" height="1.27" transform="translate(-127.83 150.74) rotate(-45)" style="fill:#213065"/><rect x="204.86" y="7.64" width="9.2" height="1.27" transform="translate(-127.15 148.91) rotate(-45)" style="fill:#213065"/><path d="M195.4,17.14a3.19,3.19,0,0,1-.89-2.32A4.36,4.36,0,0,1,196,11.35a6.68,6.68,0,0,1,4.49-1.29,9.92,9.92,0,0,1,3.11.46l.4.14L210.67,4a20.3,20.3,0,0,0-6.19-2,25.52,25.52,0,0,0-4.14-.33,18.44,18.44,0,0,0-6.75,1.15,15.21,15.21,0,0,0-5,3.1,13.11,13.11,0,0,0-3.08,4.4,12.91,12.91,0,0,0-1.05,5.08,14.64,14.64,0,0,0,.89,5.44,11.1,11.1,0,0,0,2.33,3.68A14,14,0,0,0,189,25.63l7.55-7.55A6.89,6.89,0,0,1,195.4,17.14Z" transform="translate(-182.65 -1.63)" style="fill:#213065"/><path d="M211.91,25.13a12.72,12.72,0,0,0-1.86-1.5l-7.46,7.46a6.37,6.37,0,0,1,1.56,1.27A3.88,3.88,0,0,1,205,35a4.89,4.89,0,0,1-1.62,4.08,7.1,7.1,0,0,1-4.53,1.29,10.6,10.6,0,0,1-3.75-.61c-.3-.11-.59-.23-.87-.35l-6.73,6.73a24.15,24.15,0,0,0,2.31,1,25.21,25.21,0,0,0,4.32,1.25,22.36,22.36,0,0,0,4.4.45,19.49,19.49,0,0,0,7-1.19,15.12,15.12,0,0,0,5.21-3.27A14.18,14.18,0,0,0,214,39.53a16.07,16.07,0,0,0,1.11-6,12.43,12.43,0,0,0-.89-4.94A11,11,0,0,0,211.91,25.13Z" transform="translate(-182.65 -1.63)" style="fill:#d22b27"/><rect x="258.84" y="11.01" width="6.11" height="1.27" transform="translate(-114.19 186.96) rotate(-45)" style="fill:#213065"/><rect x="255.86" y="8.85" width="9.2" height="1.27" transform="translate(-113.07 185.33) rotate(-45)" style="fill:#213065"/><rect x="253.46" y="7.51" width="9.52" height="1.27" transform="translate(-112.78 183.35) rotate(-45)" style="fill:#213065"/><rect x="250.65" y="6.41" width="10.15" height="1.27" transform="translate(-112.73 181.26) rotate(-45)" style="fill:#213065"/><path d="M259.76,36.53a2.22,2.22,0,0,0-.76-.14,2.13,2.13,0,0,0-.92.21,3.55,3.55,0,0,0-.82.52,13.67,13.67,0,0,1-1.89,1.38,10,10,0,0,1-2,.9,10.71,10.71,0,0,1-2.23.5,24.22,24.22,0,0,1-2.67.14,11.56,11.56,0,0,1-4.76-1,11.22,11.22,0,0,1-1.75-1l-7.11,7.11a21.21,21.21,0,0,0,3.49,1.89,23.56,23.56,0,0,0,9.43,1.8A24.44,24.44,0,0,0,257.75,47a17.67,17.67,0,0,0,7-5.5L260.49,37A2.09,2.09,0,0,0,259.76,36.53Z" transform="translate(-182.65 -1.63)" style="fill:#d22b27"/><path d="M237.23,19.1a13.59,13.59,0,0,1,2.69-4.64,11.63,11.63,0,0,1,4.14-3,13.41,13.41,0,0,1,5.33-1c.39,0,.76,0,1.12,0l7.43-7.42a23.21,23.21,0,0,0-3.58-1,24.81,24.81,0,0,0-4.91-.46,26.65,26.65,0,0,0-9.8,1.74A22.44,22.44,0,0,0,232,8.25a22.29,22.29,0,0,0-5,7.47,24.91,24.91,0,0,0-1.78,9.5,27.79,27.79,0,0,0,1.45,9.08l9.55-9.55A17.88,17.88,0,0,1,237.23,19.1Z" transform="translate(-182.65 -1.63)" style="fill:#213065"/><rect x="231.33" y="39.38" width="10.31" height="1.27" transform="translate(-141.68 177.31) rotate(-45)" style="fill:#213065"/><rect x="229.46" y="37.42" width="10.79" height="1.27" transform="translate(-140.77 175.59) rotate(-45)" style="fill:#213065"/><rect x="227.82" y="35.23" width="11.26" height="1.27" transform="translate(-139.63 173.96) rotate(-45)" style="fill:#213065"/><rect x="226.36" y="32.71" width="12.05" height="1.27" transform="translate(-138.16 172.47) rotate(-45)" style="fill:#213065"/><rect x="225.08" y="29.85" width="13.17" height="1.27" transform="translate(-136.35 171.11) rotate(-45)" style="fill:#213065"/><polygon points="101.86 46.72 101.86 42.52 97.66 46.72 101.86 46.72" style="fill:#d22b27"/><polygon points="101.86 19.82 101.86 0.51 91.08 0.51 91.08 34.27 105.53 19.82 101.86 19.82" style="fill:#213065"/><rect x="294.12" y="19.88" width="23.38" height="1.27" transform="translate(-107.59 220.62) rotate(-45)" style="fill:#213065"/><rect x="276.61" y="44.43" width="9.28" height="1.27" transform="translate(-132.14 210.45) rotate(-45)" style="fill:#213065"/><rect x="301.02" y="13.43" width="15.29" height="1.27" transform="translate(-102.19 220.75) rotate(-45)" style="fill:#213065"/><rect x="292.42" y="24.44" width="10.47" height="1.27" transform="translate(-113.2 216.19) rotate(-45)" style="fill:#213065"/><rect x="272.28" y="42.64" width="14.35" height="1.27" transform="translate(-131.4 208.65) rotate(-45)" style="fill:#213065"/><rect x="301.04" y="9.83" width="15.27" height="1.27" transform="translate(-99.64 219.71) rotate(-45)" style="fill:#213065"/><rect x="288.85" y="24.43" width="10.47" height="1.27" transform="translate(-114.24 213.66) rotate(-45)" style="fill:#213065"/><rect x="271.49" y="39.37" width="15.3" height="1.27" transform="translate(-129.18 207.47) rotate(-45)" style="fill:#213065"/><rect x="301.18" y="6.57" width="14.34" height="1.27" transform="translate(-97.43 218.52) rotate(-45)" style="fill:#213065"/><rect x="285.26" y="24.43" width="10.47" height="1.27" transform="translate(-115.29 211.12) rotate(-45)" style="fill:#213065"/><rect x="271.49" y="35.78" width="15.3" height="1.27" transform="translate(-126.64 206.42) rotate(-45)" style="fill:#213065"/><rect x="301.92" y="4.78" width="9.27" height="1.27" transform="translate(-96.68 216.74) rotate(-45)" style="fill:#213065"/><rect x="270.23" y="29.16" width="23.87" height="1.27" transform="translate(-121.08 206.62) rotate(-45)" style="fill:#213065"/><polygon points="117.2 27.18 120.64 27.18 120.64 46.72 131.42 46.72 131.42 12.96 117.2 27.18" style="fill:#d22b27"/><polygon points="120.64 0.51 120.64 4.71 124.84 0.51 120.64 0.51" style="fill:#213065"/><polygon points="155.08 8.98 164.52 8.98 172.77 0.73 144.3 0.73 144.3 29.2 155.08 18.42 155.08 8.98" style="fill:#213065"/><rect x="354.63" y="9.11" width="2.42" height="1.27" transform="translate(-85.32 252.85) rotate(-45)" style="fill:#213065"/><rect x="350.3" y="7.32" width="7.5" height="1.27" transform="translate(-84.58 251.06) rotate(-45)" style="fill:#213065"/><rect x="346.1" y="5.85" width="11.66" height="1.27" transform="translate(-84.15 249.13) rotate(-45)" style="fill:#213065"/><polygon points="169.61 27.69 169.61 22.92 164.84 27.69 169.61 27.69" style="fill:#d22b27"/><polygon points="155.08 37.45 145.58 46.95 174.05 46.95 174.05 38.7 155.08 38.7 155.08 37.45" style="fill:#d22b27"/><rect x="343.16" y="24.78" width="10.66" height="1.27" transform="translate(-98.55 252.24) rotate(-45)" style="fill:#213065"/><rect x="324.71" y="40.92" width="15.3" height="1.27" transform="translate(-114.69 245.56) rotate(-45)" style="fill:#213065"/><rect x="339.51" y="24.63" width="11.1" height="1.27" transform="translate(-99.45 249.77) rotate(-45)" style="fill:#213065"/><rect x="324.71" y="37.33" width="15.3" height="1.27" transform="translate(-112.14 244.52) rotate(-45)" style="fill:#213065"/><rect x="323.13" y="29.93" width="26.09" height="1.27" transform="translate(-105.8 245.04) rotate(-45)" style="fill:#213065"/><rect x="323.87" y="28.13" width="21.02" height="1.27" transform="translate(-105.05 243.24) rotate(-45)" style="fill:#213065"/><rect x="324.61" y="26.34" width="15.94" height="1.27" transform="translate(-104.31 241.45) rotate(-45)" style="fill:#213065"/><rect x="373.3" y="43.31" width="11.82" height="1.27" transform="translate(-102.66 279.39) rotate(-45)" style="fill:#213065"/><rect x="369.24" y="42.19" width="14.99" height="1.27" transform="translate(-102.59 277.31) rotate(-45)" style="fill:#213065"/><rect x="369.02" y="38.67" width="15.31" height="1.27" transform="translate(-100.13 276.22) rotate(-45)" style="fill:#213065"/><rect x="369.02" y="35.08" width="15.31" height="1.27" transform="translate(-97.59 275.17) rotate(-45)" style="fill:#213065"/><rect x="369.02" y="31.49" width="15.31" height="1.27" transform="translate(-95.05 274.12) rotate(-45)" style="fill:#213065"/><rect x="400.27" y="18.48" width="12.69" height="1.27" transform="translate(-77.07 291.49) rotate(-45)" style="fill:#213065"/><rect x="400" y="15.79" width="11.42" height="1.27" transform="translate(-75.43 290.07) rotate(-45)" style="fill:#213065"/><rect x="399.38" y="13.3" width="10.47" height="1.27" transform="translate(-73.98 288.58) rotate(-45)" style="fill:#213065"/><rect x="398.24" y="11.17" width="9.83" height="1.27" transform="translate(-72.91 286.91) rotate(-45)" style="fill:#213065"/><rect x="396.61" y="9.37" width="9.52" height="1.27" transform="translate(-72.17 285.11) rotate(-45)" style="fill:#213065"/><rect x="394.6" y="7.93" width="9.23" height="1.27" transform="translate(-71.78 283.17) rotate(-45)" style="fill:#213065"/><path d="M411.32,15.44l-9.12,9.12c0,.15,0,.29,0,.44a20.31,20.31,0,0,1-.89,6.22,13.19,13.19,0,0,1-2.55,4.68,11.1,11.1,0,0,1-4.08,3,14,14,0,0,1-5.49,1h-2.33l-8.24,8.24h10.57A26.82,26.82,0,0,0,399,46.4a22.17,22.17,0,0,0,7.57-4.83,21.78,21.78,0,0,0,4.87-7.32A24.33,24.33,0,0,0,413.19,25a24.16,24.16,0,0,0-1.72-9.21C411.42,15.67,411.36,15.56,411.32,15.44Z" transform="translate(-182.65 -1.63)" style="fill:#d22b27"/><path d="M382.05,10.16h7.16a13.78,13.78,0,0,1,5.49,1,11.73,11.73,0,0,1,1.23.61l6.49-6.5A24.77,24.77,0,0,0,399,3.65a26.61,26.61,0,0,0-9.82-1.74H371.26V36.47l10.79-10.79Z" transform="translate(-182.65 -1.63)" style="fill:#213065"/><rect x="449.8" y="16.93" width="15.16" height="1.27" transform="translate(-61.11 326.93) rotate(-45)" style="fill:#213065"/><rect x="449.8" y="13.34" width="15.16" height="1.27" transform="translate(-58.55 325.9) rotate(-45)" style="fill:#213065"/><rect x="449.8" y="9.75" width="15.16" height="1.27" transform="translate(-56.03 324.83) rotate(-45)" style="fill:#213065"/><rect x="449.94" y="6.5" width="14.22" height="1.27" transform="translate(-53.83 323.64) rotate(-45)" style="fill:#213065"/><rect x="450.68" y="4.7" width="9.14" height="1.27" transform="translate(-53.08 321.85) rotate(-45)" style="fill:#213065"/><path d="M433.75,2.1H423V29.48a22.7,22.7,0,0,0,.68,5.64l10-10Z" transform="translate(-182.65 -1.63)" style="fill:#213065"/><polygon points="269.37 0.48 269.37 5.19 274.08 0.48 269.37 0.48" style="fill:#213065"/><path d="M452,25.84v3.64a14.25,14.25,0,0,1-.62,4.36,9,9,0,0,1-1.79,3.25,7.9,7.9,0,0,1-2.87,2,10.82,10.82,0,0,1-7.71,0l-.2-.1-7,7a19.09,19.09,0,0,0,2.76,1.35,24.77,24.77,0,0,0,16.59,0,17.71,17.71,0,0,0,6.25-4,17.5,17.5,0,0,0,3.95-6.12,21.38,21.38,0,0,0,1.38-7.8V15.12Z" transform="translate(-182.65 -1.63)" style="fill:#d22b27"/><rect x="430.11" y="41.84" width="10.04" height="1.27" transform="translate(-85.25 318.48) rotate(-45)" style="fill:#213065"/><rect x="427.99" y="40.31" width="10.15" height="1.27" transform="translate(-84.76 316.59) rotate(-45)" style="fill:#213065"/><rect x="426.15" y="38.41" width="10.47" height="1.27" transform="translate(-83.91 314.84) rotate(-45)" style="fill:#213065"/><rect x="424.47" y="36.1" width="11.26" height="1.27" transform="translate(-82.65 313.26) rotate(-45)" style="fill:#213065"/><rect x="423.05" y="33.3" width="12.53" height="1.27" transform="translate(-80.9 311.89) rotate(-45)" style="fill:#213065"/><rect x="421.83" y="30.21" width="13.96" height="1.27" transform="translate(-78.87 310.62) rotate(-45)" style="fill:#213065"/><rect x="474.69" y="40.18" width="15.16" height="1.27" transform="translate(-70.26 351.35) rotate(-45)" style="fill:#213065"/><rect x="474.69" y="36.59" width="15.16" height="1.27" transform="translate(-67.72 350.3) rotate(-45)" style="fill:#213065"/><rect x="474.69" y="33" width="15.16" height="1.27" transform="translate(-65.18 349.25) rotate(-45)" style="fill:#213065"/><rect x="474.69" y="29.42" width="15.16" height="1.27" transform="translate(-62.64 348.19) rotate(-45)" style="fill:#213065"/><rect x="474.69" y="25.83" width="15.16" height="1.27" transform="translate(-60.11 347.14) rotate(-45)" style="fill:#213065"/><polygon points="304.98 0.51 294.26 0.51 294.26 28.02 304.98 17.3 304.98 0.51" style="fill:#213065"/><polygon points="304.98 36.34 294.6 46.72 322.11 46.72 322.11 38.16 304.98 38.16 304.98 36.34" style="fill:#d22b27"/><polygon points="345.01 8.98 354.45 8.98 362.7 0.73 334.23 0.73 334.23 29.2 345.01 18.42 345.01 8.98" style="fill:#213065"/><rect x="544.57" y="9.11" width="2.42" height="1.27" transform="translate(-29.69 387.15) rotate(-45)" style="fill:#213065"/><rect x="540.24" y="7.32" width="7.5" height="1.27" transform="translate(-28.95 385.36) rotate(-45)" style="fill:#213065"/><rect x="536.04" y="5.85" width="11.66" height="1.27" transform="translate(-28.53 383.43) rotate(-45)" style="fill:#213065"/><polygon points="359.54 27.69 359.54 22.92 354.77 27.69 359.54 27.69" style="fill:#d22b27"/><polygon points="345.01 37.45 335.51 46.95 363.98 46.95 363.98 38.7 345.01 38.7 345.01 37.45" style="fill:#d22b27"/><rect x="533.1" y="24.78" width="10.66" height="1.27" transform="translate(-42.92 386.54) rotate(-45)" style="fill:#213065"/><rect x="514.64" y="40.92" width="15.3" height="1.27" transform="translate(-59.06 379.86) rotate(-45)" style="fill:#213065"/><rect x="529.44" y="24.63" width="11.1" height="1.27" transform="translate(-43.82 384.07) rotate(-45)" style="fill:#213065"/><rect x="514.64" y="37.33" width="15.3" height="1.27" transform="translate(-56.5 378.83) rotate(-45)" style="fill:#213065"/><rect x="513.06" y="29.93" width="26.09" height="1.27" transform="translate(-50.17 379.34) rotate(-45)" style="fill:#213065"/><rect x="513.8" y="28.13" width="21.02" height="1.27" transform="translate(-49.42 377.54) rotate(-45)" style="fill:#213065"/><rect x="514.55" y="26.34" width="15.94" height="1.27" transform="translate(-48.68 375.75) rotate(-45)" style="fill:#213065"/></svg>