<svg xmlns="http://www.w3.org/2000/svg" xmlns:xlink="http://www.w3.org/1999/xlink" viewBox="0 0 1000 1000" style="">
  <defs>
    <linearGradient id="linear-gradient" x1="503.89" y1="564.45" x2="534.2" y2="168.82" gradientUnits="userSpaceOnUse">
      <stop offset="0" stop-color="#4e62c0"></stop>
      <stop offset="0.52" stop-color="#5973cf"></stop>
      <stop offset="0.98" stop-color="#7e9ffc"></stop>
    </linearGradient>
    <linearGradient id="linear-gradient-2" x1="499.48" y1="740.58" x2="325.17" y2="293.43" gradientUnits="userSpaceOnUse">
      <stop offset="0" stop-color="#6639c0"></stop>
      <stop offset="1" stop-color="#6382dd"></stop>
    </linearGradient>
    <linearGradient id="linear-gradient-3" x1="492.15" y1="729.39" x2="725.58" y2="345.9" gradientUnits="userSpaceOnUse">
      <stop offset="0" stop-color="#4f2ba5"></stop>
      <stop offset="1" stop-color="#6382dd"></stop>
    </linearGradient>
  </defs>
  <title>UH</title>
  <g id="Layer_2" data-name="Layer 2">
    <g>
      <path d="M302.69,731.8h15.9v32.86c0,10.7,2.78,14.58,9.06,14.58s9.25-3.88,9.25-14.58V731.8h15.35v31c0,20.49-7.77,30.09-24.6,30.09s-25-9.6-25-30.09Z" style="fill: #6639c0" class="esGnfKnX_0"></path>
      <path d="M365.93,758h-6.1V746.2l7-.56,1.85-12h13.13v12h10.54V758H381.83v15.78c0,5.08,2.59,6.74,5.55,6.74a13.3,13.3,0,0,0,4.07-.74l2.4,11.45a34.88,34.88,0,0,1-10.91,1.66c-12,0-17-7.57-17-18.83Z" style="fill: #6639c0" class="esGnfKnX_1"></path>
      <path d="M400.88,727.55h15.53V761.7h.37l12.76-16.06h17.19l-16.45,19.2,17.38,26.95h-17.2l-9.24-16.43-4.81,5.36v11.07H400.88Z" style="fill: #6639c0" class="esGnfKnX_2"></path>
      <path d="M476.13,761.89c-.36-3.32-2.4-4.8-6.47-4.8-3.33,0-6.84,1.29-11.65,3.88l-5.54-10.34c6.47-3.88,13.13-6.09,20.34-6.09,12,0,19.23,6.46,19.23,21.59v25.66h-13L478,787.36h-.37c-3.69,3.33-7.76,5.54-12.75,5.54-8.69,0-13.87-6.64-13.87-14.21C451,769.09,458.38,763.73,476.13,761.89Zm-5.73,18.83c2.59,0,4.07-1.29,5.73-3.14V771.3c-7.58,1.11-10,3.51-10,6.1C466.15,779.52,467.63,780.72,470.4,780.72Z" style="fill: #6639c0" class="esGnfKnX_3"></path>
      <path d="M502.58,727.55h15.9V776.1c0,3.14,1.48,4.06,2.59,4.06a5.84,5.84,0,0,0,1.66-.18l1.85,11.63a19.66,19.66,0,0,1-7.77,1.29c-10.72,0-14.23-7-14.23-17.35Z" style="fill: #6639c0" class="esGnfKnX_4"></path>
      <path d="M539.83,729.58v26H570v-26h8.14v62.21H570V762.63H539.83v29.16h-8V729.58Z" style="fill: #4e62c0" class="esGnfKnX_5"></path>
      <path d="M616.57,791.79l-.65-5.63h-.27A16.69,16.69,0,0,1,602,792.81c-9.06,0-13.68-6.37-13.68-12.83,0-10.8,9.62-16.71,26.9-16.61v-.93c0-3.69-1-10.34-10.17-10.34a22.29,22.29,0,0,0-11.64,3.33l-1.85-5.36a27.78,27.78,0,0,1,14.7-4c13.68,0,17,9.32,17,18.27v16.71a62.18,62.18,0,0,0,.74,10.7ZM615.37,769c-8.88-.19-19,1.38-19,10.06,0,5.26,3.51,7.75,7.67,7.75a11.13,11.13,0,0,0,10.82-7.48,8.66,8.66,0,0,0,.46-2.58Z" style="fill: #4e62c0" class="esGnfKnX_6"></path>
      <path d="M668.25,790.13a29.92,29.92,0,0,1-12.85,2.59c-13.5,0-22.28-9.14-22.28-22.8s9.43-23.72,24-23.72a27.37,27.37,0,0,1,11.28,2.3l-1.85,6.28a18.86,18.86,0,0,0-9.43-2.12c-10.26,0-15.81,7.57-15.81,16.89,0,10.34,6.66,16.71,15.53,16.71a23.14,23.14,0,0,0,10-2.22Z" style="fill: #4e62c0" class="esGnfKnX_7"></path>
      <path d="M685.82,767.61H686c1.11-1.57,2.69-3.51,4-5.07l13.13-15.42h9.8l-17.29,18.37,19.69,26.3h-9.89L690,770.38,685.82,775v16.79h-8V726.26h8Z" style="fill: #4e62c0" class="esGnfKnX_8"></path>
      <path d="M720,783.49a21.3,21.3,0,0,0,10.72,3.23c5.92,0,8.69-3,8.69-6.65,0-3.87-2.31-6-8.32-8.21-8-2.86-11.83-7.29-11.83-12.65,0-7.2,5.82-13.1,15.44-13.1a22.45,22.45,0,0,1,11,2.76l-2,5.91a17.46,17.46,0,0,0-9.16-2.58c-4.8,0-7.49,2.77-7.49,6.09,0,3.69,2.69,5.35,8.51,7.57,7.77,2.95,11.74,6.83,11.74,13.47,0,7.85-6.1,13.39-16.73,13.39A25.55,25.55,0,0,1,718,789.67Z" style="fill: #4e62c0" class="esGnfKnX_9"></path>
    </g>
  </g>
  <g id="U">
    <g>
      <path style="fill: url(#linear-gradient)" d="M515,202L296,308L515,417L751,309L515,202Z" class="esGnfKnX_10"></path>
      <path style="fill: url(#linear-gradient-2)" d="M296,308L296,582L515,703L515,417L296,308Z" class="esGnfKnX_11"></path>
      <path style="fill: url(#linear-gradient-3)" d="M751,309L515,417L515,703L751,579L751,309Z" class="esGnfKnX_12"></path>
      <path style="fill: #fff" d="M443,609.5A9.5,9.5 0,1,1 462,609.5A9.5,9.5 0,1,1 443,609.5" class="esGnfKnX_13"></path>
      <path style="fill: #fff" d="M594,307.5A9.5,9.5 0,1,1 613,307.5A9.5,9.5 0,1,1 594,307.5" class="esGnfKnX_14"></path>
      <path style="fill: none;stroke: #fff;stroke-miterlimit: 10;stroke-width: 6px" d="M411.92,365.69L412,506L478,554L478,327L478,618L516,635L685,553L685,339L603,308" class="esGnfKnX_15"></path>
      <path style="fill: none;stroke: #fff;stroke-miterlimit: 10;stroke-width: 5px" d="M615.93,379L615.71,434.25L615.5,489.5L615.5,434.5L557.5,434.5L557.5,553.5L557.5,298.5L515.5,272.5L353.5,336.5L353.5,554.5L452.5,608.5" class="esGnfKnX_16"></path>
    </g>
  </g>
<style data-made-with="vivus-instant">.esGnfKnX_0{stroke-dasharray:288 290;stroke-dashoffset:289;animation:esGnfKnX_draw_0 7200ms linear 0ms infinite,esGnfKnX_fade 7200ms linear 0ms infinite;}.esGnfKnX_1{stroke-dasharray:194 196;stroke-dashoffset:195;animation:esGnfKnX_draw_1 7200ms linear 0ms infinite,esGnfKnX_fade 7200ms linear 0ms infinite;}.esGnfKnX_2{stroke-dasharray:280 282;stroke-dashoffset:281;animation:esGnfKnX_draw_2 7200ms linear 0ms infinite,esGnfKnX_fade 7200ms linear 0ms infinite;}.esGnfKnX_3{stroke-dasharray:234 236;stroke-dashoffset:235;animation:esGnfKnX_draw_3 7200ms linear 0ms infinite,esGnfKnX_fade 7200ms linear 0ms infinite;}.esGnfKnX_4{stroke-dasharray:165 167;stroke-dashoffset:166;animation:esGnfKnX_draw_4 7200ms linear 0ms infinite,esGnfKnX_fade 7200ms linear 0ms infinite;}.esGnfKnX_5{stroke-dasharray:328 330;stroke-dashoffset:329;animation:esGnfKnX_draw_5 7200ms linear 0ms infinite,esGnfKnX_fade 7200ms linear 0ms infinite;}.esGnfKnX_6{stroke-dasharray:254 256;stroke-dashoffset:255;animation:esGnfKnX_draw_6 7200ms linear 0ms infinite,esGnfKnX_fade 7200ms linear 0ms infinite;}.esGnfKnX_7{stroke-dasharray:184 186;stroke-dashoffset:185;animation:esGnfKnX_draw_7 7200ms linear 0ms infinite,esGnfKnX_fade 7200ms linear 0ms infinite;}.esGnfKnX_8{stroke-dasharray:277 279;stroke-dashoffset:278;animation:esGnfKnX_draw_8 7200ms linear 0ms infinite,esGnfKnX_fade 7200ms linear 0ms infinite;}.esGnfKnX_9{stroke-dasharray:191 193;stroke-dashoffset:192;animation:esGnfKnX_draw_9 7200ms linear 0ms infinite,esGnfKnX_fade 7200ms linear 0ms infinite;}.esGnfKnX_10{stroke-dasharray:1007 1009;stroke-dashoffset:1008;animation:esGnfKnX_draw_10 7200ms linear 0ms infinite,esGnfKnX_fade 7200ms linear 0ms infinite;}.esGnfKnX_11{stroke-dasharray:1055 1057;stroke-dashoffset:1056;animation:esGnfKnX_draw_11 7200ms linear 0ms infinite,esGnfKnX_fade 7200ms linear 0ms infinite;}.esGnfKnX_12{stroke-dasharray:1083 1085;stroke-dashoffset:1084;animation:esGnfKnX_draw_12 7200ms linear 0ms infinite,esGnfKnX_fade 7200ms linear 0ms infinite;}.esGnfKnX_13{stroke-dasharray:60 62;stroke-dashoffset:61;animation:esGnfKnX_draw_13 7200ms linear 0ms infinite,esGnfKnX_fade 7200ms linear 0ms infinite;}.esGnfKnX_14{stroke-dasharray:60 62;stroke-dashoffset:61;animation:esGnfKnX_draw_14 7200ms linear 0ms infinite,esGnfKnX_fade 7200ms linear 0ms infinite;}.esGnfKnX_15{stroke-dasharray:1272 1274;stroke-dashoffset:1273;animation:esGnfKnX_draw_15 7200ms linear 0ms infinite,esGnfKnX_fade 7200ms linear 0ms infinite;}.esGnfKnX_16{stroke-dasharray:1152 1154;stroke-dashoffset:1153;animation:esGnfKnX_draw_16 7200ms linear 0ms infinite,esGnfKnX_fade 7200ms linear 0ms infinite;}@keyframes esGnfKnX_draw{100%{stroke-dashoffset:0;}}@keyframes esGnfKnX_fade{0%{stroke-opacity:1;}94.44444444444444%{stroke-opacity:1;}100%{stroke-opacity:0;}}@keyframes esGnfKnX_draw_0{11.11111111111111%{stroke-dashoffset: 289}52.77777777777778%{ stroke-dashoffset: 0;}100%{ stroke-dashoffset: 0;}}@keyframes esGnfKnX_draw_1{11.11111111111111%{stroke-dashoffset: 195}52.77777777777778%{ stroke-dashoffset: 0;}100%{ stroke-dashoffset: 0;}}@keyframes esGnfKnX_draw_2{11.11111111111111%{stroke-dashoffset: 281}52.77777777777778%{ stroke-dashoffset: 0;}100%{ stroke-dashoffset: 0;}}@keyframes esGnfKnX_draw_3{11.11111111111111%{stroke-dashoffset: 235}52.77777777777778%{ stroke-dashoffset: 0;}100%{ stroke-dashoffset: 0;}}@keyframes esGnfKnX_draw_4{11.11111111111111%{stroke-dashoffset: 166}52.77777777777778%{ stroke-dashoffset: 0;}100%{ stroke-dashoffset: 0;}}@keyframes esGnfKnX_draw_5{11.11111111111111%{stroke-dashoffset: 329}52.77777777777778%{ stroke-dashoffset: 0;}100%{ stroke-dashoffset: 0;}}@keyframes esGnfKnX_draw_6{11.11111111111111%{stroke-dashoffset: 255}52.77777777777778%{ stroke-dashoffset: 0;}100%{ stroke-dashoffset: 0;}}@keyframes esGnfKnX_draw_7{11.11111111111111%{stroke-dashoffset: 185}52.77777777777778%{ stroke-dashoffset: 0;}100%{ stroke-dashoffset: 0;}}@keyframes esGnfKnX_draw_8{11.11111111111111%{stroke-dashoffset: 278}52.77777777777778%{ stroke-dashoffset: 0;}100%{ stroke-dashoffset: 0;}}@keyframes esGnfKnX_draw_9{11.11111111111111%{stroke-dashoffset: 192}52.77777777777778%{ stroke-dashoffset: 0;}100%{ stroke-dashoffset: 0;}}@keyframes esGnfKnX_draw_10{11.11111111111111%{stroke-dashoffset: 1008}52.77777777777778%{ stroke-dashoffset: 0;}100%{ stroke-dashoffset: 0;}}@keyframes esGnfKnX_draw_11{11.11111111111111%{stroke-dashoffset: 1056}52.77777777777778%{ stroke-dashoffset: 0;}100%{ stroke-dashoffset: 0;}}@keyframes esGnfKnX_draw_12{11.11111111111111%{stroke-dashoffset: 1084}52.77777777777778%{ stroke-dashoffset: 0;}100%{ stroke-dashoffset: 0;}}@keyframes esGnfKnX_draw_13{11.11111111111111%{stroke-dashoffset: 61}52.77777777777778%{ stroke-dashoffset: 0;}100%{ stroke-dashoffset: 0;}}@keyframes esGnfKnX_draw_14{11.11111111111111%{stroke-dashoffset: 61}52.77777777777778%{ stroke-dashoffset: 0;}100%{ stroke-dashoffset: 0;}}@keyframes esGnfKnX_draw_15{11.11111111111111%{stroke-dashoffset: 1273}52.77777777777778%{ stroke-dashoffset: 0;}100%{ stroke-dashoffset: 0;}}@keyframes esGnfKnX_draw_16{11.11111111111111%{stroke-dashoffset: 1153}52.77777777777778%{ stroke-dashoffset: 0;}100%{ stroke-dashoffset: 0;}}</style></svg>
