<svg id="Layer_1" data-name="Layer 1" xmlns="http://www.w3.org/2000/svg" viewBox="0 0 160.51 62.37">
  <defs>
    <style>
      .cls-1 {
        fill: #f2f2f2;
      }

      .cls-2 {
        fill: #3838fc;
      }

      .cls-3, .cls-4 {
        isolation: isolate;
        font-size: 53.4px;
        font-family: GoogleSans-Bold, Google Sans;
        font-weight: 700;
      }

      .cls-4 {
        fill: #2a2abc;
      }

      .cls-5 {
        fill: #131356;
      }

      .cls-6 {
        fill: #191970;
      }
    </style>
  </defs>
  <title>UHlogo150px</title>
  <g>
    <g id="UH_letter" data-name="UH letter">
      <path class="cls-1" d="M112.86,28.39c0-.2,0-.35,0-.5v-3a1,1,0,0,0-.06-.51l-.25,0c-1.28,0-5,0-5.37,0a.76.76,0,0,0-.07.49v3.07a1,1,0,0,1-.06.48l-.24,0c-.88,0-3.9,0-4.24-.05a1.55,1.55,0,0,1,0-.23,1,1,0,0,1,0-.25v-11a6,6,0,0,1,1.4-3.93,6.22,6.22,0,0,1,3.82-2.23,7.45,7.45,0,0,1,1.06-.08q1.17,0,2.34,0a6.37,6.37,0,0,1,4.35,1.69,6,6,0,0,1,1.9,3.58,5.76,5.76,0,0,1,.08,1.1q0,5.43,0,10.87c0,.17,0,.33,0,.52a2.23,2.23,0,0,1-.36.05h-3.87Zm-5.74-8.75h5.27c.14,0,.28,0,.42-.07s0-.22,0-.33V16.91a2.26,2.26,0,0,0,0-.26,1.64,1.64,0,0,0-1.57-1.47c-.86,0-1.73,0-2.6,0a1.53,1.53,0,0,0-1.06.47,1.6,1.6,0,0,0-.51,1.22v2.42c0,.1,0,.2,0,.35Z" transform="translate(-2.24 8.5)"/>
      <path class="cls-1" d="M143.39,28.37c0-.2,0-.37,0-.54,0-.46,0-.91,0-1.36a1.47,1.47,0,0,0-.42-1l-1.88-2.16-1-1.19a.62.62,0,0,0-.55-.26c-.3,0-.59,0-.89,0l-.28,0c-.12.14-.08.29-.08.43v5.5c0,.17,0,.34,0,.49-.16.14-.33.09-.48.09h-4.06c0-.1,0-.18,0-.26V11.33c0-.17,0-.33,0-.52a.87.87,0,0,1,.22-.05H138l.16,0a.64.64,0,0,1,.07.42v5.59a.88.88,0,0,0,.08.52q.62,0,1.23,0a.45.45,0,0,0,.21-.12A1.39,1.39,0,0,0,140,17l2.91-3.23a1.07,1.07,0,0,1,.14-.16,1.23,1.23,0,0,0,.34-.81c0-.48,0-1,0-1.45,0-.17,0-.34,0-.52l.22-.05h4l.15,0a2.23,2.23,0,0,1,0,.23c0,.7,0,1.4,0,2.09a4.74,4.74,0,0,1-1.29,3.21c-.91,1-1.8,1.93-2.69,2.9l-.33.37c.21.23.39.44.59.64.81.88,1.62,1.75,2.44,2.62a4.5,4.5,0,0,1,1.21,2.58,8.42,8.42,0,0,1,.08,1c0,.52,0,1,0,1.54,0,.12,0,.25,0,.4a11.94,11.94,0,0,1-1.46,0c-.48,0-1,0-1.45,0S143.93,28.43,143.39,28.37Z" transform="translate(-2.24 8.5)"/>
      <path class="cls-1" d="M149.08,24l.21-.08c.59-.14,3.83-.71,4.14-.73l.18.27a1.49,1.49,0,0,0,1.29.7c.72,0,1.45,0,2.17,0a1.16,1.16,0,0,0,1.18-1.41,1.31,1.31,0,0,0-.31-.65.92.92,0,0,0-.76-.32c-.75,0-1.51,0-2.26,0a7.53,7.53,0,0,1-1.94-.24,5.37,5.37,0,0,1-4-3.95,5.54,5.54,0,0,1,.24-3.72,5,5,0,0,1,3.95-3.14,7.45,7.45,0,0,1,1.06-.08c.86,0,1.73,0,2.6,0A6.1,6.1,0,0,1,161.62,13a4.55,4.55,0,0,1,.89,2c0,.05,0,.11,0,.19a10,10,0,0,1-1.4.3c-.49.11-1,.19-1.47.28l-1.42.26-.14-.24a1.49,1.49,0,0,0-1.3-.77h-2.3a1,1,0,0,0-1,.79,1.28,1.28,0,0,0,.36,1.36,1,1,0,0,0,.58.23h2.52a6.63,6.63,0,0,1,2.29.42,5.21,5.21,0,0,1,3.32,3.68,5.36,5.36,0,0,1-1.65,5.62,5.23,5.23,0,0,1-2.62,1.26,7.92,7.92,0,0,1-1.61.16H155A6.45,6.45,0,0,1,152.5,28a6,6,0,0,1-2.72-2.24,4.83,4.83,0,0,1-.61-1.35C149.13,24.31,149.11,24.17,149.08,24Z" transform="translate(-2.24 8.5)"/>
      <path class="cls-1" d="M132.48,12c-.68,1.26-1.39,2.51-2.09,3.78l-.14.19a4.5,4.5,0,0,0-2.62-.8,4.41,4.41,0,0,0-1.89.45,4.69,4.69,0,0,0-1.53,1.27,4.46,4.46,0,0,0,0,5.39,4.38,4.38,0,0,0,4,1.66,4.52,4.52,0,0,0,2-.76c.22.26,2,3.45,2.24,4l-.21.17a8.78,8.78,0,0,1-3.36,1.15,8.92,8.92,0,0,1-4.2-.44,8.67,8.67,0,0,1-5.76-6.64A8.55,8.55,0,0,1,120,15a8.69,8.69,0,0,1,6-4.18,8.92,8.92,0,0,1,6.07.94A.87.87,0,0,1,132.48,12Z" transform="translate(-2.24 8.5)"/>
      <path class="cls-2" d="M51,28.61c0-.21,0-.37,0-.52v-3c0-.15,0-.3,0-.43a.51.51,0,0,0-.43-.1c-.68,0-1.37,0-2,0H45.71a.92.92,0,0,0-.44,0,.78.78,0,0,0-.09.51v3a.83.83,0,0,1-.07.48l-.26.05h-3.8l-.3,0a1.14,1.14,0,0,1-.06-.25c0-.11,0-.23,0-.34V17.35A7.66,7.66,0,0,1,40.77,16,5.9,5.9,0,0,1,42,13.27,6.1,6.1,0,0,1,45.91,11a5.29,5.29,0,0,1,.8-.05h2.77a6.18,6.18,0,0,1,5.92,4.81,6.27,6.27,0,0,1,.16,1.43V28c0,.14,0,.29,0,.43a.17.17,0,0,1-.16.17H51.47ZM51,19.86a.88.88,0,0,0,0-.4V17a1.71,1.71,0,0,0-1.69-1.64c-.83,0-1.67,0-2.51,0a1.43,1.43,0,0,0-.88.27,1.78,1.78,0,0,0-.77,1.49v2.31c0,.45,0,.49.48.49h4.91A.6.6,0,0,0,51,19.86Z" transform="translate(-2.24 8.5)"/>
      <path class="cls-2" d="M35.21,11.06l.17,0h3.84l.19,0a1.4,1.4,0,0,1,.06.28c0,.8,0,1.59,0,2.39a4.22,4.22,0,0,1-1.12,2.66L35.6,19.33a1.27,1.27,0,0,0-.39.53l.29.34,2.76,3A4.39,4.39,0,0,1,39.45,26c0,.77,0,1.54,0,2.3a.91.91,0,0,1,0,.17.19.19,0,0,1-.17.17H35.5a1.55,1.55,0,0,1-.31,0,1.36,1.36,0,0,1-.06-.29V27.4c0-.25,0-.49,0-.73a1.54,1.54,0,0,0-.43-1l-1.9-2.19c-.33-.37-.66-.74-1-1.13a.69.69,0,0,0-.62-.29c-.3,0-.6,0-.9,0a.39.39,0,0,0-.32.1,1,1,0,0,0-.05.49V28c0,.58.06.59-.58.59H25.69c-.3,0-.33,0-.34-.36V11.64a1.49,1.49,0,0,1,0-.55.81.81,0,0,1,.46-.06h3.66l.32,0a2.1,2.1,0,0,1,.06.24c0,.13,0,.26,0,.39V17c0,.58,0,.58.59.58h.43a.79.79,0,0,0,.76-.34c.29-.34.59-.66.89-1,.64-.72,1.27-1.46,1.94-2.15a2.08,2.08,0,0,0,.62-1.57v-1A.9.9,0,0,1,35.21,11.06Z" transform="translate(-2.24 8.5)"/>
      <path class="cls-2" d="M16.77,11.06a.66.66,0,0,1,.06.2c0,.11,0,.22,0,.34V22.38a6.94,6.94,0,0,1-.38,2.43,5.94,5.94,0,0,1-4.24,3.66,6.77,6.77,0,0,1-1.48.16H8.27a6.52,6.52,0,0,1-2.1-.35A5.85,5.85,0,0,1,2.35,23.8a7.29,7.29,0,0,1-.1-1.23q0-5.52,0-11c0-.14,0-.28,0-.45a1.63,1.63,0,0,1,.3-.07H6l.53,0a2.46,2.46,0,0,1,.07.29c0,.15,0,.29,0,.43V22.23a5.07,5.07,0,0,0,0,.68,1.55,1.55,0,0,0,1.49,1.27c.91,0,1.82,0,2.73,0a1.54,1.54,0,0,0,1.49-1.5c0-.15,0-.29,0-.43V11.59a.82.82,0,0,1,.08-.55.76.76,0,0,1,.16,0h4A.48.48,0,0,1,16.77,11.06Z" transform="translate(-2.24 8.5)"/>
      <path class="cls-2" d="M56.93,10.9l.28,0h4a.17.17,0,0,1,.17.16c0,.14,0,.29,0,.43v11c0,.14,0,.28,0,.43a1.25,1.25,0,0,0,1.16,1.24h3.62a.76.76,0,0,1,.48.07.93.93,0,0,1,0,.23v3.92a1.24,1.24,0,0,1,0,.27l-.29.05c-1.46,0-2.93,0-4.39,0a5,5,0,0,1-3.14-1.25A5.35,5.35,0,0,1,57,24.15a9.09,9.09,0,0,1-.12-1.27V11.28C56.91,11.17,56.92,11.06,56.93,10.9Z" transform="translate(-2.24 8.5)"/>
      <path class="cls-2" d="M18.12,11A5.21,5.21,0,0,1,22.05,15a10.16,10.16,0,0,1,.25,1.73l0,.37c.42.2.87,0,1.29.15a1.05,1.05,0,0,1,.06.24v3.45a1.29,1.29,0,0,1,0,.19,1.31,1.31,0,0,1-.27.06c-.19,0-.37,0-.56,0a.45.45,0,0,0-.35.1,9.39,9.39,0,0,0,0,1.91,1.42,1.42,0,0,0,1,1.14l.25.08a2.17,2.17,0,0,1,0,.25v3.75a2.13,2.13,0,0,1,0,.25.58.58,0,0,1-.49.07,5.58,5.58,0,0,1-1.65-.43,5.7,5.7,0,0,1-3.46-4.43,7.29,7.29,0,0,1-.1-1.23V11.53A.71.71,0,0,1,18.12,11Z" transform="translate(-2.24 8.5)"/>
    </g>
    <g id="hash">
      <text class="cls-3" transform="translate(64.04 47.15)">#</text>
      <text class="cls-4" transform="translate(65.81 45.82)">#</text>
      <polygon class="cls-5" points="77.56 9.31 75.79 10.59 74.51 19.1 76.08 19.1 77.56 9.31"/>
      <polygon class="cls-5" points="69.94 19.08 68.17 20.38 67.3 25.85 69.06 24.51 69.94 19.08"/>
      <polygon class="cls-6" points="69.06 24.51 67.3 25.85 73.48 25.85 72.89 30.13 74.44 30.15 75.26 24.51 69.06 24.51"/>
      <polygon class="cls-5" points="68.37 30.14 66.59 31.45 65.68 36.9 67.46 35.57 68.37 30.14"/>
      <polygon class="cls-6" points="67.46 35.57 65.68 36.9 71.81 36.89 70.33 47.15 72.11 45.81 73.6 35.57 67.46 35.57"/>
      <polygon class="cls-5" points="72.11 45.81 70.33 47.15 76.21 47.17 77.97 45.81 72.11 45.81"/>
      <polygon class="cls-6" points="79.53 35.55 79.33 36.89 83.74 36.9 82.19 47.14 83.96 45.82 85.51 35.57 79.53 35.55"/>
      <polygon class="cls-5" points="83.96 45.82 82.19 47.14 88.13 47.16 89.88 45.81 83.96 45.82"/>
      <polygon class="cls-5" points="87.63 10.61 89.43 9.29 87.99 19.06 86.4 19.06 87.63 10.61"/>
      <polygon class="cls-6" points="80.86 25.73 85.49 25.75 84.85 30.23 86.41 30.23 87.28 24.4 81.03 24.39 80.86 25.73"/>
      <polygon class="cls-6" points="93.04 24.51 92.84 25.84 97.41 25.85 99.18 24.51 93.04 24.51"/>
      <polygon class="cls-6" points="91.44 35.57 91.23 36.9 95.86 36.9 97.63 35.56 91.44 35.57"/>
    </g>
  </g>
</svg>
