<?xml version="1.0" encoding="utf-8"?>
<!-- Generator: Adobe Illustrator 23.0.0, SVG Export Plug-In . SVG Version: 6.00 Build 0)  -->
<svg version="1.1" xmlns="http://www.w3.org/2000/svg" xmlns:xlink="http://www.w3.org/1999/xlink" x="0px" y="0px"
	 viewBox="0 0 1319 755.6" style="enable-background:new 0 0 1319 755.6;" xml:space="preserve">
<style type="text/css">
	.st0{fill:#FFAA00;}
	.st1{fill:#FFB100;}
	.st2{fill:#FFB800;}
	.st3{fill:#FFBF00;}
	.st4{fill:#FFC500;}
	.st5{fill:#FFCC00;}
	.st6{fill:#FFD624;}
	.st7{fill:#FFE038;}
	.st8{fill:#FFEB49;}
	.st9{fill:#FFF558;}
	.st10{fill:#FFFF66;}
	.st11{fill:#C3FFF9;}
	.st12{fill:#8CD3B9;}
	.st13{fill:#92D6BE;}
	.st14{fill:#AFF2D8;}
	.st15{fill:#87CEB7;}
	.st16{fill:#92DDC2;}
	.st17{fill:none;}
	.st18{fill:#00A7D3;}
	.st19{fill:#21214F;}
	.st20{fill:#FFFFFF;}
	.st21{font-family:'Montserrat-Regular';}
	.st22{font-size:36px;}
</style>
<g id="Layer_1">
	<g>
		<title>webBG</title>
		<g id="background">
			<rect class="st0" width="1319" height="752"/>
			<path class="st1" d="M400.6,663.5c-90.1-20.5-184.2-30.2-276.4-18.2C81.7,650.5,39.9,661.1,0,676.6V752h695.6
				c-95.5-31.2-190.2-64-286.5-86.7C406.3,664.7,403.4,664.1,400.6,663.5z"/>
			<path class="st2" d="M1319,0H0v676.6c39.9-15.6,81.7-26.1,124.2-31.5c92.2-12,186.3-2.3,276.4,18.3c2.8,0.7,5.6,1.3,8.4,1.9
				c96.3,22.6,191,55.5,286.5,86.7H1319V0z"/>
			<path class="st3" d="M394.4,546.1c2.6,0.8,5.3,1.6,7.8,2.3c161.7,49.4,320.4,125.5,489.2,166c143.6,34.4,288.1,27.5,427.5-9.6V0
				H0v540.4c42.6-16.3,87.3-26,132.8-29C221.3,505.2,309.7,521,394.4,546.1z"/>
			<path class="st4" d="M0,0v403.6c45.2-16.9,93-25.8,141.3-26C226,376.9,308.8,399,388,428.9l7.3,2.8
				C546.7,489.9,696.8,569,859,612.2c153.9,41,310.2,32.3,459.9-11.9V0H0z"/>
			<path class="st5" d="M149.8,243.8c81,5.6,158.2,33.1,231.9,67.8c2.3,1,4.5,2.2,6.8,3.2c141,67.3,282.5,149,438,195.2
				c163.9,48.7,332.5,38.3,492.4-14V0H0v266.2C47.7,248,98.8,240.4,149.8,243.8z"/>
			<path class="st6" d="M1319,0H0v128.1c51.3-19.7,105.3-25.8,158.5-18c77.2,11.4,148.8,44.8,217.1,84.2c2.1,1.2,4.2,2.4,6.3,3.7
				c130.6,76.2,263.5,160.6,412.4,209.8c173.5,57.3,355.1,46.1,524.8-15.6L1319,0L1319,0z"/>
			<path class="st7" d="M375,81.1c120.2,85.3,244.6,172,386.8,224.4c172,63.4,355.5,57.1,525.9-5c10.5-3.9,20.9-7.9,31.4-12.1V0
				H237.5c46.2,20,89.6,47.6,131.7,77.1C371.1,78.4,373,79.8,375,81.1z"/>
			<path class="st8" d="M1319,0H410.5c97.4,80.7,200.7,154.6,318.9,203.2c158.1,65,329.7,70.2,490.5,19.8
				c34-10.7,67.1-23.8,99.2-39.2L1319,0L1319,0z"/>
			<path class="st9" d="M1152,145.5c39.3-10.1,77.6-23.9,114.3-41.2c17.9-8.3,35.5-17.7,52.7-27.7V0H530.4
				C582.2,39.2,637.3,73.6,697,101C841.2,167.4,1000.9,184.3,1152,145.5z"/>
			<path class="st10" d="M1084.3,68c63.1-12.2,123.6-35.2,178.8-68H667C797,66.7,943.6,94.9,1084.3,68z"/>
		</g>
		<g id="cloud_3">
			<path class="st11" d="M707.5,142.4c-17.1,0-30.9-13.8-30.9-30.9s13.8-30.9,30.9-30.9c14.5,0,27,10,30.2,24.2
				c9.6-5.8,22-2.7,27.8,6.9s2.7,22-6.9,27.8c-3.2,1.9-6.8,2.9-10.4,2.9L707.5,142.4L707.5,142.4z			">
<animateTransform  accumulate="none" additive="replace" attributeName="transform" attributeType="XML" calcMode="linear" dur="25s" fill="remove" id="any" repeatCount="indefinite" restart="always" type="translate" values="800,0;-800,0">
					</animateTransform>
			</path>
			<path class="st12" d="M700.5,111.6c0-1.3,0.1-2.6,0.2-3.9h12.6c2.9,0,5.2-2.3,5.2-5.2l0,0l0,0c0-2.9-2.3-5.2-5.2-5.2l0,0h-3.6
				c-1.7,0-3.1-1.4-3.1-3.1c0-0.7,0.2-1.3,0.6-1.9c2.9-3.6,6.6-6.6,10.9-8.6c0.3-0.1,0.4-0.5,0.3-0.8l0,0l0,0
				c-0.1-0.1-0.2-0.2-0.3-0.3c-16-5.9-33.7,2.2-39.6,18.2c-1.3,3.6-2,7.4-1.9,11.2c0.3,17,14.4,30.4,31.4,30.4h23.4
				C714.3,142.4,700.5,128.6,700.5,111.6z			">
<animateTransform  accumulate="none" additive="replace" attributeName="transform" attributeType="XML" calcMode="linear" dur="25s" fill="remove" id="any" repeatCount="indefinite" restart="always" type="translate" values="800,0;-800,0">
					</animateTransform>
			</path>
		</g>
		<g id="cloud_1">
			<path class="st11" d="M198.1,118.3c-14.4,0-26.1-11.7-26.1-26.1S183.7,66,198.1,66c12.2,0,22.8,8.5,25.5,20.4
				c8.1-4.9,18.7-2.2,23.5,5.9c4.9,8.1,2.2,18.7-5.9,23.5c-2.7,1.6-5.7,2.4-8.8,2.4L198.1,118.3L198.1,118.3z			">
<animateTransform  accumulate="none" additive="replace" attributeName="transform" attributeType="XML" calcMode="linear" dur="30s" fill="remove" id="any" repeatCount="indefinite" restart="always" type="translate" values="800,0;-800,0">
					</animateTransform>
			</path>
			<path class="st13" d="M207.4,118.3c0.6,0,1-0.5,1-1c0-0.4-0.2-0.7-0.5-0.8c-9.6-4.3-15.7-13.8-15.7-24.2V91c0.1-1.7,1.5-3,3.1-3
				h7.6c2.8,0,5.2-2.2,5.3-5s-2.1-5.1-4.9-5.2l0,0H203c-1.7-0.1-3.1-1.5-3-3.2c0-0.8,0.4-1.6,1-2.2c1.1-1,2.4-2,3.7-2.8
				c0.8-0.5,1-1.4,0.5-2.2l0,0l0,0c-0.2-0.4-0.6-0.6-1-0.7c-2-0.5-4-0.7-6-0.7C183.8,66,172,77.6,172,92.1v0.1v0.5
				c0.3,14.3,12.3,25.6,26.6,25.6L207.4,118.3z			">
<animateTransform  accumulate="none" additive="replace" attributeName="transform" attributeType="XML" calcMode="linear" dur="30s" fill="remove" id="any" repeatCount="indefinite" restart="always" type="translate" values="800,0;-800,0">
					</animateTransform>
			</path>
		</g>
		<g id="cloud_2">
			<path class="st14" d="M319.3,264.3h-74c-12.8,0-23.2-10.7-23.2-23.9c-0.2-12.1,8.8-22.3,20.8-23.7c2-16,15.4-28,31.1-28
				c17.3,0,31.3,14.4,31.3,32.2c0,1.1-0.1,2.3-0.2,3.4c3.4-2.7,7.5-4.3,11.8-4.6l1.8-0.1l0.7,1.7c2.4,5.7,8,9.4,14.2,9.4h3.5
				l0.7,1.5c1.4,3.1,2.2,6.4,2.2,9.8c0,11.6-8.9,21.4-20.2,22.2l-0.3,0.1H319.3z			">
<animateTransform  accumulate="none" additive="replace" attributeName="transform" attributeType="XML" calcMode="linear" dur="20s" fill="remove" id="any" repeatCount="indefinite" restart="always" type="translate" values="800,0;-800,0">
					</animateTransform>
			</path>
			<path class="st15" d="M237.6,240.7c-0.2-11.9,8.3-22.1,20-24.1h15.3c2.8,0,5-2.3,4.9-5.1l0,0l0,0c0-2.8-2.2-5-4.9-5.1l0,0H267
				c-1.7,0-3-1.3-3-3c0-0.6,0.2-1.3,0.6-1.8c3.2-4.6,7.5-8.3,12.5-10.8c0.6-0.3,0.8-0.9,0.5-1.5c-0.2-0.3-0.5-0.6-0.9-0.6
				c-0.9-0.1-1.9-0.1-2.8-0.1c-15.7,0-29,12-31.1,28c-11.9,1.4-20.9,11.6-20.8,23.6c-0.1,13.1,10.4,23.8,23.6,24h5.3
				c0.4,0,0.7-0.4,0.7-0.8l0,0l0,0c0-0.3-0.2-0.5-0.4-0.6C242.9,258.7,237.5,250.1,237.6,240.7z			">
<animateTransform  accumulate="none" additive="replace" attributeName="transform" attributeType="XML" calcMode="linear" dur="20s" fill="remove" id="any" repeatCount="indefinite" restart="always" type="translate" values="800,0;-800,0">
					</animateTransform>
			</path>
			<path class="st11" d="M343.5,232.4c-14.4,0-26.1-11.7-26.1-26.2c0-14.4,11.7-26.1,26.2-26.1c12.2,0,22.8,8.5,25.5,20.4
				c8.1-4.9,18.7-2.2,23.5,5.9c4.9,8.1,2.2,18.7-5.9,23.5c-2.7,1.6-5.7,2.4-8.8,2.4L343.5,232.4z			">
<animateTransform  accumulate="none" additive="replace" attributeName="transform" attributeType="XML" calcMode="linear" dur="20s" fill="remove" id="any" repeatCount="indefinite" restart="always" type="translate" values="800,0;-800,0">
					</animateTransform>
			</path>
			<path class="st16" d="M358.4,232.9c-12.3,0-23-8.6-25.6-20.7c-0.6-2.7,1.2-5.3,3.9-5.9l0,0l0,0c0.3-0.1,0.7-0.1,1-0.1h7.7
				c3,0,5.4-2.3,5.6-5.2c0.1-3-2.3-5.4-5.3-5.5l0,0H340c-1.6,0-2.9-1.3-2.9-3c0-0.6,0.2-1.3,0.6-1.8c2.3-2.9,5.2-5.4,8.5-7.1
				c0.6-0.3,0.9-1.1,0.5-1.8c-0.2-0.3-0.5-0.6-0.9-0.7c-14.1-3-28,6-31,20.1c-0.4,2-0.6,3.9-0.6,5.9c0.3,14.3,12.3,25.6,26.6,25.6
				L358.4,232.9z			">
<animateTransform  accumulate="none" additive="replace" attributeName="transform" attributeType="XML" calcMode="linear" dur="20s" fill="remove" id="any" repeatCount="indefinite" restart="always" type="translate" values="800,0;-800,0">
					</animateTransform>
			</path>
		</g>
		<path class="st17" d="M504.8,301c0.3-5.5-2.1-8-7.4-9.1c-2.8,7.7-7.5,13.8-15,16.9c-5.4,2.1-10.9,3.8-16.6,5
			c-3.3,0.8-3.3,2.7-3,5.1s-1,6.1,3,6.1c12.9,0.2,25.8,0.1,38.9,0.1C504.6,316.4,504.3,308.7,504.8,301z"/>
		<path class="st17" d="M450.9,313.7c-13.4-2.4-25.3-7.3-31-21.6v33c9.9,0,20-0.3,30.1,0.1c4.7,0.2,5.2-2,5.5-5.6
			S455.1,314.4,450.9,313.7z"/>
		<path id="temple_shadow" class="st18" d="M1317.7,690.9c0.4-5.6-1.8-6.8-7-6.7c-11.9,0.4-23.8-0.1-35.7,0.2
			c-4.4,0.1-5.5-1.4-5.4-5.5c0.2-13.4,0-26.7,0-40.1V538.5c0-18.8-0.1-18.6-12.9-32.4l-105-114.1c-3.8-4.1-7.5-8.1-11.3-12.2l-1.5,1
			v6.3c-0.1,65.6-0.1,131.3-0.1,197v86c0,7.8-0.1,7.8-8.1,7.9c-6.9,0.1-13.9,0-20.8,0c-7.8,0-7.7-0.1-7.7-7.8
			c0-47.9,0-95.7,0.1-143.6c0-4.6-1.5-6.2-6.2-6c-8.5,0.3-17.1,0.1-25.6,0.1c-8.7,0-8.7,0-8.7-8.8V192c-2.6-0.2-4.7-0.6-6.8-0.6
			c-9.4-0.1-18.8-0.1-28.2-0.1c-12.3,0-24.5,0.1-36.7,0c-4.6,0-6.8,1.6-6.4,6.6c0.4,3.8,0,7.7,0,11.6v459.9c0,8.5,0,8.5-8.8,8.5
			c-3.7,0-7.5,0-11.2,0.2c-1.7,0.1-3.4,1.2-5.1,1.2c-2.4-0.1-4.7-1.4-7-1.2c-5.5,0.4-7-2.1-7.1-7.1c-1.4-58.6-2.8-117.2-4.7-175.7
			c-0.5-15.4-2-30.8-4-46.2c-1.2-10.6-6.4-20.3-14.5-27.3c-6.8-6.1-12-14.2-16.6-22.3c-4.3-7.6-2.6-11.9,4-17.5
			c7.5-6.4,12.8-14.1,15-23.7c2.7-12.1-1.4-21.6-11.3-25.5c-4.6-1.8-9.4-3.7-14.2-4.3c-12.5-1.5-20.5-8.4-24.7-19.6
			c-4.1-11.3-10.8-21.5-19.5-29.8c-7.9-7.6-12.1-16.7-10.8-28c0.5-3.7,0.2-7.4-1-10.9c-1.3-3.1-3.9-7-6.8-8c-5-1.8-6.1-4.6-5.6-9.1
			c0.2-1.7,0-3.5,0-5.3c0-25.2,0.1-50.3-0.1-75.5c0-1.8-1.4-4.9-2.5-5.1c-3.8-0.7-2.5,2.7-2.9,4.7c-0.7,2.7-0.8,5.8-2.3,7.9
			c-3.7,5.4-7.7,10.5-12,15.4c-8.5,10-21.3,12.9-32.1,19.3c-2.5,1.4-5,2.8-7.5,4.3l0.3,1.8c8.8,0.8,17.6,1.3,26.3,2.4
			c6.1,0.8,12.3,1.8,18,3.9c5.1,1.8,9,5.9,9.2,11.9s0.1,12,0,17.9c0,1.4-0.4,2.7-1,3.9c-1.8,3.5-4.2,6.7-5.6,10.4
			c-2.3,6.1-3.4,12.7-6.2,18.5c-10,21.3-23.3,40.6-38.5,58.5c-2.5,3-7.4,4.1-11.4,5.7c-9.8,3.8-19.8,7.3-29.6,11.2
			c-1.4,0.7-2.5,1.9-3.2,3.3c-7,12.1-3.3,25.3,9.1,31.4c11.3,5.6,16.4,22.8,4.9,32.4c-17.3,14.5-27.6,33.7-28.9,56.9
			c-0.9,16.3-2.3,32.7-2.6,48.9c-0.8,49.8-1.2,99.6-1.7,149.4c-0.1,14.4,0,28.7,0,43.3h-24.9V694c0.1-51.4,0.1-102.8,0-154.2
			c-0.1-3-0.5-5.9-1.4-8.7c-1.5-5.1-3.7-5.8-7.8-2.4c-1.7,1.3-3.1,3-4.1,4.8c-4.2,7.5-7,15.3-7,24.1c0.1,23.6,0,47.2,0,70.8
			c0,2.9-0.3,5.7-0.5,9.3c-1.4-0.7-2.7-1.5-3.9-2.4c-7-5.6-14.1-11.1-21-16.8c-1-0.9-2.2-2.7-2-3.9c1.1-7.7-4.9-11-8.9-15.6
			l-4.1,3.4c-0.9-3.8-2-6.7-2.4-9.8c-1.8-12.7-3.4-25.5-5-38.2c-3.9-32.6-19.2-59.6-42.7-81.7c-19.4-18.3-43.7-29.1-69-37.3
			c-5.6-1.8-7-4-6.9-9.4c0.4-12.8,0.1-12.7,12.5-16.3c2-0.7,3.6-2.2,4.4-4.2c1-2.9,0.9-6.2,1.3-9.3c2.3-16.8,4.7-33.7,7-50.5
			c0.9-6.7,1.7-13.4,2.7-21h-16.2v-26.9c4.7-0.4,8.3-0.3,11.7-1c11.8-2.5,17-12.9,11.7-22.7c-6.7-12.6-27.6-15.5-37.3-5.1
			c-1.6,1.9-3,3.8-4.3,5.9c-17.1-12.4-35-14.3-54.1-6.5c-1.6,0.6-3.4,0.5-4.9-0.3c-12.2-8.3-24.1-6.1-36,0.5
			c-4.5,2.5-8.3,6-7.5,11.7s5.1,8.7,10.5,9.8c5,1,10.1,1.4,16.4,2.2v32.2c-1.8,0.1-5,0.7-8.1,0.4c-5.4-0.6-7.1,1.3-7.1,6.6
			c0.1,22.4-0.1,44.7-0.2,67.1c0,9.7,0,9.7,9.3,12.4c12.2,3.5,12.1,3.5,12.2,15.9c0,3.6-1.5,5.2-4.4,6.8
			c-15.8,9-31.7,17.8-47.1,27.3c-18.5,11.5-31.1,28.6-42.6,46.4c-4.7,7.3-9.7,14.8-12.7,22.9c-7.1,19.1-7.9,39.2-7.5,59.3
			c0.2,3.3-1.1,6.6-3.6,8.8c-1.5,1.4-2,4-2.4,6.1c-0.3,1.9-0.3,3.9,0,5.8c1.2,8.9-1.2,15.7-9.5,20.7c-5.1,3-8.9,8-14.3,13.1
			c-0.2-4.1-0.4-7-0.4-9.9c0-23.6,0.2-47.2-0.1-70.8c-0.3-8.6-1.2-17.2-2.6-25.7c-1.2-7.6-6.5-10.7-14-8.1c-3.3,1.2-8.6,0.1-8.6,6.5
			c0.3,27.1,0.2,54.2,0.5,81.3c0,4.5-1.2,6.5-5.8,6.4c-11.9-0.2-23.8-0.3-35.7-0.1c-4.9,0.1-6.4-1.6-6.4-6.4
			c0.1-95.2,0.1-190.4,0.1-285.6c0-21.3-0.1-42.6,0-63.9c0-3.8-1.2-5.1-5.2-5.1c-28.1,0.1-56.2,0-84.3,0.1
			c-12.6,0.1-12.6,0.3-12.6,13v325.3c-0.1,12.3-0.2,24.6,0,37c0,3.6-1.1,5.1-4.9,5c-6.7-0.2-13.5,0-20.3,0c-7.4,0-7.4,0-7.4-7.1
			V516.2h-55c-2.1,0.1-4.3,0-6.4-0.4H5.1v236.4H1311c2.7,0,5.3,0.2,8,0.3l0.1-51.8C1318.5,697.5,1317.4,694.1,1317.7,690.9z
			 M455.5,319.6c-0.2,3.6-0.8,5.8-5.5,5.6c-10.1-0.4-20.1-0.1-30.1-0.1V292c5.7,14.3,17.6,19.2,31,21.6
			C455.1,314.4,455.7,316,455.5,319.6z M465.8,325c-4.1,0-2.9-3.7-3-6.1s-0.2-4.3,3-5.1c5.7-1.2,11.2-2.9,16.6-5
			c7.5-3.2,12.3-9.2,15-16.9c5.2,1.1,7.7,3.6,7.4,9.1c-0.5,7.7-0.1,15.4-0.1,24l0,0c-13.1-0.1-26,0.1-38.9-0.1V325z"/>
		<path class="st18" d="M504.6,325"/>
		<path id="temple" class="st19" d="M1320.1,693.9c0.5-5.6-1.8-6.8-7.1-6.7c-12,0.4-24-0.1-36,0.2c-4.4,0.1-5.5-1.4-5.4-5.5
			c0.2-13.4,0-26.7,0-40.1V541.5c0-18.8-0.1-18.6-13-32.4c-35.3-38.1-70.5-76.1-105.8-114.2c-3.8-4.1-7.6-8.1-11.4-12.2l-1.5,1v6.2
			c0,65.7-0.1,131.3-0.1,197v86c0,7.8-0.1,7.8-8.2,7.9c-7,0.1-14,0-20.9,0c-7.8,0-7.8-0.1-7.8-7.8c0-47.9,0-95.7,0.1-143.6
			c0-4.6-1.5-6.2-6.2-6c-8.6,0.3-17.1,0.1-25.8,0.1c-8.8,0-8.8,0-8.8-8.8V195.1c-2.6-0.2-4.8-0.6-6.9-0.6
			c-9.5-0.1-18.9-0.1-28.4-0.1c-12.3,0-24.7,0.1-37,0c-4.7,0-6.9,1.6-6.4,6.6c0.4,3.8,0,7.7,0,11.6v459.9c0,8.5,0,8.5-8.8,8.5
			c-3.8,0-7.5,0-11.3,0.2c-1.7,0.1-3.4,1.2-5.1,1.2c-2.4-0.1-4.8-1.4-7.1-1.2c-5.6,0.4-7.1-2.1-7.2-7.1
			c-1.4-58.6-2.9-117.2-4.7-175.7c-0.5-15.4-2-30.9-4-46.2c-1.3-10.6-6.5-20.3-14.6-27.3c-6.9-6.1-12.1-14.2-16.7-22.3
			c-4.4-7.6-2.7-11.9,4-17.5c7.5-6.4,12.9-14.1,15.1-23.7c2.8-12.1-1.4-21.6-11.4-25.5c-4.6-1.8-9.4-3.7-14.3-4.3
			c-12.6-1.5-20.7-8.4-24.9-19.6c-4.2-11.3-10.9-21.5-19.7-29.8c-8-7.6-12.1-16.7-10.9-28c0.5-3.7,0.2-7.4-1-10.9
			c-1.3-3.1-3.9-7-6.8-8s-4.6-2.5-5.3-4.4h-6.1c-0.2,1-0.5,2-0.9,2.9c-1.8,3.5-4.2,6.7-5.6,10.4c-2.3,6.1-3.4,12.7-6.2,18.5
			c-10.1,21.3-23.5,40.6-38.8,58.5c-2.5,3-7.5,4.2-11.5,5.7c-9.9,3.8-20,7.3-29.9,11.2c-1.4,0.7-2.6,1.9-3.3,3.3
			c-7.1,12.1-3.3,25.3,9.1,31.4c11.4,5.6,16.6,22.7,4.9,32.4c-17.4,14.5-27.8,33.7-29.1,56.9c-0.9,16.3-2.3,32.7-2.6,49
			c-0.8,49.8-1.2,99.6-1.7,149.4c-0.1,14.4,0,28.7,0,43.3H682v-6.7c0.1-51.4,0.1-102.8,0-154.2c-0.1-3-0.5-5.9-1.4-8.7
			c-1.5-5.1-3.8-5.7-7.9-2.4c-1.7,1.3-3,3-4.1,4.8c-4.2,7.5-7,15.3-7,24.1c0.1,23.6,0,47.2,0,70.8c0,2.9-0.3,5.7-0.5,9.3
			c-1.4-0.7-2.7-1.5-4-2.4c-7.1-5.6-14.2-11.1-21.2-16.8c-1-0.9-2.2-2.7-2-3.9c1.1-7.7-4.9-11-9-15.6l-4.1,3.4
			c-1-3.2-1.8-6.5-2.4-9.8c-1.8-12.7-3.5-25.5-5-38.2c-3.9-32.5-19.4-59.5-43-81.7c-19.6-18.3-44-29.1-69.5-37.3
			c-5.7-1.8-7.1-4-6.9-9.4c0.4-12.8,0.1-12.7,12.6-16.3c2-0.7,3.6-2.2,4.5-4.2c1-2.9,0.9-6.2,1.3-9.3c2.4-16.8,4.7-33.7,7.1-50.5
			c0.9-6.7,1.7-13.4,2.7-21h-16.4V301c4.8-0.4,8.4-0.3,11.8-1c11.8-2.5,17.1-12.9,11.7-22.8c-6.8-12.6-27.8-15.5-37.5-5.1
			c-1.6,1.9-3,3.8-4.3,5.9c-17.2-12.4-35.3-14.3-54.6-6.5c-1.6,0.6-3.4,0.5-5-0.3c-12.2-8.3-24.3-6.1-36.3,0.5
			c-4.6,2.5-8.4,6-7.6,11.7s5.1,8.8,10.6,9.8c5,1,10.2,1.4,16.5,2.2v32.2c-1.8,0.1-5,0.7-8.2,0.3c-5.4-0.6-7.1,1.3-7.1,6.6
			c0.1,22.4-0.1,44.7-0.2,67.1c0,9.8,0,9.8,9.4,12.4c12.3,3.5,12.2,3.5,12.3,15.9c0,3.6-1.5,5.2-4.4,6.8
			c-15.9,9-31.9,17.8-47.5,27.3c-18.6,11.5-31.3,28.6-42.9,46.4c-4.7,7.3-9.7,14.7-12.7,22.8c-7.2,19.1-7.9,39.2-7.5,59.3
			c0.2,3.3-1.1,6.6-3.6,8.8c-1.5,1.4-2,4-2.5,6.1c-0.3,1.9-0.3,3.9,0,5.8c1.2,8.9-1.2,15.7-9.6,20.7c-5.1,3-9,8-14.4,13.1
			c-0.2-4.1-0.4-7-0.4-9.9c0-23.6,0.2-47.2-0.1-70.8c-0.3-8.6-1.2-17.2-2.6-25.7c-1.2-7.6-6.5-10.7-14.1-8.1
			c-3.3,1.2-8.7,0.1-8.6,6.5c0.3,27.1,0.2,54.2,0.5,81.3c0,4.5-1.2,6.5-5.9,6.4c-12-0.2-24-0.3-36-0.1c-4.9,0.1-6.4-1.6-6.4-6.4
			c0.1-95.2,0.2-190.4,0.2-285.6c0-21.3-0.1-42.6,0-63.9c0-3.8-1.2-5.1-5.2-5.1c-28.3,0.1-56.6,0-84.9,0.1C96,266,96,266.2,96,278.9
			v325.3c-0.1,12.3-0.2,24.6,0,37c0,3.6-1.1,5.1-4.9,5c-6.8-0.2-13.6,0-20.4,0c-7.5,0-7.5,0-7.5-7.1V519.3H19.9v0.1H-2.5v235.9
			h1315.8c2.7,0,5.4,0.2,8.1,0.3l0.1-51.8C1320.9,700.5,1319.8,697.2,1320.1,693.9z M451.2,322.7c-0.2,3.6-0.8,5.8-5.5,5.6
			c-10.1-0.4-20.3-0.1-30.3-0.1v-33.1c5.8,14.3,17.8,19.2,31.2,21.6C450.9,317.5,451.5,319.1,451.2,322.7z M461.6,328.1
			c-4.1,0-2.9-3.7-3-6.1s-0.2-4.3,3-5.1c5.7-1.2,11.3-2.9,16.8-5c7.5-3.2,12.3-9.2,15.1-17c5.3,1.1,7.7,3.6,7.4,9.1
			c-0.4,7.7-0.1,15.4-0.1,24C487.6,328,474.6,328.2,461.6,328.1L461.6,328.1z"/>
		<path id="flag" class="st19" d="M824.7,226.1c0.2-1.8,0-3.5,0-5.3c0-25.2,0.1-50.3-0.1-75.5c0-1.8-1.4-4.9-2.5-5.1
			c-3.8-0.7-2.5,2.7-2.9,4.7c-0.7,2.7-0.8,5.8-2.3,7.9c-3.7,5.4-7.7,10.5-12,15.4c-8.5,10-21.3,12.9-32.1,19.3
			c-2.5,1.4-5,2.8-7.5,4.2l0.3,1.8c8.8,0.8,17.6,1.3,26.3,2.4c6.1,0.8,12.3,1.8,18,3.9c5.1,1.9,8.9,5.9,9.2,11.9s0.1,12,0,17.9
			c0,0.4,0,0.7-0.1,1.1h6.1C824.5,229.3,824.4,227.7,824.7,226.1z		">
<animateMotion  accumulate="none" additive="replace" calcMode="paced" dur="6s" fill="remove" repeatCount="indefinite" restart="always">
				</animateMotion>
		</path>
		<g id="window3">
			<rect x="1172" y="550.9" class="st2" width="19.6" height="15.9"/>
			<rect x="1205.6" y="550.9" class="st2" width="19.6" height="15.9">
			
				<animate  accumulate="none" additive="replace" attributeName="fill" attributeType="XML" calcMode="linear" dur="0.2s" fill="remove" repeatCount="indefinite" restart="always" values="#ffb800;#000000">
				</animate>
			</rect>
			<rect x="1171.7" y="581.4" class="st2" width="19.6" height="15.9"/>
			<rect x="1206.3" y="581.4" class="st2" width="19.6" height="15.9"/>
			<rect x="1172" y="615.4" class="st2" width="19.6" height="15.9"/>
			<rect x="1205.6" y="615.4" class="st2" width="19.6" height="15.9"/>
			<rect x="1171.7" y="645.9" class="st2" width="19.6" height="15.9">
			
				<animate  accumulate="none" additive="replace" attributeName="fill" attributeType="XML" calcMode="linear" dur="0.2s" fill="remove" repeatCount="indefinite" restart="always" values="#ffb800;#000000">
				</animate>
			</rect>
			<rect x="1206.3" y="645.9" class="st2" width="19.6" height="15.9"/>
		</g>
		<g id="window2">
			<rect x="1016.8" y="543.9" class="st2" width="19.6" height="15.9"/>
			<rect x="1050.4" y="543.9" class="st2" width="19.6" height="15.9">
			
				<animate  accumulate="none" additive="replace" attributeName="fill" attributeType="XML" calcMode="linear" dur="0.2s" fill="remove" repeatCount="indefinite" restart="always" values="#ffb800;#000000">
				</animate>
			</rect>
			<rect x="1016.5" y="574.4" class="st2" width="19.6" height="15.9"/>
			<rect x="1051.1" y="574.4" class="st2" width="19.6" height="15.9"/>
			<rect x="1016.8" y="608.3" class="st2" width="19.6" height="15.9"/>
			<rect x="1050.4" y="608.3" class="st2" width="19.6" height="15.9"/>
			<rect x="1016.5" y="638.9" class="st2" width="19.6" height="15.9">
			
				<animate  accumulate="none" additive="replace" attributeName="fill" attributeType="XML" calcMode="linear" dur="0.2s" fill="remove" repeatCount="indefinite" restart="always" values="#ffb800;#000000">
				</animate>
			</rect>
			<rect x="1051.1" y="638.9" class="st2" width="19.6" height="15.9"/>
		</g>
		<g id="window1">
			<rect x="121.9" y="304.5" class="st2" width="19.6" height="15.9">
			
				<animate  accumulate="none" additive="replace" attributeName="fill" attributeType="XML" calcMode="linear" dur="0.2s" fill="remove" repeatCount="indefinite" restart="always" values="#ffb800;#000000">
				</animate>
			</rect>
			<rect x="155.5" y="304.5" class="st2" width="19.6" height="15.9"/>
			<rect x="121.6" y="335" class="st2" width="19.6" height="15.9"/>
			<rect x="156.2" y="335" class="st2" width="19.6" height="15.9"/>
			<rect x="121.9" y="368.9" class="st2" width="19.6" height="15.9"/>
			<rect x="155.5" y="368.9" class="st2" width="19.6" height="15.9"/>
			<rect x="121.6" y="399.4" class="st2" width="19.6" height="15.9"/>
			<rect x="156.2" y="399.4" class="st2" width="19.6" height="15.9"/>
			<rect x="122.9" y="431.8" class="st2" width="19.6" height="15.9"/>
			<rect x="156.4" y="431.8" class="st2" width="19.6" height="15.9">
			
				<animate  accumulate="none" additive="replace" attributeName="fill" attributeType="XML" calcMode="linear" dur="0.2s" fill="remove" repeatCount="indefinite" restart="always" values="#ffb800;#000000">
				</animate>
			</rect>
			<rect x="122.5" y="462.3" class="st2" width="19.6" height="15.9"/>
			<rect x="157.1" y="462.3" class="st2" width="19.6" height="15.9"/>
			<rect x="122.9" y="496.3" class="st2" width="19.6" height="15.9"/>
			<rect x="156.4" y="496.3" class="st2" width="19.6" height="15.9"/>
			<rect x="122.5" y="526.8" class="st2" width="19.6" height="15.9">
			
				<animate  accumulate="none" additive="replace" attributeName="fill" attributeType="XML" calcMode="linear" dur="0.2s" fill="remove" repeatCount="indefinite" restart="always" values="#ffb800;#000000">
				</animate>
			</rect>
			<rect x="157.1" y="526.8" class="st2" width="19.6" height="15.9"/>
		</g>
	</g>
	<g>
		
			<image style="overflow:visible;opacity:0.75;enable-background:new    ;" width="537" height="108" xlink:href="276C0520.png"  transform="matrix(1.0214 0 0 1.0214 376.9291 287.7489)">
		</image>
		<g>
			<g>
				<path class="st20" d="M403.2,345.9c2.3,2.7,5.4,4,9.3,4s7-1.3,9.3-4s3.4-6.3,3.4-10.9v-27.7h8.4v28c0,7.2-2,12.7-5.9,16.6
					c-4,3.9-9,5.8-15.2,5.8s-11.3-1.9-15.2-5.8c-4-3.9-5.9-9.4-5.9-16.6v-28h8.4V335C399.8,339.6,400.9,343.2,403.2,345.9z"/>
				<path class="st20" d="M455.1,325.7V345c0,1.8,0.5,3.3,1.4,4.3c1,1.1,2.3,1.6,4,1.6s3.4-0.8,4.9-2.5l3.3,5.7
					c-2.8,2.5-5.9,3.8-9.3,3.8s-6.3-1.2-8.7-3.5c-2.4-2.4-3.6-5.5-3.6-9.6v-19.1h-4.8v-6.4h4.8v-11.9h8v11.9h10v6.4L455.1,325.7
					L455.1,325.7z"/>
				<path class="st20" d="M483.2,357.3h-8v-53.1h8v31.2l15.5-16.2H509l-14.5,15.1l15.5,23h-9.7L489,340.7l-5.8,5.9V357.3z"/>
				<path class="st20" d="M546.9,357.3h-7.3v-5.1c-3.1,3.8-7.4,5.7-12.7,5.7c-4,0-7.2-1.1-9.8-3.4c-2.6-2.2-3.9-5.2-3.9-9
					c0-3.7,1.4-6.5,4.1-8.4c2.8-1.9,6.5-2.8,11.2-2.8H539v-1.4c0-5.1-2.8-7.6-8.4-7.6c-3.5,0-7.2,1.3-11,3.9l-3.6-5
					c4.6-3.7,9.9-5.5,15.7-5.5c4.5,0,8.1,1.1,11,3.4c2.8,2.3,4.3,5.8,4.3,10.7L546.9,357.3L546.9,357.3z M538.9,343.2V340h-9
					c-5.8,0-8.7,1.8-8.7,5.4c0,1.9,0.7,3.3,2.1,4.3c1.4,1,3.4,1.5,6,1.5s4.8-0.7,6.7-2.1C538,347.5,538.9,345.6,538.9,343.2z"/>
				<path class="st20" d="M566.1,357.3h-8v-53.1h8V357.3z"/>
				<path class="st20" d="M578.8,357.3v-50h8.4V329H612v-21.7h8.4v50H612v-20.5h-24.8v20.5H578.8z"/>
				<path class="st20" d="M664.1,357.3h-7.3v-5.1c-3.1,3.8-7.4,5.7-12.7,5.7c-4,0-7.2-1.1-9.8-3.4c-2.6-2.2-3.9-5.2-3.9-9
					c0-3.7,1.4-6.5,4.1-8.4c2.8-1.9,6.5-2.8,11.2-2.8h10.4v-1.4c0-5.1-2.8-7.6-8.4-7.6c-3.5,0-7.2,1.3-11,3.9l-3.6-5
					c4.6-3.7,9.9-5.5,15.7-5.5c4.5,0,8.1,1.1,11,3.4c2.8,2.3,4.3,5.8,4.3,10.7V357.3z M656.1,343.2V340h-9c-5.8,0-8.7,1.8-8.7,5.4
					c0,1.9,0.7,3.3,2.1,4.3c1.4,1,3.4,1.5,6,1.5s4.8-0.7,6.7-2.1C655.2,347.5,656.1,345.6,656.1,343.2z"/>
				<path class="st20" d="M692.2,357.9c-5.3,0-9.9-1.8-13.7-5.4s-5.7-8.3-5.7-14.1s2-10.6,6-14.2s8.8-5.5,14.6-5.5
					c5.7,0,10.6,2,14.5,5.9l-4.7,5.8c-3.3-2.9-6.6-4.3-9.9-4.3c-3.3,0-6.2,1.1-8.7,3.3c-2.5,2.2-3.7,5.1-3.7,8.6s1.2,6.5,3.6,8.9
					c2.4,2.4,5.4,3.6,9,3.6s6.9-1.6,10.1-4.9l4.7,5.2C703.6,355.6,698.2,357.9,692.2,357.9z"/>
				<path class="st20" d="M724.5,357.3h-8v-53.1h8v31.2l15.5-16.2h10.3l-14.5,15.1l15.5,23h-9.7l-11.3-16.7l-5.8,5.9V357.3z"/>
				<path class="st20" d="M784.8,346c0,3.6-1.3,6.5-3.9,8.7c-2.6,2.2-6,3.3-10.1,3.3c-2.8,0-5.6-0.5-8.6-1.5s-5.6-2.4-7.9-4.2
					l3.9-6.2c4.4,3.3,8.7,5,12.9,5c1.8,0,3.2-0.4,4.3-1.3c1-0.8,1.6-1.9,1.6-3.2c0-1.9-2.5-3.6-7.6-5.2c-0.4-0.1-0.7-0.2-0.9-0.3
					c-7.9-2.1-11.9-5.7-11.9-10.7c0-3.5,1.4-6.4,4.1-8.5c2.7-2.1,6.3-3.2,10.7-3.2s8.5,1.3,12.4,3.9l-3,5.9c-3.1-2-6.5-3.1-10.1-3.1
					c-1.9,0-3.5,0.3-4.7,1s-1.8,1.7-1.8,3.1c0,1.2,0.6,2.1,1.9,2.7c0.9,0.4,2.1,0.8,3.6,1.2c1.6,0.4,2.9,0.8,4.1,1.1
					c1.2,0.4,2.4,0.8,3.5,1.3s2.3,1.1,3.6,2C783.5,339.7,784.8,342.3,784.8,346z"/>
				<path class="st20" d="M809.8,307.3H828v50h-8v-42.5h-10.2V307.3z"/>
				<path class="st20" d="M841.2,356.3c-1-1-1.5-2.3-1.5-3.8s0.5-2.7,1.5-3.8c1-1,2.3-1.5,3.8-1.5s2.7,0.5,3.8,1.5
					c1,1,1.6,2.3,1.6,3.8s-0.5,2.7-1.6,3.8c-1,1-2.3,1.6-3.8,1.6S842.3,357.4,841.2,356.3z"/>
				<path class="st20" d="M863.5,350.9c-3.4-4.7-5.1-11-5.1-18.9s1.7-14.2,5.1-18.9c3.4-4.7,8.5-7,15.3-7s11.9,2.3,15.3,7
					c3.4,4.7,5.1,11,5.1,18.9s-1.7,14.2-5.1,18.9c-3.4,4.7-8.5,7-15.3,7S866.9,355.6,863.5,350.9z M869.6,318.5c-2,3.4-3,7.9-3,13.5
					s1,10.1,3,13.5s5.1,5.2,9.3,5.2s7.3-1.7,9.2-5.1s2.9-7.9,2.9-13.6c0-5.6-1-10.1-2.9-13.6c-1.9-3.4-5-5.1-9.2-5.1
					C874.6,313.3,871.5,315.1,869.6,318.5z"/>
			</g>
		</g>
	</g>
</g>
<g id="Layer_2">
	<g>
		
			<image style="overflow:visible;opacity:0.75;" width="401" height="71" xlink:href="276C0521.png"  transform="matrix(1 0 0 1 438 358.6)">
		</image>
		<g>
			<text transform="matrix(1 0 0 1 446.4604 398.0601)" class="st20 st21 st22">15 - 17th March, 2019</text>
		</g>
	</g>
</g>
<g id="Layer_3">
	<g>
		
			<image style="overflow:visible;opacity:0.75;" width="734" height="114" xlink:href="276C0527.png"  transform="matrix(1 0 0 1 291 405.6)">
		</image>
		<g>
			<text transform="matrix(1 0 0 1 364.5464 444.803)"><tspan x="0" y="0" class="st20 st21 st22">Ravenshaw Convention Centre,</tspan><tspan x="-64.9" y="43.2" class="st20 st21 st22">Ravenshaw University, Cuttack, odisha</tspan></text>
		</g>
	</g>
</g>
</svg>
