<svg id="image" xmlns="http://www.w3.org/2000/svg" viewBox="0 0 560.02 560.03">
  <defs>
    <style>
      .cls-1 {
        opacity: 0.8;
      }

      .cls-2 {
        fill: #1b1464;
        stroke: #fff;
        stroke-miterlimit: 10;
        stroke-width: 2.76px;
      }
    </style>
  </defs>
  <title>wheel-small</title>
  <g id="wheel" class="cls-1">
    <path class="cls-2" d="M1279.55,276c12.62-3.89,12.27-14.87,14.41-24.17,1.31-5.72,1.33-11.72,2.34-17.52.83-4.8,2.42-9.45,3.4-14.22,2.08-10.08,4.32-20.14,5.76-30.32.44-3.11-1.32-6.64-2.44-9.86-1.94-5.64-1.47-9.36,3.6-12.35,11.65-6.86,17.71-18.08,24.23-29.25a225.26,225.26,0,0,1,16.82-24.59c6.33-8.14,11.9-16,10.72-27.34-.71-6.74,1.89-8.25,8.78-8.58a31.83,31.83,0,0,0,20.24-7.93c14.52-12.47,30-23.74,47.45-31.86,6.11-2.84,10-7.79,12.12-14,2.4-6.85,4.61-8,11.17-4.9s13.14,3.21,20.2.79c16.85-5.79,34.05-10.6,52-10.74,8.09-.07,13.87-3.37,18.88-9.23,4.67-5.45,6.19-5.27,11.14,0,5.27,5.59,12.18,7.64,19.5,8.93q18.84,3.33,37.55,7.22c7.09,1.49,14,3.73,21.11,5.37,5.11,1.19,9.88-.08,14.44-2.7,5.48-3.16,7.82-2.52,11.43,2.66,1.77,2.53,2.92,5.6,5,7.81a48.7,48.7,0,0,0,9.52,8.09c11.53,7.18,23.41,13.76,34.82,21.12a103.51,103.51,0,0,1,15,12.37,17.07,17.07,0,0,0,14.07,5.09c7.23-.6,9.39,1.15,9.23,8.4-.19,7.78,4.21,13.19,8.1,19,10.48,15.52,21.58,30.64,31.23,46.69,4,6.67,9.24,10.56,15.48,13.9,5.27,2.78,6.1,4.45,4.06,10.13a34.92,34.92,0,0,0-.17,23.14c5.69,17.57,11.29,35.19,10.93,54a20.07,20.07,0,0,0,9.22,17.9c1.33.91,2.88,1.5,4,3-12.57,4.78-12.45,15.62-14.54,25-1.33,5.88-1.38,12-2.4,18-.79,4.64-2.35,9.14-3.29,13.75-2.11,10.4-4.35,20.79-5.85,31.29-.41,2.94,1.4,6.3,2.52,9.35,1.74,4.75,1.3,9.14-3.1,11.67-12.3,7.12-18.46,19.09-25.44,30.74-6.45,10.73-14,20.8-21.59,30.8-3.68,4.86-5.55,9.85-5.17,15.87a42.9,42.9,0,0,1-.1,5.89c-.37,4.7-2.75,6.92-7.59,6.92-8.3,0-15.32,2.65-22,8.37-14.54,12.43-30,23.66-47.52,31.74-5.93,2.75-9.48,7.78-11.53,13.86-2.22,6.54-4.69,7.85-10.86,4.85-7.34-3.58-14.33-3.05-22-.39-16.38,5.67-33.2,10.12-50.67,10.2-8.12.05-13.83,3.53-18.82,9.39-4.45,5.22-6.11,5.07-10.81.08-5.4-5.72-12.41-7.87-19.92-9.16q-18.6-3.19-37.08-7.09c-7.25-1.53-14.27-4.4-21.59-5.27-4.49-.55-9.54.88-13.88,2.61-6.17,2.46-8.13,2.46-11.9-3-1.85-2.67-3.06-5.91-5.24-8.23a46.33,46.33,0,0,0-9.33-7.6c-11.13-6.87-22.63-13.16-33.61-20.26a117.66,117.66,0,0,1-16.2-13.24,17.23,17.23,0,0,0-14.12-4.93c-7,.56-9.17-1.2-9-8.15.2-7.78-4-13.26-7.94-19-10.51-15.49-21.67-30.57-31.29-46.64-4.1-6.85-9.38-10.83-15.84-14.18-4.94-2.57-5.85-4.51-3.93-9.82a35.61,35.61,0,0,0,.18-23.63c-5.58-17.43-11.2-34.87-10.81-53.53.16-7.89-3.08-13.89-9.39-18.34A34,34,0,0,1,1279.55,276Zm293.91,58.37c1,4.13,2.47,7.53,2.49,10.93a39,39,0,0,0,4.49,17.84c4.6,9.05,6,18.57,2.34,28.51a100.48,100.48,0,0,0-4.8,15.89c-1.31,7.05-1.25,14.37-2.66,21.39-2.9,14.4-3.5,28.9-3.08,43.5.2,6.86,2.75,9.84,8.81,9.9,15.62.15,30.41-4.11,44.74-9.82,6.68-2.67,7.62-6.42,4.94-13q-4.11-10.15-8.2-20.3c-.19-.45-.45-.88-.65-1.32-3.63-7.78-7.45-15.47-10.81-23.35-3.42-8.09-6.32-16.4-9.62-24.53-6-14.81-12.37-29.47-18.22-44.36A20.25,20.25,0,0,0,1573.46,334.36Zm-33.81-119.55,1-1c-.82-3.27-2.34-6.54-2.32-9.8,0-6.78-1.83-12.75-4.79-18.75-4.39-8.94-5.64-18.35-2-28.07a87.11,87.11,0,0,0,4.58-14.95c1.32-7.22,1.33-14.68,2.74-21.87A191.72,191.72,0,0,0,1542,76.87c-.22-6.82-2.49-10-8.06-10.14-16.12-.35-31.38,4-46.1,10.11-6.2,2.59-7.06,6.49-4.25,12.87,1.82,4.17,4.28,8.05,6,12.23,3.53,8.51,6.59,17.24,10.17,25.72,3.2,7.64,7,15,10.12,22.69,5.66,14.07,10.93,28.3,16.47,42.43a101.12,101.12,0,0,0,6.16,13.85c1.78,3.09,4.67,5.48,7.09,8.18Zm48.54.84,1.44.56a36.34,36.34,0,0,0,2.93-2.17,30.43,30.43,0,0,0,9-14.84c3.32-12.09,9.75-21.58,21.25-27.72,10.76-5.74,21.52-12,30.93-19.71,11.25-9.24,21.12-20.23,31.52-30.52,6.92-6.86,6.3-12.49-2-17.83-5.85-3.77-11.82-7.35-17.8-10.9-4.59-2.74-9.39-5.13-13.9-8-5.85-3.68-11.06-2.59-14,3.82s-5.41,12.94-7.9,19.49c-5.75,15.1-11.14,30.33-17.13,45.32-7.54,18.9-15.58,37.61-23.3,56.45-.73,1.83-.65,4-1,6Zm-62.09,117.7-1.42-.55a26.63,26.63,0,0,0-11.93,17c-3.29,12.09-9.75,21.58-21.23,27.74-10.76,5.76-21.52,12-30.94,19.7-11.14,9.12-20.89,20-31.17,30.18-7.37,7.3-6.73,13,2,18.45q8.83,5.57,17.83,10.88c4.45,2.64,9.1,4.95,13.48,7.72,5.86,3.7,11.06,2.62,14-3.79s5.42-12.93,7.92-19.45c5.75-15.09,11.14-30.33,17.13-45.32,7.55-18.9,15.58-37.61,23.29-56.45C1525.85,337.56,1525.79,335.38,1526.1,333.35Zm-30.73-86.23a18.21,18.21,0,0,0,3.21-1.83c.32-.25.16-1.77-.27-2.17-2.84-2.65-5.45-5.92-8.82-7.54-7.23-3.51-14.89-6.06-22.3-9.18a10.56,10.56,0,0,1-4.61-3.34c-2.65-3.89-4.88-8.09-7.25-12.17-4.09-7-7.31-14.81-12.41-21-12.21-14.8-25.2-28.94-38.08-43.15-4.45-4.92-10.21-4.31-13.94,1.36-7.59,11.54-15.37,22.93-20.48,36-2.56,6.56-1.68,10.76,5,13.24,3,1.12,6.17,2,9.13,3.24,8.41,3.57,16.68,7.48,25.15,10.89s16.91,6.11,25.25,9.45c11.21,4.48,22.32,9.24,33.48,13.89,1.33.56,2.59,1.34,3.89,2,6.69,3.24,13.37,6.49,20.07,9.69a11.92,11.92,0,0,0,2.95.64Zm221.11,159.27c2.48-2,5.49-3.55,7.13-6,7.59-11.35,15.2-22.66,20.27-35.58,2.59-6.62,1.71-10.73-5.1-13.21-3-1.11-6.16-2-9.13-3.26-8.41-3.56-16.69-7.44-25.16-10.86-8.19-3.34-16.62-6-24.82-9.3-11.52-4.6-22.93-9.49-34.37-14.28-1.19-.5-2.28-1.24-3.44-1.8-6.68-3.25-13.36-6.5-20.08-9.68a3.76,3.76,0,0,0-2.36-.33,29.69,29.69,0,0,0-3.84,1.56c.6,1.2.94,2.68,1.84,3.57,7.55,7.49,17.21,11,26.89,14.59,2.63,1,5.66,2.13,7.35,4.18,2.85,3.48,4.79,7.73,7.1,11.68,4.35,7.45,7.81,15.66,13.21,22.23,12.07,14.69,25.07,28.61,37.87,42.71,1.39,1.56,3.77,2.21,6.64,3.79Zm-121-69.51-2.09.81c-1.65,4.3-.6,8.36,1.1,12.53,5.78,14.17,11.38,28.4,17.14,42.58,2.13,5.27,4.66,10.37,6.73,15.66,3.26,8.27,6.27,16.65,9.4,25,.17.46.55.83.73,1.27,3.52,7.66,7.26,15.22,10.48,23,2.5,6.05,4,7.09,10.2,4.84a25.62,25.62,0,0,0,5.28-2.46c10.32-6.67,20.63-13.39,30.83-20.26,4.52-3,5.83-6.67,2.88-11.38a69.42,69.42,0,0,0-12.52-15.36c-9.88-8.63-20.27-16.74-30.88-24.46a201.52,201.52,0,0,0-25.75-16.21c-8-4.09-12.77-9.74-15.42-18.29C1601.77,348.12,1598.28,342.61,1595.52,336.88Zm-75-124.71c2-5.77.84-9.95-1.1-14.18-3.07-6.67-6.17-13.34-8.78-20.16-5.63-14.56-11-29.24-16.47-43.86-.34-.91-1-1.7-1.36-2.6-1.6-3.69-3.19-7.39-4.72-11.12-.74-1.8-1.2-3.73-2-5.49-3.52-7.67-7.33-15.21-10.62-23-3-7-4.3-7.78-11.24-5a29.12,29.12,0,0,0-5.21,2.6q-14.82,9.69-29.58,19.55c-5,3.39-6.34,6.88-3.07,12.09a66.74,66.74,0,0,0,12.35,14.91c10,8.71,20.48,17,31.28,24.76a296.46,296.46,0,0,0,27.18,16.72,28.23,28.23,0,0,1,12.42,13.81c2.41,5.51,4.65,11.09,7.18,16.54C1517.35,209.2,1518.76,210.24,1520.48,212.17Zm224.31,47.56.12-.85c3.71-.25,7.44-.38,11.13-.79,9.5-1,12.18-4.31,11-13.85-1.59-12.82-3.53-25.57-7.89-37.85-2.35-6.64-4.26-8.48-10.93-6.08-4.39,1.57-8.37,4.23-12.69,6-14.48,6.07-29.31,11.37-43.47,18.13-12.19,5.82-25.59,8.89-36.8,16.88a3,3,0,0,1-1.85.52c-8-.55-12.48,7.23-19.68,8.67a3.11,3.11,0,0,0-1.61,2.59,3,3,0,0,0,2.42,1.67c3.35-.79,6.86-1.46,9.88-3.06,8-4.27,15.42-9.34,25.33-4.78a78.12,78.12,0,0,0,21.16,6.67c17.88,2.58,35.92,4.12,53.9,6.11Zm-375.36,29.51-.12.83c-3.71.26-7.44.4-11.13.81-9.45,1-12.08,4.35-11,13.9,1.59,13,3.64,25.87,8,38.31,2.09,5.92,4,7.78,9.93,5.8,4.39-1.49,8.38-4.18,12.69-6,13.3-5.55,26.7-10.82,40-16.37,6.58-2.74,13-5.78,19.5-8.76,7.55-3.47,15.07-7,22.6-10.53a2,2,0,0,1,.94-.2c8,.56,12.47-7.23,19.68-8.67a3.1,3.1,0,0,0,1.55-2.61,3,3,0,0,0-2.48-1.62c-3.34.79-6.83,1.49-9.83,3.07-7.86,4.12-15.09,9.33-24.88,4.94-6.87-3.08-14.22-5.77-21.61-6.84-17.89-2.55-35.95-4.1-53.92-6.06Zm-16.92-38.83c-.15,7.59,2.15,10.71,8.74,11.47a72.13,72.13,0,0,0,15,.3c13.36-1.27,26.79-2.36,40-4.75,8.76-1.59,17.69-2.71,26-7.22,7-3.77,14.47-3.24,22.11,1.27,6.21,3.68,13.8,5.08,20.92,7,1.65.44,3.85-1.23,5.79-1.93-1.53-2.13-2.89-5.94-4.6-6.12-6.85-.67-12.42-4-18.46-6.71-11.61-5.18-23.66-9.33-35.49-14q-20.24-8-40.39-16.06c-6.59-2.65-13.34-5-19.52-8.4-6.93-3.8-10.43-3.12-12.29,4.63-2.55,10.79-4.51,21.72-6.64,32.6-.57,2.92-.8,5.87-1.11,7.93ZM1761.76,299c.18-8.18-2.11-11.19-9.06-12a65.8,65.8,0,0,0-14-.3c-13.68,1.33-27.44,2.42-41,4.86-8.6,1.55-17.47,2.45-25.52,7.15-5.8,3.4-12.63,3.46-19.21.48-6.42-2.91-12.94-5.67-19.56-8.1a17,17,0,0,0-7.64-.6c-.9.1-2.48,2.72-2.15,3.46.81,1.8,2.48,4.44,3.93,4.51,7.22.47,13,4.23,19.39,7,11.36,5,23.1,9.05,34.64,13.6q20,7.88,40,15.91c6.72,2.72,13.65,5.1,20,8.55,7.38,4,10.72,3.19,12.66-5.28,2.46-10.82,4.42-21.75,6.54-32.64.51-2.55.8-5.16,1-6.59ZM1528.12,483.72c.11-.44.21-.89.32-1.34,1.45,0,2.91,0,4.39,0,6.36-.2,8.26-2.22,8.57-8.67,1.1-23.26-2.14-46.08-6.89-68.72-1.1-5.23-3.42-10.19-4.73-15.39-2.11-8.34-3-16.45,2.19-24.53,2.59-4,3.17-9.45,4-14.39.26-1.5-1.57-3.37-2.44-5.06-1.35,1.52-3.22,2.82-4,4.61-1.54,3.73-2.19,7.84-3.76,11.57-2.87,6.9-6.43,13.53-9.17,20.47-3.33,8.47-6,17.18-9.17,25.73-2.87,7.78-6,15.53-9,23.26-4.52,11.53-9.21,23-13.54,34.58-1.45,3.9-.17,7.46,4.12,8.55C1502.07,477.66,1515.1,480.66,1528.12,483.72Zm58.29-418.4-.32,1.33c-10.63-.39-12.85,1.16-13.21,8.89-1.1,23.1,2.16,45.75,6.86,68.23,1.09,5.23,3.33,10.21,4.7,15.4,2.27,8.54,3,16.77-2.2,25-2.55,4-3.11,9.49-3.94,14.4-.23,1.41,1.74,3.2,2.7,4.81,1.26-1.46,3-2.71,3.66-4.41,1.2-3,1.44-6.37,2.63-9.38,6.37-16.18,13-32.27,19.38-48.42,3.07-7.72,5.94-15.52,9-23.25,4.53-11.52,9.28-23,13.6-34.55,1.68-4.52,0-7.78-4.29-8.86C1612.15,71.28,1599.26,68.36,1586.41,65.32ZM1750.2,185.16a23.11,23.11,0,0,0-1-3.66c-2.48-4.76-4.85-9.6-7.58-14.22-3.4-5.74-7.37-11.14-10.63-17-5.31-9.45-14.2-11.33-22.13-3.92a258.51,258.51,0,0,0-18.73,19.16c-13.57,15.67-25.4,32.57-34,51.65-1.89,4.17-3.67,9.55-9.25,9.74-7.55.26-12.57,5.4-18.57,8.63-1,.52-1.34,2.22-2,3.38a18.73,18.73,0,0,0,4,.8c.86,0,1.71-.82,2.58-1.23,7.82-3.76,15.54-7.74,23.49-11.18,10.48-4.53,21.18-8.53,31.71-12.95,5.66-2.38,11.1-5.31,16.76-7.69,13.39-5.63,26.9-11,40.25-16.74C1747.25,189,1748.77,186.53,1750.2,185.16ZM1396.46,407.43c2.42-1.34,6.52-2.78,9.52-5.46a191.69,191.69,0,0,0,17.13-17.31c13.82-15.89,25.94-33,34.84-52.25,1.74-3.77,4.71-8.63,8.06-9.6,6.77-1.95,13.09-4.19,18.55-8.63a31.69,31.69,0,0,0,3.48-4c-2,0-4.3-.63-6.07.07-5.48,2.18-10.82,4.85-16.21,7.33-.74.34-1.5.63-2.2,1-6.83,3.18-13.55,6.61-20.5,9.5-14.16,5.88-28.49,11.34-42.66,17.23-10.29,4.27-20.41,9-30.65,13.41-5.37,2.31-6.53,5.74-3.51,10.85,5.87,9.95,11.66,19.95,17.56,29.88C1386.26,403.65,1389.6,406.79,1396.46,407.43Zm124.17-128.82c.22,1.6,0,3.54.77,4.73,2.46,3.64,2.5,7,.78,11-1.35,3.12.32,5.88,3.72,5.85,5.53-.05,10.18,1.15,13.58,5.91.48.68,1.77.71,2.57,1.22,3.21,2,6.75,3.67,9.47,6.22,4.34,4.05,7.68,3.94,10.13-1.56,1.88-4.23,4.15-5.77,8.7-3.78,1.35.59,4.9-.4,5.12-1.27,1.52-5.93,5.4-6.92,10.67-6.75,4.94.16,6.09-1.49,4.94-6.4-.9-3.76-.28-6.62,2.74-9.19,1.2-1,2.48-3.13,2.26-4.5-.84-5.19-1.72-10.51-3.68-15.31-1.35-3.3-2-5.9-.55-9.22s.66-6.7-3.43-6.8c-5.48-.13-10.18-1.14-13.57-5.93-.48-.67-1.77-.71-2.58-1.21-3.2-2-6.74-3.68-9.45-6.23-4.34-4.05-7.69-3.93-10.14,1.52-1.88,4.19-4.11,5.85-8.69,3.83-1.34-.6-4.87.42-5.1,1.32-1.65,6.25-6,6.9-11.24,6.67-4-.19-5.54,1.95-4.61,6,.39,1.72,1.19,4.38.39,5.18C1517.77,265.61,1516.73,271.65,1520.63,278.61Z" transform="translate(-1277.04 5.5)"/>
    <path class="cls-2" d="M1556,294.83c-10.27-.2-21.33-9.65-21.13-18,.31-12.55,11-22.89,23.36-22.63,10.29.21,21.33,9.63,21.14,18C1579.08,284.73,1568.4,295.08,1556,294.83Z" transform="translate(-1277.04 5.5)"/>
    <animateTransform attributeName="transform"
                              attributeType="XML"
                              type="rotate"
                              from="0 280 280"
                              to="360 280 280"
                              dur="10s"
                              repeatCount="indefinite" />

  </g>
</svg>
